<svg width="45" height="45" viewBox="0 0 45 45" fill="none" xmlns="http://www.w3.org/2000/svg">
<path d="M41.7734 22.2222V19.4722H39.0234V13.9722C39.0216 12.514 38.4416 11.1161 37.4105 10.0851C36.3795 9.05403 34.9816 8.47399 33.5234 8.47217H30.7734V2.97217H28.0234V8.47217H17.0234V2.97217H14.2734V8.47217H11.5234C10.0653 8.47399 8.66742 9.05403 7.63636 10.0851C6.6053 11.1161 6.02526 12.514 6.02344 13.9722V19.4722H3.27344V22.2222H6.02344V29.0972H3.27344V31.8472H6.02344V35.9722C6.02526 37.4303 6.6053 38.8282 7.63636 39.8592C8.66742 40.8903 10.0653 41.4703 11.5234 41.4722H33.5234C34.9816 41.4703 36.3795 40.8903 37.4105 39.8592C38.4416 38.8282 39.0216 37.4303 39.0234 35.9722V31.8472H41.7734V29.0972H39.0234V22.2222H41.7734ZM36.2734 35.9722C36.2727 36.7013 35.9827 37.4003 35.4672 37.9159C34.9516 38.4315 34.2526 38.7214 33.5234 38.7222H11.5234C10.7943 38.7214 10.0953 38.4315 9.5797 37.9159C9.06413 37.4003 8.77417 36.7013 8.77344 35.9722V13.9722C8.77417 13.243 9.06413 12.544 9.5797 12.0284C10.0953 11.5129 10.7943 11.2229 11.5234 11.2222H33.5234C34.2526 11.2229 34.9516 11.5129 35.4672 12.0284C35.9827 12.544 36.2727 13.243 36.2734 13.9722V35.9722Z" fill="white"/>
</svg>
