<svg width="100" height="77" viewBox="0 0 100 77" fill="none" xmlns="http://www.w3.org/2000/svg">
<g clip-path="url(#clip0_108_905)">
<path d="M78.7124 40.4331C80.8626 37.3025 80.5729 34.2058 78.4895 31.1878C78.1105 30.6544 77.9184 30.0085 77.9436 29.3523C77.9436 25.5011 76.8295 22.2467 73.0081 20.6363C72.373 20.3773 72.4399 19.9156 72.3619 19.5103C71.5263 14.7807 69.2647 12.3708 64.5631 11.301C64.1732 11.2109 63.8167 11.2222 63.605 10.7492C62.0007 7.1908 59.026 5.95209 55.394 5.91831C55.1728 5.92662 54.9533 5.87582 54.7577 5.77104C54.5621 5.66625 54.3973 5.51119 54.2799 5.32148C51.0712 1.46274 47.2833 0.71201 42.9159 3.0693C42.4814 3.30578 42.2029 3.45217 41.8018 2.95669C41.2172 2.26071 40.499 1.69173 39.6908 1.28408C38.8825 0.876443 38.0009 0.638604 37.0992 0.584929C36.1974 0.531253 35.2943 0.662857 34.4443 0.971791C33.5943 1.28072 32.815 1.76058 32.1536 2.38238C30.6273 4.00395 29.58 3.79 27.7863 3.02425C19.709 -0.432853 11.7319 4.29674 10.551 13.1591C10.473 13.7897 10.1276 13.9361 9.70425 14.1726C8.03237 14.9946 6.66629 16.3381 5.80767 18.0049C4.94905 19.6716 4.6434 21.5733 4.93585 23.4291C5.01711 23.7641 4.98821 24.1167 4.85354 24.4337C4.71886 24.7506 4.48572 25.0146 4.1894 25.1858C0.757932 27.6294 -0.712694 34.9377 3.72147 38.2597C4.30251 38.6629 4.76604 39.216 5.06386 39.8616C5.36168 40.5072 5.48291 41.2217 5.41492 41.9308C5.48177 47.8765 9.9605 52.1669 16.1215 50.8382C16.5606 50.772 16.9957 50.6818 17.425 50.5679C18.0267 50.3877 18.3609 50.4553 18.6283 51.1422C21.0459 57.3132 26.5608 60.7478 34.4153 59.4865C36.3092 59.1825 36.4652 58.9685 36.4652 57.0654C36.4652 51.0071 36.4652 44.9487 36.4652 38.8903C36.4652 38.3273 36.3872 37.843 37.0446 37.4264C37.742 37.0574 38.2846 36.4468 38.5731 35.7065C38.8616 34.9662 38.8766 34.1456 38.6155 33.395C38.3881 32.6775 37.9428 32.0508 37.3427 31.604C36.7426 31.1572 36.0184 30.9131 35.2731 30.9063C34.535 30.9165 33.8179 31.1567 33.2197 31.594C32.6216 32.0313 32.1714 32.6445 31.9308 33.3499C31.6911 34.1064 31.7227 34.924 32.0202 35.6592C32.3177 36.3944 32.8619 37.0002 33.5574 37.3701C33.7575 37.4782 33.9233 37.6412 34.0357 37.8405C34.1481 38.0397 34.2024 38.2671 34.1924 38.4962C34.1924 44.2843 34.1924 50.0724 34.1924 55.8605C34.1924 56.5812 34.0142 56.829 33.2677 56.9191C26.9841 57.7073 22.5054 54.8583 20.6114 48.7999C20.1769 47.4036 19.8092 47.2121 18.3832 47.5837C17.4808 47.809 16.5783 48.0567 15.6647 48.2031C11.0412 48.9013 7.86597 46.3563 8.12221 41.638C8.23362 39.1606 7.81026 37.6516 5.55975 36.2665C2.72991 34.5211 2.90816 29.51 5.55975 27.5393C6.52903 30.3433 8.27818 32.2576 11.3309 32.5617C11.6944 32.5686 12.0513 32.6619 12.3726 32.8341C12.6939 33.0062 12.9706 33.2524 13.1803 33.5526C13.6646 34.1489 14.3306 34.5662 15.0744 34.7394C15.8182 34.9126 16.5978 34.8318 17.2914 34.5098C17.9434 34.2123 18.4883 33.7182 18.8514 33.0951C19.2144 32.4721 19.3778 31.7508 19.319 31.0302C19.2364 30.2672 18.917 29.5503 18.4067 28.9819C17.8964 28.4135 17.2213 28.0229 16.4781 27.8659C15.7525 27.7373 15.0054 27.8421 14.3418 28.1653C13.6783 28.4885 13.1318 29.0139 12.7792 29.6676C12.5341 30.0843 12.5341 30.7937 11.6651 30.4446C10.6882 30.1498 9.81011 29.5896 9.12646 28.8251C8.44282 28.0607 7.97984 27.1212 7.78797 26.1092C7.61173 24.9193 7.50756 23.7196 7.47602 22.5169C7.3092 21.0712 7.6698 19.6137 8.49022 18.4175C9.31064 17.2213 10.5345 16.3686 11.9325 16.0194C12.1379 15.9768 12.3328 15.893 12.5056 15.7731C12.6785 15.6531 12.8259 15.4994 12.9391 15.321C13.0522 15.1426 13.1289 14.9431 13.1646 14.7343C13.2003 14.5254 13.1943 14.3115 13.1469 14.105C12.9995 12.5802 13.3101 11.0458 14.0381 9.70198C16.4446 4.99492 21.681 3.26073 26.9953 5.41157C28.9895 6.22236 28.9784 6.22235 28.2431 8.14797C28.0817 8.51393 27.944 8.89008 27.8309 9.27407C27.7546 9.72962 27.5868 10.1645 27.3377 10.5519C27.0885 10.9393 26.7635 11.2709 26.3825 11.5263C25.8307 11.9168 25.4221 12.481 25.2206 13.1307C25.0191 13.7805 25.0359 14.4794 25.2684 15.1185C25.4558 15.8143 25.8587 16.4313 26.418 16.8791C26.9773 17.3269 27.6637 17.582 28.3768 17.6072C29.0898 17.6875 29.8096 17.5338 30.4295 17.1688C31.0495 16.8038 31.5368 16.2468 31.8194 15.5802C32.1192 14.8988 32.1922 14.1375 32.0275 13.4105C31.8628 12.6836 31.4692 12.0303 30.9058 11.5488C30.527 11.1997 29.9922 11.0195 30.2373 10.2763C30.8684 8.08072 32.0151 6.07181 33.5797 4.42061C34.0431 3.93455 34.6113 3.5633 35.2401 3.33585C35.8688 3.10839 36.5411 3.03089 37.2044 3.10938C37.8677 3.18786 38.5041 3.42023 39.0638 3.78832C39.6236 4.15642 40.0917 4.65029 40.4315 5.23139C41.345 7.03314 41.7238 7.12323 43.2724 5.88453C46.7039 3.13686 50.4919 3.77873 52.7981 7.53988C52.9466 7.86281 53.1929 8.12961 53.5013 8.30168C53.8098 8.47376 54.1644 8.54219 54.5138 8.49706C55.0888 8.45767 55.6657 8.45767 56.2407 8.49706C57.4579 8.45795 58.6512 8.84433 59.6193 9.59104C60.5874 10.3378 61.2711 11.3991 61.555 12.596C61.6615 12.9322 61.8737 13.2241 62.1592 13.4273C62.4447 13.6305 62.788 13.734 63.1371 13.7221C67.7829 14.3527 69.6212 16.3797 69.8217 21.1543C69.7876 21.5584 69.9122 21.9599 70.1687 22.2718C70.4251 22.5837 70.7928 22.781 71.1921 22.821C72.1674 22.9851 73.061 23.4723 73.7323 24.2061C74.3688 24.961 74.8375 25.8454 75.1066 26.7993C75.3757 27.7532 75.439 28.7544 75.292 29.7352C75.2407 30.216 75.2884 30.7024 75.4322 31.1636C75.576 31.6249 75.8128 32.0511 76.1276 32.4153C76.8758 33.2067 77.3549 34.2187 77.4951 35.3042C77.6354 36.3896 77.4295 37.492 76.9075 38.4511C75.5228 36.4907 73.5376 35.0462 71.2589 34.3409C70.7353 34.1832 70.8022 33.8229 70.7576 33.4062C70.7323 32.9123 70.603 32.4295 70.3785 31.99C70.154 31.5505 69.8394 31.1644 69.4557 30.8575C69.0719 30.5506 68.6278 30.3299 68.153 30.2102C67.6782 30.0904 67.1836 30.0744 66.7022 30.1631C66.2205 30.2464 65.7616 30.4318 65.3558 30.7071C64.95 30.9823 64.6064 31.3413 64.3475 31.7603C64.0887 32.1793 63.9205 32.649 63.8539 33.1384C63.7874 33.6277 63.8241 34.1258 63.9615 34.5999C64.0901 35.0777 64.3191 35.522 64.6328 35.9023C64.9466 36.2826 65.3378 36.5901 65.7797 36.8039C66.2217 37.0176 66.704 37.1326 67.1939 37.1409C67.6838 37.1492 68.1697 37.0507 68.6185 36.8521C68.9579 36.7036 69.3238 36.6271 69.6936 36.6271C70.0634 36.6271 70.4293 36.7036 70.7687 36.8521C72.3063 37.4134 73.6567 38.4006 74.6654 39.701C75.6741 41.0013 76.3005 42.5623 76.473 44.2055C77.264 49.0477 73.7657 54.5543 69.0976 56.1758C68.4193 56.3876 67.7267 56.5494 67.0253 56.6601C66.4571 56.7839 66.1452 56.6601 66.0672 55.9394C66.0115 54.9381 65.6922 53.9701 65.1425 53.1354C64.8967 52.8453 64.7429 52.4872 64.7012 52.1076C64.6595 51.7281 64.7317 51.3446 64.9085 51.0071C65.0795 50.5484 65.1498 50.0576 65.1143 49.5688C65.0789 49.08 64.9387 48.6048 64.7033 48.1762C64.468 47.7477 64.1433 47.376 63.7516 47.087C63.3599 46.798 62.9107 46.5986 62.4352 46.5027C61.9699 46.3962 61.4881 46.3861 61.0189 46.4729C60.5496 46.5598 60.1027 46.7418 59.705 47.0081C59.3072 47.2743 58.967 47.6193 58.7048 48.0221C58.4426 48.4249 58.2638 48.8772 58.1793 49.3517C58.0753 49.814 58.0714 50.2935 58.1679 50.7574C58.2644 51.2213 58.459 51.6586 58.7384 52.0394C59.0178 52.4201 59.3753 52.7353 59.7865 52.9634C60.1976 53.1914 60.6527 53.3269 61.1205 53.3606C62.4575 53.3606 62.8808 54.0926 63.2596 55.0948C64.3737 58.0114 63.5047 60.2185 60.6303 61.4122C58.0458 62.4258 55.2311 62.6834 52.5084 62.1554C49.1661 61.6149 47.8403 60.0158 47.8292 56.5249C47.8292 48.0905 47.8292 39.6335 47.8292 31.2329C47.8021 30.9747 47.8524 30.7142 47.9736 30.4853C48.0948 30.2564 48.2812 30.0696 48.5088 29.9491C49.1385 29.5984 49.636 29.0473 49.9241 28.3814C50.2121 27.7156 50.2747 26.9723 50.102 26.2668C49.9506 25.5109 49.5559 24.827 48.9795 24.3218C48.403 23.8166 47.6773 23.5185 46.9156 23.4741C46.1775 23.4278 45.4441 23.6215 44.8227 24.0267C44.2012 24.4319 43.7244 25.0275 43.4618 25.7263C43.1769 26.4348 43.1316 27.2187 43.3331 27.956C43.5346 28.6933 43.9715 29.3425 44.576 29.8027C45.0105 30.1406 45.5452 30.287 45.5341 31.0752C45.5341 39.7236 45.5341 48.3833 45.5341 57.0429C45.5341 60.8491 47.2387 63.4729 50.9153 64.4301C54.2208 65.2954 57.7035 65.1742 60.9423 64.081C61.9998 63.7975 62.9843 63.2865 63.8284 62.583C64.6726 61.8794 65.3564 60.9999 65.8332 60.0045C66.0895 59.419 66.5017 59.3176 67.081 59.2613C69.0489 59.0135 70.9402 58.3369 72.6241 57.2783C74.3081 56.2196 75.7447 54.8042 76.8347 53.1296C77.9247 51.4551 78.6421 49.5614 78.9374 47.5793C79.2328 45.5972 79.099 43.574 78.5452 41.6492C78.4627 41.45 78.4346 41.232 78.464 41.018C78.4934 40.8041 78.5792 40.602 78.7124 40.4331V40.4331ZM34.1479 34.3972C34.1365 34.2306 34.1619 34.0635 34.2223 33.9081C34.2827 33.7526 34.3766 33.6127 34.4971 33.4984C34.6176 33.3842 34.7618 33.2984 34.9191 33.2474C35.0764 33.1964 35.243 33.1814 35.4068 33.2035C35.5756 33.1878 35.7457 33.2112 35.9042 33.2719C36.0627 33.3326 36.2054 33.4291 36.3214 33.554C36.4374 33.6788 36.5237 33.8288 36.5738 33.9925C36.6238 34.1562 36.6362 34.3293 36.6101 34.4985C36.6101 35.3093 36.0641 35.6246 35.3177 35.7372C35.1498 35.7347 34.9843 35.6974 34.8313 35.6275C34.6783 35.5577 34.5412 35.4568 34.4283 35.3312C34.3155 35.2055 34.2294 35.0578 34.1755 34.8971C34.1215 34.7365 34.1007 34.5663 34.1144 34.3972H34.1479ZM15.843 30.1969C16.0084 30.1806 16.1753 30.202 16.3315 30.2594C16.4876 30.3169 16.6291 30.4089 16.7456 30.5287C16.862 30.6485 16.9504 30.7932 17.0044 30.9521C17.0583 31.1109 17.0764 31.28 17.0574 31.4468C17.0759 31.617 17.0558 31.7892 16.9985 31.9504C16.9413 32.1115 16.8485 32.2574 16.7271 32.3768C16.6057 32.4962 16.459 32.5861 16.298 32.6396C16.1371 32.6931 15.9663 32.7088 15.7984 32.6855C15.6478 32.7036 15.4951 32.687 15.3518 32.6368C15.2084 32.5866 15.0782 32.5042 14.971 32.3958C14.8637 32.2874 14.7822 32.1558 14.7326 32.0109C14.6829 31.8661 14.6664 31.7117 14.6843 31.5594C14.6487 31.3922 14.6512 31.2189 14.6918 31.0528C14.7323 30.8867 14.8097 30.7321 14.9182 30.6008C15.0266 30.4694 15.1633 30.3648 15.3177 30.2948C15.4722 30.2248 15.6404 30.1913 15.8096 30.1969H15.843ZM28.633 15.4676C28.4654 15.4924 28.2943 15.4783 28.1329 15.4263C27.9715 15.3742 27.8239 15.2857 27.7015 15.1673C27.579 15.049 27.4848 14.9039 27.4262 14.7433C27.3675 14.5826 27.3459 14.4105 27.3629 14.2401C27.3417 14.0714 27.3587 13.8999 27.4124 13.7387C27.4662 13.5775 27.5554 13.4307 27.6733 13.3094C27.7913 13.188 27.9349 13.0952 28.0934 13.038C28.2519 12.9807 28.4211 12.9605 28.5885 12.9789C28.7536 12.9631 28.9202 12.9826 29.0773 13.0362C29.2345 13.0897 29.3788 13.1762 29.5007 13.2898C29.6226 13.4035 29.7195 13.5419 29.785 13.6959C29.8505 13.8499 29.8831 14.0162 29.8808 14.1838C29.8889 14.3555 29.8612 14.5271 29.7995 14.6872C29.7378 14.8474 29.6435 14.9928 29.5227 15.1138C29.402 15.2348 29.2574 15.3288 29.0983 15.3898C28.9393 15.4507 28.7694 15.4772 28.5996 15.4676H28.633ZM67.3707 34.8927C66.602 34.7913 66.1117 34.4085 66.1006 33.6089C66.0753 33.4374 66.0896 33.2623 66.1423 33.0972C66.1949 32.9322 66.2846 32.7817 66.4043 32.6574C66.524 32.5332 66.6705 32.4386 66.8323 32.3809C66.9941 32.3233 67.167 32.3042 67.3373 32.3252C67.5063 32.3031 67.6781 32.3205 67.8395 32.3761C68.0008 32.4316 68.1474 32.5239 68.268 32.6457C68.3885 32.7675 68.4798 32.9157 68.5347 33.0788C68.5897 33.2419 68.6069 33.4155 68.5851 33.5864C68.6185 34.4422 68.0503 34.7238 67.3707 34.8927ZM61.4882 51.2435C61.3288 51.2449 61.1711 51.2117 61.0255 51.1462C60.88 51.0807 60.75 50.9844 60.6444 50.8638C60.5388 50.7432 60.46 50.6011 60.4134 50.4471C60.3668 50.2931 60.3533 50.1307 60.3741 49.9711C60.3702 49.801 60.402 49.6321 60.4673 49.4753C60.5327 49.3186 60.6301 49.1776 60.7533 49.0616C60.8764 48.9457 61.0224 48.8574 61.1817 48.8026C61.341 48.7478 61.51 48.7277 61.6776 48.7436C61.8405 48.75 62.0004 48.7907 62.1468 48.8632C62.2933 48.9356 62.4231 49.0383 62.528 49.1644C62.6329 49.2906 62.7106 49.4376 62.756 49.5959C62.8014 49.7542 62.8136 49.9203 62.7917 50.0837C62.7832 50.247 62.7426 50.4069 62.6721 50.5541C62.6017 50.7013 62.5028 50.8328 62.3814 50.9408C62.26 51.0489 62.1184 51.1313 61.965 51.1833C61.8116 51.2353 61.6495 51.2558 61.4882 51.2435ZM46.6371 28.3613C46.4691 28.3717 46.3009 28.3453 46.1439 28.284C45.987 28.2227 45.845 28.1279 45.7276 28.006C45.6102 27.8841 45.5202 27.7381 45.4637 27.5779C45.4073 27.4177 45.3857 27.247 45.4004 27.0776C45.4004 26.2781 45.924 25.9515 46.6259 25.7938C47.4281 25.8952 47.9183 26.3231 47.9072 27.1001C47.9191 27.2708 47.8943 27.4421 47.8343 27.6021C47.7744 27.7621 47.6808 27.9071 47.5601 28.027C47.4393 28.1469 47.2943 28.2389 47.1349 28.2966C46.9755 28.3544 46.8057 28.3764 46.6371 28.3613V28.3613Z" fill="#F9FBFC"/>
<path d="M97.5187 35.3319C97.18 35.1342 96.7957 35.0301 96.4046 35.0301C96.0135 35.0301 95.6292 35.1342 95.2905 35.3319C95.2905 38.7101 95.2905 41.9758 95.2905 45.2865C95.3615 47.3492 95.2983 49.4144 95.1011 51.4688C93.8422 59.723 89.33 65.7814 82.2888 69.7453C73.5987 74.61 64.3182 74.9253 54.9708 72.0763C48.832 70.207 45.0329 65.7814 43.2169 59.5879C42.2991 56.358 41.823 53.0162 41.802 49.6558C41.6906 40.5006 41.802 31.3568 41.802 22.2016C41.7553 21.8795 41.8085 21.5507 41.9541 21.2604C42.0997 20.9701 42.3307 20.7324 42.6153 20.58C43.2437 20.185 43.7247 19.5904 43.9828 18.8893C44.2409 18.1883 44.2615 17.4204 44.0413 16.7063C43.8118 15.9744 43.3576 15.3353 42.7447 14.8818C42.1317 14.4283 41.3918 14.1838 40.6322 14.1838C39.8957 14.2003 39.183 14.4507 38.5951 14.8994C38.0073 15.348 37.574 15.9723 37.3567 16.6838C37.1074 17.3884 37.1077 18.1586 37.3576 18.863C37.6075 19.5674 38.0915 20.1624 38.727 20.5463C39.0302 20.7114 39.2741 20.969 39.4241 21.2824C39.5741 21.5957 39.6226 21.9489 39.5626 22.2917C39.5626 31.6158 39.5626 40.9511 39.5626 50.2751C39.4748 52.6919 39.6053 55.1118 39.9526 57.5046C41.4009 65.6575 45.6902 71.5357 53.5224 74.5086C58.7881 76.3361 64.3919 76.9479 69.9222 76.2991C79.0467 75.5221 86.723 71.7947 92.4718 64.4301C95.2834 61.1057 97.0349 56.9997 97.4964 52.6512C97.8864 46.8968 97.4853 41.1087 97.5187 35.3319ZM40.5653 18.9585C40.3963 18.9806 40.2244 18.9632 40.0631 18.9076C39.9017 18.852 39.7552 18.7598 39.6346 18.6379C39.5141 18.5161 39.4228 18.368 39.3678 18.2049C39.3129 18.0418 39.2956 17.8681 39.3175 17.6972C39.2971 17.5262 39.3159 17.3527 39.3723 17.1901C39.4287 17.0275 39.5213 16.8801 39.6429 16.7594C39.7645 16.6386 39.9119 16.5477 40.0738 16.4936C40.2356 16.4395 40.4076 16.4237 40.5765 16.4473C41.3675 16.4473 41.7574 16.9428 41.8465 17.7085C41.8516 17.8779 41.8215 18.0465 41.7583 18.2034C41.6951 18.3604 41.6001 18.5022 41.4795 18.6199C41.3588 18.7376 41.2152 18.8285 41.0578 18.8868C40.9004 18.9451 40.7326 18.9695 40.5653 18.9585V18.9585Z" fill="#F9FBFC"/>
<path d="M99.7801 30.7486C99.5632 30.0156 99.1238 29.37 98.524 28.9032C97.9242 28.4363 97.1944 28.1719 96.4378 28.1473C95.6631 28.1408 94.9075 28.3903 94.2861 28.8578C93.6646 29.3254 93.2113 29.9854 92.9952 30.7374C92.7618 31.4608 92.7718 32.2419 93.0237 32.959C93.2756 33.676 93.7553 34.2886 94.3878 34.7012L95.2346 35.3318H97.4628L98.3095 34.7012C98.9624 34.3092 99.4638 33.7042 99.7311 32.9858C99.9984 32.2673 100.016 31.4783 99.7801 30.7486V30.7486ZM96.4378 33.0008C95.7582 32.8657 95.2457 32.5166 95.2346 31.7959C95.2259 31.6344 95.2517 31.4729 95.3103 31.3225C95.3689 31.172 95.4589 31.036 95.5741 30.9238C95.6893 30.8117 95.8271 30.7259 95.9781 30.6723C96.129 30.6188 96.2896 30.5987 96.4489 30.6135C96.602 30.6131 96.7536 30.6446 96.8941 30.7061C97.0346 30.7675 97.1611 30.8576 97.2656 30.9707C97.3702 31.0837 97.4506 31.2174 97.5017 31.3632C97.5529 31.5091 97.5738 31.664 97.563 31.8184C97.5519 32.5053 97.0617 32.8657 96.4044 33.0008H96.4378Z" fill="#F9FBFC"/>
</g>
<defs>
<clipPath id="clip0_108_905">
<rect width="99" height="76" fill="white" transform="translate(0.947266 0.501709)"/>
</clipPath>
</defs>
</svg>
