<svg width="1440" height="150" viewBox="0 0 1440 150" fill="none" xmlns="http://www.w3.org/2000/svg">
<path d="M316.607 58.9485L317.814 62.4763L315.672 68.6548C316.519 68.7928 317.375 68.8595 318.233 68.854C318.823 68.8551 319.412 68.8241 319.998 68.7613L320.734 71.0551C319.94 71.1353 319.074 71.1934 318.244 71.1934C317.141 71.1906 316.039 71.1112 314.947 70.9554L313.726 74.5358H310L315.827 58.9485H316.607Z" fill="#999799" fill-opacity="0.6"/>
<path d="M403.996 62.4763C407.748 62.4763 410 64.2264 410 68.6424C410 69.1958 409.985 69.7962 409.971 69.875H401.333C401.317 71.6528 402.83 72.4289 405.188 72.4289C406.776 72.4289 408.042 72.0581 408.896 71.8063L409.034 74.1139C408.327 74.3782 406.797 74.7628 404.708 74.7628C400.568 74.7683 397.741 73.2437 397.741 68.6286C397.741 65.6458 398.918 63.6564 401.302 62.8596V67.7016H406.483C406.497 65.5531 405.674 64.6248 403.893 64.6248C403.063 64.6248 402.45 64.8241 402.024 65.2488V62.6617C402.674 62.5342 403.334 62.4721 403.996 62.4763ZM349.367 57.6619V68.6424C349.367 70.9942 349.853 72.4344 351.957 72.4344C354.062 72.4344 354.709 70.9887 354.709 68.6424C354.709 66.2961 354.062 64.849 351.957 64.849C351.075 64.849 350.485 65.1008 350.088 65.5656V63.2317C350.765 62.807 351.678 62.5289 352.928 62.5289C356.108 62.5289 358.181 64.3454 358.181 68.6286C358.181 72.9172 356.106 74.7157 352.899 74.7157C350.913 74.7157 349.765 74.024 349.117 73.1372L348.955 74.5303H345.939V59.9433H344.408V57.6619H349.367ZM374.985 62.5663C377 62.5663 378.149 63.2691 378.781 64.1572L378.958 62.6977H381.96L381.964 74.5303H378.535V68.6424C378.535 66.2905 378.049 64.849 375.945 64.849C373.841 64.849 373.193 66.2947 373.193 68.6424C373.193 70.9901 373.841 72.4289 375.945 72.4289C376.829 72.4289 377.417 72.1771 377.814 71.7136V74.0212C377.137 74.4446 376.211 74.713 374.974 74.713C371.767 74.713 369.717 72.9228 369.717 68.6396C369.717 64.3565 371.763 62.5663 374.985 62.5663ZM320.802 58.9486L326.629 74.5303H322.729L317.417 58.9486H320.802ZM331.997 62.7005V72.2463H333.38V74.5303H328.573V64.9845H327.043V62.7005H331.997ZM343.178 62.4888C343.507 62.4858 343.835 62.5169 344.157 62.5815L344.113 65.2875C343.836 65.2598 343.466 65.2336 343.145 65.2336C342.129 65.2336 341.408 65.4729 340.908 65.8437C339.8 66.6628 339.761 68.1842 339.759 69.0163L339.759 74.5303H336.344V64.9845H334.812V62.7005H339.36L339.581 64.5972C340.199 63.3908 341.346 62.4888 343.178 62.4888ZM367.983 62.4888C368.314 62.4853 368.645 62.5163 368.97 62.5815L368.925 65.2875C368.649 65.2598 368.278 65.2336 367.957 65.2336C366.941 65.2336 366.221 65.4729 365.72 65.8437C364.614 66.6628 364.574 68.1842 364.573 69.0163L364.573 74.5303H361.156V64.9845H359.624V62.7005H364.172L364.393 64.5972C365.012 63.3908 366.158 62.4888 367.983 62.4888ZM388.631 57.6619V74.5303H385.203V59.9433H383.673V57.6619H388.631ZM396.89 62.6949L392.693 68.2177L397.417 74.5303H393.4L388.882 68.2785L393.017 62.6949H396.89ZM330.132 57.2109C331.192 57.2109 331.972 57.9027 331.972 58.8559C331.972 59.8091 331.192 60.4994 330.132 60.4994C329.072 60.4994 328.293 59.8104 328.293 58.8559H328.289C328.293 57.9027 329.072 57.2109 330.132 57.2109Z" fill="#999799"/>
<path d="M853.251 53.6079H871.44C873.23 53.6079 874.691 55.0616 874.691 56.8589V75.0493C874.691 76.8394 873.238 78.2993 871.44 78.2993H853.251C851.461 78.2993 850 76.8466 850 75.0493V56.8507C850 55.0616 851.453 53.6079 853.251 53.6079Z" fill="#999799"/>
<path d="M864.919 59.1201V58.2734C864.918 57.6817 864.438 57.2023 863.847 57.2024H861.348C860.756 57.2023 860.276 57.6817 860.276 58.2734V59.1427C860.276 59.2394 860.365 59.3073 860.463 59.2847C861.17 59.0806 861.902 58.9774 862.638 58.9781C863.351 58.9781 864.057 59.0748 864.739 59.2621C864.829 59.2847 864.919 59.2178 864.919 59.1201ZM858.07 60.2281L857.643 59.8012C857.442 59.6001 857.17 59.4871 856.885 59.4871C856.601 59.4871 856.328 59.6001 856.128 59.8012L855.617 60.3104C855.416 60.5107 855.303 60.783 855.303 61.0671C855.303 61.3512 855.416 61.6235 855.617 61.8238L856.037 62.2435C856.105 62.3104 856.203 62.295 856.262 62.2281C856.51 61.888 856.783 61.5674 857.08 61.2693C857.38 60.9689 857.703 60.6937 858.047 60.4462C858.122 60.401 858.13 60.296 858.07 60.2281ZM862.63 62.9164V66.5789C862.63 66.6839 862.744 66.759 862.84 66.7065L866.097 65.0213C866.171 64.9843 866.193 64.8938 866.156 64.8197C865.481 63.6355 864.228 62.8269 862.781 62.7744C862.706 62.7744 862.63 62.8341 862.63 62.9164ZM862.63 71.7394C859.915 71.7394 857.71 69.5368 857.71 66.8258C857.71 64.1149 859.915 61.9133 862.63 61.9133C865.347 61.9133 867.551 64.1149 867.551 66.8258C867.551 69.5368 865.354 71.7394 862.63 71.7394ZM862.63 59.8464C858.774 59.8464 855.647 62.9699 855.647 66.8258C855.647 70.6828 858.774 73.7991 862.63 73.7991C866.486 73.7991 869.614 70.6756 869.614 66.8186C869.614 62.9617 866.494 59.8464 862.63 59.8464Z" fill="white"/>
<path d="M899.221 73.192C894.413 73.2144 894.413 69.3122 894.413 68.6908L894.405 54.0724L897.338 53.6074V68.1362C897.338 68.4891 897.338 70.7206 899.221 70.7278V73.1918L899.221 73.192ZM887.332 70.8029C888.232 70.8029 888.9 70.7504 889.365 70.6609V67.6805C889.133 67.6187 888.897 67.571 888.659 67.5375C888.322 67.4874 887.981 67.4623 887.64 67.4624C887.316 67.4624 886.986 67.485 886.657 67.5375C886.327 67.5827 886.026 67.6722 885.764 67.7998C885.502 67.9274 885.284 68.1074 885.126 68.3389C884.962 68.5714 884.886 68.7062 884.886 69.058C884.886 69.7463 885.126 70.1445 885.561 70.4058C885.997 70.6681 886.589 70.8029 887.332 70.8029ZM887.077 60.1681C888.044 60.1681 888.862 60.2885 889.522 60.5282C890.182 60.7679 890.715 61.1043 891.105 61.5313C891.503 61.9654 891.772 62.5426 891.937 63.1568C892.11 63.771 892.192 64.4449 892.192 65.1856V72.7206C891.743 72.8173 891.059 72.9294 890.145 73.0642C889.23 73.199 888.202 73.2669 887.061 73.2669C886.304 73.2669 885.607 73.1918 884.984 73.0498C884.353 72.9078 883.822 72.6753 883.371 72.3533C882.929 72.0313 882.584 71.6187 882.329 71.1105C882.081 70.6002 881.953 69.8821 881.953 69.1331C881.953 68.414 882.095 67.9572 882.374 67.4624C882.658 66.9685 883.041 66.5642 883.521 66.2494C884.009 65.9346 884.563 65.7103 885.201 65.5755C885.839 65.4408 886.507 65.3729 887.196 65.3729C887.519 65.3729 887.857 65.3955 888.217 65.4325C888.57 65.4706 888.952 65.5385 889.358 65.6352V65.1558C889.358 64.8194 889.32 64.4973 889.237 64.198C889.158 63.9029 889.014 63.6292 888.816 63.3965C888.614 63.164 888.352 62.984 888.022 62.8574C887.692 62.7298 887.271 62.6321 886.769 62.6321C886.094 62.6321 885.479 62.7144 884.916 62.8122C884.353 62.9089 883.888 63.022 883.536 63.1486L883.184 60.7453C883.551 60.6177 884.098 60.4901 884.804 60.3636C885.509 60.2278 886.267 60.1681 887.077 60.1681H887.077ZM945.001 70.7206C945.901 70.7206 946.568 70.6681 947.033 70.5776V67.5982C946.868 67.5529 946.636 67.5004 946.328 67.4552C945.99 67.4051 945.649 67.38 945.307 67.3801C944.985 67.3801 944.655 67.4027 944.325 67.4552C943.996 67.5004 943.695 67.5899 943.433 67.7175C943.17 67.8451 942.952 68.0251 942.795 68.2566C942.629 68.4891 942.555 68.6239 942.555 68.9757C942.555 69.664 942.795 70.0622 943.23 70.3235C943.673 70.593 944.258 70.7206 945.001 70.7206ZM944.753 60.094C945.72 60.094 946.538 60.2134 947.198 60.4531C947.858 60.6928 948.391 61.0292 948.78 61.4562C949.17 61.8831 949.448 62.4675 949.613 63.0817C949.786 63.6959 949.868 64.3698 949.868 65.1115V72.6455C949.418 72.7422 948.735 72.8543 947.821 72.9901C946.906 73.1249 945.878 73.1918 944.737 73.1918C943.98 73.1918 943.283 73.1167 942.66 72.9747C942.03 72.8327 941.498 72.6002 941.047 72.2782C940.605 71.9562 940.26 71.5436 940.005 71.0354C939.757 70.5261 939.629 69.807 939.629 69.058C939.629 68.3389 939.772 67.8821 940.05 67.3873C940.334 66.8934 940.717 66.4891 941.197 66.1743C941.685 65.8605 942.24 65.6352 942.877 65.5004C943.515 65.3657 944.183 65.2988 944.873 65.2988C945.195 65.2988 945.533 65.3214 945.893 65.3585C946.253 65.3955 946.628 65.4634 947.033 65.5611V65.0817C947.033 64.7443 946.996 64.4222 946.913 64.1229C946.834 63.8277 946.691 63.5539 946.493 63.3214C946.29 63.0889 946.029 62.9089 945.698 62.7823C945.368 62.6547 944.947 62.558 944.445 62.558C943.77 62.558 943.155 62.6403 942.592 62.7371C942.03 62.8348 941.565 62.9469 941.212 63.0745L940.86 60.6702C941.227 60.5426 941.774 60.4161 942.48 60.2885C943.185 60.1609 943.942 60.094 944.753 60.094ZM935.946 58.701C936.929 58.701 937.732 57.9068 937.732 56.9253C937.732 55.9449 936.937 55.1506 935.946 55.1506C934.957 55.1506 934.161 55.9449 934.161 56.9253C934.161 57.9068 934.964 58.701 935.946 58.701ZM937.424 73.1918H934.476V60.5498L937.423 60.0858V73.1918H937.424ZM932.256 73.192C927.448 73.2144 927.448 69.3122 927.448 68.6908L927.44 54.0724L930.373 53.6074V68.1362C930.373 68.4891 930.373 70.7206 932.256 70.7278V73.192ZM922.722 66.7216C922.722 65.4552 922.444 64.3996 921.904 63.6661C921.364 62.9243 920.607 62.558 919.639 62.558C918.672 62.558 917.913 62.9243 917.374 63.6661C916.834 64.4068 916.571 65.4552 916.571 66.7216C916.571 68.0025 916.841 68.8626 917.381 69.6043C917.922 70.3533 918.679 70.7206 919.647 70.7206C920.614 70.7206 921.372 70.3461 921.912 69.6043C922.452 68.8554 922.722 68.0025 922.722 66.7216ZM925.722 66.7144C925.722 67.7031 925.58 68.451 925.287 69.2679C924.995 70.0838 924.582 70.7803 924.05 71.3574C923.517 71.9336 922.879 72.3831 922.129 72.698C921.379 73.0117 920.224 73.1918 919.647 73.1918C919.069 73.1846 917.921 73.02 917.179 72.698C916.436 72.3759 915.798 71.9336 915.266 71.3574C914.733 70.7803 914.321 70.0838 914.02 69.2679C913.721 68.451 913.571 67.7031 913.571 66.7144C913.571 65.7257 913.705 64.7741 914.006 63.9654C914.306 63.1568 914.726 62.4675 915.266 61.8914C915.806 61.3142 916.451 60.8718 917.186 60.558C917.929 60.2432 918.747 60.094 919.631 60.094C920.517 60.094 921.334 60.2504 922.084 60.558C922.835 60.8718 923.48 61.3142 924.005 61.8914C924.537 62.4675 924.949 63.1568 925.25 63.9654C925.565 64.7741 925.722 65.7257 925.722 66.7144H925.722ZM903.647 66.7144C903.647 67.9418 903.916 69.305 904.457 69.8739C904.997 70.4438 905.694 70.7278 906.55 70.7278C907.015 70.7278 907.458 70.6609 907.87 70.5333C908.283 70.4058 908.612 70.2556 908.875 70.0766V62.805C908.665 62.7597 907.788 62.5796 906.939 62.558C905.874 62.5272 905.065 62.9624 904.495 63.6578C903.932 64.3554 903.647 65.5755 903.647 66.7144ZM911.8 72.4953C911.8 74.4953 911.29 75.9552 910.262 76.8842C909.235 77.8122 907.667 78.2772 905.552 78.2772C904.779 78.2772 903.174 78.127 901.892 77.843L902.364 75.521C903.437 75.7453 904.855 75.806 905.597 75.806C906.774 75.806 907.615 75.5663 908.117 75.0868C908.62 74.6074 908.867 73.8965 908.867 72.9521V72.4726C908.575 72.6146 908.192 72.7576 907.72 72.9078C907.248 73.0498 906.7 73.1249 906.084 73.1249C905.274 73.1249 904.539 72.9973 903.872 72.7422C903.204 72.4881 902.626 72.1136 902.154 71.6187C901.682 71.1249 901.306 70.5035 901.044 69.7617C900.781 69.02 900.646 67.6949 900.646 66.7216C900.646 65.808 900.789 64.6619 901.067 63.8975C901.351 63.1342 901.756 62.4747 902.304 61.9284C902.844 61.3821 903.505 60.9624 904.277 60.6547C905.05 60.3482 905.956 60.1537 906.939 60.1537C907.893 60.1537 908.77 60.2731 909.625 60.4161C910.48 60.558 911.207 60.7072 911.8 60.8718V72.4953H911.8Z" fill="#999799"/>
<path d="M490.05 68.7628C490.05 67.6335 490.239 66.5798 490.617 65.6017C490.995 64.6236 491.525 63.7716 492.205 63.0456C492.886 62.3196 493.7 61.7499 494.648 61.3364C495.596 60.923 496.634 60.7163 497.764 60.7163C498.621 60.7163 499.4 60.8424 500.101 61.0944C500.801 61.3465 501.479 61.7599 502.135 62.3347V61.0188H505.977V76.5068H502.135V75.1909C501.479 75.7657 500.801 76.1791 500.101 76.4311C499.4 76.6832 498.621 76.8093 497.764 76.8093C496.634 76.8093 495.596 76.6026 494.648 76.1892C493.7 75.7757 492.886 75.206 492.205 74.48C491.525 73.754 490.995 72.902 490.617 71.9239C490.239 70.9458 490.05 69.8921 490.05 68.7628ZM498.263 73.1944C498.565 73.1944 498.883 73.1616 499.216 73.0961C499.548 73.0306 499.884 72.9196 500.222 72.7633C500.559 72.6071 500.89 72.3978 501.212 72.1357C501.535 71.8735 501.842 71.5508 502.135 71.1677V66.3579C501.842 65.9748 501.535 65.6546 501.212 65.3975C500.89 65.1404 500.559 64.9311 500.222 64.7698C499.884 64.6085 499.548 64.495 499.216 64.4295C498.883 64.364 498.565 64.3312 498.263 64.3312C497.668 64.3312 497.111 64.4421 496.592 64.6639C496.072 64.8858 495.621 65.1958 495.238 65.5941C494.855 65.9924 494.555 66.4613 494.338 67.0007C494.121 67.5402 494.013 68.1275 494.013 68.7628C494.013 69.3981 494.121 69.9854 494.338 70.5249C494.555 71.0643 494.855 71.5332 495.238 71.9315C495.621 72.3298 496.072 72.6398 496.592 72.8617C497.111 73.0835 497.668 73.1944 498.263 73.1944Z" fill="#999799"/>
<path d="M515.58 64.5397C513.76 64.553 512.178 65.8216 512.178 67.704V76.5068H508.337V67.8099C508.358 64.1834 511.499 60.7652 515.525 60.7163H515.632C519.659 60.7652 522.799 64.1834 522.821 67.8099V76.5068H518.979V67.704C518.979 65.8216 517.398 64.553 515.577 64.5397" fill="#999799"/>
<path d="M524.64 68.7628C524.64 67.6335 524.829 66.5798 525.207 65.6017C525.585 64.6237 526.114 63.7716 526.795 63.0456C527.475 62.3196 528.29 61.7499 529.237 61.3365C530.185 60.9231 531.224 60.7164 532.353 60.7164C533.21 60.7164 533.992 60.8424 534.698 61.0945C535.403 61.3466 536.079 61.755 536.724 62.3196V56.3755H540.566V76.5068H536.724V75.2061C536.079 75.7808 535.403 76.1917 534.698 76.4388C533.992 76.6858 533.21 76.8093 532.353 76.8093C531.224 76.8093 530.185 76.6026 529.237 76.1892C528.29 75.7758 527.475 75.2061 526.795 74.4801C526.114 73.7541 525.585 72.902 525.207 71.924C524.829 70.9459 524.64 69.8922 524.64 68.7628ZM532.852 73.1945C533.155 73.1945 533.472 73.1617 533.805 73.0961C534.138 73.0306 534.473 72.9197 534.811 72.7634C535.149 72.6071 535.479 72.3979 535.802 72.1357C536.124 71.8735 536.432 71.5509 536.724 71.1677V66.358C536.432 65.9748 536.124 65.6547 535.802 65.3975C535.479 65.1404 535.149 64.9312 534.811 64.7699C534.473 64.6085 534.138 64.4951 533.805 64.4295C533.472 64.364 533.155 64.3312 532.852 64.3312C532.257 64.3312 531.7 64.4421 531.181 64.664C530.662 64.8858 530.211 65.1959 529.827 65.5942C529.444 65.9925 529.144 66.4613 528.927 67.0008C528.711 67.5402 528.602 68.1276 528.602 68.7628C528.602 69.3981 528.711 69.9854 528.927 70.5249C529.144 71.0644 529.444 71.5332 529.827 71.9315C530.211 72.3298 530.662 72.6399 531.181 72.8617C531.7 73.0835 532.257 73.1945 532.852 73.1945Z" fill="#999799"/>
<path d="M558.557 73.1944C559.132 73.1944 559.674 73.086 560.183 72.8692C560.692 72.6524 561.136 72.3474 561.514 71.9542C561.892 71.5609 562.189 71.0946 562.406 70.5551C562.623 70.0156 562.731 69.4182 562.731 68.7628C562.731 68.1175 562.62 67.5251 562.399 66.9856C562.177 66.4462 561.874 65.9798 561.491 65.5865C561.108 65.1933 560.664 64.8858 560.16 64.6639C559.656 64.4421 559.122 64.3312 558.557 64.3312C557.982 64.3312 557.44 64.4421 556.931 64.6639C556.422 64.8858 555.978 65.1933 555.6 65.5865C555.222 65.9798 554.922 66.4462 554.7 66.9856C554.478 67.5251 554.367 68.1175 554.367 68.7628C554.367 69.4182 554.476 70.0156 554.692 70.5551C554.909 71.0946 555.207 71.5609 555.585 71.9542C555.963 72.3474 556.407 72.6524 556.916 72.8692C557.425 73.086 557.972 73.1944 558.557 73.1944ZM558.557 76.8093C557.438 76.8093 556.384 76.6076 555.396 76.2043C554.408 75.8009 553.543 75.2388 552.802 74.5178C552.061 73.7969 551.476 72.9448 551.047 71.9617C550.619 70.9786 550.405 69.9123 550.405 68.7628C550.405 67.6436 550.619 66.5949 551.047 65.6168C551.476 64.6387 552.058 63.7867 552.794 63.0607C553.53 62.3347 554.395 61.7625 555.388 61.344C556.381 60.9256 557.438 60.7163 558.557 60.7163C559.676 60.7163 560.73 60.9256 561.718 61.344C562.706 61.7625 563.568 62.3347 564.304 63.0607C565.04 63.7867 565.623 64.6387 566.051 65.6168C566.48 66.5949 566.694 67.6436 566.694 68.7628C566.694 69.9123 566.48 70.9786 566.051 71.9617C565.623 72.9448 565.038 73.7969 564.297 74.5178C563.556 75.2388 562.694 75.8009 561.71 76.2043C560.727 76.6076 559.676 76.8093 558.557 76.8093Z" fill="#999799"/>
<path d="M570.336 59.8061C570.025 59.8061 569.731 59.7453 569.454 59.6237C569.176 59.5021 568.933 59.3368 568.724 59.1276C568.515 58.9185 568.35 58.6754 568.228 58.3981C568.107 58.1209 568.046 57.8267 568.046 57.5154C568.046 57.2042 568.107 56.9075 568.228 56.6254C568.35 56.3434 568.515 56.0978 568.724 55.8886C568.933 55.6795 569.176 55.5142 569.454 55.3926C569.731 55.271 570.025 55.2102 570.336 55.2102C570.648 55.2102 570.944 55.271 571.226 55.3926C571.508 55.5142 571.754 55.6795 571.963 55.8886C572.172 56.0978 572.338 56.3434 572.459 56.6254C572.581 56.9075 572.642 57.2042 572.642 57.5154C572.642 57.8267 572.581 58.1209 572.459 58.3981C572.338 58.6754 572.172 58.9185 571.963 59.1276C571.754 59.3368 571.508 59.5021 571.226 59.6237C570.944 59.7453 570.648 59.8061 570.336 59.8061Z" fill="#999799"/>
<path d="M568.415 61.0188H572.257V76.5068H568.415V61.0188Z" fill="#999799"/>
<path d="M574.023 68.7628C574.023 67.6335 574.212 66.5798 574.591 65.6017C574.969 64.6237 575.498 63.7716 576.179 63.0456C576.859 62.3196 577.674 61.7499 578.621 61.3365C579.569 60.9231 580.608 60.7164 581.737 60.7164C582.594 60.7164 583.376 60.8424 584.082 61.0945C584.787 61.3466 585.463 61.755 586.108 62.3196V56.3755H589.95V76.5068H586.108V75.2061C585.463 75.7808 584.787 76.1917 584.082 76.4388C583.376 76.6858 582.594 76.8093 581.737 76.8093C580.608 76.8093 579.569 76.6026 578.621 76.1892C577.674 75.7758 576.859 75.2061 576.179 74.4801C575.498 73.7541 574.969 72.902 574.591 71.924C574.212 70.9459 574.023 69.8922 574.023 68.7628ZM582.236 73.1945C582.539 73.1945 582.856 73.1617 583.189 73.0961C583.522 73.0306 583.857 72.9197 584.195 72.7634C584.533 72.6071 584.863 72.3979 585.186 72.1357C585.508 71.8735 585.816 71.5509 586.108 71.1677V66.358C585.816 65.9748 585.508 65.6547 585.186 65.3975C584.863 65.1404 584.533 64.9312 584.195 64.7699C583.857 64.6085 583.522 64.4951 583.189 64.4295C582.856 64.364 582.539 64.3312 582.236 64.3312C581.641 64.3312 581.084 64.4421 580.565 64.664C580.046 64.8858 579.594 65.1959 579.211 65.5942C578.828 65.9925 578.528 66.4613 578.311 67.0008C578.095 67.5402 577.986 68.1276 577.986 68.7628C577.986 69.3981 578.095 69.9854 578.311 70.5249C578.528 71.0644 578.828 71.5332 579.211 71.9315C579.594 72.3298 580.046 72.6399 580.565 72.8617C581.084 73.0835 581.641 73.1945 582.236 73.1945Z" fill="#999799"/>
<path d="M550.038 64.4932C547.464 64.4932 546.329 65.8215 546.329 67.704V76.5067H542.487V67.8099C542.508 64.1834 544.603 60.6182 550.038 60.6182" fill="#999799"/>
<path fill-rule="evenodd" clip-rule="evenodd" d="M699.414 72.5039V60.1992H700.996L708.516 70.1016V60.1992H710.02V72.5039H708.438L700.918 62.5039V72.5039H699.414Z" fill="#999799"/>
<path fill-rule="evenodd" clip-rule="evenodd" d="M722.266 72.0156C721.27 72.3867 720.195 72.582 719.063 72.582C714.609 72.582 712.383 70.4531 712.383 66.1758C712.383 62.1328 714.531 60.1016 718.828 60.1016C720.059 60.1016 721.211 60.2773 722.266 60.6094V61.9766C721.211 61.5664 720.117 61.3711 719.004 61.3711C715.645 61.3711 713.965 62.9727 713.965 66.1367C713.965 69.5547 715.625 71.2539 718.926 71.2539C719.453 71.2539 720.039 71.1758 720.684 71.0391V66.918H722.266V72.0156Z" fill="#999799"/>
<path fill-rule="evenodd" clip-rule="evenodd" d="M724.805 67.7578V60.1992H726.387V67.7578C726.387 70.1211 727.559 71.3125 729.922 71.3125C732.266 71.3125 733.457 70.1211 733.457 67.7578V60.1992H735.039V67.7578C735.039 70.9805 733.34 72.6016 729.922 72.6016C726.504 72.6016 724.805 70.9805 724.805 67.7578Z" fill="#999799"/>
<path fill-rule="evenodd" clip-rule="evenodd" d="M739.453 60.1992V71.2148H745.898V72.5039H737.871V60.1992H739.453Z" fill="#999799"/>
<path fill-rule="evenodd" clip-rule="evenodd" d="M748.184 72.5039H746.523L752.637 58.5781L758.75 72.5039H756.992L755.41 68.6367H751.348L751.777 67.3477H754.883L752.578 61.7812L748.184 72.5039Z" fill="#999799"/>
<path fill-rule="evenodd" clip-rule="evenodd" d="M760.449 72.5039V60.1992H765.703C768.047 60.1992 769.219 61.1758 769.219 63.1484C769.219 64.75 768.066 65.9414 765.781 66.7031L770 72.5039H767.91L764.004 66.9766V65.9414C766.348 65.5703 767.539 64.6719 767.539 63.2266C767.539 62.0937 766.895 61.5273 765.586 61.5273H762.07V72.5039H760.449Z" fill="#999799"/>
<path fill-rule="evenodd" clip-rule="evenodd" d="M670 56.918L682.598 52.4258L695.527 56.8398L693.438 73.5L682.598 79.4961L671.934 73.5781L670 56.918Z" fill="#999799"/>
<path fill-rule="evenodd" clip-rule="evenodd" d="M695.527 56.8398L682.598 52.4258V79.4961L693.438 73.5L695.527 56.8398Z" fill="#6D6D6D"/>
<path fill-rule="evenodd" clip-rule="evenodd" d="M682.617 55.5898L674.766 73.0508L677.695 72.9922L679.277 69.0469H682.617H686.289L688.008 73.0313L690.801 73.0898L682.617 55.5898ZM682.637 61.1953L685.293 66.7422H682.754H682.617H680.312L682.637 61.1953Z" fill="white"/>
<path d="M1126.89 69.6468L1129.66 71.4962C1128.76 72.8224 1126.61 75.0977 1122.88 75.0977C1118.26 75.0977 1114.82 71.5206 1114.82 66.9701C1114.82 62.1276 1118.3 58.8425 1122.49 58.8425C1126.71 58.8425 1128.78 62.2006 1129.45 64.0135L1129.82 64.9382L1118.94 69.44C1119.77 71.0704 1121.06 71.8977 1122.88 71.8977C1124.71 71.8977 1125.97 70.9974 1126.89 69.6468ZM1118.36 66.7146L1125.62 63.6972C1125.22 62.6873 1124.03 61.9695 1122.6 61.9695C1120.79 61.9695 1118.27 63.5755 1118.36 66.7146Z" fill="#999799"/>
<path d="M1109.57 50.5569H1113.08V74.3556H1109.57V50.5569Z" fill="#999799"/>
<path d="M1104.05 59.4752H1107.43V73.9296C1107.43 79.9279 1103.89 82.3978 1099.7 82.3978C1095.76 82.3978 1093.39 79.7454 1092.5 77.5919L1095.6 76.3021C1096.16 77.6284 1097.51 79.1979 1099.7 79.1979C1102.39 79.1979 1104.05 77.531 1104.05 74.4163V73.2482H1103.93C1103.12 74.2216 1101.59 75.0976 1099.64 75.0976C1095.58 75.0976 1091.86 71.557 1091.86 66.9944C1091.86 62.4074 1095.58 58.8303 1099.64 58.8303C1101.58 58.8303 1103.12 59.6942 1103.93 60.6432H1104.05V59.4752ZM1104.29 66.9944C1104.29 64.123 1102.38 62.0302 1099.95 62.0302C1097.49 62.0302 1095.42 64.123 1095.42 66.9944C1095.42 69.8293 1097.49 71.8855 1099.95 71.8855C1102.38 71.8977 1104.29 69.8293 1104.29 66.9944Z" fill="#999799"/>
<path d="M1072.62 66.9337C1072.62 71.618 1068.97 75.0612 1064.49 75.0612C1060.02 75.0612 1056.37 71.6058 1056.37 66.9337C1056.37 62.225 1060.02 58.7939 1064.49 58.7939C1068.97 58.7939 1072.62 62.225 1072.62 66.9337ZM1069.07 66.9337C1069.07 64.0136 1066.95 62.006 1064.49 62.006C1062.04 62.006 1059.92 64.0136 1059.92 66.9337C1059.92 69.8294 1062.04 71.8613 1064.49 71.8613C1066.95 71.8613 1069.07 69.8294 1069.07 66.9337Z" fill="#999799"/>
<path d="M1090.37 66.9701C1090.37 71.6544 1086.72 75.0977 1082.24 75.0977C1077.77 75.0977 1074.12 71.6544 1074.12 66.9701C1074.12 62.2615 1077.77 58.8425 1082.24 58.8425C1086.72 58.8425 1090.37 62.2493 1090.37 66.9701ZM1086.81 66.9701C1086.81 64.05 1084.69 62.0425 1082.23 62.0425C1079.77 62.0425 1077.66 64.05 1077.66 66.9701C1077.66 69.8658 1079.77 71.8977 1082.23 71.8977C1084.7 71.8977 1086.81 69.8537 1086.81 66.9701Z" fill="#999799"/>
<path d="M1043.01 71.5327C1037.91 71.5327 1033.92 67.4203 1033.92 62.3223C1033.92 57.2243 1037.91 53.1119 1043.01 53.1119C1045.76 53.1119 1047.76 54.1947 1049.25 55.5818L1051.69 53.1362C1049.62 51.153 1046.86 49.6443 1043.01 49.6443C1036.02 49.6443 1030.15 55.3384 1030.15 62.3223C1030.15 69.3062 1036.02 75.0003 1043.01 75.0003C1046.78 75.0003 1049.62 73.7593 1051.85 71.4476C1054.14 69.1602 1054.84 65.9481 1054.84 63.3443C1054.84 62.5292 1054.75 61.6896 1054.64 61.0691H1043.01V64.4515H1051.29C1051.05 66.5686 1050.38 68.0165 1049.39 69.002C1048.2 70.2065 1046.32 71.5327 1043.01 71.5327Z" fill="#999799"/>
</svg>
