<svg width="100" height="77" viewBox="0 0 100 77" fill="none" xmlns="http://www.w3.org/2000/svg">
<g clip-path="url(#clip0_160_499)">
<path d="M78.7124 40.497C80.8626 37.3665 80.5729 34.2697 78.4895 31.2518C78.1105 30.7184 77.9184 30.0725 77.9436 29.4163C77.9436 25.565 76.8295 22.3106 73.0081 20.7003C72.373 20.4413 72.4399 19.9796 72.3619 19.5742C71.5263 14.8446 69.2647 12.4348 64.5631 11.365C64.1732 11.2749 63.8167 11.2862 63.605 10.8132C62.0007 7.25476 59.026 6.01606 55.394 5.98228C55.1728 5.99058 54.9533 5.93979 54.7577 5.835C54.5621 5.73022 54.3973 5.57515 54.2799 5.38545C51.0712 1.5267 47.2833 0.775974 42.9159 3.13326C42.4814 3.36974 42.2029 3.51613 41.8018 3.02065C41.2172 2.32468 40.499 1.75569 39.6908 1.34805C38.8825 0.940407 38.0009 0.702569 37.0992 0.648894C36.1974 0.595218 35.2943 0.726822 34.4443 1.03576C33.5943 1.34469 32.815 1.82454 32.1536 2.44634C30.6273 4.06792 29.58 3.85396 27.7863 3.08822C19.709 -0.368888 11.7319 4.3607 10.551 13.2231C10.473 13.8537 10.1276 14.0001 9.70425 14.2365C8.03237 15.0585 6.66629 16.4021 5.80767 18.0688C4.94905 19.7356 4.6434 21.6372 4.93585 23.493C5.01711 23.828 4.98821 24.1807 4.85354 24.4977C4.71886 24.8146 4.48572 25.0786 4.1894 25.2497C0.757932 27.6933 -0.712694 35.0017 3.72147 38.3237C4.30251 38.7268 4.76604 39.28 5.06386 39.9256C5.36168 40.5712 5.48291 41.2857 5.41492 41.9947C5.48177 47.9405 9.9605 52.2309 16.1215 50.9021C16.5606 50.836 16.9957 50.7457 17.425 50.6319C18.0267 50.4517 18.3609 50.5192 18.6283 51.2062C21.0459 57.3772 26.5608 60.8117 34.4153 59.5505C36.3092 59.2465 36.4652 59.0325 36.4652 57.1294C36.4652 51.071 36.4652 45.0127 36.4652 38.9543C36.4652 38.3912 36.3872 37.907 37.0446 37.4904C37.742 37.1213 38.2846 36.5108 38.5731 35.7705C38.8616 35.0301 38.8766 34.2096 38.6155 33.4589C38.3881 32.7415 37.9428 32.1148 37.3427 31.668C36.7426 31.2212 36.0184 30.977 35.2731 30.9703C34.535 30.9805 33.8179 31.2206 33.2197 31.658C32.6216 32.0953 32.1714 32.7085 31.9308 33.4139C31.6911 34.1704 31.7227 34.988 32.0202 35.7232C32.3177 36.4584 32.8619 37.0642 33.5574 37.434C33.7575 37.5421 33.9233 37.7052 34.0357 37.9045C34.1481 38.1037 34.2024 38.331 34.1924 38.5601C34.1924 44.3483 34.1924 50.1364 34.1924 55.9245C34.1924 56.6452 34.0142 56.8929 33.2677 56.983C26.9841 57.7713 22.5054 54.9223 20.6114 48.8639C20.1769 47.4675 19.8092 47.2761 18.3832 47.6477C17.4808 47.8729 16.5783 48.1207 15.6647 48.2671C11.0412 48.9652 7.86597 46.4203 8.12221 41.7019C8.23362 39.2245 7.81026 37.7156 5.55975 36.3305C2.72991 34.585 2.90816 29.5739 5.55975 27.6033C6.52903 30.4072 8.27818 32.3216 11.3309 32.6256C11.6944 32.6326 12.0513 32.7259 12.3726 32.898C12.6939 33.0702 12.9706 33.3163 13.1803 33.6166C13.6646 34.2129 14.3306 34.6302 15.0744 34.8034C15.8182 34.9765 16.5978 34.8958 17.2914 34.5738C17.9434 34.2763 18.4883 33.7821 18.8514 33.1591C19.2144 32.5361 19.3778 31.8148 19.319 31.0941C19.2364 30.3312 18.917 29.6142 18.4067 29.0459C17.8964 28.4775 17.2213 28.0868 16.4781 27.9298C15.7525 27.8013 15.0054 27.906 14.3418 28.2292C13.6783 28.5525 13.1318 29.0779 12.7792 29.7316C12.5341 30.1482 12.5341 30.8577 11.6651 30.5086C10.6882 30.2137 9.81011 29.6536 9.12646 28.8891C8.44282 28.1246 7.97984 27.1852 7.78797 26.1731C7.61173 24.9832 7.50756 23.7836 7.47602 22.5809C7.3092 21.1352 7.6698 19.6776 8.49022 18.4814C9.31064 17.2853 10.5345 16.4326 11.9325 16.0833C12.1379 16.0407 12.3328 15.957 12.5056 15.837C12.6785 15.7171 12.8259 15.5634 12.9391 15.385C13.0522 15.2066 13.1289 15.0071 13.1646 14.7982C13.2003 14.5894 13.1943 14.3754 13.1469 14.169C12.9995 12.6441 13.3101 11.1098 14.0381 9.76595C16.4446 5.05888 21.681 3.3247 26.9953 5.47553C28.9895 6.28632 28.9784 6.28632 28.2431 8.21194C28.0817 8.57789 27.944 8.95405 27.8309 9.33803C27.7546 9.79359 27.5868 10.2285 27.3377 10.6159C27.0885 11.0033 26.7635 11.3349 26.3825 11.5902C25.8307 11.9808 25.4221 12.5449 25.2206 13.1947C25.0191 13.8445 25.0359 14.5433 25.2684 15.1825C25.4558 15.8783 25.8587 16.4952 26.418 16.943C26.9773 17.3908 27.6637 17.646 28.3768 17.6711C29.0898 17.7515 29.8096 17.5978 30.4295 17.2328C31.0495 16.8677 31.5368 16.3107 31.8194 15.6442C32.1192 14.9628 32.1922 14.2014 32.0275 13.4745C31.8628 12.7476 31.4692 12.0943 30.9058 11.6127C30.527 11.2637 29.9922 11.0835 30.2373 10.3403C30.8684 8.14469 32.0151 6.13577 33.5797 4.48457C34.0431 3.99851 34.6113 3.62727 35.2401 3.39981C35.8688 3.17236 36.5411 3.09485 37.2044 3.17334C37.8677 3.25183 38.5041 3.48419 39.0638 3.85229C39.6236 4.22038 40.0917 4.71426 40.4315 5.29536C41.345 7.09711 41.7238 7.1872 43.2724 5.94849C46.7039 3.20083 50.4919 3.8427 52.7981 7.60385C52.9466 7.92677 53.1929 8.19357 53.5013 8.36565C53.8098 8.53773 54.1644 8.60615 54.5138 8.56103C55.0888 8.52164 55.6657 8.52164 56.2407 8.56103C57.4579 8.52192 58.6512 8.9083 59.6193 9.65501C60.5874 10.4017 61.2711 11.4631 61.555 12.66C61.6615 12.9962 61.8737 13.288 62.1592 13.4913C62.4447 13.6945 62.788 13.798 63.1371 13.7861C67.7829 14.4167 69.6212 16.4437 69.8217 21.2183C69.7876 21.6224 69.9122 22.0238 70.1687 22.3358C70.4251 22.6477 70.7928 22.845 71.1921 22.8849C72.1674 23.049 73.061 23.5363 73.7323 24.27C74.3688 25.025 74.8375 25.9093 75.1066 26.8632C75.3757 27.8172 75.439 28.8184 75.292 29.7991C75.2407 30.28 75.2884 30.7663 75.4322 31.2276C75.576 31.6889 75.8128 32.115 76.1276 32.4792C76.8758 33.2707 77.3549 34.2827 77.4951 35.3681C77.6354 36.4536 77.4295 37.556 76.9075 38.5151C75.5228 36.5547 73.5376 35.1101 71.2589 34.4049C70.7353 34.2472 70.8022 33.8869 70.7576 33.4702C70.7323 32.9762 70.603 32.4934 70.3785 32.0539C70.154 31.6144 69.8394 31.2284 69.4557 30.9215C69.0719 30.6146 68.6278 30.3939 68.153 30.2742C67.6782 30.1544 67.1836 30.1384 66.7022 30.2271C66.2205 30.3104 65.7616 30.4957 65.3558 30.771C64.95 31.0463 64.6064 31.4052 64.3475 31.8243C64.0887 32.2433 63.9205 32.7129 63.8539 33.2023C63.7874 33.6917 63.8241 34.1898 63.9615 34.6639C64.0901 35.1417 64.3191 35.5859 64.6328 35.9663C64.9466 36.3466 65.3378 36.6541 65.7797 36.8678C66.2217 37.0816 66.704 37.1965 67.1939 37.2048C67.6838 37.2132 68.1697 37.1147 68.6185 36.916C68.9579 36.7676 69.3238 36.691 69.6936 36.691C70.0634 36.691 70.4293 36.7676 70.7687 36.916C72.3063 37.4773 73.6567 38.4646 74.6654 39.7649C75.6741 41.0653 76.3005 42.6263 76.473 44.2694C77.264 49.1116 73.7657 54.6182 69.0976 56.2398C68.4193 56.4516 67.7267 56.6134 67.0253 56.724C66.4571 56.8479 66.1452 56.724 66.0672 56.0033C66.0115 55.0021 65.6922 54.0341 65.1425 53.1993C64.8967 52.9093 64.7429 52.5512 64.7012 52.1716C64.6595 51.792 64.7317 51.4086 64.9085 51.071C65.0795 50.6124 65.1498 50.1216 65.1143 49.6328C65.0789 49.1439 64.9387 48.6688 64.7033 48.2402C64.468 47.8116 64.1433 47.44 63.7516 47.151C63.3599 46.862 62.9107 46.6626 62.4352 46.5667C61.9699 46.4602 61.4881 46.45 61.0189 46.5369C60.5496 46.6238 60.1027 46.8058 59.705 47.0721C59.3072 47.3383 58.967 47.6832 58.7048 48.086C58.4426 48.4888 58.2638 48.9411 58.1793 49.4157C58.0753 49.8779 58.0714 50.3574 58.1679 50.8213C58.2644 51.2852 58.459 51.7225 58.7384 52.1033C59.0178 52.4841 59.3753 52.7993 59.7865 53.0274C60.1976 53.2554 60.6527 53.3909 61.1205 53.4246C62.4575 53.4246 62.8808 54.1565 63.2596 55.1587C64.3737 58.0753 63.5047 60.2825 60.6303 61.4761C58.0458 62.4898 55.2311 62.7474 52.5084 62.2193C49.1661 61.6788 47.8403 60.0798 47.8292 56.5889C47.8292 48.1545 47.8292 39.6975 47.8292 31.2968C47.8021 31.0387 47.8524 30.7782 47.9736 30.5493C48.0948 30.3204 48.2812 30.1336 48.5088 30.0131C49.1385 29.6623 49.636 29.1113 49.9241 28.4454C50.2121 27.7796 50.2747 27.0362 50.102 26.3308C49.9506 25.5749 49.5559 24.891 48.9795 24.3857C48.403 23.8805 47.6773 23.5824 46.9156 23.5381C46.1775 23.4918 45.4441 23.6854 44.8227 24.0906C44.2012 24.4959 43.7244 25.0914 43.4618 25.7902C43.1769 26.4988 43.1316 27.2827 43.3331 28.02C43.5346 28.7572 43.9715 29.4065 44.576 29.8667C45.0105 30.2045 45.5452 30.3509 45.5341 31.1392C45.5341 39.7876 45.5341 48.4472 45.5341 57.1069C45.5341 60.9131 47.2387 63.5369 50.9153 64.4941C54.2208 65.3594 57.7035 65.2381 60.9423 64.145C61.9998 63.8615 62.9843 63.3505 63.8284 62.6469C64.6726 61.9434 65.3564 61.0638 65.8332 60.0685C66.0895 59.4829 66.5017 59.3816 67.081 59.3253C69.0489 59.0775 70.9402 58.4009 72.6241 57.3422C74.3081 56.2836 75.7447 54.8681 76.8347 53.1936C77.9247 51.5191 78.6421 49.6254 78.9374 47.6433C79.2328 45.6612 79.099 43.6379 78.5452 41.7132C78.4627 41.514 78.4346 41.2959 78.464 41.082C78.4934 40.868 78.5792 40.666 78.7124 40.497V40.497ZM34.1479 34.4612C34.1365 34.2946 34.1619 34.1275 34.2223 33.972C34.2827 33.8166 34.3766 33.6766 34.4971 33.5624C34.6176 33.4481 34.7618 33.3624 34.9191 33.3114C35.0764 33.2604 35.243 33.2454 35.4068 33.2675C35.5756 33.2517 35.7457 33.2751 35.9042 33.3358C36.0627 33.3966 36.2054 33.4931 36.3214 33.6179C36.4374 33.7428 36.5237 33.8928 36.5738 34.0565C36.6238 34.2202 36.6362 34.3932 36.6101 34.5625C36.6101 35.3733 36.0641 35.6886 35.3177 35.8012C35.1498 35.7987 34.9843 35.7614 34.8313 35.6915C34.6783 35.6216 34.5412 35.5208 34.4283 35.3951C34.3155 35.2695 34.2294 35.1217 34.1755 34.9611C34.1215 34.8004 34.1007 34.6303 34.1144 34.4612H34.1479ZM15.843 30.2608C16.0084 30.2446 16.1753 30.266 16.3315 30.3234C16.4876 30.3808 16.6291 30.4728 16.7456 30.5927C16.862 30.7125 16.9504 30.8572 17.0044 31.016C17.0583 31.1749 17.0764 31.3439 17.0574 31.5108C17.0759 31.681 17.0558 31.8532 16.9985 32.0144C16.9413 32.1755 16.8485 32.3213 16.7271 32.4408C16.6057 32.5602 16.459 32.6501 16.298 32.7036C16.1371 32.7571 15.9663 32.7728 15.7984 32.7495C15.6478 32.7676 15.4951 32.7509 15.3518 32.7008C15.2084 32.6506 15.0782 32.5682 14.971 32.4598C14.8637 32.3513 14.7822 32.2197 14.7326 32.0749C14.6829 31.93 14.6664 31.7757 14.6843 31.6234C14.6487 31.4562 14.6512 31.2829 14.6918 31.1168C14.7323 30.9507 14.8097 30.7961 14.9182 30.6647C15.0266 30.5334 15.1633 30.4287 15.3177 30.3588C15.4722 30.2888 15.6404 30.2553 15.8096 30.2608H15.843ZM28.633 15.5315C28.4654 15.5564 28.2943 15.5423 28.1329 15.4902C27.9715 15.4382 27.8239 15.3496 27.7015 15.2313C27.579 15.1129 27.4848 14.9679 27.4262 14.8072C27.3675 14.6466 27.3459 14.4745 27.3629 14.3041C27.3417 14.1353 27.3587 13.9639 27.4124 13.8027C27.4662 13.6415 27.5554 13.4947 27.6733 13.3733C27.7913 13.252 27.9349 13.1592 28.0934 13.1019C28.2519 13.0447 28.4211 13.0245 28.5885 13.0429C28.7536 13.027 28.9202 13.0465 29.0773 13.1001C29.2345 13.1537 29.3788 13.2401 29.5007 13.3538C29.6226 13.4675 29.7195 13.6058 29.785 13.7599C29.8505 13.9139 29.8831 14.0802 29.8808 14.2478C29.8889 14.4195 29.8612 14.591 29.7995 14.7512C29.7378 14.9114 29.6435 15.0567 29.5227 15.1778C29.402 15.2988 29.2574 15.3928 29.0983 15.4538C28.9393 15.5147 28.7694 15.5412 28.5996 15.5315H28.633ZM67.3707 34.9566C66.602 34.8553 66.1117 34.4724 66.1006 33.6729C66.0753 33.5014 66.0896 33.3263 66.1423 33.1612C66.1949 32.9962 66.2846 32.8457 66.4043 32.7214C66.524 32.5971 66.6705 32.5025 66.8323 32.4449C66.9941 32.3873 67.167 32.3682 67.3373 32.3892C67.5063 32.3671 67.6781 32.3845 67.8395 32.44C68.0008 32.4956 68.1474 32.5878 68.268 32.7097C68.3885 32.8315 68.4798 32.9797 68.5347 33.1428C68.5897 33.3058 68.6069 33.4795 68.5851 33.6504C68.6185 34.5062 68.0503 34.7877 67.3707 34.9566ZM61.4882 51.3075C61.3288 51.3089 61.1711 51.2757 61.0255 51.2102C60.88 51.1447 60.75 51.0483 60.6444 50.9277C60.5388 50.8071 60.46 50.665 60.4134 50.511C60.3668 50.357 60.3533 50.1947 60.3741 50.035C60.3702 49.865 60.402 49.696 60.4673 49.5393C60.5327 49.3825 60.6301 49.2415 60.7533 49.1256C60.8764 49.0096 61.0224 48.9214 61.1817 48.8665C61.341 48.8117 61.51 48.7916 61.6776 48.8076C61.8405 48.8139 62.0004 48.8547 62.1468 48.9271C62.2933 48.9996 62.4231 49.1022 62.528 49.2284C62.6329 49.3546 62.7106 49.5016 62.756 49.6599C62.8014 49.8182 62.8136 49.9843 62.7917 50.1476C62.7832 50.3109 62.7426 50.4709 62.6721 50.6181C62.6017 50.7653 62.5028 50.8968 62.3814 51.0048C62.26 51.1129 62.1184 51.1953 61.965 51.2473C61.8116 51.2993 61.6495 51.3197 61.4882 51.3075ZM46.6371 28.4253C46.4691 28.4357 46.3009 28.4093 46.1439 28.348C45.987 28.2867 45.845 28.1918 45.7276 28.07C45.6102 27.9481 45.5202 27.8021 45.4637 27.6419C45.4073 27.4816 45.3857 27.311 45.4004 27.1416C45.4004 26.342 45.924 26.0155 46.6259 25.8578C47.4281 25.9592 47.9183 26.3871 47.9072 27.1641C47.9191 27.3348 47.8943 27.506 47.8343 27.6661C47.7744 27.8261 47.6808 27.9711 47.5601 28.091C47.4393 28.2109 47.2943 28.3029 47.1349 28.3606C46.9755 28.4183 46.8057 28.4404 46.6371 28.4253V28.4253Z" fill="#F9FBFC"/>
<path d="M97.5187 35.3958C97.18 35.1982 96.7957 35.0941 96.4046 35.0941C96.0135 35.0941 95.6292 35.1982 95.2905 35.3958C95.2905 38.7741 95.2905 42.0398 95.2905 45.3505C95.3615 47.4132 95.2983 49.4784 95.1011 51.5327C93.8422 59.787 89.33 65.8454 82.2888 69.8092C73.5987 74.6739 64.3182 74.9892 54.9708 72.1402C48.832 70.2709 45.0329 65.8454 43.2169 59.6519C42.2991 56.4219 41.823 53.0802 41.802 49.7197C41.6906 40.5646 41.802 31.4207 41.802 22.2656C41.7553 21.9435 41.8085 21.6147 41.9541 21.3244C42.0997 21.034 42.3307 20.7964 42.6153 20.644C43.2437 20.249 43.7247 19.6543 43.9828 18.9533C44.2409 18.2522 44.2615 17.4844 44.0413 16.7703C43.8118 16.0383 43.3576 15.3993 42.7447 14.9458C42.1317 14.4923 41.3918 14.2478 40.6322 14.2478C39.8957 14.2643 39.183 14.5146 38.5951 14.9633C38.0073 15.412 37.574 16.0363 37.3567 16.7477C37.1074 17.4523 37.1077 18.2226 37.3576 18.927C37.6075 19.6314 38.0915 20.2263 38.727 20.6102C39.0302 20.7754 39.2741 21.033 39.4241 21.3463C39.5741 21.6597 39.6226 22.0129 39.5626 22.3557C39.5626 31.6797 39.5626 41.015 39.5626 50.3391C39.4748 52.7559 39.6053 55.1758 39.9526 57.5686C41.4009 65.7215 45.6902 71.5997 53.5224 74.5726C58.7881 76.4001 64.3919 77.0119 69.9222 76.3631C79.0467 75.5861 86.723 71.8587 92.4718 64.4941C95.2834 61.1696 97.0349 57.0637 97.4964 52.7151C97.8864 46.9608 97.4853 41.1727 97.5187 35.3958ZM40.5653 19.0224C40.3963 19.0445 40.2244 19.0271 40.0631 18.9716C39.9017 18.916 39.7552 18.8237 39.6346 18.7019C39.5141 18.5801 39.4228 18.4319 39.3678 18.2688C39.3129 18.1057 39.2956 17.9321 39.3175 17.7612C39.2971 17.5901 39.3159 17.4166 39.3723 17.254C39.4287 17.0914 39.5213 16.9441 39.6429 16.8234C39.7645 16.7026 39.9119 16.6117 40.0738 16.5576C40.2356 16.5035 40.4076 16.4876 40.5765 16.5112C41.3675 16.5112 41.7574 17.0067 41.8465 17.7725C41.8516 17.9419 41.8215 18.1104 41.7583 18.2674C41.6951 18.4243 41.6001 18.5662 41.4795 18.6839C41.3588 18.8016 41.2152 18.8925 41.0578 18.9508C40.9004 19.0091 40.7326 19.0335 40.5653 19.0224V19.0224Z" fill="#F9FBFC"/>
<path d="M99.7801 30.8126C99.5632 30.0795 99.1238 29.4339 98.524 28.9671C97.9242 28.5003 97.1944 28.2359 96.4378 28.2113C95.6631 28.2048 94.9075 28.4543 94.2861 28.9218C93.6646 29.3894 93.2113 30.0494 92.9952 30.8013C92.7618 31.5247 92.7718 32.3059 93.0237 33.0229C93.2756 33.74 93.7553 34.3526 94.3878 34.7652L95.2346 35.3958H97.4628L98.3095 34.7652C98.9624 34.3732 99.4638 33.7682 99.7311 33.0497C99.9984 32.3313 100.016 31.5423 99.7801 30.8126V30.8126ZM96.4378 33.0648C95.7582 32.9296 95.2457 32.5805 95.2346 31.8598C95.2259 31.6984 95.2517 31.5369 95.3103 31.3864C95.3689 31.236 95.4589 31.1 95.5741 30.9878C95.6893 30.8756 95.8271 30.7898 95.9781 30.7363C96.129 30.6827 96.2896 30.6627 96.4489 30.6774C96.602 30.6771 96.7536 30.7086 96.8941 30.77C97.0346 30.8315 97.1611 30.9216 97.2656 31.0346C97.3702 31.1477 97.4506 31.2813 97.5017 31.4272C97.5529 31.573 97.5738 31.728 97.563 31.8824C97.5519 32.5693 97.0617 32.9296 96.4044 33.0648H96.4378Z" fill="#F9FBFC"/>
</g>
<defs>
<clipPath id="clip0_160_499">
<rect width="99" height="76" fill="white" transform="translate(0.947266 0.565674)"/>
</clipPath>
</defs>
</svg>
