<svg width="90" height="91" viewBox="0 0 90 91" fill="none" xmlns="http://www.w3.org/2000/svg">
<g clip-path="url(#clip0_111_1022)">
<path d="M45 82.7515C24.2888 82.7515 7.5 65.9627 7.5 45.2515C7.5 24.5402 24.2888 7.75146 45 7.75146C65.7112 7.75146 82.5 24.5402 82.5 45.2515C82.5 65.9627 65.7112 82.7515 45 82.7515ZM39.8325 31.8077C39.6068 31.6571 39.3445 31.5706 39.0735 31.5573C38.8025 31.544 38.533 31.6044 38.2937 31.7322C38.0543 31.8599 37.8541 32.0502 37.7143 32.2828C37.5746 32.5153 37.5005 32.7814 37.5 33.0527V57.4502C37.5005 57.7215 37.5746 57.9876 37.7143 58.2202C37.8541 58.4527 38.0543 58.643 38.2937 58.7707C38.533 58.8985 38.8025 58.9589 39.0735 58.9456C39.3445 58.9323 39.6068 58.8458 39.8325 58.6952L58.1288 46.5002C58.3345 46.3633 58.5032 46.1776 58.6199 45.9598C58.7366 45.7419 58.7977 45.4986 58.7977 45.2515C58.7977 45.0043 58.7366 44.761 58.6199 44.5431C58.5032 44.3253 58.3345 44.1396 58.1288 44.0027L39.8288 31.8077H39.8325Z" fill="white"/>
</g>
<defs>
<clipPath id="clip0_111_1022">
<rect width="90" height="90" fill="white" transform="translate(0 0.251465)"/>
</clipPath>
</defs>
</svg>
