<svg width="100" height="77" viewBox="0 0 100 77" fill="none" xmlns="http://www.w3.org/2000/svg">
<g clip-path="url(#clip0_116_226)">
<path d="M78.2124 40.6796C80.3626 37.5491 80.0729 34.4523 77.9895 31.4344C77.6105 30.901 77.4184 30.2551 77.4436 29.5989C77.4436 25.7476 76.3295 22.4932 72.5081 20.8829C71.873 20.6239 71.9399 20.1622 71.8619 19.7568C71.0263 15.0272 68.7647 12.6174 64.0631 11.5476C63.6732 11.4575 63.3167 11.4688 63.105 10.9958C61.5007 7.43738 58.526 6.19868 54.894 6.16489C54.6728 6.1732 54.4533 6.1224 54.2577 6.01762C54.0621 5.91283 53.8973 5.75777 53.7799 5.56806C50.5712 1.70932 46.7833 0.958592 42.4159 3.31588C41.9814 3.55236 41.7029 3.69875 41.3018 3.20327C40.7172 2.5073 39.999 1.93831 39.1908 1.53067C38.3825 1.12302 37.5009 0.885186 36.5992 0.831511C35.6974 0.777835 34.7943 0.909439 33.9443 1.21837C33.0943 1.52731 32.315 2.00716 31.6536 2.62896C30.1273 4.25054 29.08 4.03658 27.2863 3.27083C19.209 -0.186271 11.2319 4.54332 10.051 13.4057C9.97299 14.0363 9.62761 14.1827 9.20425 14.4192C7.53237 15.2411 6.16629 16.5847 5.30767 18.2515C4.44905 19.9182 4.1434 21.8199 4.43585 23.6756C4.51711 24.0107 4.48821 24.3633 4.35354 24.6803C4.21886 24.9972 3.98572 25.2612 3.6894 25.4323C0.257932 27.876 -1.21269 35.1843 3.22147 38.5063C3.80251 38.9094 4.26604 39.4626 4.56386 40.1082C4.86168 40.7538 4.98291 41.4683 4.91492 42.1773C4.98177 48.1231 9.4605 52.4135 15.6215 51.0847C16.0606 51.0186 16.4957 50.9284 16.925 50.8145C17.5267 50.6343 17.8609 50.7019 18.1283 51.3888C20.5459 57.5598 26.0608 60.9944 33.9153 59.7331C35.8092 59.4291 35.9652 59.2151 35.9652 57.312C35.9652 51.2536 35.9652 45.1953 35.9652 39.1369C35.9652 38.5738 35.8872 38.0896 36.5446 37.673C37.242 37.304 37.7846 36.6934 38.0731 35.9531C38.3616 35.2127 38.3766 34.3922 38.1155 33.6416C37.8881 32.9241 37.4428 32.2974 36.8427 31.8506C36.2426 31.4038 35.5184 31.1596 34.7731 31.1529C34.035 31.1631 33.3179 31.4033 32.7197 31.8406C32.1216 32.2779 31.6714 32.8911 31.4308 33.5965C31.1911 34.353 31.2227 35.1706 31.5202 35.9058C31.8177 36.641 32.3619 37.2468 33.0574 37.6167C33.2575 37.7247 33.4233 37.8878 33.5357 38.0871C33.6481 38.2863 33.7024 38.5136 33.6924 38.7428C33.6924 44.5309 33.6924 50.319 33.6924 56.1071C33.6924 56.8278 33.5142 57.0756 32.7677 57.1656C26.4841 57.9539 22.0054 55.1049 20.1114 49.0465C19.6769 47.6502 19.3092 47.4587 17.8832 47.8303C16.9808 48.0555 16.0783 48.3033 15.1647 48.4497C10.5412 49.1479 7.36597 46.6029 7.62221 41.8846C7.73362 39.4072 7.31026 37.8982 5.05975 36.5131C2.22991 34.7677 2.40816 29.7565 5.05975 27.7859C6.02903 30.5898 7.77818 32.5042 10.8309 32.8082C11.1944 32.8152 11.5513 32.9085 11.8726 33.0806C12.1939 33.2528 12.4706 33.499 12.6803 33.7992C13.1646 34.3955 13.8306 34.8128 14.5744 34.986C15.3182 35.1591 16.0978 35.0784 16.7914 34.7564C17.4434 34.4589 17.9883 33.9647 18.3514 33.3417C18.7144 32.7187 18.8778 31.9974 18.819 31.2768C18.7364 30.5138 18.417 29.7969 17.9067 29.2285C17.3964 28.6601 16.7213 28.2695 15.9781 28.1124C15.2525 27.9839 14.5054 28.0886 13.8418 28.4119C13.1783 28.7351 12.6318 29.2605 12.2792 29.9142C12.0341 30.3308 12.0341 31.0403 11.1651 30.6912C10.1882 30.3963 9.31011 29.8362 8.62646 29.0717C7.94282 28.3072 7.47984 27.3678 7.28797 26.3557C7.11173 25.1659 7.00756 23.9662 6.97602 22.7635C6.8092 21.3178 7.1698 19.8602 7.99022 18.6641C8.81064 17.4679 10.0345 16.6152 11.4325 16.2659C11.6379 16.2233 11.8328 16.1396 12.0056 16.0197C12.1785 15.8997 12.3259 15.746 12.4391 15.5676C12.5522 15.3892 12.6289 15.1897 12.6646 14.9808C12.7003 14.772 12.6943 14.558 12.6469 14.3516C12.4995 12.8267 12.8101 11.2924 13.5381 9.94856C15.9446 5.2415 21.181 3.50731 26.4953 5.65815C28.4895 6.46894 28.4784 6.46894 27.7431 8.39456C27.5817 8.76051 27.444 9.13666 27.3309 9.52065C27.2546 9.9762 27.0868 10.4111 26.8377 10.7985C26.5885 11.1859 26.2635 11.5175 25.8825 11.7728C25.3307 12.1634 24.9221 12.7276 24.7206 13.3773C24.5191 14.0271 24.5359 14.726 24.7684 15.3651C24.9558 16.0609 25.3587 16.6779 25.918 17.1257C26.4773 17.5735 27.1637 17.8286 27.8768 17.8537C28.5898 17.9341 29.3096 17.7804 29.9295 17.4154C30.5495 17.0503 31.0368 16.4934 31.3194 15.8268C31.6192 15.1454 31.6922 14.3841 31.5275 13.6571C31.3628 12.9302 30.9692 12.2769 30.4058 11.7954C30.027 11.4463 29.4922 11.2661 29.7373 10.5229C30.3684 8.3273 31.5151 6.31839 33.0797 4.66719C33.5431 4.18113 34.1113 3.80988 34.7401 3.58243C35.3688 3.35498 36.0411 3.27747 36.7044 3.35596C37.3677 3.43445 38.0041 3.66681 38.5638 4.0349C39.1236 4.403 39.5917 4.89687 39.9315 5.47798C40.845 7.27972 41.2238 7.36981 42.7724 6.13111C46.2039 3.38344 49.9919 4.02532 52.2981 7.78647C52.4466 8.10939 52.6929 8.37619 53.0013 8.54827C53.3098 8.72034 53.6644 8.78877 54.0138 8.74365C54.5888 8.70425 55.1657 8.70425 55.7407 8.74365C56.9579 8.70453 58.1512 9.09091 59.1193 9.83762C60.0874 10.5843 60.7711 11.6457 61.055 12.8426C61.1615 13.1788 61.3737 13.4706 61.6592 13.6739C61.9447 13.8771 62.288 13.9806 62.6371 13.9687C67.2829 14.5993 69.1212 16.6263 69.3217 21.4009C69.2876 21.805 69.4122 22.2065 69.6687 22.5184C69.9251 22.8303 70.2928 23.0276 70.6921 23.0675C71.6674 23.2316 72.561 23.7189 73.2323 24.4526C73.8688 25.2076 74.3375 26.0919 74.6066 27.0459C74.8757 27.9998 74.939 29.001 74.792 29.9818C74.7407 30.4626 74.7884 30.949 74.9322 31.4102C75.076 31.8715 75.3128 32.2977 75.6276 32.6619C76.3758 33.4533 76.8549 34.4653 76.9951 35.5507C77.1354 36.6362 76.9295 37.7386 76.4075 38.6977C75.0228 36.7373 73.0376 35.2928 70.7589 34.5875C70.2353 34.4298 70.3022 34.0695 70.2576 33.6528C70.2323 33.1589 70.103 32.676 69.8785 32.2366C69.654 31.7971 69.3394 31.411 68.9557 31.1041C68.5719 30.7972 68.1278 30.5765 67.653 30.4568C67.1782 30.337 66.6836 30.321 66.2022 30.4097C65.7205 30.493 65.2616 30.6784 64.8558 30.9536C64.45 31.2289 64.1064 31.5878 63.8475 32.0069C63.5887 32.4259 63.4205 32.8955 63.3539 33.3849C63.2874 33.8743 63.3241 34.3724 63.4615 34.8465C63.5901 35.3243 63.8191 35.7686 64.1328 36.1489C64.4466 36.5292 64.8378 36.8367 65.2797 37.0505C65.7217 37.2642 66.204 37.3791 66.6939 37.3875C67.1838 37.3958 67.6697 37.2973 68.1185 37.0987C68.4579 36.9502 68.8238 36.8736 69.1936 36.8736C69.5634 36.8736 69.9293 36.9502 70.2687 37.0987C71.8063 37.66 73.1567 38.6472 74.1654 39.9476C75.1741 41.2479 75.8005 42.8089 75.973 44.452C76.764 49.2942 73.2657 54.8008 68.5976 56.4224C67.9193 56.6342 67.2267 56.796 66.5253 56.9066C65.9571 57.0305 65.6452 56.9066 65.5672 56.1859C65.5115 55.1847 65.1922 54.2167 64.6425 53.382C64.3967 53.0919 64.2429 52.7338 64.2012 52.3542C64.1595 51.9747 64.2317 51.5912 64.4085 51.2536C64.5795 50.795 64.6498 50.3042 64.6143 49.8154C64.5789 49.3266 64.4387 48.8514 64.2033 48.4228C63.968 47.9943 63.6433 47.6226 63.2516 47.3336C62.8599 47.0446 62.4107 46.8452 61.9352 46.7493C61.4699 46.6428 60.9881 46.6327 60.5189 46.7195C60.0496 46.8064 59.6027 46.9884 59.205 47.2547C58.8072 47.5209 58.467 47.8658 58.2048 48.2686C57.9426 48.6714 57.7638 49.1238 57.6793 49.5983C57.5753 50.0605 57.5714 50.54 57.6679 51.0039C57.7644 51.4678 57.959 51.9052 58.2384 52.2859C58.5178 52.6667 58.8753 52.9819 59.2865 53.21C59.6976 53.438 60.1527 53.5735 60.6205 53.6072C61.9575 53.6072 62.3808 54.3391 62.7596 55.3414C63.8737 58.2579 63.0047 60.4651 60.1303 61.6587C57.5458 62.6724 54.7311 62.93 52.0084 62.402C48.6661 61.8614 47.3403 60.2624 47.3292 56.7715C47.3292 48.3371 47.3292 39.8801 47.3292 31.4795C47.3021 31.2213 47.3524 30.9608 47.4736 30.7319C47.5948 30.503 47.7812 30.3162 48.0088 30.1957C48.6385 29.845 49.136 29.2939 49.4241 28.628C49.7121 27.9622 49.7747 27.2188 49.602 26.5134C49.4506 25.7575 49.0559 25.0736 48.4795 24.5684C47.903 24.0631 47.1773 23.7651 46.4156 23.7207C45.6775 23.6744 44.9441 23.868 44.3227 24.2733C43.7012 24.6785 43.2244 25.2741 42.9618 25.9729C42.6769 26.6814 42.6316 27.4653 42.8331 28.2026C43.0346 28.9398 43.4715 29.5891 44.076 30.0493C44.5105 30.3871 45.0452 30.5335 45.0341 31.3218C45.0341 39.9702 45.0341 48.6299 45.0341 57.2895C45.0341 61.0957 46.7387 63.7195 50.4153 64.6767C53.7208 65.542 57.2035 65.4207 60.4423 64.3276C61.4998 64.0441 62.4843 63.5331 63.3284 62.8295C64.1726 62.126 64.8564 61.2465 65.3332 60.2511C65.5895 59.6656 66.0017 59.5642 66.581 59.5079C68.5489 59.2601 70.4402 58.5835 72.1241 57.5248C73.8081 56.4662 75.2447 55.0508 76.3347 53.3762C77.4247 51.7017 78.1421 49.808 78.4374 47.8259C78.7328 45.8438 78.599 43.8205 78.0452 41.8958C77.9627 41.6966 77.9346 41.4786 77.964 41.2646C77.9934 41.0506 78.0792 40.8486 78.2124 40.6796V40.6796ZM33.6479 34.6438C33.6365 34.4772 33.6619 34.3101 33.7223 34.1546C33.7827 33.9992 33.8766 33.8593 33.9971 33.745C34.1176 33.6307 34.2618 33.545 34.4191 33.494C34.5764 33.443 34.743 33.428 34.9068 33.4501C35.0756 33.4344 35.2457 33.4577 35.4042 33.5185C35.5627 33.5792 35.7054 33.6757 35.8214 33.8005C35.9374 33.9254 36.0237 34.0754 36.0738 34.2391C36.1238 34.4028 36.1362 34.5759 36.1101 34.7451C36.1101 35.5559 35.5641 35.8712 34.8177 35.9838C34.6498 35.9813 34.4843 35.944 34.3313 35.8741C34.1783 35.8043 34.0412 35.7034 33.9283 35.5777C33.8155 35.4521 33.7294 35.3044 33.6755 35.1437C33.6215 34.983 33.6007 34.8129 33.6144 34.6438H33.6479ZM15.343 30.4435C15.5084 30.4272 15.6753 30.4486 15.8315 30.506C15.9876 30.5634 16.1291 30.6554 16.2456 30.7753C16.362 30.8951 16.4504 31.0398 16.5044 31.1986C16.5583 31.3575 16.5764 31.5266 16.5574 31.6934C16.5759 31.8636 16.5558 32.0358 16.4985 32.197C16.4413 32.3581 16.3485 32.504 16.2271 32.6234C16.1057 32.7428 15.959 32.8327 15.798 32.8862C15.6371 32.9397 15.4663 32.9554 15.2984 32.9321C15.1478 32.9502 14.9951 32.9336 14.8518 32.8834C14.7084 32.8332 14.5782 32.7508 14.471 32.6424C14.3637 32.534 14.2822 32.4024 14.2326 32.2575C14.1829 32.1126 14.1664 31.9583 14.1843 31.806C14.1487 31.6388 14.1512 31.4655 14.1918 31.2994C14.2323 31.1333 14.3097 30.9787 14.4182 30.8473C14.5266 30.716 14.6633 30.6114 14.8177 30.5414C14.9722 30.4714 15.1404 30.4379 15.3096 30.4435H15.343ZM28.133 15.7142C27.9654 15.739 27.7943 15.7249 27.6329 15.6728C27.4715 15.6208 27.3239 15.5322 27.2015 15.4139C27.079 15.2955 26.9848 15.1505 26.9262 14.9898C26.8675 14.8292 26.8459 14.6571 26.8629 14.4867C26.8417 14.318 26.8587 14.1465 26.9124 13.9853C26.9662 13.8241 27.0554 13.6773 27.1733 13.5559C27.2913 13.4346 27.4349 13.3418 27.5934 13.2846C27.7519 13.2273 27.9211 13.2071 28.0885 13.2255C28.2536 13.2097 28.4202 13.2292 28.5773 13.2827C28.7345 13.3363 28.8788 13.4228 29.0007 13.5364C29.1226 13.6501 29.2195 13.7885 29.285 13.9425C29.3505 14.0965 29.3831 14.2628 29.3808 14.4304C29.3889 14.6021 29.3612 14.7736 29.2995 14.9338C29.2378 15.094 29.1435 15.2393 29.0227 15.3604C28.902 15.4814 28.7574 15.5754 28.5983 15.6364C28.4393 15.6973 28.2694 15.7238 28.0996 15.7142H28.133ZM66.8707 35.1393C66.102 35.0379 65.6117 34.655 65.6006 33.8555C65.5753 33.684 65.5896 33.5089 65.6423 33.3438C65.6949 33.1788 65.7846 33.0283 65.9043 32.904C66.024 32.7798 66.1705 32.6851 66.3323 32.6275C66.4941 32.5699 66.667 32.5508 66.8373 32.5718C67.0063 32.5497 67.1781 32.5671 67.3395 32.6226C67.5008 32.6782 67.6474 32.7705 67.768 32.8923C67.8885 33.0141 67.9798 33.1623 68.0347 33.3254C68.0897 33.4885 68.1069 33.6621 68.0851 33.833C68.1185 34.6888 67.5503 34.9703 66.8707 35.1393ZM60.9882 51.4901C60.8288 51.4915 60.6711 51.4583 60.5255 51.3928C60.38 51.3273 60.25 51.231 60.1444 51.1104C60.0388 50.9897 59.96 50.8477 59.9134 50.6937C59.8668 50.5396 59.8533 50.3773 59.8741 50.2176C59.8702 50.0476 59.902 49.8786 59.9673 49.7219C60.0327 49.5651 60.1301 49.4242 60.2533 49.3082C60.3764 49.1923 60.5224 49.104 60.6817 49.0492C60.841 48.9944 61.01 48.9743 61.1776 48.9902C61.3405 48.9966 61.5004 49.0373 61.6468 49.1098C61.7933 49.1822 61.9231 49.2848 62.028 49.411C62.1329 49.5372 62.2106 49.6842 62.256 49.8425C62.3014 50.0008 62.3136 50.1669 62.2917 50.3303C62.2832 50.4935 62.2426 50.6535 62.1721 50.8007C62.1017 50.9479 62.0028 51.0794 61.8814 51.1874C61.76 51.2955 61.6184 51.3779 61.465 51.4299C61.3116 51.4819 61.1495 51.5024 60.9882 51.4901ZM46.1371 28.6079C45.9691 28.6183 45.8009 28.5919 45.6439 28.5306C45.487 28.4693 45.345 28.3744 45.2276 28.2526C45.1102 28.1307 45.0202 27.9847 44.9637 27.8245C44.9073 27.6643 44.8857 27.4936 44.9004 27.3242C44.9004 26.5247 45.424 26.1981 46.1259 26.0404C46.9281 26.1418 47.4183 26.5697 47.4072 27.3467C47.4191 27.5174 47.3943 27.6886 47.3343 27.8487C47.2744 28.0087 47.1808 28.1537 47.0601 28.2736C46.9393 28.3935 46.7943 28.4855 46.6349 28.5432C46.4755 28.6009 46.3057 28.623 46.1371 28.6079V28.6079Z" fill="#F9FBFC"/>
<path d="M97.0187 35.5784C96.68 35.3808 96.2957 35.2767 95.9046 35.2767C95.5135 35.2767 95.1292 35.3808 94.7905 35.5784C94.7905 38.9567 94.7905 42.2224 94.7905 45.5331C94.8615 47.5958 94.7983 49.661 94.6011 51.7154C93.3422 59.9696 88.83 66.028 81.7888 69.9918C73.0987 74.8566 63.8182 75.1719 54.4708 72.3229C48.332 70.4535 44.5329 66.028 42.7169 59.8345C41.7991 56.6045 41.323 53.2628 41.302 49.9023C41.1906 40.7472 41.302 31.6033 41.302 22.4482C41.2553 22.1261 41.3085 21.7973 41.4541 21.507C41.5997 21.2166 41.8307 20.979 42.1153 20.8266C42.7437 20.4316 43.2247 19.837 43.4828 19.1359C43.7409 18.4348 43.7615 17.667 43.5413 16.9529C43.3118 16.221 42.8576 15.5819 42.2447 15.1284C41.6317 14.6749 40.8918 14.4304 40.1322 14.4304C39.3957 14.4469 38.683 14.6973 38.0951 15.1459C37.5073 15.5946 37.074 16.2189 36.8567 16.9303C36.6074 17.635 36.6077 18.4052 36.8576 19.1096C37.1075 19.814 37.5915 20.4089 38.227 20.7928C38.5302 20.958 38.7741 21.2156 38.9241 21.529C39.0741 21.8423 39.1226 22.1955 39.0626 22.5383C39.0626 31.8623 39.0626 41.1976 39.0626 50.5217C38.9748 52.9385 39.1053 55.3584 39.4526 57.7512C40.9009 65.9041 45.1902 71.7823 53.0224 74.7552C58.2881 76.5827 63.8919 77.1945 69.4222 76.5457C78.5467 75.7687 86.223 72.0413 91.9718 64.6767C94.7834 61.3522 96.5349 57.2463 96.9964 52.8977C97.3864 47.1434 96.9853 41.3553 97.0187 35.5784ZM40.0653 19.2051C39.8963 19.2272 39.7244 19.2097 39.5631 19.1542C39.4017 19.0986 39.2552 19.0064 39.1346 18.8845C39.0141 18.7627 38.9228 18.6145 38.8678 18.4515C38.8129 18.2884 38.7956 18.1147 38.8175 17.9438C38.7971 17.7728 38.8159 17.5992 38.8723 17.4367C38.9287 17.2741 39.0213 17.1267 39.1429 17.006C39.2645 16.8852 39.4119 16.7943 39.5738 16.7402C39.7356 16.6861 39.9076 16.6702 40.0765 16.6939C40.8675 16.6939 41.2574 17.1893 41.3465 17.9551C41.3516 18.1245 41.3215 18.2931 41.2583 18.45C41.1951 18.607 41.1001 18.7488 40.9795 18.8665C40.8588 18.9842 40.7152 19.0751 40.5578 19.1334C40.4004 19.1917 40.2326 19.2161 40.0653 19.2051V19.2051Z" fill="#F9FBFC"/>
<path d="M99.2801 30.9952C99.0632 30.2621 98.6238 29.6165 98.024 29.1497C97.4242 28.6829 96.6944 28.4185 95.9378 28.3939C95.1631 28.3874 94.4075 28.6369 93.7861 29.1044C93.1646 29.572 92.7113 30.232 92.4952 30.9839C92.2618 31.7073 92.2718 32.4885 92.5237 33.2056C92.7756 33.9226 93.2553 34.5352 93.8878 34.9478L94.7346 35.5784H96.9628L97.8095 34.9478C98.4624 34.5558 98.9638 33.9508 99.2311 33.2324C99.4984 32.5139 99.5157 31.7249 99.2801 30.9952V30.9952ZM95.9378 33.2474C95.2582 33.1123 94.7457 32.7632 94.7346 32.0425C94.7259 31.881 94.7517 31.7195 94.8103 31.5691C94.8689 31.4186 94.9589 31.2826 95.0741 31.1704C95.1893 31.0582 95.3271 30.9725 95.4781 30.9189C95.629 30.8653 95.7896 30.8453 95.9489 30.8601C96.102 30.8597 96.2536 30.8912 96.3941 30.9527C96.5346 31.0141 96.6611 31.1042 96.7656 31.2173C96.8702 31.3303 96.9506 31.4639 97.0017 31.6098C97.0529 31.7557 97.0738 31.9106 97.063 32.065C97.0519 32.7519 96.5617 33.1123 95.9044 33.2474H95.9378Z" fill="#F9FBFC"/>
</g>
<defs>
<clipPath id="clip0_116_226">
<rect width="99" height="76" fill="white" transform="translate(0.447266 0.748291)"/>
</clipPath>
</defs>
</svg>
