<svg width="100" height="77" viewBox="0 0 100 77" fill="none" xmlns="http://www.w3.org/2000/svg">
<g clip-path="url(#clip0_174_908)">
<path d="M78.7124 40.4328C80.8626 37.3023 80.5729 34.2055 78.4895 31.1876C78.1105 30.6542 77.9184 30.0083 77.9436 29.3521C77.9436 25.5008 76.8295 22.2464 73.0081 20.6361C72.373 20.3771 72.4399 19.9154 72.3619 19.51C71.5263 14.7804 69.2647 12.3706 64.5631 11.3008C64.1732 11.2107 63.8167 11.222 63.605 10.749C62.0007 7.19055 59.026 5.95185 55.394 5.91807C55.1728 5.92638 54.9533 5.87558 54.7577 5.77079C54.5621 5.66601 54.3973 5.51094 54.2799 5.32124C51.0712 1.46249 47.2833 0.711765 42.9159 3.06905C42.4814 3.30553 42.2029 3.45192 41.8018 2.95644C41.2172 2.26047 40.499 1.69148 39.6908 1.28384C38.8825 0.876198 38.0009 0.63836 37.0992 0.584685C36.1974 0.531009 35.2943 0.662613 34.4443 0.971547C33.5943 1.28048 32.815 1.76034 32.1536 2.38214C30.6273 4.00371 29.58 3.78975 27.7863 3.02401C19.709 -0.433097 11.7319 4.29649 10.551 13.1588C10.473 13.7895 10.1276 13.9358 9.70425 14.1723C8.03237 14.9943 6.66629 16.3379 5.80767 18.0046C4.94905 19.6714 4.6434 21.573 4.93585 23.4288C5.01711 23.7638 4.98821 24.1165 4.85354 24.4334C4.71886 24.7504 4.48572 25.0144 4.1894 25.1855C0.757932 27.6291 -0.712694 34.9375 3.72147 38.2595C4.30251 38.6626 4.76604 39.2158 5.06386 39.8614C5.36168 40.507 5.48291 41.2215 5.41492 41.9305C5.48177 47.8763 9.9605 52.1667 16.1215 50.8379C16.5606 50.7717 16.9957 50.6815 17.425 50.5676C18.0267 50.3875 18.3609 50.455 18.6283 51.142C21.0459 57.3129 26.5608 60.7475 34.4153 59.4863C36.3092 59.1823 36.4652 58.9683 36.4652 57.0652C36.4652 51.0068 36.4652 44.9484 36.4652 38.8901C36.4652 38.327 36.3872 37.8428 37.0446 37.4261C37.742 37.0571 38.2846 36.4466 38.5731 35.7062C38.8616 34.9659 38.8766 34.1453 38.6155 33.3947C38.3881 32.6773 37.9428 32.0506 37.3427 31.6038C36.7426 31.157 36.0184 30.9128 35.2731 30.9061C34.535 30.9163 33.8179 31.1564 33.2197 31.5938C32.6216 32.0311 32.1714 32.6443 31.9308 33.3497C31.6911 34.1061 31.7227 34.9238 32.0202 35.659C32.3177 36.3942 32.8619 37 33.5574 37.3698C33.7575 37.4779 33.9233 37.641 34.0357 37.8402C34.1481 38.0395 34.2024 38.2668 34.1924 38.4959C34.1924 44.284 34.1924 50.0722 34.1924 55.8603C34.1924 56.581 34.0142 56.8287 33.2677 56.9188C26.9841 57.7071 22.5054 54.8581 20.6114 48.7997C20.1769 47.4033 19.8092 47.2119 18.3832 47.5835C17.4808 47.8087 16.5783 48.0565 15.6647 48.2029C11.0412 48.901 7.86597 46.3561 8.12221 41.6377C8.23362 39.1603 7.81026 37.6514 5.55975 36.2663C2.72991 34.5208 2.90816 29.5097 5.55975 27.539C6.52903 30.343 8.27818 32.2574 11.3309 32.5614C11.6944 32.5683 12.0513 32.6617 12.3726 32.8338C12.6939 33.006 12.9706 33.2521 13.1803 33.5524C13.6646 34.1486 14.3306 34.566 15.0744 34.7391C15.8182 34.9123 16.5978 34.8316 17.2914 34.5096C17.9434 34.2121 18.4883 33.7179 18.8514 33.0949C19.2144 32.4719 19.3778 31.7506 19.319 31.0299C19.2364 30.267 18.917 29.55 18.4067 28.9817C17.8964 28.4133 17.2213 28.0226 16.4781 27.8656C15.7525 27.7371 15.0054 27.8418 14.3418 28.165C13.6783 28.4883 13.1318 29.0137 12.7792 29.6674C12.5341 30.084 12.5341 30.7935 11.6651 30.4444C10.6882 30.1495 9.81011 29.5893 9.12646 28.8249C8.44282 28.0604 7.97984 27.121 7.78797 26.1089C7.61173 24.919 7.50756 23.7194 7.47602 22.5167C7.3092 21.071 7.6698 19.6134 8.49022 18.4172C9.31064 17.221 10.5345 16.3684 11.9325 16.0191C12.1379 15.9765 12.3328 15.8928 12.5056 15.7728C12.6785 15.6529 12.8259 15.4992 12.9391 15.3208C13.0522 15.1424 13.1289 14.9429 13.1646 14.734C13.2003 14.5252 13.1943 14.3112 13.1469 14.1048C12.9995 12.5799 13.3101 11.0455 14.0381 9.70174C16.4446 4.99467 21.681 3.26049 26.9953 5.41133C28.9895 6.22211 28.9784 6.22211 28.2431 8.14773C28.0817 8.51368 27.944 8.88984 27.8309 9.27382C27.7546 9.72938 27.5868 10.1643 27.3377 10.5517C27.0885 10.939 26.7635 11.2707 26.3825 11.526C25.8307 11.9166 25.4221 12.4807 25.2206 13.1305C25.0191 13.7802 25.0359 14.4791 25.2684 15.1182C25.4558 15.8141 25.8587 16.431 26.418 16.8788C26.9773 17.3266 27.6637 17.5818 28.3768 17.6069C29.0898 17.6873 29.8096 17.5336 30.4295 17.1686C31.0495 16.8035 31.5368 16.2465 31.8194 15.5799C32.1192 14.8985 32.1922 14.1372 32.0275 13.4103C31.8628 12.6834 31.4692 12.0301 30.9058 11.5485C30.527 11.1994 29.9922 11.0193 30.2373 10.276C30.8684 8.08048 32.0151 6.07156 33.5797 4.42036C34.0431 3.9343 34.6113 3.56306 35.2401 3.3356C35.8688 3.10815 36.5411 3.03064 37.2044 3.10913C37.8677 3.18762 38.5041 3.41998 39.0638 3.78808C39.6236 4.15618 40.0917 4.65005 40.4315 5.23115C41.345 7.0329 41.7238 7.12299 43.2724 5.88428C46.7039 3.13662 50.4919 3.77849 52.7981 7.53964C52.9466 7.86256 53.1929 8.12936 53.5013 8.30144C53.8098 8.47352 54.1644 8.54194 54.5138 8.49682C55.0888 8.45743 55.6657 8.45743 56.2407 8.49682C57.4579 8.45771 58.6512 8.84409 59.6193 9.5908C60.5874 10.3375 61.2711 11.3988 61.555 12.5958C61.6615 12.932 61.8737 13.2238 62.1592 13.427C62.4447 13.6303 62.788 13.7338 63.1371 13.7219C67.7829 14.3525 69.6212 16.3795 69.8217 21.1541C69.7876 21.5582 69.9122 21.9596 70.1687 22.2715C70.4251 22.5835 70.7928 22.7807 71.1921 22.8207C72.1674 22.9848 73.061 23.4721 73.7323 24.2058C74.3688 24.9608 74.8375 25.8451 75.1066 26.799C75.3757 27.753 75.439 28.7542 75.292 29.7349C75.2407 30.2158 75.2884 30.7021 75.4322 31.1634C75.576 31.6247 75.8128 32.0508 76.1276 32.415C76.8758 33.2065 77.3549 34.2185 77.4951 35.3039C77.6354 36.3894 77.4295 37.4918 76.9075 38.4509C75.5228 36.4905 73.5376 35.0459 71.2589 34.3406C70.7353 34.183 70.8022 33.8226 70.7576 33.406C70.7323 32.912 70.603 32.4292 70.3785 31.9897C70.154 31.5502 69.8394 31.1642 69.4557 30.8573C69.0719 30.5504 68.6278 30.3297 68.153 30.2099C67.6782 30.0902 67.1836 30.0741 66.7022 30.1628C66.2205 30.2462 65.7616 30.4315 65.3558 30.7068C64.95 30.9821 64.6064 31.341 64.3475 31.76C64.0887 32.1791 63.9205 32.6487 63.8539 33.1381C63.7874 33.6275 63.8241 34.1256 63.9615 34.5997C64.0901 35.0775 64.3191 35.5217 64.6328 35.9021C64.9466 36.2824 65.3378 36.5899 65.7797 36.8036C66.2217 37.0174 66.704 37.1323 67.1939 37.1406C67.6838 37.149 68.1697 37.0504 68.6185 36.8518C68.9579 36.7034 69.3238 36.6268 69.6936 36.6268C70.0634 36.6268 70.4293 36.7034 70.7687 36.8518C72.3063 37.4131 73.6567 38.4004 74.6654 39.7007C75.6741 41.0011 76.3005 42.562 76.473 44.2052C77.264 49.0474 73.7657 54.554 69.0976 56.1756C68.4193 56.3874 67.7267 56.5492 67.0253 56.6598C66.4571 56.7837 66.1452 56.6598 66.0672 55.9391C66.0115 54.9379 65.6922 53.9699 65.1425 53.1351C64.8967 52.8451 64.7429 52.487 64.7012 52.1074C64.6595 51.7278 64.7317 51.3443 64.9085 51.0068C65.0795 50.5482 65.1498 50.0574 65.1143 49.5686C65.0789 49.0797 64.9387 48.6046 64.7033 48.176C64.468 47.7474 64.1433 47.3758 63.7516 47.0868C63.3599 46.7978 62.9107 46.5984 62.4352 46.5024C61.9699 46.396 61.4881 46.3858 61.0189 46.4727C60.5496 46.5595 60.1027 46.7416 59.705 47.0078C59.3072 47.2741 58.967 47.619 58.7048 48.0218C58.4426 48.4246 58.2638 48.8769 58.1793 49.3515C58.0753 49.8137 58.0714 50.2932 58.1679 50.7571C58.2644 51.221 58.459 51.6583 58.7384 52.0391C59.0178 52.4199 59.3753 52.7351 59.7865 52.9631C60.1976 53.1912 60.6527 53.3267 61.1205 53.3604C62.4575 53.3604 62.8808 54.0923 63.2596 55.0945C64.3737 58.0111 63.5047 60.2183 60.6303 61.4119C58.0458 62.4256 55.2311 62.6832 52.5084 62.1551C49.1661 61.6146 47.8403 60.0156 47.8292 56.5247C47.8292 48.0902 47.8292 39.6333 47.8292 31.2326C47.8021 30.9745 47.8524 30.714 47.9736 30.4851C48.0948 30.2562 48.2812 30.0694 48.5088 29.9489C49.1385 29.5981 49.636 29.047 49.9241 28.3812C50.2121 27.7154 50.2747 26.972 50.102 26.2666C49.9506 25.5107 49.5559 24.8268 48.9795 24.3215C48.403 23.8163 47.6773 23.5182 46.9156 23.4739C46.1775 23.4276 45.4441 23.6212 44.8227 24.0264C44.2012 24.4317 43.7244 25.0272 43.4618 25.726C43.1769 26.4346 43.1316 27.2185 43.3331 27.9558C43.5346 28.693 43.9715 29.3423 44.576 29.8025C45.0105 30.1403 45.5452 30.2867 45.5341 31.075C45.5341 39.7234 45.5341 48.383 45.5341 57.0427C45.5341 60.8489 47.2387 63.4727 50.9153 64.4298C54.2208 65.2952 57.7035 65.1739 60.9423 64.0808C61.9998 63.7973 62.9843 63.2863 63.8284 62.5827C64.6726 61.8792 65.3564 60.9996 65.8332 60.0043C66.0895 59.4187 66.5017 59.3174 67.081 59.2611C69.0489 59.0132 70.9402 58.3367 72.6241 57.278C74.3081 56.2194 75.7447 54.8039 76.8347 53.1294C77.9247 51.4549 78.6421 49.5612 78.9374 47.5791C79.2328 45.597 79.099 43.5737 78.5452 41.649C78.4627 41.4497 78.4346 41.2317 78.464 41.0178C78.4934 40.8038 78.5792 40.6018 78.7124 40.4328V40.4328ZM34.1479 34.397C34.1365 34.2303 34.1619 34.0633 34.2223 33.9078C34.2827 33.7524 34.3766 33.6124 34.4971 33.4982C34.6176 33.3839 34.7618 33.2982 34.9191 33.2472C35.0764 33.1962 35.243 33.1812 35.4068 33.2033C35.5756 33.1875 35.7457 33.2109 35.9042 33.2716C36.0627 33.3324 36.2054 33.4288 36.3214 33.5537C36.4374 33.6786 36.5237 33.8286 36.5738 33.9923C36.6238 34.156 36.6362 34.329 36.6101 34.4983C36.6101 35.3091 36.0641 35.6244 35.3177 35.737C35.1498 35.7345 34.9843 35.6971 34.8313 35.6273C34.6783 35.5574 34.5412 35.4566 34.4283 35.3309C34.3155 35.2053 34.2294 35.0575 34.1755 34.8969C34.1215 34.7362 34.1007 34.5661 34.1144 34.397H34.1479ZM15.843 30.1966C16.0084 30.1804 16.1753 30.2018 16.3315 30.2592C16.4876 30.3166 16.6291 30.4086 16.7456 30.5285C16.862 30.6483 16.9504 30.793 17.0044 30.9518C17.0583 31.1107 17.0764 31.2797 17.0574 31.4466C17.0759 31.6168 17.0558 31.789 16.9985 31.9502C16.9413 32.1113 16.8485 32.2571 16.7271 32.3766C16.6057 32.496 16.459 32.5859 16.298 32.6394C16.1371 32.6929 15.9663 32.7086 15.7984 32.6853C15.6478 32.7034 15.4951 32.6867 15.3518 32.6365C15.2084 32.5864 15.0782 32.504 14.971 32.3955C14.8637 32.2871 14.7822 32.1555 14.7326 32.0107C14.6829 31.8658 14.6664 31.7114 14.6843 31.5592C14.6487 31.3919 14.6512 31.2187 14.6918 31.0526C14.7323 30.8865 14.8097 30.7319 14.9182 30.6005C15.0266 30.4692 15.1633 30.3645 15.3177 30.2946C15.4722 30.2246 15.6404 30.1911 15.8096 30.1966H15.843ZM28.633 15.4673C28.4654 15.4922 28.2943 15.478 28.1329 15.426C27.9715 15.374 27.8239 15.2854 27.7015 15.1671C27.579 15.0487 27.4848 14.9037 27.4262 14.743C27.3675 14.5824 27.3459 14.4103 27.3629 14.2399C27.3417 14.0711 27.3587 13.8997 27.4124 13.7385C27.4662 13.5773 27.5554 13.4305 27.6733 13.3091C27.7913 13.1877 27.9349 13.095 28.0934 13.0377C28.2519 12.9805 28.4211 12.9603 28.5885 12.9787C28.7536 12.9628 28.9202 12.9823 29.0773 13.0359C29.2345 13.0895 29.3788 13.1759 29.5007 13.2896C29.6226 13.4033 29.7195 13.5416 29.785 13.6957C29.8505 13.8497 29.8831 14.0159 29.8808 14.1836C29.8889 14.3553 29.8612 14.5268 29.7995 14.687C29.7378 14.8472 29.6435 14.9925 29.5227 15.1135C29.402 15.2346 29.2574 15.3286 29.0983 15.3895C28.9393 15.4505 28.7694 15.477 28.5996 15.4673H28.633ZM67.3707 34.8924C66.602 34.7911 66.1117 34.4082 66.1006 33.6087C66.0753 33.4372 66.0896 33.262 66.1423 33.097C66.1949 32.932 66.2846 32.7814 66.4043 32.6572C66.524 32.5329 66.6705 32.4383 66.8323 32.3807C66.9941 32.323 67.167 32.304 67.3373 32.3249C67.5063 32.3028 67.6781 32.3202 67.8395 32.3758C68.0008 32.4314 68.1474 32.5236 68.268 32.6455C68.3885 32.7673 68.4798 32.9155 68.5347 33.0785C68.5897 33.2416 68.6069 33.4153 68.5851 33.5862C68.6185 34.442 68.0503 34.7235 67.3707 34.8924ZM61.4882 51.2433C61.3288 51.2447 61.1711 51.2115 61.0255 51.146C60.88 51.0804 60.75 50.9841 60.6444 50.8635C60.5388 50.7429 60.46 50.6008 60.4134 50.4468C60.3668 50.2928 60.3533 50.1305 60.3741 49.9708C60.3702 49.8008 60.402 49.6318 60.4673 49.4751C60.5327 49.3183 60.6301 49.1773 60.7533 49.0614C60.8764 48.9454 61.0224 48.8571 61.1817 48.8023C61.341 48.7475 61.51 48.7274 61.6776 48.7434C61.8405 48.7497 62.0004 48.7905 62.1468 48.8629C62.2933 48.9354 62.4231 49.038 62.528 49.1642C62.6329 49.2904 62.7106 49.4373 62.756 49.5956C62.8014 49.7539 62.8136 49.9201 62.7917 50.0834C62.7832 50.2467 62.7426 50.4067 62.6721 50.5539C62.6017 50.7011 62.5028 50.8325 62.3814 50.9406C62.26 51.0486 62.1184 51.1311 61.965 51.1831C61.8116 51.235 61.6495 51.2555 61.4882 51.2433ZM46.6371 28.3611C46.4691 28.3715 46.3009 28.3451 46.1439 28.2838C45.987 28.2224 45.845 28.1276 45.7276 28.0058C45.6102 27.8839 45.5202 27.7379 45.4637 27.5777C45.4073 27.4174 45.3857 27.2468 45.4004 27.0774C45.4004 26.2778 45.924 25.9513 46.6259 25.7936C47.4281 25.895 47.9183 26.3229 47.9072 27.0999C47.9191 27.2706 47.8943 27.4418 47.8343 27.6018C47.7744 27.7619 47.6808 27.9068 47.5601 28.0268C47.4393 28.1467 47.2943 28.2387 47.1349 28.2964C46.9755 28.3541 46.8057 28.3762 46.6371 28.3611V28.3611Z" fill="#F9FBFC"/>
<path d="M97.5187 35.3316C97.18 35.1339 96.7957 35.0299 96.4046 35.0299C96.0135 35.0299 95.6292 35.1339 95.2905 35.3316C95.2905 38.7099 95.2905 41.9756 95.2905 45.2863C95.3615 47.349 95.2983 49.4142 95.1011 51.4685C93.8422 59.7228 89.33 65.7812 82.2888 69.745C73.5987 74.6097 64.3182 74.925 54.9708 72.076C48.832 70.2067 45.0329 65.7812 43.2169 59.5877C42.2991 56.3577 41.823 53.016 41.802 49.6555C41.6906 40.5004 41.802 31.3565 41.802 22.2014C41.7553 21.8793 41.8085 21.5505 41.9541 21.2602C42.0997 20.9698 42.3307 20.7322 42.6153 20.5798C43.2437 20.1848 43.7247 19.5901 43.9828 18.8891C44.2409 18.188 44.2615 17.4202 44.0413 16.706C43.8118 15.9741 43.3576 15.3351 42.7447 14.8816C42.1317 14.428 41.3918 14.1836 40.6322 14.1836C39.8957 14.2001 39.183 14.4504 38.5951 14.8991C38.0073 15.3478 37.574 15.9721 37.3567 16.6835C37.1074 17.3881 37.1077 18.1584 37.3576 18.8628C37.6075 19.5672 38.0915 20.1621 38.727 20.546C39.0302 20.7112 39.2741 20.9688 39.4241 21.2821C39.5741 21.5955 39.6226 21.9487 39.5626 22.2915C39.5626 31.6155 39.5626 40.9508 39.5626 50.2749C39.4748 52.6917 39.6053 55.1115 39.9526 57.5044C41.4009 65.6573 45.6902 71.5355 53.5224 74.5084C58.7881 76.3359 64.3919 76.9477 69.9222 76.2989C79.0467 75.5219 86.723 71.7945 92.4718 64.4299C95.2834 61.1054 97.0349 56.9995 97.4964 52.6509C97.8864 46.8966 97.4853 41.1085 97.5187 35.3316ZM40.5653 18.9582C40.3963 18.9803 40.2244 18.9629 40.0631 18.9074C39.9017 18.8518 39.7552 18.7595 39.6346 18.6377C39.5141 18.5159 39.4228 18.3677 39.3678 18.2046C39.3129 18.0415 39.2956 17.8679 39.3175 17.697C39.2971 17.5259 39.3159 17.3524 39.3723 17.1898C39.4287 17.0272 39.5213 16.8799 39.6429 16.7591C39.7645 16.6384 39.9119 16.5475 40.0738 16.4934C40.2356 16.4393 40.4076 16.4234 40.5765 16.447C41.3675 16.447 41.7574 16.9425 41.8465 17.7083C41.8516 17.8777 41.8215 18.0462 41.7583 18.2032C41.6951 18.3601 41.6001 18.502 41.4795 18.6197C41.3588 18.7374 41.2152 18.8283 41.0578 18.8866C40.9004 18.9449 40.7326 18.9693 40.5653 18.9582V18.9582Z" fill="#F9FBFC"/>
<path d="M99.7801 30.7484C99.5632 30.0153 99.1238 29.3697 98.524 28.9029C97.9242 28.4361 97.1944 28.1717 96.4378 28.1471C95.6631 28.1406 94.9075 28.3901 94.2861 28.8576C93.6646 29.3252 93.2113 29.9851 92.9952 30.7371C92.7618 31.4605 92.7718 32.2417 93.0237 32.9587C93.2756 33.6758 93.7553 34.2884 94.3878 34.701L95.2346 35.3316H97.4628L98.3095 34.701C98.9624 34.309 99.4638 33.704 99.7311 32.9855C99.9984 32.2671 100.016 31.4781 99.7801 30.7484V30.7484ZM96.4378 33.0006C95.7582 32.8654 95.2457 32.5163 95.2346 31.7956C95.2259 31.6342 95.2517 31.4727 95.3103 31.3222C95.3689 31.1717 95.4589 31.0358 95.5741 30.9236C95.6893 30.8114 95.8271 30.7256 95.9781 30.6721C96.129 30.6185 96.2896 30.5984 96.4489 30.6132C96.602 30.6129 96.7536 30.6444 96.8941 30.7058C97.0346 30.7673 97.1611 30.8574 97.2656 30.9704C97.3702 31.0835 97.4506 31.2171 97.5017 31.363C97.5529 31.5088 97.5738 31.6638 97.563 31.8182C97.5519 32.5051 97.0617 32.8654 96.4044 33.0006H96.4378Z" fill="#F9FBFC"/>
</g>
<defs>
<clipPath id="clip0_174_908">
<rect width="99" height="76" fill="white" transform="translate(0.947266 0.501465)"/>
</clipPath>
</defs>
</svg>
