<svg width="100" height="77" viewBox="0 0 100 77" fill="none" xmlns="http://www.w3.org/2000/svg">
<g clip-path="url(#clip0_187_479)">
<path d="M78.2124 40.1811C80.3626 37.0506 80.0729 33.9538 77.9895 30.9359C77.6105 30.4025 77.4184 29.7566 77.4436 29.1003C77.4436 25.2491 76.3295 21.9947 72.5081 20.3844C71.873 20.1254 71.9399 19.6637 71.8619 19.2583C71.0263 14.5287 68.7647 12.1189 64.0631 11.0491C63.6732 10.959 63.3167 10.9703 63.105 10.4973C61.5007 6.93884 58.526 5.70014 54.894 5.66636C54.6728 5.67467 54.4533 5.62387 54.2577 5.51908C54.0621 5.4143 53.8973 5.25924 53.7799 5.06953C50.5712 1.21078 46.7833 0.460056 42.4159 2.81734C41.9814 3.05382 41.7029 3.20021 41.3018 2.70473C40.7172 2.00876 39.999 1.43977 39.1908 1.03213C38.3825 0.624489 37.5009 0.386651 36.5992 0.332976C35.6974 0.2793 34.7943 0.410904 33.9443 0.719838C33.0943 1.02877 32.315 1.50863 31.6536 2.13043C30.1273 3.752 29.08 3.53804 27.2863 2.7723C19.209 -0.684806 11.2319 4.04478 10.051 12.9071C9.97299 13.5377 9.62761 13.6841 9.20425 13.9206C7.53237 14.7426 6.16629 16.0862 5.30767 17.7529C4.44905 19.4197 4.1434 21.3213 4.43585 23.1771C4.51711 23.5121 4.48821 23.8648 4.35354 24.1817C4.21886 24.4987 3.98572 24.7627 3.6894 24.9338C0.257932 27.3774 -1.21269 34.6858 3.22147 38.0077C3.80251 38.4109 4.26604 38.9641 4.56386 39.6097C4.86168 40.2553 4.98291 40.9698 4.91492 41.6788C4.98177 47.6246 9.4605 51.915 15.6215 50.5862C16.0606 50.52 16.4957 50.4298 16.925 50.3159C17.5267 50.1358 17.8609 50.2033 18.1283 50.8902C20.5459 57.0612 26.0608 60.4958 33.9153 59.2346C35.8092 58.9305 35.9652 58.7166 35.9652 56.8135C35.9652 50.7551 35.9652 44.6967 35.9652 38.6384C35.9652 38.0753 35.8872 37.5911 36.5446 37.1744C37.242 36.8054 37.7846 36.1949 38.0731 35.4545C38.3616 34.7142 38.3766 33.8936 38.1155 33.143C37.8881 32.4256 37.4428 31.7989 36.8427 31.3521C36.2426 30.9053 35.5184 30.6611 34.7731 30.6544C34.035 30.6646 33.3179 30.9047 32.7197 31.342C32.1216 31.7794 31.6714 32.3926 31.4308 33.098C31.1911 33.8544 31.2227 34.6721 31.5202 35.4073C31.8177 36.1425 32.3619 36.7482 33.0574 37.1181C33.2575 37.2262 33.4233 37.3893 33.5357 37.5885C33.6481 37.7878 33.7024 38.0151 33.6924 38.2442C33.6924 44.0323 33.6924 49.8205 33.6924 55.6086C33.6924 56.3293 33.5142 56.577 32.7677 56.6671C26.4841 57.4554 22.0054 54.6064 20.1114 48.548C19.6769 47.1516 19.3092 46.9602 17.8832 47.3318C16.9808 47.557 16.0783 47.8048 15.1647 47.9511C10.5412 48.6493 7.36597 46.1043 7.62221 41.386C7.73362 38.9086 7.31026 37.3997 5.05975 36.0146C2.22991 34.2691 2.40816 29.258 5.05975 27.2873C6.02903 30.0913 7.77818 32.0057 10.8309 32.3097C11.1944 32.3166 11.5513 32.41 11.8726 32.5821C12.1939 32.7543 12.4706 33.0004 12.6803 33.3007C13.1646 33.8969 13.8306 34.3143 14.5744 34.4874C15.3182 34.6606 16.0978 34.5799 16.7914 34.2579C17.4434 33.9604 17.9883 33.4662 18.3514 32.8432C18.7144 32.2202 18.8778 31.4988 18.819 30.7782C18.7364 30.0153 18.417 29.2983 17.9067 28.7299C17.3964 28.1616 16.7213 27.7709 15.9781 27.6139C15.2525 27.4854 14.5054 27.5901 13.8418 27.9133C13.1783 28.2365 12.6318 28.762 12.2792 29.4157C12.0341 29.8323 12.0341 30.5417 11.1651 30.1927C10.1882 29.8978 9.31011 29.3376 8.62646 28.5732C7.94282 27.8087 7.47984 26.8693 7.28797 25.8572C7.11173 24.6673 7.00756 23.4677 6.97602 22.265C6.8092 20.8193 7.1698 19.3617 7.99022 18.1655C8.81064 16.9693 10.0345 16.1167 11.4325 15.7674C11.6379 15.7248 11.8328 15.6411 12.0056 15.5211C12.1785 15.4012 12.3259 15.2475 12.4391 15.0691C12.5522 14.8907 12.6289 14.6911 12.6646 14.4823C12.7003 14.2735 12.6943 14.0595 12.6469 13.8531C12.4995 12.3282 12.8101 10.7938 13.5381 9.45003C15.9446 4.74296 21.181 3.00878 26.4953 5.15962C28.4895 5.9704 28.4784 5.9704 27.7431 7.89602C27.5817 8.26197 27.444 8.63813 27.3309 9.02211C27.2546 9.47767 27.0868 9.91258 26.8377 10.3C26.5885 10.6873 26.2635 11.019 25.8825 11.2743C25.3307 11.6649 24.9221 12.229 24.7206 12.8788C24.5191 13.5285 24.5359 14.2274 24.7684 14.8665C24.9558 15.5624 25.3587 16.1793 25.918 16.6271C26.4773 17.0749 27.1637 17.3301 27.8768 17.3552C28.5898 17.4356 29.3096 17.2819 29.9295 16.9168C30.5495 16.5518 31.0368 15.9948 31.3194 15.3282C31.6192 14.6468 31.6922 13.8855 31.5275 13.1586C31.3628 12.4317 30.9692 11.7784 30.4058 11.2968C30.027 10.9477 29.4922 10.7676 29.7373 10.0243C30.3684 7.82877 31.5151 5.81986 33.0797 4.16865C33.5431 3.68259 34.1113 3.31135 34.7401 3.08389C35.3688 2.85644 36.0411 2.77893 36.7044 2.85742C37.3677 2.93591 38.0041 3.16827 38.5638 3.53637C39.1236 3.90447 39.5917 4.39834 39.9315 4.97944C40.845 6.78119 41.2238 6.87128 42.7724 5.63258C46.2039 2.88491 49.9919 3.52678 52.2981 7.28793C52.4466 7.61085 52.6929 7.87766 53.0013 8.04973C53.3098 8.22181 53.6644 8.29023 54.0138 8.24511C54.5888 8.20572 55.1657 8.20572 55.7407 8.24511C56.9579 8.206 58.1512 8.59238 59.1193 9.33909C60.0874 10.0858 60.7711 11.1471 61.055 12.3441C61.1615 12.6802 61.3737 12.9721 61.6592 13.1753C61.9447 13.3786 62.288 13.4821 62.6371 13.4702C67.2829 14.1008 69.1212 16.1278 69.3217 20.9024C69.2876 21.3065 69.4122 21.7079 69.6687 22.0198C69.9251 22.3317 70.2928 22.529 70.6921 22.569C71.6674 22.7331 72.561 23.2204 73.2323 23.9541C73.8688 24.7091 74.3375 25.5934 74.6066 26.5473C74.8757 27.5012 74.939 28.5025 74.792 29.4832C74.7407 29.9641 74.7884 30.4504 74.9322 30.9117C75.076 31.373 75.3128 31.7991 75.6276 32.1633C76.3758 32.9548 76.8549 33.9667 76.9951 35.0522C77.1354 36.1377 76.9295 37.2401 76.4075 38.1992C75.0228 36.2388 73.0376 34.7942 70.7589 34.0889C70.2353 33.9313 70.3022 33.5709 70.2576 33.1543C70.2323 32.6603 70.103 32.1775 69.8785 31.738C69.654 31.2985 69.3394 30.9125 68.9557 30.6056C68.5719 30.2987 68.1278 30.078 67.653 29.9582C67.1782 29.8385 66.6836 29.8224 66.2022 29.9111C65.7205 29.9944 65.2616 30.1798 64.8558 30.4551C64.45 30.7304 64.1064 31.0893 63.8475 31.5083C63.5887 31.9274 63.4205 32.397 63.3539 32.8864C63.2874 33.3758 63.3241 33.8739 63.4615 34.3479C63.5901 34.8258 63.8191 35.27 64.1328 35.6503C64.4466 36.0307 64.8378 36.3382 65.2797 36.5519C65.7217 36.7657 66.204 36.8806 66.6939 36.8889C67.1838 36.8972 67.6697 36.7987 68.1185 36.6001C68.4579 36.4517 68.8238 36.3751 69.1936 36.3751C69.5634 36.3751 69.9293 36.4517 70.2687 36.6001C71.8063 37.1614 73.1567 38.1487 74.1654 39.449C75.1741 40.7494 75.8005 42.3103 75.973 43.9535C76.764 48.7957 73.2657 54.3023 68.5976 55.9239C67.9193 56.1357 67.2267 56.2975 66.5253 56.4081C65.9571 56.532 65.6452 56.4081 65.5672 55.6874C65.5115 54.6862 65.1922 53.7182 64.6425 52.8834C64.3967 52.5934 64.2429 52.2353 64.2012 51.8557C64.1595 51.4761 64.2317 51.0926 64.4085 50.7551C64.5795 50.2965 64.6498 49.8057 64.6143 49.3169C64.5789 48.828 64.4387 48.3528 64.2033 47.9243C63.968 47.4957 63.6433 47.124 63.2516 46.8351C62.8599 46.5461 62.4107 46.3467 61.9352 46.2507C61.4699 46.1442 60.9881 46.1341 60.5189 46.221C60.0496 46.3078 59.6027 46.4899 59.205 46.7561C58.8072 47.0224 58.467 47.3673 58.2048 47.7701C57.9426 48.1729 57.7638 48.6252 57.6793 49.0998C57.5753 49.562 57.5714 50.0415 57.6679 50.5054C57.7644 50.9693 57.959 51.4066 58.2384 51.7874C58.5178 52.1682 58.8753 52.4834 59.2865 52.7114C59.6976 52.9395 60.1527 53.075 60.6205 53.1086C61.9575 53.1086 62.3808 53.8406 62.7596 54.8428C63.8737 57.7594 63.0047 59.9666 60.1303 61.1602C57.5458 62.1739 54.7311 62.4314 52.0084 61.9034C48.6661 61.3629 47.3403 59.7639 47.3292 56.273C47.3292 47.8385 47.3292 39.3816 47.3292 30.9809C47.3021 30.7227 47.3524 30.4623 47.4736 30.2334C47.5948 30.0045 47.7812 29.8176 48.0088 29.6972C48.6385 29.3464 49.136 28.7953 49.4241 28.1295C49.7121 27.4636 49.7747 26.7203 49.602 26.0149C49.4506 25.259 49.0559 24.5751 48.4795 24.0698C47.903 23.5646 47.1773 23.2665 46.4156 23.2221C45.6775 23.1759 44.9441 23.3695 44.3227 23.7747C43.7012 24.18 43.2244 24.7755 42.9618 25.4743C42.6769 26.1829 42.6316 26.9668 42.8331 27.704C43.0346 28.4413 43.4715 29.0906 44.076 29.5508C44.5105 29.8886 45.0452 30.035 45.0341 30.8233C45.0341 39.4717 45.0341 48.1313 45.0341 56.791C45.0341 60.5972 46.7387 63.221 50.4153 64.1781C53.7208 65.0435 57.2035 64.9222 60.4423 63.829C61.4998 63.5456 62.4843 63.0346 63.3284 62.331C64.1726 61.6274 64.8564 60.7479 65.3332 59.7526C65.5895 59.167 66.0017 59.0657 66.581 59.0094C68.5489 58.7615 70.4402 58.0849 72.1241 57.0263C73.8081 55.9677 75.2447 54.5522 76.3347 52.8777C77.4247 51.2032 78.1421 49.3095 78.4374 47.3274C78.7328 45.3453 78.599 43.322 78.0452 41.3973C77.9627 41.198 77.9346 40.98 77.964 40.7661C77.9934 40.5521 78.0792 40.3501 78.2124 40.1811V40.1811ZM33.6479 34.1452C33.6365 33.9786 33.6619 33.8115 33.7223 33.6561C33.7827 33.5007 33.8766 33.3607 33.9971 33.2465C34.1176 33.1322 34.2618 33.0465 34.4191 32.9955C34.5764 32.9445 34.743 32.9295 34.9068 32.9516C35.0756 32.9358 35.2457 32.9592 35.4042 33.0199C35.5627 33.0807 35.7054 33.1771 35.8214 33.302C35.9374 33.4269 36.0237 33.5769 36.0738 33.7406C36.1238 33.9043 36.1362 34.0773 36.1101 34.2466C36.1101 35.0574 35.5641 35.3727 34.8177 35.4853C34.6498 35.4828 34.4843 35.4454 34.3313 35.3756C34.1783 35.3057 34.0412 35.2048 33.9283 35.0792C33.8155 34.9536 33.7294 34.8058 33.6755 34.6452C33.6215 34.4845 33.6007 34.3144 33.6144 34.1452H33.6479ZM15.343 29.9449C15.5084 29.9287 15.6753 29.9501 15.8315 30.0075C15.9876 30.0649 16.1291 30.1569 16.2456 30.2767C16.362 30.3966 16.4504 30.5412 16.5044 30.7001C16.5583 30.859 16.5764 31.028 16.5574 31.1949C16.5759 31.3651 16.5558 31.5373 16.4985 31.6984C16.4413 31.8596 16.3485 32.0054 16.2271 32.1249C16.1057 32.2443 15.959 32.3342 15.798 32.3877C15.6371 32.4412 15.4663 32.4569 15.2984 32.4336C15.1478 32.4517 14.9951 32.435 14.8518 32.3848C14.7084 32.3346 14.5782 32.2522 14.471 32.1438C14.3637 32.0354 14.2822 31.9038 14.2326 31.759C14.1829 31.6141 14.1664 31.4597 14.1843 31.3075C14.1487 31.1402 14.1512 30.967 14.1918 30.8009C14.2323 30.6348 14.3097 30.4802 14.4182 30.3488C14.5266 30.2175 14.6633 30.1128 14.8177 30.0428C14.9722 29.9729 15.1404 29.9394 15.3096 29.9449H15.343ZM28.133 15.2156C27.9654 15.2405 27.7943 15.2263 27.6329 15.1743C27.4715 15.1223 27.3239 15.0337 27.2015 14.9154C27.079 14.797 26.9848 14.652 26.9262 14.4913C26.8675 14.3306 26.8459 14.1586 26.8629 13.9882C26.8417 13.8194 26.8587 13.648 26.9124 13.4868C26.9662 13.3256 27.0554 13.1788 27.1733 13.0574C27.2913 12.936 27.4349 12.8433 27.5934 12.786C27.7519 12.7288 27.9211 12.7086 28.0885 12.727C28.2536 12.7111 28.4202 12.7306 28.5773 12.7842C28.7345 12.8378 28.8788 12.9242 29.0007 13.0379C29.1226 13.1516 29.2195 13.2899 29.285 13.444C29.3505 13.598 29.3831 13.7642 29.3808 13.9319C29.3889 14.1036 29.3612 14.2751 29.2995 14.4353C29.2378 14.5955 29.1435 14.7408 29.0227 14.8618C28.902 14.9829 28.7574 15.0769 28.5983 15.1378C28.4393 15.1988 28.2694 15.2253 28.0996 15.2156H28.133ZM66.8707 34.6407C66.102 34.5394 65.6117 34.1565 65.6006 33.357C65.5753 33.1855 65.5896 33.0103 65.6423 32.8453C65.6949 32.6803 65.7846 32.5297 65.9043 32.4055C66.024 32.2812 66.1705 32.1866 66.3323 32.129C66.4941 32.0713 66.667 32.0523 66.8373 32.0732C67.0063 32.0511 67.1781 32.0685 67.3395 32.1241C67.5008 32.1797 67.6474 32.2719 67.768 32.3938C67.8885 32.5156 67.9798 32.6637 68.0347 32.8268C68.0897 32.9899 68.1069 33.1636 68.0851 33.3345C68.1185 34.1903 67.5503 34.4718 66.8707 34.6407ZM60.9882 50.9916C60.8288 50.993 60.6711 50.9598 60.5255 50.8943C60.38 50.8287 60.25 50.7324 60.1444 50.6118C60.0388 50.4912 59.96 50.3491 59.9134 50.1951C59.8668 50.0411 59.8533 49.8788 59.8741 49.7191C59.8702 49.5491 59.902 49.3801 59.9673 49.2233C60.0327 49.0666 60.1301 48.9256 60.2533 48.8097C60.3764 48.6937 60.5224 48.6054 60.6817 48.5506C60.841 48.4958 61.01 48.4757 61.1776 48.4917C61.3405 48.498 61.5004 48.5387 61.6468 48.6112C61.7933 48.6837 61.9231 48.7863 62.028 48.9125C62.1329 49.0387 62.2106 49.1856 62.256 49.3439C62.3014 49.5022 62.3136 49.6684 62.2917 49.8317C62.2832 49.995 62.2426 50.155 62.1721 50.3022C62.1017 50.4494 62.0028 50.5808 61.8814 50.6889C61.76 50.7969 61.6184 50.8794 61.465 50.9314C61.3116 50.9833 61.1495 51.0038 60.9882 50.9916ZM46.1371 28.1094C45.9691 28.1198 45.8009 28.0934 45.6439 28.0321C45.487 27.9707 45.345 27.8759 45.2276 27.7541C45.1102 27.6322 45.0202 27.4862 44.9637 27.3259C44.9073 27.1657 44.8857 26.9951 44.9004 26.8256C44.9004 26.0261 45.424 25.6995 46.1259 25.5419C46.9281 25.6432 47.4183 26.0712 47.4072 26.8482C47.4191 27.0188 47.3943 27.1901 47.3343 27.3501C47.2744 27.5102 47.1808 27.6551 47.0601 27.775C46.9393 27.895 46.7943 27.987 46.6349 28.0447C46.4755 28.1024 46.3057 28.1245 46.1371 28.1094V28.1094Z" fill="#F9FBFC"/>
<path d="M97.0187 35.0797C96.68 34.882 96.2957 34.7779 95.9046 34.7779C95.5135 34.7779 95.1292 34.882 94.7905 35.0797C94.7905 38.4579 94.7905 41.7236 94.7905 45.0343C94.8615 47.097 94.7983 49.1622 94.6011 51.2166C93.3422 59.4708 88.83 65.5292 81.7888 69.4931C73.0987 74.3578 63.8182 74.6731 54.4708 71.8241C48.332 69.9548 44.5329 65.5292 42.7169 59.3357C41.7991 56.1058 41.323 52.764 41.302 49.4036C41.1906 40.2484 41.302 31.1046 41.302 21.9494C41.2553 21.6273 41.3085 21.2985 41.4541 21.0082C41.5997 20.7179 41.8307 20.4802 42.1153 20.3278C42.7437 19.9328 43.2247 19.3382 43.4828 18.6371C43.7409 17.9361 43.7615 17.1682 43.5413 16.4541C43.3118 15.7222 42.8576 15.0832 42.2447 14.6296C41.6317 14.1761 40.8918 13.9316 40.1322 13.9316C39.3957 13.9481 38.683 14.1985 38.0951 14.6472C37.5073 15.0958 37.074 15.7201 36.8567 16.4316C36.6074 17.1362 36.6077 17.9064 36.8576 18.6108C37.1075 19.3152 37.5915 19.9102 38.227 20.2941C38.5302 20.4592 38.7741 20.7168 38.9241 21.0302C39.0741 21.3435 39.1226 21.6967 39.0626 22.0395C39.0626 31.3636 39.0626 40.6989 39.0626 50.0229C38.9748 52.4397 39.1053 54.8596 39.4526 57.2524C40.9009 65.4053 45.1902 71.2835 53.0224 74.2564C58.2881 76.0839 63.8919 76.6957 69.4222 76.0469C78.5467 75.2699 86.223 71.5426 91.9718 64.1779C94.7834 60.8535 96.5349 56.7475 96.9964 52.399C97.3864 46.6446 96.9853 40.8565 97.0187 35.0797ZM40.0653 18.7063C39.8963 18.7284 39.7244 18.711 39.5631 18.6554C39.4017 18.5998 39.2552 18.5076 39.1346 18.3857C39.0141 18.2639 38.9228 18.1158 38.8678 17.9527C38.8129 17.7896 38.7956 17.6159 38.8175 17.4451C38.7971 17.274 38.8159 17.1005 38.8723 16.9379C38.9287 16.7753 39.0213 16.6279 39.1429 16.5072C39.2645 16.3864 39.4119 16.2955 39.5738 16.2414C39.7356 16.1873 39.9076 16.1715 40.0765 16.1951C40.8675 16.1951 41.2574 16.6906 41.3465 17.4563C41.3516 17.6257 41.3215 17.7943 41.2583 17.9512C41.1951 18.1082 41.1001 18.2501 40.9795 18.3677C40.8588 18.4854 40.7152 18.5763 40.5578 18.6346C40.4004 18.6929 40.2326 18.7173 40.0653 18.7063V18.7063Z" fill="#F9FBFC"/>
<path d="M99.2801 30.4969C99.0632 29.7638 98.6238 29.1183 98.024 28.6514C97.4242 28.1846 96.6944 27.9202 95.9378 27.8956C95.1631 27.8891 94.4075 28.1386 93.7861 28.6061C93.1646 29.0737 92.7113 29.7337 92.4952 30.4856C92.2618 31.2091 92.2718 31.9902 92.5237 32.7073C92.7756 33.4243 93.2553 34.0369 93.8878 34.4495L94.7346 35.0801H96.9628L97.8095 34.4495C98.4624 34.0575 98.9638 33.4525 99.2311 32.7341C99.4984 32.0156 99.5157 31.2266 99.2801 30.4969V30.4969ZM95.9378 32.7491C95.2582 32.614 94.7457 32.2649 94.7346 31.5442C94.7259 31.3827 94.7517 31.2212 94.8103 31.0708C94.8689 30.9203 94.9589 30.7843 95.0741 30.6721C95.1893 30.5599 95.3271 30.4742 95.4781 30.4206C95.629 30.367 95.7896 30.347 95.9489 30.3618C96.102 30.3614 96.2536 30.3929 96.3941 30.4544C96.5346 30.5158 96.6611 30.6059 96.7656 30.719C96.8702 30.832 96.9506 30.9657 97.0017 31.1115C97.0529 31.2574 97.0738 31.4123 97.063 31.5667C97.0519 32.2536 96.5617 32.614 95.9044 32.7491H95.9378Z" fill="#F9FBFC"/>
</g>
<defs>
<clipPath id="clip0_187_479">
<rect width="99" height="76" fill="white" transform="translate(0.447266 0.25)"/>
</clipPath>
</defs>
</svg>
