<svg width="100" height="77" viewBox="0 0 100 77" fill="none" xmlns="http://www.w3.org/2000/svg">
<g clip-path="url(#clip0_61_223)">
<path d="M78.2124 40.1811C80.3626 37.0506 80.073 33.9538 77.9896 30.9359C77.6106 30.4025 77.4185 29.7566 77.4437 29.1003C77.4437 25.2491 76.3296 21.9947 72.5082 20.3844C71.8731 20.1254 71.94 19.6637 71.862 19.2583C71.0264 14.5287 68.7647 12.1189 64.0632 11.0491C63.6732 10.959 63.3167 10.9703 63.1051 10.4973C61.5007 6.93884 58.5261 5.70014 54.894 5.66636C54.6728 5.67467 54.4533 5.62387 54.2577 5.51908C54.0621 5.4143 53.8973 5.25924 53.7799 5.06953C50.5713 1.21078 46.7833 0.460056 42.416 2.81734C41.9815 3.05382 41.703 3.20021 41.3019 2.70473C40.7172 2.00876 39.9991 1.43977 39.1908 1.03213C38.3826 0.624489 37.501 0.386651 36.5992 0.332976C35.6975 0.2793 34.7944 0.410904 33.9443 0.719838C33.0943 1.02877 32.3151 1.50863 31.6537 2.13043C30.1273 3.752 29.0801 3.53804 27.2863 2.7723C19.209 -0.684806 11.232 4.04478 10.051 12.9071C9.97305 13.5377 9.62767 13.6841 9.20431 13.9206C7.53244 14.7426 6.16635 16.0862 5.30773 17.7529C4.44911 19.4197 4.14346 21.3213 4.43591 23.1771C4.51717 23.5121 4.48828 23.8648 4.3536 24.1817C4.21892 24.4987 3.98578 24.7627 3.68946 24.9338C0.257993 27.3774 -1.21263 34.6858 3.22153 38.0077C3.80257 38.4109 4.2661 38.9641 4.56392 39.6097C4.86174 40.2553 4.98297 40.9698 4.91498 41.6788C4.98183 47.6246 9.46056 51.915 15.6216 50.5862C16.0606 50.52 16.4958 50.4298 16.9251 50.3159C17.5267 50.1358 17.861 50.2033 18.1283 50.8902C20.546 57.0612 26.0608 60.4958 33.9153 59.2346C35.8093 58.9305 35.9653 58.7166 35.9653 56.8135C35.9653 50.7551 35.9653 44.6967 35.9653 38.6384C35.9653 38.0753 35.8873 37.5911 36.5446 37.1744C37.242 36.8054 37.7847 36.1949 38.0731 35.4545C38.3616 34.7142 38.3767 33.8936 38.1155 33.143C37.8882 32.4256 37.4428 31.7989 36.8427 31.3521C36.2427 30.9053 35.5185 30.6611 34.7732 30.6544C34.035 30.6646 33.3179 30.9047 32.7198 31.342C32.1216 31.7794 31.6715 32.3926 31.4308 33.098C31.1911 33.8544 31.2228 34.6721 31.5203 35.4073C31.8177 36.1425 32.362 36.7482 33.0575 37.1181C33.2576 37.2262 33.4234 37.3893 33.5358 37.5885C33.6481 37.7878 33.7025 38.0151 33.6925 38.2442C33.6925 44.0323 33.6925 49.8205 33.6925 55.6086C33.6925 56.3293 33.5142 56.577 32.7678 56.6671C26.4842 57.4554 22.0055 54.6064 20.1115 48.548C19.677 47.1516 19.3093 46.9602 17.8832 47.3318C16.9808 47.557 16.0784 47.8048 15.1648 47.9511C10.5412 48.6493 7.36603 46.1043 7.62227 41.386C7.73368 38.9086 7.31032 37.3997 5.05981 36.0146C2.22997 34.2691 2.40822 29.258 5.05981 27.2873C6.02909 30.0913 7.77824 32.0057 10.8309 32.3097C11.1945 32.3166 11.5514 32.41 11.8726 32.5821C12.1939 32.7543 12.4706 33.0004 12.6803 33.3007C13.1646 33.8969 13.8307 34.3143 14.5745 34.4874C15.3183 34.6606 16.0978 34.5799 16.7914 34.2579C17.4434 33.9604 17.9884 33.4662 18.3514 32.8432C18.7145 32.2202 18.8778 31.4988 18.8191 30.7782C18.7364 30.0153 18.4171 29.2983 17.9068 28.7299C17.3965 28.1616 16.7214 27.7709 15.9781 27.6139C15.2526 27.4854 14.5055 27.5901 13.8419 27.9133C13.1784 28.2365 12.6318 28.762 12.2793 29.4157C12.0342 29.8323 12.0342 30.5417 11.1651 30.1927C10.1883 29.8978 9.31017 29.3376 8.62652 28.5732C7.94288 27.8087 7.4799 26.8693 7.28804 25.8572C7.11179 24.6673 7.00762 23.4677 6.97609 22.265C6.80926 20.8193 7.16986 19.3617 7.99028 18.1655C8.8107 16.9693 10.0346 16.1167 11.4325 15.7674C11.6379 15.7248 11.8328 15.6411 12.0057 15.5211C12.1786 15.4012 12.3259 15.2475 12.4391 15.0691C12.5523 14.8907 12.629 14.6911 12.6647 14.4823C12.7004 14.2735 12.6943 14.0595 12.6469 13.8531C12.4995 12.3282 12.8101 10.7938 13.5382 9.45003C15.9447 4.74296 21.181 3.00878 26.4953 5.15962C28.4896 5.9704 28.4784 5.9704 27.7431 7.89602C27.5818 8.26197 27.4441 8.63813 27.3309 9.02211C27.2547 9.47767 27.0868 9.91258 26.8377 10.3C26.5886 10.6873 26.2635 11.019 25.8826 11.2743C25.3307 11.6649 24.9222 12.229 24.7207 12.8788C24.5192 13.5285 24.536 14.2274 24.7685 14.8665C24.9559 15.5624 25.3588 16.1793 25.9181 16.6271C26.4774 17.0749 27.1638 17.3301 27.8768 17.3552C28.5899 17.4356 29.3096 17.2819 29.9296 16.9168C30.5496 16.5518 31.0369 15.9948 31.3194 15.3282C31.6193 14.6468 31.6923 13.8855 31.5276 13.1586C31.3628 12.4317 30.9692 11.7784 30.4059 11.2968C30.0271 10.9477 29.4923 10.7676 29.7374 10.0243C30.3685 7.82877 31.5151 5.81986 33.0797 4.16865C33.5431 3.68259 34.1114 3.31135 34.7401 3.08389C35.3689 2.85644 36.0412 2.77893 36.7045 2.85742C37.3678 2.93591 38.0041 3.16827 38.5639 3.53637C39.1237 3.90447 39.5917 4.39834 39.9315 4.97944C40.8451 6.78119 41.2239 6.87128 42.7725 5.63258C46.204 2.88491 49.992 3.52678 52.2982 7.28793C52.4467 7.61085 52.6929 7.87766 53.0014 8.04973C53.3098 8.22181 53.6644 8.29023 54.0139 8.24511C54.5889 8.20572 55.1658 8.20572 55.7408 8.24511C56.9579 8.206 58.1512 8.59238 59.1193 9.33909C60.0874 10.0858 60.7711 11.1471 61.0551 12.3441C61.1616 12.6802 61.3737 12.9721 61.6592 13.1753C61.9448 13.3786 62.2881 13.4821 62.6371 13.4702C67.283 14.1008 69.1213 16.1278 69.3218 20.9024C69.2876 21.3065 69.4123 21.7079 69.6687 22.0198C69.9252 22.3317 70.2929 22.529 70.6922 22.569C71.6675 22.7331 72.5611 23.2204 73.2323 23.9541C73.8689 24.7091 74.3376 25.5934 74.6067 26.5473C74.8758 27.5012 74.939 28.5025 74.7921 29.4832C74.7407 29.9641 74.7885 30.4504 74.9323 30.9117C75.0761 31.373 75.3129 31.7991 75.6277 32.1633C76.3759 32.9548 76.8549 33.9667 76.9952 35.0522C77.1354 36.1377 76.9296 37.2401 76.4075 38.1992C75.0229 36.2388 73.0376 34.7942 70.759 34.0889C70.2354 33.9313 70.3022 33.5709 70.2577 33.1543C70.2323 32.6603 70.1031 32.1775 69.8786 31.738C69.6541 31.2985 69.3395 30.9125 68.9557 30.6056C68.572 30.2987 68.1279 30.078 67.6531 29.9582C67.1783 29.8385 66.6837 29.8224 66.2023 29.9111C65.7205 29.9944 65.2617 30.1798 64.8559 30.4551C64.45 30.7304 64.1064 31.0893 63.8476 31.5083C63.5887 31.9274 63.4205 32.397 63.354 32.8864C63.2875 33.3758 63.3241 33.8739 63.4616 34.3479C63.5902 34.8258 63.8191 35.27 64.1329 35.6503C64.4467 36.0307 64.8379 36.3382 65.2798 36.5519C65.7218 36.7657 66.2041 36.8806 66.694 36.8889C67.1839 36.8972 67.6697 36.7987 68.1186 36.6001C68.458 36.4517 68.8239 36.3751 69.1937 36.3751C69.5635 36.3751 69.9294 36.4517 70.2688 36.6001C71.8064 37.1614 73.1567 38.1487 74.1655 39.449C75.1742 40.7494 75.8006 42.3103 75.973 43.9535C76.7641 48.7957 73.2658 54.3023 68.5976 55.9239C67.9194 56.1357 67.2268 56.2975 66.5254 56.4081C65.9572 56.532 65.6452 56.4081 65.5672 55.6874C65.5115 54.6862 65.1923 53.7182 64.6425 52.8834C64.3968 52.5934 64.243 52.2353 64.2013 51.8557C64.1596 51.4761 64.2318 51.0926 64.4086 50.7551C64.5796 50.2965 64.6498 49.8057 64.6144 49.3169C64.579 48.828 64.4387 48.3528 64.2034 47.9243C63.9681 47.4957 63.6433 47.124 63.2516 46.8351C62.86 46.5461 62.4108 46.3467 61.9352 46.2507C61.47 46.1442 60.9882 46.1341 60.5189 46.221C60.0497 46.3078 59.6027 46.4899 59.205 46.7561C58.8073 47.0224 58.4671 47.3673 58.2048 47.7701C57.9426 48.1729 57.7639 48.6252 57.6793 49.0998C57.5753 49.562 57.5715 50.0415 57.668 50.5054C57.7645 50.9693 57.9591 51.4066 58.2385 51.7874C58.5178 52.1682 58.8754 52.4834 59.2865 52.7114C59.6977 52.9395 60.1528 53.075 60.6206 53.1086C61.9575 53.1086 62.3809 53.8406 62.7597 54.8428C63.8738 57.7594 63.0048 59.9666 60.1304 61.1602C57.5458 62.1739 54.7311 62.4314 52.0085 61.9034C48.6662 61.3629 47.3404 59.7639 47.3292 56.273C47.3292 47.8385 47.3292 39.3816 47.3292 30.9809C47.3021 30.7227 47.3525 30.4623 47.4736 30.2334C47.5948 30.0045 47.7813 29.8176 48.0088 29.6972C48.6385 29.3464 49.136 28.7953 49.4241 28.1295C49.7122 27.4636 49.7747 26.7203 49.602 26.0149C49.4507 25.259 49.056 24.5751 48.4795 24.0698C47.9031 23.5646 47.1774 23.2665 46.4157 23.2221C45.6775 23.1759 44.9441 23.3695 44.3227 23.7747C43.7013 24.18 43.2244 24.7755 42.9619 25.4743C42.6769 26.1829 42.6317 26.9668 42.8331 27.704C43.0346 28.4413 43.4716 29.0906 44.076 29.5508C44.5105 29.8886 45.0453 30.035 45.0342 30.8233C45.0342 39.4717 45.0342 48.1313 45.0342 56.791C45.0342 60.5972 46.7387 63.221 50.4153 64.1781C53.7208 65.0435 57.2036 64.9222 60.4423 63.829C61.4999 63.5456 62.4844 63.0346 63.3285 62.331C64.1726 61.6274 64.8565 60.7479 65.3333 59.7526C65.5895 59.167 66.0017 59.0657 66.5811 59.0094C68.549 58.7615 70.4402 58.0849 72.1242 57.0263C73.8082 55.9677 75.2448 54.5522 76.3348 52.8777C77.4248 51.2032 78.1422 49.3095 78.4375 47.3274C78.7328 45.3453 78.599 43.322 78.0453 41.3973C77.9627 41.198 77.9347 40.98 77.9641 40.7661C77.9935 40.5521 78.0793 40.3501 78.2124 40.1811V40.1811ZM33.6479 34.1452C33.6366 33.9786 33.662 33.8115 33.7224 33.6561C33.7828 33.5007 33.8767 33.3607 33.9972 33.2465C34.1177 33.1322 34.2618 33.0465 34.4192 32.9955C34.5765 32.9445 34.7431 32.9295 34.9069 32.9516C35.0756 32.9358 35.2458 32.9592 35.4042 33.0199C35.5627 33.0807 35.7054 33.1771 35.8215 33.302C35.9375 33.4269 36.0238 33.5769 36.0738 33.7406C36.1238 33.9043 36.1363 34.0773 36.1101 34.2466C36.1101 35.0574 35.5642 35.3727 34.8177 35.4853C34.6499 35.4828 34.4843 35.4454 34.3314 35.3756C34.1784 35.3057 34.0412 35.2048 33.9284 35.0792C33.8156 34.9536 33.7295 34.8058 33.6755 34.6452C33.6215 34.4845 33.6008 34.3144 33.6145 34.1452H33.6479ZM15.3431 29.9449C15.5085 29.9287 15.6754 29.9501 15.8315 30.0075C15.9877 30.0649 16.1292 30.1569 16.2456 30.2767C16.362 30.3966 16.4505 30.5412 16.5044 30.7001C16.5584 30.859 16.5765 31.028 16.5574 31.1949C16.576 31.3651 16.5558 31.5373 16.4986 31.6984C16.4414 31.8596 16.3485 32.0054 16.2271 32.1249C16.1058 32.2443 15.959 32.3342 15.7981 32.3877C15.6372 32.4412 15.4663 32.4569 15.2985 32.4336C15.1479 32.4517 14.9952 32.435 14.8518 32.3848C14.7085 32.3346 14.5783 32.2522 14.4711 32.1438C14.3638 32.0354 14.2823 31.9038 14.2326 31.759C14.183 31.6141 14.1665 31.4597 14.1844 31.3075C14.1488 31.1402 14.1513 30.967 14.1918 30.8009C14.2323 30.6348 14.3098 30.4802 14.4182 30.3488C14.5267 30.2175 14.6633 30.1128 14.8178 30.0428C14.9723 29.9729 15.1405 29.9394 15.3096 29.9449H15.3431ZM28.1331 15.2156C27.9654 15.2405 27.7944 15.2263 27.633 15.1743C27.4715 15.1223 27.324 15.0337 27.2015 14.9154C27.079 14.797 26.9849 14.652 26.9262 14.4913C26.8676 14.3306 26.8459 14.1586 26.863 13.9882C26.8418 13.8194 26.8587 13.648 26.9125 13.4868C26.9662 13.3256 27.0554 13.1788 27.1734 13.0574C27.2913 12.936 27.4349 12.8433 27.5934 12.786C27.7519 12.7288 27.9212 12.7086 28.0885 12.727C28.2536 12.7111 28.4202 12.7306 28.5774 12.7842C28.7346 12.8378 28.8788 12.9242 29.0007 13.0379C29.1227 13.1516 29.2195 13.2899 29.285 13.444C29.3505 13.598 29.3832 13.7642 29.3809 13.9319C29.3889 14.1036 29.3612 14.2751 29.2996 14.4353C29.2379 14.5955 29.1436 14.7408 29.0228 14.8618C28.902 14.9829 28.7574 15.0769 28.5984 15.1378C28.4394 15.1988 28.2695 15.2253 28.0996 15.2156H28.1331ZM66.8708 34.6407C66.102 34.5394 65.6118 34.1565 65.6007 33.357C65.5754 33.1855 65.5896 33.0103 65.6423 32.8453C65.695 32.6803 65.7847 32.5297 65.9044 32.4055C66.0241 32.2812 66.1706 32.1866 66.3324 32.129C66.4942 32.0713 66.667 32.0523 66.8373 32.0732C67.0064 32.0511 67.1782 32.0685 67.3395 32.1241C67.5009 32.1797 67.6475 32.2719 67.768 32.3938C67.8886 32.5156 67.9798 32.6637 68.0348 32.8268C68.0898 32.9899 68.107 33.1636 68.0851 33.3345C68.1186 34.1903 67.5504 34.4718 66.8708 34.6407ZM60.9882 50.9916C60.8289 50.993 60.6711 50.9598 60.5256 50.8943C60.38 50.8287 60.2501 50.7324 60.1445 50.6118C60.0389 50.4912 59.9601 50.3491 59.9134 50.1951C59.8668 50.0411 59.8534 49.8788 59.8741 49.7191C59.8702 49.5491 59.902 49.3801 59.9674 49.2233C60.0327 49.0666 60.1302 48.9256 60.2533 48.8097C60.3764 48.6937 60.5225 48.6054 60.6818 48.5506C60.8411 48.4958 61.0101 48.4757 61.1776 48.4917C61.3406 48.498 61.5004 48.5387 61.6469 48.6112C61.7933 48.6837 61.9232 48.7863 62.0281 48.9125C62.133 49.0387 62.2106 49.1856 62.256 49.3439C62.3015 49.5022 62.3136 49.6684 62.2917 49.8317C62.2833 49.995 62.2426 50.155 62.1722 50.3022C62.1017 50.4494 62.0029 50.5808 61.8815 50.6889C61.76 50.7969 61.6185 50.8794 61.4651 50.9314C61.3117 50.9833 61.1496 51.0038 60.9882 50.9916ZM46.1371 28.1094C45.9692 28.1198 45.801 28.0934 45.644 28.0321C45.4871 27.9707 45.345 27.8759 45.2276 27.7541C45.1103 27.6322 45.0202 27.4862 44.9638 27.3259C44.9073 27.1657 44.8857 26.9951 44.9005 26.8256C44.9005 26.0261 45.4241 25.6995 46.126 25.5419C46.9281 25.6432 47.4184 26.0712 47.4072 26.8482C47.4192 27.0188 47.3943 27.1901 47.3344 27.3501C47.2745 27.5102 47.1809 27.6551 47.0601 27.775C46.9394 27.895 46.7943 27.987 46.635 28.0447C46.4756 28.1024 46.3057 28.1245 46.1371 28.1094V28.1094Z" fill="#F9FBFC"/>
<path d="M97.0185 35.0802C96.6797 34.8825 96.2955 34.7784 95.9044 34.7784C95.5132 34.7784 95.129 34.8825 94.7903 35.0802C94.7903 38.4584 94.7903 41.7241 94.7903 45.0348C94.8613 47.0975 94.798 49.1627 94.6009 51.2171C93.3419 59.4713 88.8298 65.5297 81.7886 69.4935C73.0985 74.3583 63.8179 74.6736 54.4705 71.8246C48.3318 69.9552 44.5327 65.5297 42.7167 59.3362C41.7988 56.1062 41.3228 52.7645 41.3017 49.4041C41.1903 40.2489 41.3017 31.105 41.3017 21.9499C41.2551 21.6278 41.3082 21.299 41.4538 21.0087C41.5995 20.7183 41.8304 20.4807 42.115 20.3283C42.7435 19.9333 43.2245 19.3387 43.4826 18.6376C43.7407 17.9366 43.7612 17.1687 43.5411 16.4546C43.3116 15.7227 42.8574 15.0836 42.2444 14.6301C41.6315 14.1766 40.8916 13.9321 40.1319 13.9321C39.3954 13.9486 38.6828 14.199 38.0949 14.6476C37.507 15.0963 37.0737 15.7206 36.8564 16.4321C36.6071 17.1367 36.6074 17.9069 36.8574 18.6113C37.1073 19.3157 37.5913 19.9106 38.2268 20.2946C38.53 20.4597 38.7739 20.7173 38.9239 21.0307C39.0739 21.344 39.1224 21.6972 39.0624 22.04C39.0624 31.364 39.0624 40.6994 39.0624 50.0234C38.9746 52.4402 39.1051 54.8601 39.4523 57.2529C40.9007 65.4058 45.19 71.284 53.0222 74.2569C58.2878 76.0844 63.8917 76.6962 69.4219 76.0474C78.5465 75.2704 86.2227 71.543 91.9716 64.1784C94.7831 60.8539 96.5346 56.748 96.9962 52.3995C97.3861 46.6451 96.9851 40.857 97.0185 35.0802ZM40.0651 18.7068C39.896 18.7289 39.7242 18.7115 39.5629 18.6559C39.4015 18.6003 39.2549 18.5081 39.1344 18.3862C39.0138 18.2644 38.9226 18.1162 38.8676 17.9532C38.8126 17.7901 38.7954 17.6164 38.8173 17.4455C38.7969 17.2745 38.8157 17.101 38.8721 16.9384C38.9285 16.7758 39.0211 16.6284 39.1427 16.5077C39.2643 16.3869 39.4117 16.296 39.5735 16.2419C39.7354 16.1878 39.9073 16.1719 40.0762 16.1956C40.8672 16.1956 41.2572 16.6911 41.3463 17.4568C41.3513 17.6262 41.3213 17.7948 41.258 17.9517C41.1948 18.1087 41.0999 18.2505 40.9792 18.3682C40.8586 18.4859 40.715 18.5768 40.5575 18.6351C40.4001 18.6934 40.2324 18.7178 40.0651 18.7068V18.7068Z" fill="#F9FBFC"/>
<path d="M99.2801 30.4969C99.0632 29.7638 98.6238 29.1183 98.024 28.6514C97.4242 28.1846 96.6944 27.9202 95.9378 27.8956C95.1631 27.8891 94.4075 28.1386 93.7861 28.6061C93.1646 29.0737 92.7113 29.7337 92.4952 30.4856C92.2618 31.2091 92.2718 31.9902 92.5237 32.7073C92.7756 33.4243 93.2553 34.0369 93.8878 34.4495L94.7346 35.0801H96.9628L97.8095 34.4495C98.4624 34.0575 98.9638 33.4525 99.2311 32.7341C99.4984 32.0156 99.5157 31.2266 99.2801 30.4969V30.4969ZM95.9378 32.7491C95.2582 32.614 94.7457 32.2649 94.7346 31.5442C94.7259 31.3827 94.7517 31.2212 94.8103 31.0708C94.8689 30.9203 94.9589 30.7843 95.0741 30.6721C95.1893 30.5599 95.3271 30.4742 95.4781 30.4206C95.629 30.367 95.7896 30.347 95.9489 30.3618C96.102 30.3614 96.2536 30.3929 96.3941 30.4544C96.5346 30.5158 96.6611 30.6059 96.7656 30.719C96.8702 30.832 96.9506 30.9657 97.0017 31.1115C97.0529 31.2574 97.0738 31.4123 97.063 31.5667C97.0519 32.2536 96.5617 32.614 95.9044 32.7491H95.9378Z" fill="#F9FBFC"/>
</g>
<defs>
<clipPath id="clip0_61_223">
<rect width="99" height="76" fill="white" transform="translate(0.447266 0.25)"/>
</clipPath>
</defs>
</svg>
