<svg width="1440" height="150" viewBox="0 0 1440 150" fill="none" xmlns="http://www.w3.org/2000/svg">
<path d="M316.607 58.9482L317.814 62.476L315.672 68.6545C316.519 68.7926 317.375 68.8593 318.233 68.8537C318.823 68.8549 319.412 68.8239 319.998 68.7611L320.734 71.0548C319.94 71.1351 319.074 71.1932 318.244 71.1932C317.141 71.1904 316.039 71.111 314.947 70.9552L313.726 74.5356H310L315.827 58.9482H316.607Z" fill="#999799" fill-opacity="0.6"/>
<path d="M403.996 62.4763C407.748 62.4763 410 64.2264 410 68.6424C410 69.1958 409.985 69.7962 409.971 69.875H401.333C401.318 71.6528 402.83 72.4289 405.189 72.4289C406.777 72.4289 408.043 72.0581 408.896 71.8063L409.035 74.1139C408.328 74.3782 406.798 74.7628 404.709 74.7628C400.568 74.7683 397.741 73.2437 397.741 68.6286C397.741 65.6458 398.919 63.6564 401.302 62.8596V67.7016H406.484C406.497 65.5531 405.674 64.6248 403.894 64.6248C403.064 64.6248 402.451 64.8241 402.025 65.2488V62.6617C402.674 62.5342 403.334 62.4721 403.996 62.4763ZM349.368 57.6619V68.6424C349.368 70.9942 349.853 72.4344 351.958 72.4344C354.062 72.4344 354.709 70.9887 354.709 68.6424C354.709 66.2961 354.062 64.849 351.958 64.849C351.075 64.849 350.486 65.1008 350.089 65.5656V63.2317C350.765 62.807 351.678 62.5289 352.929 62.5289C356.108 62.5289 358.182 64.3454 358.182 68.6286C358.182 72.9172 356.107 74.7157 352.9 74.7157C350.913 74.7157 349.765 74.024 349.117 73.1372L348.956 74.5303H345.94V59.9433H344.408V57.6619H349.368ZM374.985 62.5663C377.001 62.5663 378.149 63.2691 378.781 64.1572L378.958 62.6977H381.96L381.965 74.5303H378.535V68.6424C378.535 66.2905 378.049 64.849 375.945 64.849C373.841 64.849 373.194 66.2947 373.194 68.6424C373.194 70.9901 373.841 72.4289 375.945 72.4289C376.829 72.4289 377.417 72.1771 377.814 71.7136V74.0212C377.138 74.4446 376.211 74.713 374.974 74.713C371.767 74.713 369.717 72.9228 369.717 68.6396C369.717 64.3565 371.763 62.5663 374.985 62.5663ZM320.802 58.9486L326.629 74.5303H322.729L317.417 58.9486H320.802ZM331.997 62.7005V72.2463H333.381V74.5303H328.573V64.9845H327.043V62.7005H331.997ZM343.178 62.4888C343.507 62.4858 343.835 62.5169 344.158 62.5815L344.113 65.2875C343.837 65.2598 343.466 65.2336 343.145 65.2336C342.13 65.2336 341.409 65.4729 340.908 65.8437C339.801 66.6628 339.761 68.1842 339.76 69.0163L339.76 74.5303H336.344V64.9845H334.812V62.7005H339.36L339.581 64.5972C340.2 63.3908 341.347 62.4888 343.178 62.4888ZM367.983 62.4888C368.315 62.4853 368.645 62.5163 368.97 62.5815L368.926 65.2875C368.649 65.2598 368.278 65.2336 367.957 65.2336C366.942 65.2336 366.221 65.4729 365.72 65.8437C364.614 66.6628 364.575 68.1842 364.573 69.0163L364.573 74.5303H361.156V64.9845H359.625V62.7005H364.172L364.393 64.5972C365.012 63.3908 366.159 62.4888 367.983 62.4888ZM388.631 57.6619V74.5303H385.203V59.9433H383.673V57.6619H388.631ZM396.891 62.6949L392.693 68.2177L397.418 74.5303H393.4L388.882 68.2785L393.017 62.6949H396.891ZM330.132 57.2109C331.192 57.2109 331.972 57.9027 331.972 58.8559C331.972 59.8091 331.192 60.4994 330.132 60.4994C329.073 60.4994 328.294 59.8104 328.294 58.8559H328.29C328.294 57.9027 329.073 57.2109 330.132 57.2109Z" fill="#999799"/>
<path d="M853.251 53.6074H871.44C873.23 53.6074 874.691 55.0611 874.691 56.8585V75.0488C874.691 76.8389 873.238 78.2988 871.44 78.2988H853.251C851.461 78.2988 850 76.8461 850 75.0488V56.8502C850 55.0611 851.453 53.6074 853.251 53.6074Z" fill="#999799"/>
<path d="M864.919 59.1198V58.2731C864.919 57.6814 864.439 57.202 863.847 57.2021H861.348C860.756 57.202 860.276 57.6814 860.276 58.2731V59.1425C860.276 59.2392 860.365 59.3071 860.463 59.2845C861.17 59.0803 861.902 58.9771 862.638 58.9779C863.351 58.9779 864.057 59.0746 864.739 59.2618C864.829 59.2845 864.919 59.2176 864.919 59.1198ZM858.07 60.2279L857.643 59.8009C857.442 59.5999 857.17 59.4869 856.886 59.4869C856.601 59.4869 856.329 59.5999 856.128 59.8009L855.618 60.3102C855.416 60.5104 855.303 60.7828 855.303 61.0669C855.303 61.3509 855.416 61.6233 855.618 61.8235L856.037 62.2433C856.105 62.3102 856.203 62.2947 856.263 62.2279C856.51 61.8878 856.784 61.5672 857.08 61.269C857.38 60.9687 857.703 60.6934 858.048 60.446C858.122 60.4007 858.13 60.2958 858.07 60.2279ZM862.631 62.9161V66.5787C862.631 66.6836 862.744 66.7587 862.841 66.7063L866.097 65.0211C866.171 64.984 866.193 64.8935 866.156 64.8194C865.482 63.6353 864.228 62.8266 862.781 62.7742C862.706 62.7742 862.631 62.8338 862.631 62.9161ZM862.631 71.7392C859.916 71.7392 857.71 69.5365 857.71 66.8256C857.71 64.1147 859.916 61.9131 862.631 61.9131C865.347 61.9131 867.552 64.1147 867.552 66.8256C867.552 69.5365 865.354 71.7392 862.631 71.7392ZM862.631 59.8462C858.775 59.8462 855.647 62.9696 855.647 66.8256C855.647 70.6826 858.775 73.7989 862.631 73.7989C866.487 73.7989 869.614 70.6754 869.614 66.8184C869.614 62.9614 866.494 59.8462 862.631 59.8462Z" fill="white"/>
<path d="M899.221 73.192C894.413 73.2144 894.413 69.3122 894.413 68.6908L894.405 54.0724L897.338 53.6074V68.1362C897.338 68.4891 897.338 70.7206 899.221 70.7278V73.1918L899.221 73.192ZM887.332 70.8029C888.232 70.8029 888.9 70.7504 889.365 70.6609V67.6805C889.133 67.6187 888.897 67.571 888.659 67.5375C888.321 67.4874 887.981 67.4623 887.639 67.4624C887.316 67.4624 886.986 67.485 886.657 67.5375C886.327 67.5827 886.026 67.6722 885.764 67.7998C885.501 67.9274 885.283 68.1074 885.126 68.3389C884.961 68.5714 884.886 68.7062 884.886 69.058C884.886 69.7463 885.126 70.1445 885.561 70.4058C885.996 70.6681 886.589 70.8029 887.332 70.8029ZM887.077 60.1681C888.044 60.1681 888.862 60.2885 889.522 60.5282C890.182 60.7679 890.715 61.1043 891.104 61.5313C891.503 61.9654 891.772 62.5426 891.937 63.1568C892.11 63.771 892.192 64.4449 892.192 65.1856V72.7206C891.742 72.8173 891.059 72.9294 890.145 73.0642C889.23 73.199 888.202 73.2669 887.061 73.2669C886.304 73.2669 885.606 73.1918 884.984 73.0498C884.353 72.9078 883.821 72.6753 883.371 72.3533C882.928 72.0313 882.584 71.6187 882.329 71.1105C882.081 70.6002 881.953 69.8821 881.953 69.1331C881.953 68.414 882.095 67.9572 882.374 67.4624C882.658 66.9685 883.041 66.5642 883.521 66.2494C884.009 65.9346 884.563 65.7103 885.201 65.5755C885.839 65.4408 886.507 65.3729 887.196 65.3729C887.519 65.3729 887.856 65.3955 888.216 65.4325C888.569 65.4706 888.952 65.5385 889.357 65.6352V65.1558C889.357 64.8194 889.319 64.4973 889.237 64.198C889.158 63.9029 889.014 63.6292 888.816 63.3965C888.614 63.164 888.352 62.984 888.022 62.8574C887.692 62.7298 887.271 62.6321 886.769 62.6321C886.094 62.6321 885.479 62.7144 884.916 62.8122C884.353 62.9089 883.888 63.022 883.535 63.1486L883.184 60.7453C883.551 60.6177 884.098 60.4901 884.804 60.3636C885.509 60.2278 886.267 60.1681 887.077 60.1681H887.077ZM945.001 70.7206C945.901 70.7206 946.568 70.6681 947.033 70.5776V67.5982C946.868 67.5529 946.635 67.5004 946.328 67.4552C945.99 67.4051 945.649 67.38 945.307 67.3801C944.985 67.3801 944.655 67.4027 944.325 67.4552C943.996 67.5004 943.695 67.5899 943.433 67.7175C943.169 67.8451 942.952 68.0251 942.795 68.2566C942.629 68.4891 942.555 68.6239 942.555 68.9757C942.555 69.664 942.795 70.0622 943.23 70.3235C943.672 70.593 944.258 70.7206 945.001 70.7206ZM944.753 60.094C945.72 60.094 946.537 60.2134 947.198 60.4531C947.857 60.6928 948.39 61.0292 948.78 61.4562C949.17 61.8831 949.448 62.4675 949.613 63.0817C949.785 63.6959 949.868 64.3698 949.868 65.1115V72.6455C949.418 72.7422 948.735 72.8543 947.82 72.9901C946.906 73.1249 945.878 73.1918 944.737 73.1918C943.98 73.1918 943.282 73.1167 942.66 72.9747C942.029 72.8327 941.498 72.6002 941.047 72.2782C940.605 71.9562 940.26 71.5436 940.005 71.0354C939.757 70.5261 939.629 69.807 939.629 69.058C939.629 68.3389 939.772 67.8821 940.05 67.3873C940.334 66.8934 940.717 66.4891 941.197 66.1743C941.685 65.8605 942.239 65.6352 942.877 65.5004C943.515 65.3657 944.183 65.2988 944.873 65.2988C945.195 65.2988 945.533 65.3214 945.893 65.3585C946.253 65.3955 946.628 65.4634 947.033 65.5611V65.0817C947.033 64.7443 946.996 64.4222 946.913 64.1229C946.834 63.8277 946.691 63.5539 946.492 63.3214C946.29 63.0889 946.028 62.9089 945.698 62.7823C945.368 62.6547 944.947 62.558 944.445 62.558C943.77 62.558 943.155 62.6403 942.592 62.7371C942.029 62.8348 941.564 62.9469 941.212 63.0745L940.86 60.6702C941.227 60.5426 941.774 60.4161 942.48 60.2885C943.185 60.1609 943.942 60.094 944.753 60.094ZM935.946 58.701C936.928 58.701 937.732 57.9068 937.732 56.9253C937.732 55.9449 936.937 55.1506 935.946 55.1506C934.956 55.1506 934.161 55.9449 934.161 56.9253C934.161 57.9068 934.964 58.701 935.946 58.701ZM937.423 73.1918H934.476V60.5498L937.423 60.0858V73.1918H937.423ZM932.256 73.192C927.448 73.2144 927.448 69.3122 927.448 68.6908L927.44 54.0724L930.373 53.6074V68.1362C930.373 68.4891 930.373 70.7206 932.256 70.7278V73.192ZM922.722 66.7216C922.722 65.4552 922.444 64.3996 921.904 63.6661C921.364 62.9243 920.607 62.558 919.639 62.558C918.671 62.558 917.913 62.9243 917.374 63.6661C916.834 64.4068 916.571 65.4552 916.571 66.7216C916.571 68.0025 916.841 68.8626 917.381 69.6043C917.921 70.3533 918.679 70.7206 919.647 70.7206C920.614 70.7206 921.372 70.3461 921.912 69.6043C922.452 68.8554 922.722 68.0025 922.722 66.7216ZM925.722 66.7144C925.722 67.7031 925.58 68.451 925.287 69.2679C924.994 70.0838 924.582 70.7803 924.05 71.3574C923.517 71.9336 922.879 72.3831 922.129 72.698C921.379 73.0117 920.224 73.1918 919.647 73.1918C919.068 73.1846 917.921 73.02 917.178 72.698C916.436 72.3759 915.798 71.9336 915.266 71.3574C914.733 70.7803 914.321 70.0838 914.02 69.2679C913.721 68.451 913.571 67.7031 913.571 66.7144C913.571 65.7257 913.705 64.7741 914.006 63.9654C914.306 63.1568 914.726 62.4675 915.266 61.8914C915.806 61.3142 916.451 60.8718 917.186 60.558C917.928 60.2432 918.746 60.094 919.631 60.094C920.517 60.094 921.334 60.2504 922.084 60.558C922.835 60.8718 923.48 61.3142 924.005 61.8914C924.536 62.4675 924.949 63.1568 925.25 63.9654C925.564 64.7741 925.722 65.7257 925.722 66.7144H925.722ZM903.647 66.7144C903.647 67.9418 903.916 69.305 904.456 69.8739C904.997 70.4438 905.694 70.7278 906.55 70.7278C907.015 70.7278 907.457 70.6609 907.87 70.5333C908.282 70.4058 908.612 70.2556 908.875 70.0766V62.805C908.665 62.7597 907.787 62.5796 906.939 62.558C905.874 62.5272 905.064 62.9624 904.494 63.6578C903.932 64.3554 903.647 65.5755 903.647 66.7144ZM911.8 72.4953C911.8 74.4953 911.29 75.9552 910.262 76.8842C909.235 77.8122 907.667 78.2772 905.552 78.2772C904.779 78.2772 903.174 78.127 901.891 77.843L902.364 75.521C903.437 75.7453 904.854 75.806 905.597 75.806C906.774 75.806 907.615 75.5663 908.117 75.0868C908.62 74.6074 908.867 73.8965 908.867 72.9521V72.4726C908.575 72.6146 908.192 72.7576 907.72 72.9078C907.247 73.0498 906.7 73.1249 906.084 73.1249C905.274 73.1249 904.539 72.9973 903.872 72.7422C903.204 72.4881 902.626 72.1136 902.154 71.6187C901.682 71.1249 901.306 70.5035 901.044 69.7617C900.781 69.02 900.646 67.6949 900.646 66.7216C900.646 65.808 900.789 64.6619 901.066 63.8975C901.351 63.1342 901.756 62.4747 902.304 61.9284C902.844 61.3821 903.505 60.9624 904.277 60.6547C905.05 60.3482 905.956 60.1537 906.939 60.1537C907.892 60.1537 908.77 60.2731 909.625 60.4161C910.48 60.558 911.207 60.7072 911.8 60.8718V72.4953H911.8Z" fill="#999799"/>
<path d="M490.05 68.7623C490.05 67.633 490.239 66.5793 490.617 65.6012C490.995 64.6231 491.524 63.7711 492.205 63.0451C492.886 62.3191 493.7 61.7494 494.648 61.3359C495.596 60.9225 496.634 60.7158 497.764 60.7158C498.621 60.7158 499.4 60.8419 500.1 61.0939C500.801 61.346 501.479 61.7595 502.135 62.3342V61.0183H505.976V76.5063H502.135V75.1904C501.479 75.7652 500.801 76.1786 500.1 76.4307C499.4 76.6827 498.621 76.8088 497.764 76.8088C496.634 76.8088 495.596 76.6021 494.648 76.1887C493.7 75.7753 492.886 75.2055 492.205 74.4795C491.524 73.7535 490.995 72.9015 490.617 71.9234C490.239 70.9453 490.05 69.8916 490.05 68.7623ZM498.263 73.1939C498.565 73.1939 498.883 73.1612 499.216 73.0956C499.548 73.0301 499.884 72.9192 500.221 72.7629C500.559 72.6066 500.889 72.3973 501.212 72.1352C501.535 71.873 501.842 71.5503 502.135 71.1672V66.3574C501.842 65.9743 501.535 65.6541 501.212 65.397C500.889 65.1399 500.559 64.9307 500.221 64.7693C499.884 64.608 499.548 64.4946 499.216 64.429C498.883 64.3635 498.565 64.3307 498.263 64.3307C497.668 64.3307 497.111 64.4416 496.591 64.6634C496.072 64.8853 495.621 65.1953 495.238 65.5936C494.854 65.9919 494.555 66.4608 494.338 67.0002C494.121 67.5397 494.013 68.1271 494.013 68.7623C494.013 69.3976 494.121 69.9849 494.338 70.5244C494.555 71.0638 494.854 71.5327 495.238 71.931C495.621 72.3293 496.072 72.6393 496.591 72.8612C497.111 73.083 497.668 73.1939 498.263 73.1939Z" fill="#999799"/>
<path d="M515.58 64.5392C513.76 64.5525 512.179 65.8211 512.179 67.7036V76.5063H508.337V67.8094C508.358 64.1829 511.499 60.7647 515.525 60.7158H515.633C519.659 60.7647 522.8 64.1829 522.821 67.8094V76.5063H518.979V67.7036C518.979 65.8211 517.398 64.5525 515.578 64.5392" fill="#999799"/>
<path d="M524.64 68.7624C524.64 67.633 524.829 66.5793 525.207 65.6012C525.585 64.6232 526.114 63.7711 526.795 63.0451C527.476 62.3191 528.29 61.7494 529.238 61.336C530.185 60.9226 531.224 60.7159 532.353 60.7159C533.21 60.7159 533.992 60.8419 534.698 61.094C535.404 61.3461 536.079 61.7545 536.724 62.3191V56.375H540.566V76.5063H536.724V75.2056C536.079 75.7803 535.404 76.1912 534.698 76.4383C533.992 76.6853 533.21 76.8088 532.353 76.8088C531.224 76.8088 530.185 76.6021 529.238 76.1887C528.29 75.7753 527.476 75.2056 526.795 74.4796C526.114 73.7536 525.585 72.9016 525.207 71.9235C524.829 70.9454 524.64 69.8917 524.64 68.7624ZM532.853 73.194C533.155 73.194 533.473 73.1612 533.805 73.0957C534.138 73.0301 534.473 72.9192 534.811 72.7629C535.149 72.6066 535.479 72.3974 535.802 72.1352C536.125 71.8731 536.432 71.5504 536.724 71.1672V66.3575C536.432 65.9743 536.125 65.6542 535.802 65.397C535.479 65.1399 535.149 64.9307 534.811 64.7694C534.473 64.608 534.138 64.4946 533.805 64.429C533.473 64.3635 533.155 64.3308 532.853 64.3307C532.258 64.3308 531.7 64.4417 531.181 64.6635C530.662 64.8853 530.211 65.1954 529.828 65.5937C529.444 65.992 529.144 66.4608 528.928 67.0003C528.711 67.5398 528.602 68.1271 528.602 68.7624C528.602 69.3976 528.711 69.985 528.928 70.5244C529.144 71.0639 529.444 71.5327 529.828 71.931C530.211 72.3293 530.662 72.6394 531.181 72.8612C531.7 73.0831 532.258 73.194 532.853 73.194Z" fill="#999799"/>
<path d="M558.557 73.1939C559.131 73.1939 559.673 73.0855 560.183 72.8687C560.692 72.6519 561.135 72.3469 561.514 71.9537C561.892 71.5604 562.189 71.0941 562.406 70.5546C562.623 70.0152 562.731 69.4177 562.731 68.7623C562.731 68.117 562.62 67.5246 562.398 66.9851C562.177 66.4457 561.874 65.9793 561.491 65.5861C561.108 65.1928 560.664 64.8853 560.16 64.6634C559.656 64.4416 559.121 64.3307 558.557 64.3307C557.982 64.3307 557.44 64.4416 556.931 64.6634C556.422 64.8853 555.978 65.1928 555.6 65.5861C555.222 65.9793 554.922 66.4457 554.7 66.9851C554.478 67.5246 554.367 68.117 554.367 68.7623C554.367 69.4177 554.475 70.0152 554.692 70.5546C554.909 71.0941 555.206 71.5604 555.585 71.9537C555.963 72.3469 556.406 72.6519 556.916 72.8687C557.425 73.0855 557.972 73.1939 558.557 73.1939ZM558.557 76.8088C557.437 76.8088 556.384 76.6071 555.396 76.2038C554.407 75.8005 553.543 75.2383 552.802 74.5174C552.06 73.7964 551.476 72.9444 551.047 71.9612C550.619 70.9781 550.404 69.9118 550.404 68.7623C550.404 67.6431 550.619 66.5944 551.047 65.6163C551.476 64.6382 552.058 63.7862 552.794 63.0602C553.53 62.3342 554.395 61.762 555.388 61.3435C556.381 60.9251 557.437 60.7158 558.557 60.7158C559.676 60.7158 560.73 60.9251 561.718 61.3435C562.706 61.762 563.568 62.3342 564.304 63.0602C565.04 63.7862 565.623 64.6382 566.051 65.6163C566.48 66.5944 566.694 67.6431 566.694 68.7623C566.694 69.9118 566.48 70.9781 566.051 71.9612C565.623 72.9444 565.038 73.7964 564.297 74.5174C563.555 75.2383 562.693 75.8005 561.71 76.2038C560.727 76.6071 559.676 76.8088 558.557 76.8088Z" fill="#999799"/>
<path d="M570.337 59.8058C570.025 59.8058 569.731 59.745 569.454 59.6234C569.177 59.5019 568.933 59.3365 568.724 59.1274C568.515 58.9183 568.35 58.6751 568.228 58.3979C568.107 58.1207 568.046 57.8265 568.046 57.5152C568.046 57.204 568.107 56.9073 568.228 56.6252C568.35 56.3431 568.515 56.0975 568.724 55.8884C568.933 55.6793 569.177 55.5139 569.454 55.3923C569.731 55.2708 570.025 55.21 570.337 55.21C570.648 55.21 570.944 55.2708 571.227 55.3923C571.509 55.5139 571.754 55.6793 571.963 55.8884C572.172 56.0975 572.338 56.3431 572.459 56.6252C572.581 56.9073 572.642 57.204 572.642 57.5152C572.642 57.8265 572.581 58.1207 572.459 58.3979C572.338 58.6751 572.172 58.9183 571.963 59.1274C571.754 59.3365 571.509 59.5019 571.227 59.6234C570.944 59.745 570.648 59.8058 570.337 59.8058Z" fill="#999799"/>
<path d="M568.415 61.0186H572.257V76.5065H568.415V61.0186Z" fill="#999799"/>
<path d="M574.023 68.7624C574.023 67.633 574.213 66.5793 574.591 65.6012C574.969 64.6232 575.498 63.7711 576.179 63.0451C576.859 62.3191 577.674 61.7494 578.621 61.336C579.569 60.9226 580.608 60.7159 581.737 60.7159C582.594 60.7159 583.376 60.8419 584.082 61.094C584.787 61.3461 585.463 61.7545 586.108 62.3191V56.375H589.95V76.5063H586.108V75.2056C585.463 75.7803 584.787 76.1912 584.082 76.4383C583.376 76.6853 582.594 76.8088 581.737 76.8088C580.608 76.8088 579.569 76.6021 578.621 76.1887C577.674 75.7753 576.859 75.2056 576.179 74.4796C575.498 73.7536 574.969 72.9016 574.591 71.9235C574.213 70.9454 574.023 69.8917 574.023 68.7624ZM582.236 73.194C582.539 73.194 582.856 73.1612 583.189 73.0957C583.522 73.0301 583.857 72.9192 584.195 72.7629C584.533 72.6066 584.863 72.3974 585.186 72.1352C585.508 71.8731 585.816 71.5504 586.108 71.1672V66.3575C585.816 65.9743 585.508 65.6542 585.186 65.397C584.863 65.1399 584.533 64.9307 584.195 64.7694C583.857 64.608 583.522 64.4946 583.189 64.429C582.856 64.3635 582.539 64.3308 582.236 64.3307C581.641 64.3308 581.084 64.4417 580.565 64.6635C580.046 64.8853 579.594 65.1954 579.211 65.5937C578.828 65.992 578.528 66.4608 578.311 67.0003C578.095 67.5398 577.986 68.1271 577.986 68.7624C577.986 69.3976 578.095 69.985 578.311 70.5244C578.528 71.0639 578.828 71.5327 579.211 71.931C579.594 72.3293 580.046 72.6394 580.565 72.8612C581.084 73.0831 581.641 73.194 582.236 73.194Z" fill="#999799"/>
<path d="M550.038 64.4932C547.463 64.4932 546.328 65.8215 546.328 67.704V76.5067H542.486V67.8099C542.508 64.1834 544.603 60.6182 550.038 60.6182" fill="#999799"/>
<path fill-rule="evenodd" clip-rule="evenodd" d="M699.414 72.5039V60.1992H700.996L708.516 70.1016V60.1992H710.02V72.5039H708.438L700.918 62.5039V72.5039H699.414Z" fill="#999799"/>
<path fill-rule="evenodd" clip-rule="evenodd" d="M722.266 72.0156C721.27 72.3867 720.195 72.582 719.062 72.582C714.609 72.582 712.383 70.4531 712.383 66.1758C712.383 62.1328 714.531 60.1016 718.828 60.1016C720.059 60.1016 721.211 60.2773 722.266 60.6094V61.9766C721.211 61.5664 720.117 61.3711 719.004 61.3711C715.645 61.3711 713.965 62.9727 713.965 66.1367C713.965 69.5547 715.625 71.2539 718.926 71.2539C719.453 71.2539 720.039 71.1758 720.684 71.0391V66.918H722.266V72.0156Z" fill="#999799"/>
<path fill-rule="evenodd" clip-rule="evenodd" d="M724.805 67.7578V60.1992H726.387V67.7578C726.387 70.1211 727.559 71.3125 729.922 71.3125C732.266 71.3125 733.457 70.1211 733.457 67.7578V60.1992H735.039V67.7578C735.039 70.9805 733.34 72.6016 729.922 72.6016C726.504 72.6016 724.805 70.9805 724.805 67.7578Z" fill="#999799"/>
<path fill-rule="evenodd" clip-rule="evenodd" d="M739.453 60.1992V71.2148H745.898V72.5039H737.871V60.1992H739.453Z" fill="#999799"/>
<path fill-rule="evenodd" clip-rule="evenodd" d="M748.184 72.5039H746.523L752.637 58.5781L758.75 72.5039H756.992L755.41 68.6367H751.348L751.777 67.3477H754.883L752.578 61.7812L748.184 72.5039Z" fill="#999799"/>
<path fill-rule="evenodd" clip-rule="evenodd" d="M760.449 72.5039V60.1992H765.703C768.047 60.1992 769.219 61.1758 769.219 63.1484C769.219 64.75 768.066 65.9414 765.781 66.7031L770 72.5039H767.91L764.004 66.9766V65.9414C766.348 65.5703 767.539 64.6719 767.539 63.2266C767.539 62.0937 766.895 61.5273 765.586 61.5273H762.07V72.5039H760.449Z" fill="#999799"/>
<path fill-rule="evenodd" clip-rule="evenodd" d="M670 56.918L682.598 52.4258L695.527 56.8398L693.438 73.5L682.598 79.4961L671.934 73.5781L670 56.918Z" fill="#999799"/>
<path fill-rule="evenodd" clip-rule="evenodd" d="M695.527 56.8398L682.598 52.4258V79.4961L693.438 73.5L695.527 56.8398Z" fill="#6D6D6D"/>
<path fill-rule="evenodd" clip-rule="evenodd" d="M682.617 55.5898L674.766 73.0508L677.695 72.9922L679.277 69.0469H682.617H686.289L688.008 73.0313L690.801 73.0898L682.617 55.5898ZM682.637 61.1953L685.293 66.7422H682.754H682.617H680.312L682.637 61.1953Z" fill="white"/>
<path d="M1126.89 69.6471L1129.66 71.4965C1128.76 72.8227 1126.61 75.0979 1122.88 75.0979C1118.26 75.0979 1114.82 71.5208 1114.82 66.9703C1114.82 62.1279 1118.3 58.8428 1122.49 58.8428C1126.71 58.8428 1128.78 62.2009 1129.45 64.0138L1129.82 64.9384L1118.94 69.4402C1119.77 71.0706 1121.06 71.898 1122.88 71.898C1124.71 71.898 1125.97 70.9976 1126.89 69.6471ZM1118.36 66.7148L1125.62 63.6974C1125.22 62.6875 1124.03 61.9697 1122.6 61.9697C1120.79 61.9697 1118.27 63.5757 1118.36 66.7148Z" fill="#999799"/>
<path d="M1109.57 50.5566H1113.08V74.3553H1109.57V50.5566Z" fill="#999799"/>
<path d="M1104.05 59.4759H1107.43V73.9303C1107.43 79.9287 1103.89 82.3986 1099.7 82.3986C1095.76 82.3986 1093.39 79.7461 1092.5 77.5926L1095.6 76.3029C1096.16 77.6291 1097.51 79.1986 1099.7 79.1986C1102.39 79.1986 1104.05 77.5318 1104.05 74.417V73.249H1103.93C1103.12 74.2223 1101.59 75.0983 1099.64 75.0983C1095.58 75.0983 1091.86 71.5577 1091.86 66.9951C1091.86 62.4082 1095.58 58.8311 1099.64 58.8311C1101.58 58.8311 1103.12 59.6949 1103.93 60.6439H1104.05V59.4759ZM1104.29 66.9951C1104.29 64.1237 1102.38 62.031 1099.95 62.031C1097.49 62.031 1095.42 64.1237 1095.42 66.9951C1095.42 69.83 1097.49 71.8863 1099.95 71.8863C1102.38 71.8984 1104.29 69.83 1104.29 66.9951Z" fill="#999799"/>
<path d="M1072.62 66.9337C1072.62 71.618 1068.97 75.0612 1064.49 75.0612C1060.02 75.0612 1056.37 71.6058 1056.37 66.9337C1056.37 62.225 1060.02 58.7939 1064.49 58.7939C1068.97 58.7939 1072.62 62.225 1072.62 66.9337ZM1069.07 66.9337C1069.07 64.0136 1066.95 62.006 1064.49 62.006C1062.04 62.006 1059.92 64.0136 1059.92 66.9337C1059.92 69.8294 1062.04 71.8613 1064.49 71.8613C1066.95 71.8613 1069.07 69.8294 1069.07 66.9337Z" fill="#999799"/>
<path d="M1090.37 66.9703C1090.37 71.6546 1086.72 75.0979 1082.24 75.0979C1077.77 75.0979 1074.12 71.6546 1074.12 66.9703C1074.12 62.2617 1077.77 58.8428 1082.24 58.8428C1086.72 58.8428 1090.37 62.2495 1090.37 66.9703ZM1086.81 66.9703C1086.81 64.0503 1084.69 62.0427 1082.23 62.0427C1079.77 62.0427 1077.66 64.0503 1077.66 66.9703C1077.66 69.8661 1079.77 71.898 1082.23 71.898C1084.7 71.898 1086.81 69.8539 1086.81 66.9703Z" fill="#999799"/>
<path d="M1043.01 71.533C1037.91 71.533 1033.92 67.4205 1033.92 62.3226C1033.92 57.2246 1037.91 53.1121 1043.01 53.1121C1045.76 53.1121 1047.76 54.195 1049.25 55.582L1051.69 53.1365C1049.62 51.1532 1046.86 49.6445 1043.01 49.6445C1036.02 49.6445 1030.15 55.3387 1030.15 62.3226C1030.15 69.3064 1036.02 75.0006 1043.01 75.0006C1046.78 75.0006 1049.62 73.7595 1051.85 71.4478C1054.14 69.1604 1054.84 65.9483 1054.84 63.3446C1054.84 62.5294 1054.75 61.6899 1054.64 61.0694H1043.01V64.4518H1051.29C1051.05 66.5688 1050.38 68.0167 1049.39 69.0022C1048.2 70.2068 1046.32 71.533 1043.01 71.533Z" fill="#999799"/>
</svg>
