<svg width="44" height="44" viewBox="0 0 44 44" fill="none" xmlns="http://www.w3.org/2000/svg">
<g clip-path="url(#clip0_61_327)">
<path d="M23.1549 2.96316C22.6991 2.92899 22.2422 2.91188 21.7852 2.91185V0.211426C22.3079 0.211685 22.8304 0.231501 23.3517 0.270835L23.1549 2.96316ZM28.4845 4.17835C27.632 3.84432 26.7564 3.57445 25.8649 3.37092L26.4473 0.735308C27.4659 0.967545 28.4686 1.27539 29.4419 1.65885L28.4845 4.17835V4.17835ZM32.128 6.09565C31.7478 5.83816 31.3584 5.59496 30.9605 5.36654L32.2717 3.01717C33.181 3.54033 34.0512 4.13061 34.8753 4.78324L33.2397 6.91388C32.8792 6.62826 32.5083 6.35623 32.128 6.09835V6.09565ZM37.0056 10.9294C36.4795 10.1705 35.8991 9.45206 35.2689 8.77987L37.1944 6.91658C37.9125 7.6862 38.5774 8.50983 39.1811 9.37396L37.0056 10.9294V10.9294ZM38.9843 14.5804C38.8097 14.1523 38.6199 13.7307 38.4151 13.3166L40.7901 12.1014C41.2597 13.0495 41.6597 14.0315 41.9868 15.0395L39.4603 15.8847C39.3174 15.4442 39.1586 15.0091 38.9843 14.5804V14.5804ZM40.3938 21.3503C40.3723 20.4223 40.2834 19.4972 40.1278 18.5824L42.7475 18.1233C42.9257 19.1657 43.0294 20.2243 43.056 21.2828L40.3965 21.3503H40.3938ZM40.0454 25.5036C40.1332 25.0445 40.205 24.5882 40.2608 24.1264L42.9017 24.4585C42.774 25.5121 42.5695 26.5546 42.29 27.5775L39.7263 26.8565C39.8486 26.4109 39.955 25.96 40.0454 25.5036V25.5036ZM37.5135 31.9279C38.0029 31.1448 38.4337 30.3239 38.8061 29.4759L41.2369 30.5696C40.8113 31.5417 40.3193 32.4761 39.7608 33.3726L37.5135 31.9279ZM34.9498 35.1819C35.2742 34.8525 35.5854 34.5122 35.8806 34.1612L37.8965 35.9245C37.5551 36.3264 37.1994 36.7156 36.8301 37.0911L34.9498 35.1819V35.1819Z" fill="#80C904"/>
<path d="M21.7852 2.91185C18.7238 2.91207 15.7097 3.6789 13.0099 5.1444C10.31 6.60989 8.00777 8.72884 6.30704 11.3135C4.60632 13.8982 3.5596 16.8689 3.25961 19.9625C2.95962 23.056 3.41561 26.177 4.58719 29.0489C5.75877 31.9207 7.60979 34.4549 9.97628 36.427C12.3428 38.399 15.1517 39.748 18.1543 40.3545C21.1569 40.961 24.2604 40.8063 27.19 39.904C30.1197 39.0018 32.7849 37.3799 34.9498 35.1819L36.8301 37.0911C34.356 39.6046 31.3096 41.4597 27.9607 42.492C24.6118 43.5242 21.0639 43.7018 17.6312 43.0091C14.1986 42.3163 10.9872 40.7745 8.28171 38.5203C5.57617 36.2661 3.45998 33.369 2.12065 30.0859C0.781319 26.8028 0.260196 23.2349 0.603453 19.6984C0.94671 16.1619 2.14375 12.766 4.08851 9.81148C6.03327 6.857 8.6657 4.43519 11.7526 2.76063C14.8394 1.08608 18.2854 0.210484 21.7852 0.211427V2.91185Z" fill="#80C904"/>
<path d="M20.4555 8.31274C20.8082 8.31274 21.1464 8.455 21.3958 8.70821C21.6451 8.96143 21.7852 9.30486 21.7852 9.66296V23.7322L30.4233 28.7442C30.7206 28.9263 30.936 29.2192 31.0234 29.5605C31.1108 29.9017 31.0633 30.2641 30.891 30.5702C30.7187 30.8763 30.4354 31.1018 30.1015 31.1986C29.7676 31.2954 29.4097 31.2558 29.1042 31.0881L19.7959 25.6873C19.5924 25.5692 19.4232 25.3987 19.3055 25.1928C19.1878 24.987 19.1258 24.7533 19.1257 24.5153V9.66296C19.1257 9.30486 19.2658 8.96143 19.5152 8.70821C19.7646 8.455 20.1028 8.31274 20.4555 8.31274V8.31274Z" fill="#80C904"/>
</g>
<defs>
<clipPath id="clip0_61_327">
<rect width="42.5521" height="43.2068" fill="white" transform="translate(0.509155 0.211426)"/>
</clipPath>
</defs>
</svg>
