<svg width="75" height="81" viewBox="0 0 75 81" fill="none" xmlns="http://www.w3.org/2000/svg">
<g clip-path="url(#clip0_173_683)">
<path d="M73.1673 80.783H2.37681C1.96867 80.783 1.57724 80.6208 1.28863 80.3322C1.00003 80.0436 0.837891 79.6522 0.837891 79.244C0.837891 78.8359 1.00003 78.4445 1.28863 78.1559C1.57724 77.8673 1.96867 77.7051 2.37681 77.7051H73.1673C73.5755 77.7051 73.9669 77.8673 74.2555 78.1559C74.5441 78.4445 74.7062 78.8359 74.7062 79.244C74.7062 79.6522 74.5441 80.0436 74.2555 80.3322C73.9669 80.6208 73.5755 80.783 73.1673 80.783Z" fill="#80C904"/>
<path d="M5.59172 80.7831C5.23268 80.7827 4.88508 80.6568 4.60901 80.4273C4.33295 80.1977 4.14577 79.8789 4.07985 79.526C3.97 78.9253 3.91517 78.3159 3.91603 77.7053C3.91573 75.391 4.6608 73.1382 6.0409 71.2804C7.421 69.4227 9.36273 68.0588 11.5785 67.3908C13.7943 66.7229 16.1663 66.7863 18.3432 67.5717C20.5201 68.3572 22.3862 69.8229 23.665 71.7517C23.891 72.0917 23.9727 72.5076 23.8921 72.9078C23.8115 73.308 23.5752 73.6598 23.2352 73.8858C22.8952 74.1118 22.4794 74.1935 22.0792 74.1129C21.679 74.0323 21.3272 73.796 21.1011 73.456C20.0019 71.7891 18.2952 70.6173 16.3446 70.1903C15.8005 70.0719 15.2453 70.0117 14.6885 70.0107C12.6485 70.0131 10.6927 70.8245 9.25022 72.267C7.80772 73.7095 6.99627 75.6653 6.99388 77.7053C6.99333 78.1269 7.03106 78.5476 7.10659 78.9624C7.14779 79.1847 7.13955 79.4133 7.08245 79.6321C7.02535 79.8508 6.92079 80.0543 6.7762 80.2281C6.63161 80.4019 6.45053 80.5417 6.24582 80.6376C6.04111 80.7335 5.81779 80.7832 5.59172 80.7831Z" fill="#80C904"/>
<path d="M16.6731 70.2269C16.4299 70.2263 16.1903 70.1682 15.9738 70.0573C15.7573 69.9464 15.5702 69.7859 15.4276 69.5888C15.285 69.3918 15.191 69.1638 15.1533 68.9236C15.1157 68.6833 15.1354 68.4375 15.2108 68.2063C15.9171 66.045 17.2889 64.1626 19.1299 62.8282C20.9708 61.4937 23.1867 60.7758 25.4604 60.7769C27.3586 60.7721 29.2233 61.2765 30.8601 62.2377C31.0361 62.3395 31.1902 62.4752 31.3134 62.6369C31.4367 62.7985 31.5267 62.9831 31.5782 63.1797C31.6297 63.3764 31.6418 63.5813 31.6136 63.7827C31.5855 63.984 31.5178 64.1778 31.4143 64.3528C31.3109 64.5278 31.1738 64.6806 31.011 64.8023C30.8481 64.9241 30.6628 65.0123 30.4657 65.062C30.2685 65.1117 30.0635 65.1219 29.8624 65.0919C29.6613 65.0619 29.4682 64.9923 29.2942 64.8872C28.1336 64.2017 26.8083 63.8448 25.4604 63.8548C23.835 63.8545 22.2513 64.3683 20.9356 65.3227C19.6199 66.277 18.6398 67.623 18.1355 69.1681C18.034 69.4759 17.838 69.7439 17.5755 69.934C17.313 70.1241 16.9972 70.2266 16.6731 70.2269Z" fill="#80C904"/>
<path d="M30.078 65.1013C29.8759 65.1014 29.6758 65.0616 29.489 64.9843C29.3023 64.907 29.1326 64.7936 28.9897 64.6507C28.8468 64.5078 28.7334 64.3381 28.6561 64.1514C28.5788 63.9647 28.539 63.7645 28.5391 63.5624V44.7564C28.5391 44.3482 28.7012 43.9568 28.9898 43.6682C29.2784 43.3796 29.6699 43.2175 30.078 43.2175C30.4862 43.2175 30.8776 43.3796 31.1662 43.6682C31.4548 43.9568 31.6169 44.3482 31.6169 44.7564V63.5624C31.617 63.7645 31.5772 63.9647 31.4999 64.1514C31.4226 64.3381 31.3092 64.5078 31.1663 64.6507C31.0234 64.7936 30.8537 64.907 30.667 64.9843C30.4803 65.0616 30.2801 65.1014 30.078 65.1013Z" fill="#80C904"/>
<path d="M69.9522 80.7829C69.7262 80.783 69.5029 80.7333 69.2981 80.6374C69.0934 80.5414 68.9124 80.4016 68.7678 80.2278C68.6232 80.054 68.5186 79.8506 68.4615 79.6318C68.4044 79.4131 68.3962 79.1844 68.4374 78.9622C68.5129 78.5474 68.5506 78.1266 68.5501 77.705C68.5477 75.665 67.7362 73.7093 66.2937 72.2668C64.8512 70.8243 62.8955 70.0128 60.8555 70.0104C60.2991 70.0114 59.7444 70.0716 59.2008 70.19C57.2497 70.6166 55.5423 71.7884 54.4428 73.4558C54.216 73.7939 53.8645 74.0285 53.4652 74.1081C53.0658 74.1877 52.6513 74.1058 52.3122 73.8804C51.9731 73.655 51.7371 73.3044 51.6559 72.9054C51.5747 72.5064 51.6549 72.0915 51.8789 71.7515C53.1578 69.8228 55.0239 68.3573 57.2008 67.5719C59.3776 66.7865 61.7496 66.7231 63.9653 67.3911C66.181 68.059 68.1227 69.4228 69.5028 71.2805C70.8829 73.1381 71.6281 75.3908 71.6279 77.705C71.6288 78.3157 71.574 78.9251 71.4641 79.5257C71.3982 79.8787 71.211 80.1975 70.935 80.427C70.6589 80.6566 70.3113 80.7825 69.9522 80.7829Z" fill="#80C904"/>
<path d="M58.8703 70.2269C58.5462 70.2265 58.2305 70.1241 57.968 69.934C57.7055 69.7439 57.5095 69.4759 57.4081 69.1681C56.9037 67.623 55.9236 66.277 54.6079 65.3226C53.2922 64.3683 51.7084 63.8545 50.0831 63.8548C48.7352 63.8448 47.4099 64.2017 46.2493 64.8872C46.0753 64.9923 45.8821 65.0619 45.681 65.0919C45.48 65.1219 45.2749 65.1117 45.0778 65.062C44.8807 65.0123 44.6953 64.9241 44.5325 64.8023C44.3697 64.6806 44.2326 64.5278 44.1291 64.3528C44.0257 64.1778 43.9579 63.984 43.9298 63.7827C43.9017 63.5813 43.9137 63.3764 43.9653 63.1797C44.0168 62.9831 44.1068 62.7985 44.23 62.6369C44.3533 62.4752 44.5073 62.3395 44.6833 62.2377C46.3202 61.2765 48.1849 60.7721 50.0831 60.7769C52.3568 60.7758 54.5726 61.4938 56.4136 62.8282C58.2545 64.1626 59.6263 66.0451 60.3326 68.2063C60.408 68.4375 60.4277 68.6833 60.39 68.9236C60.3524 69.1639 60.2584 69.3918 60.1158 69.5889C59.9732 69.7859 59.7861 69.9464 59.5696 70.0573C59.3531 70.1682 59.1135 70.2263 58.8703 70.2269Z" fill="#80C904"/>
<path d="M45.4667 65.1013C45.2646 65.1014 45.0644 65.0616 44.8777 64.9843C44.6909 64.907 44.5213 64.7936 44.3784 64.6507C44.2355 64.5078 44.1221 64.3381 44.0448 64.1514C43.9675 63.9647 43.9277 63.7645 43.9277 63.5624V44.7564C43.9277 44.3482 44.0899 43.9568 44.3785 43.6682C44.6671 43.3796 45.0585 43.2175 45.4667 43.2175C45.8748 43.2175 46.2662 43.3796 46.5549 43.6682C46.8435 43.9568 47.0056 44.3482 47.0056 44.7564V63.5624C47.0056 63.7645 46.9659 63.9647 46.8886 64.1514C46.8112 64.3381 46.6979 64.5078 46.555 64.6507C46.4121 64.7936 46.2424 64.907 46.0557 64.9843C45.8689 65.0616 45.6688 65.1014 45.4667 65.1013Z" fill="#80C904"/>
<path d="M43.9282 74.6272C43.7261 74.6272 43.5259 74.5875 43.3392 74.5101C43.1525 74.4328 42.9828 74.3195 42.8399 74.1765C42.697 74.0336 42.5836 73.864 42.5063 73.6772C42.429 73.4905 42.3892 73.2904 42.3893 73.0883C42.3883 72.2722 42.0638 71.4899 41.4868 70.9129C40.9098 70.3359 40.1274 70.0113 39.3114 70.0104C38.9033 70.0104 38.5118 69.8483 38.2232 69.5597C37.9346 69.2711 37.7725 68.8796 37.7725 68.4715C37.7725 68.0633 37.9346 67.6719 38.2232 67.3833C38.5118 67.0947 38.9033 66.9326 39.3114 66.9326C40.9435 66.9343 42.5082 67.5834 43.6622 68.7374C44.8163 69.8915 45.4654 71.4562 45.4671 73.0883C45.4672 73.2904 45.4274 73.4905 45.3501 73.6772C45.2728 73.864 45.1594 74.0336 45.0165 74.1765C44.8736 74.3195 44.7039 74.4328 44.5172 74.5101C44.3304 74.5875 44.1303 74.6272 43.9282 74.6272Z" fill="#80C904"/>
<path d="M47.7299 46.2902H27.8141C27.4975 46.2904 27.1886 46.1929 26.9296 46.0109C26.6706 45.8289 26.474 45.5714 26.3668 45.2736C21.1835 30.9153 24.3906 15.1796 34.9451 3.18088L36.6163 1.28118C36.7649 1.12384 36.944 0.998491 37.1427 0.912819C37.3415 0.827148 37.5556 0.782959 37.772 0.782959C37.9884 0.782959 38.2026 0.827148 38.4013 0.912819C38.6 0.998491 38.7792 1.12384 38.9277 1.28118L40.5989 3.1808C51.1535 15.1796 54.3606 30.9153 49.1772 45.2736C49.07 45.5714 48.8735 45.829 48.6144 46.0109C48.3554 46.1929 48.0465 46.2904 47.7299 46.2902ZM28.9112 43.2124H46.6328C50.922 30.2022 47.8396 16.0731 38.2875 5.21417L37.772 4.62805L37.2565 5.21417C27.7044 16.0731 24.622 30.2022 28.9112 43.2124Z" fill="#80C904"/>
<path d="M37.7723 53.0823C37.5702 53.0823 37.37 53.0426 37.1833 52.9652C36.9966 52.8879 36.8269 52.7746 36.684 52.6317C36.5411 52.4887 36.4277 52.3191 36.3504 52.1323C36.2731 51.9456 36.2333 51.7455 36.2334 51.5434V37.9583C36.2334 37.5502 36.3955 37.1587 36.6841 36.8701C36.9727 36.5815 37.3641 36.4194 37.7723 36.4194C38.1804 36.4194 38.5719 36.5815 38.8605 36.8701C39.1491 37.1587 39.3112 37.5502 39.3112 37.9583V51.5434C39.3113 51.7455 39.2715 51.9456 39.1942 52.1323C39.1169 52.3191 39.0035 52.4887 38.8606 52.6317C38.7177 52.7746 38.548 52.8879 38.3613 52.9652C38.1745 53.0426 37.9744 53.0823 37.7723 53.0823Z" fill="#80C904"/>
<path d="M17.7658 48.4656C17.4934 48.4657 17.2259 48.3935 16.9905 48.2564C16.7552 48.1192 16.5605 47.9221 16.4263 47.685C16.2921 47.4479 16.2232 47.1795 16.2267 46.9071C16.2303 46.6348 16.3061 46.3682 16.4463 46.1347L24.2326 33.1613C24.4427 32.8113 24.7832 32.5592 25.1791 32.4602C25.5751 32.3613 25.9942 32.4237 26.3441 32.6338C26.6941 32.8439 26.9463 33.1843 27.0452 33.5803C27.1441 33.9763 27.0817 34.3954 26.8716 34.7453L20.9128 44.6724L27.4908 43.2522C27.6884 43.2096 27.8924 43.2063 28.0912 43.2425C28.2901 43.2787 28.4798 43.3537 28.6496 43.4633C28.8195 43.5728 28.9661 43.7148 29.0811 43.881C29.196 44.0472 29.2772 44.2344 29.3198 44.432C29.3624 44.6295 29.3657 44.8335 29.3295 45.0324C29.2933 45.2312 29.2183 45.4209 29.1087 45.5908C28.9992 45.7606 28.8572 45.9072 28.691 46.0222C28.5248 46.1372 28.3376 46.2183 28.14 46.2609L18.0905 48.4311C17.9838 48.4541 17.875 48.4657 17.7658 48.4656Z" fill="#80C904"/>
<path d="M57.7781 48.4655C57.6689 48.4655 57.5601 48.454 57.4534 48.431L47.4039 46.2608C47.2063 46.2182 47.0191 46.1371 46.8529 46.0221C46.6867 45.9071 46.5447 45.7605 46.4352 45.5907C46.3256 45.4208 46.2506 45.2311 46.2144 45.0323C46.1782 44.8334 46.1815 44.6294 46.2241 44.4319C46.2667 44.2343 46.3479 44.0471 46.4628 43.8809C46.5778 43.7147 46.7244 43.5727 46.8943 43.4632C47.2373 43.2419 47.6541 43.166 48.0531 43.2521L54.6311 44.6723L48.6723 34.7452C48.5682 34.5719 48.4994 34.3799 48.4696 34.18C48.4398 33.9801 48.4497 33.7763 48.4987 33.5802C48.5477 33.3841 48.6348 33.1996 48.7551 33.0372C48.8754 32.8748 49.0265 32.7377 49.1997 32.6337C49.373 32.5297 49.5651 32.4608 49.765 32.431C49.9649 32.4013 50.1687 32.4112 50.3648 32.4601C50.5608 32.5091 50.7453 32.5962 50.9077 32.7165C51.0701 32.8368 51.2073 32.9879 51.3113 33.1612L59.0976 46.1346C59.2378 46.3681 59.3136 46.6347 59.3171 46.907C59.3207 47.1794 59.2518 47.4478 59.1176 47.6849C58.9834 47.9219 58.7887 48.1191 58.5534 48.2563C58.318 48.3934 58.0505 48.4656 57.7781 48.4655Z" fill="#80C904"/>
<path d="M37.7721 25.3818C36.8589 25.3818 35.9663 25.111 35.2071 24.6037C34.4479 24.0964 33.8561 23.3754 33.5067 22.5318C33.1573 21.6882 33.0659 20.7599 33.244 19.8643C33.4221 18.9688 33.8618 18.1461 34.5075 17.5005C35.1532 16.8548 35.9758 16.4151 36.8714 16.2369C37.7669 16.0588 38.6952 16.1502 39.5388 16.4997C40.3824 16.8491 41.1035 17.4408 41.6108 18.2001C42.1181 18.9593 42.3888 19.8519 42.3888 20.765C42.3875 21.989 41.9007 23.1626 41.0351 24.0281C40.1696 24.8936 38.9961 25.3804 37.7721 25.3818ZM37.7721 19.2261C37.4677 19.2261 37.1701 19.3163 36.9171 19.4854C36.664 19.6545 36.4668 19.8949 36.3503 20.1761C36.2338 20.4573 36.2033 20.7667 36.2627 21.0652C36.3221 21.3638 36.4686 21.638 36.6839 21.8532C36.8991 22.0684 37.1733 22.215 37.4718 22.2744C37.7703 22.3337 38.0798 22.3033 38.361 22.1868C38.6422 22.0703 38.8825 21.8731 39.0516 21.62C39.2207 21.3669 39.311 21.0694 39.311 20.765C39.3106 20.357 39.1483 19.9658 38.8598 19.6773C38.5713 19.3888 38.1801 19.2265 37.7721 19.2261Z" fill="#80C904"/>
</g>
<defs>
<clipPath id="clip0_173_683">
<rect width="74" height="80" fill="white" transform="translate(0.837891 0.782959)"/>
</clipPath>
</defs>
</svg>
