<svg width="179" height="35" viewBox="0 0 179 35" fill="none" xmlns="http://www.w3.org/2000/svg">
<circle cx="162.368" cy="17.3706" r="16.1316" stroke="#A6A6A6"/>
<g clip-path="url(#clip0_108_866)">
<path d="M163.415 16.7113C163.098 16.2672 162.577 15.9753 161.994 15.9753C161.41 15.9753 160.89 16.2672 160.573 16.7113C160.37 17.0031 160.243 17.3584 160.243 17.739C160.243 18.7033 161.029 19.49 161.994 19.49C162.958 19.49 163.745 18.7033 163.745 17.739C163.745 17.3584 163.618 17.0031 163.415 16.7113Z" fill="#A6A6A6"/>
<path d="M164.519 16.7239C164.646 16.9776 164.722 17.3837 164.722 17.7389C164.722 19.2362 163.504 20.4669 161.994 20.4669C160.484 20.4669 159.266 19.2489 159.266 17.7389C159.266 17.371 159.342 16.9776 159.469 16.7239H157.934V20.7968C157.934 21.3297 158.403 21.7992 158.936 21.7992H165.052C165.585 21.7992 166.054 21.3297 166.054 20.7968V16.7239H164.519Z" fill="#A6A6A6"/>
<path d="M165.597 13.907H164.125V15.5945H165.8V14.1227V13.8943L165.597 13.907Z" fill="#A6A6A6"/>
<path d="M165.978 9.74536H158.01C155.802 9.74536 154 11.5471 154 13.7549V21.7358C154 23.9309 155.802 25.7327 158.01 25.7327H165.99C168.198 25.7327 170 23.9309 170 21.7232V13.7549C169.987 11.5471 168.186 9.74536 165.978 9.74536ZM166.942 16.7113V20.7969C166.942 21.8627 166.117 22.6875 165.052 22.6875H158.936C157.87 22.6875 157.045 21.8627 157.045 20.7969V16.7113V14.6811C157.045 13.6153 157.87 12.7906 158.936 12.7906H165.052C166.117 12.7906 166.942 13.6153 166.942 14.6811V16.7113Z" fill="#A6A6A6"/>
</g>
<circle cx="17.5788" cy="17.3708" r="16.1316" stroke="#A6A6A6"/>
<g clip-path="url(#clip1_108_866)">
<path d="M14.1643 18.2609H15.9182V25.4812C15.9182 25.6237 16.0337 25.7393 16.1762 25.7393H19.15C19.2925 25.7393 19.408 25.6237 19.408 25.4812V18.2949H21.4242C21.5553 18.2949 21.6656 18.1965 21.6806 18.0663L21.9868 15.4081C21.9952 15.335 21.9721 15.2617 21.9231 15.2069C21.8741 15.152 21.8041 15.1205 21.7305 15.1205H19.4081V13.4543C19.4081 12.952 19.6786 12.6972 20.2121 12.6972C20.2881 12.6972 21.7305 12.6972 21.7305 12.6972C21.8731 12.6972 21.9886 12.5817 21.9886 12.4392V9.99923C21.9886 9.85668 21.8731 9.74117 21.7305 9.74117H19.6379C19.6231 9.74044 19.5903 9.73926 19.542 9.73926C19.1789 9.73926 17.9168 9.81054 16.9199 10.7277C15.8153 11.7441 15.9688 12.961 16.0055 13.172V15.1205H14.1643C14.0218 15.1205 13.9062 15.236 13.9062 15.3785V18.0027C13.9062 18.1453 14.0218 18.2609 14.1643 18.2609Z" fill="#A6A6A6"/>
</g>
<circle cx="65.842" cy="17.3706" r="16.1316" stroke="#A6A6A6"/>
<path d="M72.1314 13.7125C71.6533 13.9187 71.133 14.0671 70.5971 14.125C71.1535 13.7944 71.5702 13.2721 71.7689 12.6562C71.2468 12.9668 70.6748 13.1846 70.0783 13.3C69.829 13.0334 69.5275 12.8211 69.1925 12.6762C68.8576 12.5313 68.4964 12.457 68.1314 12.4578C66.6549 12.4578 65.4674 13.6546 65.4674 15.1234C65.4674 15.3296 65.4924 15.5359 65.533 15.7343C63.3221 15.6187 61.3502 14.5625 60.0393 12.9453C59.8004 13.3533 59.6752 13.8178 59.6768 14.2906C59.6768 15.2156 60.1471 16.0312 60.8643 16.5109C60.4416 16.4943 60.0289 16.3781 59.6596 16.1718V16.2046C59.6596 17.5 60.5752 18.5734 61.7955 18.8203C61.5664 18.8798 61.3307 18.9102 61.0939 18.9109C60.9205 18.9109 60.7564 18.8937 60.5908 18.8703C60.9283 19.9265 61.9111 20.6937 63.0814 20.7187C62.1658 21.4359 61.0189 21.8578 59.7736 21.8578C59.5502 21.8578 59.3439 21.85 59.1299 21.825C60.3111 22.5828 61.7127 23.0203 63.2221 23.0203C68.1221 23.0203 70.8033 18.9609 70.8033 15.4375C70.8033 15.3218 70.8033 15.2062 70.7955 15.0906C71.3143 14.7109 71.7689 14.2406 72.1314 13.7125Z" fill="#A6A6A6"/>
<circle cx="114.105" cy="17.3706" r="16.1316" stroke="#A6A6A6"/>
<g clip-path="url(#clip2_108_866)">
<path d="M116.416 15.3391C115.905 15.3374 115.398 15.4364 114.926 15.6305C114.453 15.8246 114.023 16.1101 113.661 16.4704C113.299 16.8308 113.011 17.2591 112.815 17.7307C112.618 18.2024 112.516 18.7082 112.516 19.2191V23.1391C112.516 23.2983 112.579 23.4509 112.691 23.5634C112.804 23.6759 112.956 23.7391 113.116 23.7391H114.516C114.675 23.7391 114.827 23.6759 114.94 23.5634C115.052 23.4509 115.116 23.2983 115.116 23.1391V19.2191C115.115 19.0374 115.154 18.8577 115.228 18.6917C115.302 18.5257 115.41 18.3772 115.545 18.2558C115.68 18.1344 115.84 18.0428 116.013 17.9871C116.186 17.9314 116.368 17.9128 116.549 17.9325C116.873 17.9733 117.171 18.1316 117.386 18.3773C117.601 18.6231 117.718 18.9392 117.716 19.2658V23.1391C117.716 23.2983 117.779 23.4509 117.891 23.5634C118.004 23.6759 118.156 23.7391 118.316 23.7391H119.716C119.875 23.7391 120.027 23.6759 120.14 23.5634C120.252 23.4509 120.316 23.2983 120.316 23.1391V19.2191C120.315 18.7082 120.213 18.2024 120.017 17.7307C119.82 17.2591 119.532 16.8308 119.17 16.4704C118.808 16.1101 118.378 15.8246 117.906 15.6305C117.433 15.4364 116.927 15.3374 116.416 15.3391Z" fill="#A6A6A6"/>
<path d="M110.715 15.939H108.915C108.584 15.939 108.315 16.2076 108.315 16.539V23.139C108.315 23.4703 108.584 23.739 108.915 23.739H110.715C111.047 23.739 111.315 23.4703 111.315 23.139V16.539C111.315 16.2076 111.047 15.939 110.715 15.939Z" fill="#A6A6A6"/>
<path d="M109.815 14.739C110.644 14.739 111.315 14.0674 111.315 13.239C111.315 12.4106 110.644 11.739 109.815 11.739C108.987 11.739 108.315 12.4106 108.315 13.239C108.315 14.0674 108.987 14.739 109.815 14.739Z" fill="#A6A6A6"/>
</g>
<defs>
<clipPath id="clip0_108_866">
<rect width="16" height="16" fill="white" transform="translate(154 9.73901)"/>
</clipPath>
<clipPath id="clip1_108_866">
<rect width="16" height="16" fill="white" transform="translate(9.94727 9.73926)"/>
</clipPath>
<clipPath id="clip2_108_866">
<rect width="16" height="16" fill="white" transform="translate(106.315 9.73901)"/>
</clipPath>
</defs>
</svg>
