<svg width="179" height="34" viewBox="0 0 179 34" fill="none" xmlns="http://www.w3.org/2000/svg">
<circle cx="162.368" cy="17.3284" r="16.1316" stroke="#A6A6A6"/>
<g clip-path="url(#clip0_65_721)">
<path d="M163.415 16.669C163.097 16.2249 162.577 15.9331 161.994 15.9331C161.41 15.9331 160.89 16.2249 160.572 16.669C160.369 16.9609 160.243 17.3161 160.243 17.6968C160.243 18.6611 161.029 19.4478 161.994 19.4478C162.958 19.4478 163.745 18.6611 163.745 17.6968C163.745 17.3161 163.618 16.9609 163.415 16.669Z" fill="#A6A6A6"/>
<path d="M164.518 16.6816C164.645 16.9354 164.721 17.3414 164.721 17.6967C164.721 19.1939 163.503 20.4247 161.993 20.4247C160.484 20.4247 159.266 19.2066 159.266 17.6967C159.266 17.3287 159.342 16.9354 159.469 16.6816H157.933V20.7546C157.933 21.2875 158.403 21.757 158.936 21.757H165.051C165.584 21.757 166.054 21.2875 166.054 20.7546V16.6816H164.518Z" fill="#A6A6A6"/>
<path d="M165.597 13.8647H164.125V15.5523H165.8V14.0804V13.8521L165.597 13.8647Z" fill="#A6A6A6"/>
<path d="M165.978 9.70312H158.009C155.802 9.70312 154 11.5049 154 13.7126V21.6936C154 23.8887 155.802 25.6904 158.009 25.6904H165.99C168.198 25.6904 170 23.8887 170 21.6809V13.7126C169.987 11.5049 168.185 9.70312 165.978 9.70312ZM166.942 16.669V20.7547C166.942 21.8205 166.117 22.6452 165.051 22.6452H158.936C157.87 22.6452 157.045 21.8205 157.045 20.7547V16.669V14.6389C157.045 13.5731 157.87 12.7483 158.936 12.7483H165.051C166.117 12.7483 166.942 13.5731 166.942 14.6389V16.669Z" fill="#A6A6A6"/>
</g>
<circle cx="17.5788" cy="17.3286" r="16.1316" stroke="#A6A6A6"/>
<g clip-path="url(#clip1_65_721)">
<path d="M14.1642 18.2186H15.9181V25.439C15.9181 25.5815 16.0336 25.697 16.1761 25.697H19.1498C19.2924 25.697 19.4079 25.5815 19.4079 25.439V18.2526H21.4241C21.5552 18.2526 21.6655 18.1543 21.6805 18.024L21.9867 15.3659C21.9951 15.2927 21.9719 15.2195 21.923 15.1646C21.874 15.1097 21.8039 15.0783 21.7304 15.0783H19.408V13.412C19.408 12.9097 19.6785 12.655 20.2119 12.655C20.288 12.655 21.7304 12.655 21.7304 12.655C21.8729 12.655 21.9884 12.5394 21.9884 12.3969V9.957C21.9884 9.81444 21.8729 9.69893 21.7304 9.69893H19.6377C19.623 9.69821 19.5902 9.69702 19.5419 9.69702C19.1788 9.69702 17.9167 9.7683 16.9198 10.6855C15.8151 11.7018 15.9687 12.9188 16.0054 13.1297V15.0782H14.1642C14.0216 15.0782 13.9061 15.1937 13.9061 15.3363V17.9605C13.9061 18.1031 14.0216 18.2186 14.1642 18.2186Z" fill="#A6A6A6"/>
</g>
<circle cx="65.842" cy="17.3284" r="16.1316" stroke="#A6A6A6"/>
<path d="M72.1313 13.6702C71.6532 13.8765 71.1329 14.0249 70.5969 14.0827C71.1534 13.7522 71.5701 13.2299 71.7688 12.614C71.2467 12.9246 70.6747 13.1424 70.0782 13.2577C69.8289 12.9912 69.5274 12.7789 69.1924 12.634C68.8575 12.4891 68.4963 12.4147 68.1313 12.4155C66.6548 12.4155 65.4673 13.6124 65.4673 15.0812C65.4673 15.2874 65.4923 15.4937 65.5329 15.6921C63.3219 15.5765 61.3501 14.5202 60.0391 12.903C59.8003 13.311 59.6751 13.7756 59.6766 14.2483C59.6766 15.1733 60.1469 15.989 60.8641 16.4687C60.4415 16.452 60.0287 16.3358 59.6594 16.1296V16.1624C59.6594 17.4577 60.5751 18.5312 61.7954 18.778C61.5663 18.8376 61.3306 18.868 61.0938 18.8687C60.9204 18.8687 60.7563 18.8515 60.5907 18.828C60.9282 19.8843 61.911 20.6515 63.0813 20.6765C62.1657 21.3937 61.0188 21.8155 59.7735 21.8155C59.5501 21.8155 59.3438 21.8077 59.1298 21.7827C60.311 22.5405 61.7126 22.978 63.2219 22.978C68.1219 22.978 70.8032 18.9187 70.8032 15.3952C70.8032 15.2796 70.8032 15.164 70.7954 15.0483C71.3141 14.6687 71.7688 14.1983 72.1313 13.6702Z" fill="#A6A6A6"/>
<circle cx="114.105" cy="17.3284" r="16.1316" stroke="#A6A6A6"/>
<g clip-path="url(#clip2_65_721)">
<path d="M116.416 15.2969C115.905 15.2951 115.398 15.3942 114.926 15.5883C114.453 15.7824 114.023 16.0678 113.661 16.4282C113.299 16.7886 113.011 17.2168 112.815 17.6885C112.618 18.1602 112.516 18.6659 112.516 19.1769V23.0969C112.516 23.256 112.579 23.4086 112.691 23.5212C112.804 23.6337 112.956 23.6969 113.116 23.6969H114.516C114.675 23.6969 114.827 23.6337 114.94 23.5212C115.052 23.4086 115.116 23.256 115.116 23.0969V19.1769C115.115 18.9952 115.154 18.8154 115.228 18.6495C115.302 18.4835 115.41 18.3349 115.545 18.2135C115.68 18.0921 115.84 18.0006 116.013 17.9449C116.186 17.8892 116.368 17.8706 116.549 17.8902C116.873 17.931 117.171 18.0893 117.386 18.3351C117.601 18.5809 117.718 18.897 117.716 19.2236V23.0969C117.716 23.256 117.779 23.4086 117.891 23.5212C118.004 23.6337 118.156 23.6969 118.316 23.6969H119.716C119.875 23.6969 120.027 23.6337 120.14 23.5212C120.252 23.4086 120.316 23.256 120.316 23.0969V19.1769C120.315 18.6659 120.213 18.1602 120.017 17.6885C119.82 17.2168 119.532 16.7886 119.17 16.4282C118.808 16.0678 118.378 15.7824 117.906 15.5883C117.433 15.3942 116.927 15.2951 116.416 15.2969Z" fill="#A6A6A6"/>
<path d="M110.716 15.8967H108.916C108.584 15.8967 108.316 16.1654 108.316 16.4967V23.0967C108.316 23.4281 108.584 23.6967 108.916 23.6967H110.716C111.047 23.6967 111.316 23.4281 111.316 23.0967V16.4967C111.316 16.1654 111.047 15.8967 110.716 15.8967Z" fill="#A6A6A6"/>
<path d="M109.816 14.6968C110.644 14.6968 111.316 14.0252 111.316 13.1968C111.316 12.3684 110.644 11.6968 109.816 11.6968C108.987 11.6968 108.316 12.3684 108.316 13.1968C108.316 14.0252 108.987 14.6968 109.816 14.6968Z" fill="#A6A6A6"/>
</g>
<defs>
<clipPath id="clip0_65_721">
<rect width="16" height="16" fill="white" transform="translate(154 9.69678)"/>
</clipPath>
<clipPath id="clip1_65_721">
<rect width="16" height="16" fill="white" transform="translate(9.94727 9.69702)"/>
</clipPath>
<clipPath id="clip2_65_721">
<rect width="16" height="16" fill="white" transform="translate(106.316 9.69678)"/>
</clipPath>
</defs>
</svg>
