<svg width="81" height="81" viewBox="0 0 81 81" fill="none" xmlns="http://www.w3.org/2000/svg">
<g clip-path="url(#clip0_173_680)">
<path d="M79.4219 39.397H75.7969C75.1719 21.022 60.2969 6.14697 41.9219 5.52197V1.89697C41.9219 1.14697 41.4219 0.646973 40.6719 0.646973C39.9219 0.646973 39.4219 1.14697 39.4219 1.89697V5.52197C21.0469 6.14697 6.17188 21.022 5.54688 39.397H1.92188C1.17188 39.397 0.671875 39.897 0.671875 40.647C0.671875 41.397 1.17188 41.897 1.92188 41.897H5.54688C6.17188 60.272 21.0469 75.147 39.4219 75.772V79.397C39.4219 80.147 39.9219 80.647 40.6719 80.647C41.4219 80.647 41.9219 80.147 41.9219 79.397V75.772C60.2969 75.147 75.1719 60.272 75.7969 41.897H79.4219C80.1719 41.897 80.6719 41.397 80.6719 40.647C80.6719 39.897 80.1719 39.397 79.4219 39.397ZM41.9219 73.272V69.647C41.9219 68.897 41.4219 68.397 40.6719 68.397C39.9219 68.397 39.4219 68.897 39.4219 69.647V73.272C22.4219 72.647 8.67188 58.897 8.04688 41.897H11.6719C12.4219 41.897 12.9219 41.397 12.9219 40.647C12.9219 39.897 12.4219 39.397 11.6719 39.397H8.04688C8.67188 22.397 22.4219 8.64697 39.4219 8.02197V11.647C39.4219 12.397 39.9219 12.897 40.6719 12.897C41.4219 12.897 41.9219 12.397 41.9219 11.647V8.02197C58.9219 8.64697 72.6719 22.397 73.2969 39.397H69.6719C68.9219 39.397 68.4219 39.897 68.4219 40.647C68.4219 41.397 68.9219 41.897 69.6719 41.897H73.2969C72.6719 58.897 58.9219 72.647 41.9219 73.272Z" fill="#80C904"/>
<path d="M56.1721 45.8969L57.4221 47.5219C57.7971 48.0219 58.6721 48.1469 59.1721 47.7719C59.6721 47.3969 59.7971 46.5219 59.4221 46.0219L57.7971 43.8969C57.5471 43.5219 57.1721 43.3969 56.7971 43.3969H54.6721C54.5471 42.1469 54.2971 40.8969 53.9221 39.7719H56.1721L57.4221 41.3969C57.7971 41.8969 58.6721 42.0219 59.1721 41.6469C59.6721 41.2719 59.7971 40.3969 59.4221 39.8969L57.7971 37.7719C57.5471 37.3969 57.1721 37.2719 56.7971 37.2719H53.0471C51.9221 34.8969 50.4221 32.7719 48.5471 31.2719C48.5471 31.0219 48.6721 30.7719 48.6721 30.3969C48.6721 27.2719 46.9221 24.6469 44.2971 23.2719C44.9221 22.2719 45.9221 21.7719 47.1721 21.5219C47.7971 21.3969 48.2971 20.8969 48.2971 20.2719C48.2971 19.5219 47.6721 18.8969 46.9221 19.0219C44.1721 19.3969 42.6721 20.8969 41.9221 22.3969C41.5471 22.3969 41.1721 22.2719 40.7971 22.2719C40.4221 22.2719 40.0471 22.2719 39.6721 22.3969C38.6721 20.5219 36.9221 19.3969 34.6721 19.0219C33.9221 18.8969 33.2971 19.5219 33.2971 20.2719C33.2971 20.8969 33.7971 21.3969 34.4221 21.5219C35.6721 21.7719 36.6721 22.2719 37.2971 23.2719C34.6721 24.6469 32.9221 27.2719 32.9221 30.3969C32.9221 30.6469 32.9221 31.0219 33.0471 31.2719C31.0471 32.8969 29.5471 34.8969 28.4221 37.2719H24.6721C24.2971 37.2719 23.9221 37.3969 23.6721 37.7719L21.9221 39.8969C21.5471 40.3969 21.6721 41.2719 22.1721 41.6469C22.6721 42.0219 23.5471 41.8969 23.9221 41.3969L25.1721 39.7719H27.2971C26.9221 40.8969 26.6721 42.1469 26.5471 43.3969H24.4221C24.0471 43.3969 23.6721 43.5219 23.4221 43.8969L21.9221 46.0219C21.5471 46.5219 21.6721 47.3969 22.1721 47.7719C22.6721 48.1469 23.5471 48.0219 23.9221 47.5219L25.1721 45.8969H26.5471C26.5471 47.1469 26.7971 48.3969 27.0471 49.5219H24.5471C24.1721 49.5219 23.7971 49.6469 23.5471 50.0219L21.9221 52.1469C21.5471 52.6469 21.6721 53.5219 22.1721 53.8969C22.6721 54.2719 23.5471 54.1469 23.9221 53.6469L25.1721 52.0219H27.7971C29.9221 58.0219 34.9221 62.2719 40.7971 62.2719C46.5471 62.2719 51.5471 58.0219 53.7971 52.0219H56.4221L57.6721 53.6469C58.0471 54.1469 58.9221 54.2719 59.4221 53.8969C59.9221 53.5219 60.0471 52.6469 59.6721 52.1469L58.0471 50.0219C57.7971 49.6469 57.4221 49.5219 57.0471 49.5219H54.5471C54.7971 48.3969 54.9221 47.1469 55.0471 45.8969H56.1721ZM39.4221 59.6469C33.5471 58.8969 29.0471 52.7719 29.0471 45.2719C29.0471 40.6469 30.7971 36.3969 33.6721 33.6469C34.7971 35.2719 36.6721 36.1469 39.4221 36.3969V59.6469ZM40.6721 34.0219C35.1721 34.0219 35.1721 31.2719 35.1721 30.2719C35.1721 27.2719 37.6721 24.7719 40.6721 24.7719C43.6721 24.7719 46.1721 27.2719 46.1721 30.2719C46.1721 31.2719 46.1721 34.0219 40.6721 34.0219ZM41.9221 59.6469V36.5219C44.6721 36.2719 46.5471 35.3969 47.6721 33.7719C50.5471 36.5219 52.2971 40.7719 52.2971 45.3969C52.2971 52.7719 47.7971 58.8969 41.9221 59.6469Z" fill="#80C904"/>
</g>
<defs>
<clipPath id="clip0_173_680">
<rect width="80" height="80" fill="white" transform="translate(0.671875 0.646973)"/>
</clipPath>
</defs>
</svg>
