<svg width="80" height="81" viewBox="0 0 80 81" fill="none" xmlns="http://www.w3.org/2000/svg">
<g clip-path="url(#clip0_173_663)">
<path d="M65.4291 40.0781L66.8731 41.9348C67.0725 42.1912 67.1715 42.5117 67.1513 42.836C67.1311 43.1602 66.9932 43.466 66.7635 43.6957L64.878 45.5812C64.6483 45.8109 64.3425 45.9489 64.0182 45.9691C63.6939 45.9894 63.3734 45.8904 63.1169 45.691L61.2601 44.247L60.284 44.6511L59.9924 46.9842C59.9523 47.3068 59.7957 47.6036 59.5521 47.8188C59.3085 48.034 58.9946 48.1528 58.6696 48.1529H56.0032C55.6783 48.1529 55.3645 48.0342 55.1209 47.8191C54.8773 47.6041 54.7206 47.3074 54.6804 46.985L54.3887 44.6519L53.4127 44.2478L51.5559 45.6918C51.2994 45.8913 50.9788 45.9902 50.6545 45.97C50.3302 45.9497 50.0245 45.8118 49.7948 45.582L47.9093 43.6966C47.6796 43.4668 47.5417 43.1611 47.5215 42.8368C47.5013 42.5125 47.6002 42.1921 47.7996 41.9356L49.2436 40.079L48.8394 39.1029L46.5063 38.8111C46.1836 38.771 45.8867 38.6142 45.6715 38.3705C45.4563 38.1267 45.3376 37.8126 45.3378 37.4874V34.8211C45.3378 34.4961 45.4565 34.1824 45.6715 33.9388C45.8866 33.6952 46.1832 33.5385 46.5056 33.4982L48.8387 33.2064L49.243 32.2304L47.799 30.3738C47.5996 30.1173 47.5006 29.7968 47.5208 29.4725C47.541 29.1483 47.6789 28.8426 47.9086 28.6128L49.7941 26.7274C50.0238 26.4976 50.3296 26.3596 50.6539 26.3394C50.9782 26.3192 51.2987 26.4181 51.5552 26.6175L53.412 28.0615L54.3881 27.6574L54.6797 25.3243C54.7198 25.0016 54.8765 24.7047 55.1202 24.4895C55.364 24.2743 55.678 24.1555 56.0032 24.1556H58.6696C58.9945 24.1557 59.3083 24.2743 59.5519 24.4894C59.7954 24.7045 59.9521 25.0011 59.9924 25.3235L60.284 27.6566L61.2601 28.0607L63.1169 26.6167C63.3734 26.4172 63.6939 26.3183 64.0182 26.3386C64.3425 26.3588 64.6483 26.4967 64.878 26.7265L66.7635 28.6128C66.9932 28.8426 67.1311 29.1483 67.1513 29.4725C67.1715 29.7968 67.0725 30.1173 66.8731 30.3738L65.4291 32.2304L65.8334 33.2064L68.1665 33.4982C68.489 33.5384 68.7858 33.695 69.001 33.9386C69.2162 34.1822 69.335 34.496 69.335 34.8211V37.4874C69.335 37.8124 69.2163 38.1261 69.0012 38.3697C68.7862 38.6133 68.4896 38.77 68.1671 38.8103L65.8341 39.1021L65.4291 40.0781ZM66.6686 35.9979L64.733 35.756C64.4993 35.7268 64.2775 35.6362 64.0901 35.4935C63.9028 35.3507 63.7566 35.1608 63.6665 34.9432L62.6691 32.5342C62.579 32.3166 62.5481 32.079 62.5796 31.8457C62.6111 31.6123 62.7038 31.3914 62.8484 31.2055L64.0459 29.6658L63.825 29.4447L62.2851 30.6424C62.0992 30.7869 61.8783 30.8797 61.645 30.9111C61.4116 30.9426 61.174 30.9117 60.9565 30.8215L58.5474 29.8238C58.3298 29.7337 58.1399 29.5875 57.9971 29.4002C57.8543 29.2129 57.7637 28.991 57.7345 28.7573L57.4927 26.822H57.1801L56.9383 28.7576C56.9091 28.9914 56.8185 29.2132 56.6757 29.4005C56.5329 29.5879 56.343 29.734 56.1254 29.8242L53.7163 30.8215C53.4987 30.9116 53.2612 30.9425 53.0278 30.9109C52.7945 30.8794 52.5736 30.7866 52.3878 30.6421L50.848 29.4444L50.627 29.6655L51.8245 31.2052C51.9691 31.3911 52.0619 31.6121 52.0934 31.8455C52.1248 32.079 52.0939 32.3166 52.0037 32.5342L51.0059 34.9432C50.9158 35.1608 50.7696 35.3507 50.5823 35.4935C50.3949 35.6362 50.1731 35.7268 49.9394 35.756L48.0041 35.9979V36.3106L49.9397 36.5525C50.1735 36.5817 50.3953 36.6723 50.5826 36.8151C50.77 36.9578 50.9161 37.1477 51.0063 37.3653L52.0037 39.7743C52.0938 39.9919 52.1247 40.2295 52.0932 40.4629C52.0617 40.6963 51.9689 40.9171 51.8243 41.103L50.6268 42.6427L50.8478 42.8638L52.3876 41.6661C52.5735 41.5216 52.7944 41.4288 53.0278 41.3974C53.2612 41.3659 53.4987 41.3968 53.7163 41.487L56.1254 42.4847C56.343 42.5748 56.5329 42.721 56.6757 42.9083C56.8185 43.0957 56.9091 43.3175 56.9383 43.5512L57.1801 45.4865H57.4927L57.7345 43.5509C57.7637 43.3172 57.8543 43.0953 57.9971 42.908C58.1399 42.7206 58.3298 42.5745 58.5474 42.4844L60.9565 41.487C61.174 41.3969 61.4116 41.3661 61.6449 41.3976C61.8783 41.4291 62.0991 41.5219 62.285 41.6665L63.8248 42.8642L64.0458 42.643L62.8482 41.1034C62.7036 40.9174 62.6109 40.6965 62.5794 40.463C62.5479 40.2296 62.5789 39.9919 62.6691 39.7743L63.6668 37.3653C63.7569 37.1477 63.9031 36.9578 64.0905 36.8151C64.2778 36.6723 64.4996 36.5817 64.7334 36.5525L66.6686 36.3106V35.9979Z" fill="#80C904"/>
<path d="M57.3355 40.154C56.5445 40.154 55.7712 39.9194 55.1135 39.48C54.4558 39.0405 53.9431 38.4158 53.6404 37.685C53.3377 36.9542 53.2585 36.15 53.4128 35.3742C53.5671 34.5983 53.9481 33.8857 54.5074 33.3264C55.0668 32.767 55.7794 32.3861 56.5552 32.2318C57.3311 32.0774 58.1352 32.1566 58.8661 32.4594C59.5969 32.7621 60.2215 33.2747 60.661 33.9324C61.1005 34.5902 61.335 35.3634 61.335 36.1545C61.3339 37.2148 60.9121 38.2314 60.1623 38.9812C59.4125 39.731 58.3959 40.1528 57.3355 40.154ZM57.3355 34.8213C57.0718 34.8213 56.8141 34.8995 56.5948 35.046C56.3756 35.1924 56.2047 35.4007 56.1038 35.6443C56.0029 35.8879 55.9765 36.1559 56.0279 36.4145C56.0794 36.6732 56.2064 36.9107 56.3928 37.0972C56.5793 37.2836 56.8168 37.4106 57.0754 37.462C57.334 37.5135 57.6021 37.4871 57.8457 37.3862C58.0893 37.2852 58.2975 37.1144 58.444 36.8951C58.5905 36.6759 58.6687 36.4181 58.6687 36.1545C58.6683 35.801 58.5277 35.4621 58.2778 35.2122C58.0278 34.9623 57.689 34.8217 57.3355 34.8213Z" fill="#80C904"/>
<path d="M1.17688 20.0831L5.25648 19.573L6.22198 17.2421L3.69798 13.9966C3.49848 13.7401 3.39958 13.4196 3.41978 13.0953C3.43998 12.771 3.57788 12.4653 3.80758 12.2355L6.75358 9.28948C6.98338 9.05975 7.28918 8.92185 7.61348 8.90169C7.93778 8.88153 8.25828 8.9805 8.51478 9.17999L11.7601 11.704L14.0911 10.7375L14.6011 6.65812C14.6415 6.33583 14.7983 6.03941 15.0419 5.82453C15.2854 5.60964 15.5991 5.49107 15.9239 5.49109H20.0901C20.415 5.4911 20.7288 5.60978 20.9724 5.82484C21.216 6.0399 21.3726 6.33652 21.4129 6.65895L21.9232 10.7383L24.2543 11.7049L27.4992 9.17999C27.7557 8.9805 28.0762 8.88153 28.4005 8.90169C28.7248 8.92185 29.0306 9.05975 29.2604 9.28948L32.2064 12.2355C32.4361 12.4653 32.5741 12.771 32.5942 13.0953C32.6144 13.4196 32.5155 13.7401 32.316 13.9966L29.792 17.2421L30.7575 19.5728L34.8371 20.0829C35.1595 20.1232 35.4562 20.2799 35.6712 20.5235C35.8863 20.7672 36.005 21.081 36.0049 21.4059V25.5721C36.0049 25.8971 35.8862 26.2108 35.6712 26.4544C35.4561 26.698 35.1595 26.8547 34.8371 26.895L30.7575 27.4051L29.792 29.736L32.316 32.9814C32.5155 33.2379 32.6144 33.5584 32.5942 33.8827C32.5741 34.207 32.4361 34.5128 32.2064 34.7426L29.2604 37.6885C29.0306 37.9183 28.7248 38.0562 28.4005 38.0763C28.0762 38.0965 27.7557 37.9975 27.4992 37.798L24.2539 35.274L21.9229 36.2405L21.4129 40.3199C21.3725 40.6422 21.2157 40.9386 20.9721 41.1535C20.7286 41.3684 20.4149 41.487 20.0901 41.4869H15.9239C15.599 41.4869 15.2852 41.3682 15.0416 41.1532C14.798 40.9381 14.6414 40.6415 14.6011 40.3191L14.0911 36.2397L11.7601 35.2732L8.51478 37.7972C8.25828 37.9967 7.93778 38.0957 7.61348 38.0755C7.28918 38.0553 6.98338 37.9174 6.75358 37.6877L3.80758 34.7417C3.57788 34.512 3.43998 34.2062 3.41978 33.8819C3.39958 33.5576 3.49848 33.2371 3.69798 32.9806L6.22198 29.7351L5.25648 27.4042L1.17688 26.8941C0.854684 26.8539 0.558082 26.6973 0.343082 26.4539C0.128082 26.2105 0.00928279 25.8969 0.00908279 25.5721V21.4059C0.00908279 21.081 0.127785 20.7672 0.342785 20.5236C0.557885 20.28 0.854484 20.1234 1.17688 20.0831ZM2.67538 24.3952L6.35669 24.8555C6.59039 24.8847 6.81218 24.9753 6.99958 25.1181C7.18688 25.2608 7.33308 25.4507 7.42318 25.6683L8.98238 29.4323C9.07248 29.6499 9.10338 29.8875 9.07188 30.1209C9.04038 30.3542 8.94758 30.5751 8.80308 30.761L6.52498 33.6893L7.80668 34.9709L10.735 32.6931C10.9209 32.5485 11.1418 32.4557 11.3751 32.4242C11.6085 32.3927 11.8461 32.4235 12.0637 32.5136L15.8278 34.073C16.0454 34.1631 16.2352 34.3093 16.378 34.4966C16.5207 34.684 16.6113 34.9058 16.6405 35.1395L17.1008 38.8206H18.9132L19.3735 35.1393C19.4027 34.9056 19.4933 34.6838 19.636 34.4965C19.7788 34.3091 19.9686 34.1629 20.1863 34.0728L23.9503 32.5135C24.1679 32.4234 24.4055 32.3925 24.6389 32.424C24.8722 32.4556 25.0931 32.5484 25.279 32.693L28.2072 34.971L29.4888 33.6895L27.2111 30.761C27.0665 30.5751 26.9738 30.3542 26.9423 30.1209C26.9108 29.8875 26.9417 29.6499 27.0318 29.4323L28.5909 25.6683C28.6811 25.4507 28.8273 25.2608 29.0146 25.1181C29.2019 24.9753 29.4238 24.8847 29.6575 24.8555L33.3386 24.3952V22.5828L29.6573 22.1227C29.4236 22.0935 29.2018 22.0029 29.0144 21.8602C28.8271 21.7174 28.6809 21.5275 28.5908 21.3099L27.0316 17.5459C26.9415 17.3283 26.9106 17.0907 26.9421 16.8574C26.9736 16.624 27.0664 16.4031 27.2109 16.2172L29.489 13.2887L28.2073 12.0072L25.279 14.2849C25.0931 14.4295 24.8722 14.5223 24.6389 14.5538C24.4055 14.5854 24.1679 14.5545 23.9503 14.4644L20.1863 12.9051C19.9686 12.8149 19.7788 12.6688 19.636 12.4814C19.4933 12.2941 19.4027 12.0723 19.3735 11.8385L18.9132 8.15745H17.1008L16.6405 11.8387C16.6113 12.0724 16.5207 12.2942 16.378 12.4816C16.2352 12.6689 16.0454 12.8151 15.8278 12.9052L12.0637 14.4646C11.8461 14.5547 11.6085 14.5855 11.3751 14.554C11.1418 14.5225 10.9209 14.4297 10.735 14.2851L7.80678 12.007L6.52518 13.2885L8.80288 16.217C8.94748 16.4029 9.04018 16.6238 9.07168 16.8572C9.10318 17.0906 9.07228 17.3281 8.98218 17.5457L7.42308 21.3098C7.33288 21.5274 7.18669 21.7172 6.99939 21.86C6.81209 22.0028 6.59018 22.0933 6.35648 22.1225L2.67538 22.5828V24.3952Z" fill="#80C904"/>
<path d="M18.0074 16.1566C19.4576 16.1566 20.8753 16.5867 22.0811 17.3924C23.2869 18.1981 24.2268 19.3433 24.7817 20.6831C25.3367 22.0229 25.4819 23.4972 25.199 24.9196C24.9161 26.342 24.2177 27.6485 23.1923 28.674C22.1668 29.6994 20.8603 30.3978 19.4379 30.6807C18.0155 30.9636 16.5412 30.8184 15.2014 30.2634C13.8616 29.7085 12.7164 28.7686 11.9107 27.5628C11.105 26.357 10.6749 24.9393 10.6749 23.4891C10.6771 21.5451 11.4503 19.6813 12.8249 18.3066C14.1996 16.932 16.0634 16.1588 18.0074 16.1566ZM18.0074 28.1552C18.9303 28.1552 19.8324 27.8816 20.5998 27.3689C21.3671 26.8561 21.9652 26.1274 22.3184 25.2748C22.6715 24.4221 22.7639 23.4839 22.5839 22.5788C22.4038 21.6737 21.9594 20.8422 21.3069 20.1897C20.6543 19.5371 19.8229 19.0927 18.9177 18.9126C18.0126 18.7326 17.0744 18.825 16.2218 19.1782C15.3691 19.5313 14.6404 20.1294 14.1277 20.8967C13.6149 21.6641 13.3413 22.5662 13.3413 23.4891C13.3427 24.7262 13.8348 25.9122 14.7095 26.787C15.5843 27.6618 16.7703 28.1538 18.0074 28.1552Z" fill="#80C904"/>
<path d="M61.3355 58.465V61.4848C61.6891 61.4848 62.0282 61.6253 62.2782 61.8753C62.5282 62.1253 62.6687 62.4644 62.6687 62.818V78.8162C62.6687 79.1697 62.5282 79.5088 62.2782 79.7589C62.0282 80.0089 61.6891 80.1493 61.3355 80.1493H53.3364C52.9828 80.1493 52.6437 80.0089 52.3937 79.7589C52.1437 79.5088 52.0032 79.1697 52.0032 78.8162V62.818C52.0032 62.4644 52.1437 62.1253 52.3937 61.8753C52.6437 61.6253 52.9828 61.4848 53.3364 61.4848V58.465C42.7401 56.5706 34.6719 47.2865 34.6719 36.1544C34.6719 23.6575 44.8389 13.4904 57.336 13.4904C69.833 13.4904 80 23.6575 80 36.1544C80 47.2865 71.9318 56.5706 61.3355 58.465ZM54.6696 77.483H60.0023V64.1512H54.6696V77.483ZM58.6691 61.4848V58.8185H56.0028V61.4848H58.6691ZM57.336 16.1567C53.3808 16.1567 49.5144 17.3296 46.2258 19.5269C42.9372 21.7243 40.3741 24.8475 38.8605 28.5016C37.3469 32.1557 36.9509 36.1766 37.7225 40.0558C38.4941 43.9349 40.3987 47.4982 43.1954 50.2949C45.9922 53.0916 49.5554 54.9962 53.4346 55.7679C57.3138 56.5395 61.3346 56.1435 64.9887 54.6299C68.6428 53.1163 71.766 50.5531 73.9634 47.2645C76.1608 43.9759 77.3336 40.1096 77.3336 36.1544C77.3276 30.8525 75.2188 25.7695 71.4698 22.0205C67.7208 18.2715 62.6378 16.1627 57.336 16.1567Z" fill="#80C904"/>
<path d="M57.3357 53.4858C53.9079 53.4858 50.5571 52.4693 47.7069 50.5649C44.8568 48.6606 42.6354 45.9538 41.3236 42.7869C40.0119 39.62 39.6687 36.1352 40.3374 32.7733C41.0061 29.4113 42.6568 26.3232 45.0806 23.8994C47.5044 21.4755 50.5926 19.8249 53.9545 19.1562C57.3165 18.4874 60.8012 18.8306 63.9681 20.1424C67.135 21.4542 69.8418 23.6756 71.7461 26.5257C73.6505 29.3758 74.667 32.7267 74.667 36.1545C74.6618 40.7494 72.8341 45.1547 69.5851 48.4038C66.3359 51.653 61.9307 53.4806 57.3357 53.4858ZM57.3357 21.4895C54.4352 21.4895 51.5999 22.3496 49.1883 23.961C46.7766 25.5724 44.897 27.8628 43.787 30.5424C42.6771 33.2221 42.3867 36.1707 42.9525 39.0155C43.5184 41.8602 44.9151 44.4732 46.966 46.5242C49.0169 48.5751 51.63 49.9718 54.4747 50.5377C57.3194 51.1035 60.2681 50.8131 62.9477 49.7031C65.6274 48.5932 67.9178 46.7135 69.5292 44.3019C71.1405 41.8902 72.0006 39.0549 72.0006 36.1545C71.9962 32.2664 70.4498 28.5389 67.7005 25.7896C64.9513 23.0404 61.2237 21.4939 57.3357 21.4895Z" fill="#80C904"/>
<path d="M34.6719 70.8169V73.4833H30.6723V80.1492H28.006V73.4833H17.3405C16.987 73.4833 16.6479 73.3428 16.3978 73.0928C16.1478 72.8428 16.0074 72.5037 16.0074 72.1501V56.1519H9.34147C9.16017 56.1519 8.98077 56.115 8.81427 56.0433C8.64767 55.9716 8.49757 55.8667 8.37297 55.735C8.24837 55.6033 8.15197 55.4476 8.08957 55.2774C8.02717 55.1071 8.00017 54.926 8.01027 54.7449L8.82497 40.08L11.4872 40.2276L10.7508 53.4856H17.3405C17.6941 53.4856 18.0332 53.626 18.2832 53.8761C18.5333 54.1261 18.6737 54.4652 18.6737 54.8188V60.1515H26.6728V62.8178H18.6737V70.8169H34.6719Z" fill="#80C904"/>
<path d="M62.4355 9.91472L60.4857 11.7332C55.9936 6.9147 49.9467 3.83399 43.408 3.03263C36.8693 2.23128 30.2574 3.76058 24.7347 7.35168L23.2785 5.11861C29.325 1.17855 36.5682 -0.500765 43.7316 0.376636C50.8949 1.25404 57.5187 4.63183 62.4355 9.91472Z" fill="#80C904"/>
</g>
<defs>
<clipPath id="clip0_173_663">
<rect width="80" height="80" fill="white" transform="matrix(-1 0 0 1 80 0.149292)"/>
</clipPath>
</defs>
</svg>
