<svg width="80" height="81" viewBox="0 0 80 81" fill="none" xmlns="http://www.w3.org/2000/svg">
<g clip-path="url(#clip0_173_675)">
<path d="M78.6667 11.3082H48V5.97482H60.24C60.5545 6.86444 61.1734 7.61423 61.9873 8.09166C62.8012 8.5691 63.7576 8.74344 64.6876 8.58388C65.6176 8.42432 66.4613 7.94113 67.0695 7.2197C67.6777 6.49828 68.0112 5.58507 68.0112 4.64149C68.0112 3.6979 67.6777 2.7847 67.0695 2.06327C66.4613 1.34185 65.6176 0.858656 64.6876 0.699094C63.7576 0.539532 62.8012 0.713876 61.9873 1.19131C61.1734 1.66875 60.5545 2.41854 60.24 3.30815H46.6667C46.313 3.30815 45.9739 3.44863 45.7239 3.69868C45.4738 3.94873 45.3333 4.28787 45.3333 4.64149V11.3082H34.6667V4.64149C34.6667 4.28787 34.5262 3.94873 34.2761 3.69868C34.0261 3.44863 33.687 3.30815 33.3333 3.30815H19.76C19.4455 2.41854 18.8266 1.66875 18.0127 1.19131C17.1988 0.713876 16.2423 0.539532 15.3124 0.699094C14.3824 0.858656 13.5387 1.34185 12.9305 2.06327C12.3223 2.7847 11.9888 3.6979 11.9888 4.64149C11.9888 5.58507 12.3223 6.49828 12.9305 7.2197C13.5387 7.94113 14.3824 8.42432 15.3124 8.58388C16.2423 8.74344 17.1988 8.5691 18.0127 8.09166C18.8266 7.61423 19.4455 6.86444 19.76 5.97482H32V11.3082H1.33333C0.979711 11.3082 0.640573 11.4487 0.390524 11.6987C0.140476 11.9487 0 12.2879 0 12.6415V63.3082C0 63.6618 0.140476 64.0009 0.390524 64.251C0.640573 64.501 0.979711 64.6415 1.33333 64.6415H30.6667V72.6415H17.3333C16.9797 72.6415 16.6406 72.782 16.3905 73.032C16.1405 73.2821 16 73.6212 16 73.9748V79.3082C16 79.6618 16.1405 80.0009 16.3905 80.251C16.6406 80.501 16.9797 80.6415 17.3333 80.6415H62.6667C63.0203 80.6415 63.3594 80.501 63.6095 80.251C63.8595 80.0009 64 79.6618 64 79.3082V73.9748C64 73.6212 63.8595 73.2821 63.6095 73.032C63.3594 72.782 63.0203 72.6415 62.6667 72.6415H49.3333V64.6415H78.6667C79.0203 64.6415 79.3594 64.501 79.6095 64.251C79.8595 64.0009 80 63.6618 80 63.3082V12.6415C80 12.2879 79.8595 11.9487 79.6095 11.6987C79.3594 11.4487 79.0203 11.3082 78.6667 11.3082ZM64 3.30815C64.2637 3.30815 64.5215 3.38635 64.7408 3.53286C64.96 3.67937 65.1309 3.88761 65.2318 4.13124C65.3327 4.37488 65.3592 4.64297 65.3077 4.90161C65.2563 5.16025 65.1293 5.39783 64.9428 5.5843C64.7563 5.77077 64.5188 5.89775 64.2601 5.9492C64.0015 6.00065 63.7334 5.97424 63.4898 5.87333C63.2461 5.77241 63.0379 5.60151 62.8914 5.38225C62.7449 5.16298 62.6667 4.9052 62.6667 4.64149C62.6667 4.28787 62.8071 3.94873 63.0572 3.69868C63.3072 3.44863 63.6464 3.30815 64 3.30815ZM16 5.97482C15.7363 5.97482 15.4785 5.89662 15.2592 5.75011C15.04 5.60361 14.8691 5.39537 14.7682 5.15173C14.6672 4.9081 14.6408 4.64001 14.6923 4.38137C14.7437 4.12273 14.8707 3.88515 15.0572 3.69868C15.2437 3.51221 15.4812 3.38522 15.7399 3.33377C15.9985 3.28233 16.2666 3.30873 16.5102 3.40965C16.7539 3.51057 16.9621 3.68146 17.1086 3.90073C17.2551 4.11999 17.3333 4.37778 17.3333 4.64149C17.3333 4.99511 17.1929 5.33425 16.9428 5.5843C16.6928 5.83434 16.3536 5.97482 16 5.97482ZM45.3333 13.9748V26.9882L44.16 28.1482L44 28.0815V25.9748C44 25.6212 43.8595 25.2821 43.6095 25.032C43.3594 24.782 43.0203 24.6415 42.6667 24.6415H37.3333C36.9797 24.6415 36.6406 24.782 36.3905 25.032C36.1405 25.2821 36 25.6212 36 25.9748V28.0815L35.84 28.1482L34.6667 26.9882V13.9748H45.3333ZM47.04 34.1748C47.3023 34.6578 47.5124 35.1673 47.6667 35.6948C47.7523 35.9783 47.9298 36.2252 48.1712 36.3966C48.4126 36.568 48.7042 36.6541 49 36.6415H50.6667V39.3082H48.9467C48.6509 39.2955 48.3593 39.3817 48.1178 39.5531C47.8764 39.7245 47.6989 39.9714 47.6133 40.2548C47.459 40.7823 47.249 41.2919 46.9867 41.7748C46.8666 42.0275 46.829 42.3115 46.8793 42.5867C46.9295 42.8619 47.065 43.1143 47.2667 43.3082L48.48 44.5215L46.6667 46.4548L45.3333 45.2415C45.1292 45.0368 44.864 44.904 44.5779 44.8632C44.2917 44.8223 44 44.8755 43.7467 45.0148C43.2637 45.2771 42.7542 45.4872 42.2267 45.6415C41.9432 45.7271 41.6963 45.9046 41.5249 46.146C41.3535 46.3874 41.2674 46.679 41.28 46.9748V48.6415H38.6667V46.9215C38.6793 46.6257 38.5931 46.3341 38.4217 46.0927C38.2503 45.8513 38.0034 45.6738 37.72 45.5882C37.1925 45.4339 36.683 45.2238 36.2 44.9615C35.9467 44.8222 35.655 44.7689 35.3688 44.8098C35.0826 44.8507 34.8175 44.9835 34.6133 45.1882L33.4 46.4015L31.52 44.6415L32.7333 43.4282C32.938 43.224 33.0708 42.9589 33.1117 42.6727C33.1526 42.3865 33.0993 42.0948 32.96 41.8415C32.6977 41.3585 32.4876 40.849 32.3333 40.3215C32.2477 40.0381 32.0702 39.7912 31.8288 39.6198C31.5874 39.4484 31.2958 39.3622 31 39.3748H29.3333V36.6415H31.0533C31.3491 36.6541 31.6407 36.568 31.8822 36.3966C32.1236 36.2252 32.3011 35.9783 32.3867 35.6948C32.5409 35.1673 32.751 34.6578 33.0133 34.1748C33.1334 33.9222 33.171 33.6382 33.1207 33.363C33.0705 33.0878 32.9349 32.8354 32.7333 32.6415L31.52 31.4282L33.4 29.5482L34.6133 30.7615C34.8175 30.9662 35.0826 31.099 35.3688 31.1399C35.655 31.1807 35.9467 31.1275 36.2 30.9882C36.683 30.7259 37.1925 30.5158 37.72 30.3615C38.0034 30.2759 38.2503 30.0984 38.4217 29.857C38.5931 29.6156 38.6793 29.324 38.6667 29.0282V27.3082H41.3333V29.0282C41.3207 29.324 41.4069 29.6156 41.5783 29.857C41.7497 30.0984 41.9966 30.2759 42.28 30.3615C42.8075 30.5158 43.317 30.7259 43.8 30.9882C44.0526 31.1082 44.3367 31.1458 44.6118 31.0956C44.887 31.0453 45.1394 30.9098 45.3333 30.7082L46.5467 29.4948L48.4267 31.3748L47.2133 32.5882C47.0171 32.7986 46.8943 33.0667 46.863 33.3527C46.8318 33.6387 46.8939 33.9271 47.04 34.1748ZM32 13.9748V27.1215L28.68 30.4282C28.555 30.5521 28.4558 30.6996 28.3881 30.8621C28.3205 31.0245 28.2856 31.1988 28.2856 31.3748C28.2856 31.5509 28.3205 31.7251 28.3881 31.8876C28.4558 32.0501 28.555 32.1976 28.68 32.3215L30.1733 33.8148C30.1569 33.8704 30.1345 33.924 30.1067 33.9748H28C27.6464 33.9748 27.3072 34.1153 27.0572 34.3654C26.8071 34.6154 26.6667 34.9545 26.6667 35.3082V36.6415H13.0933C12.7788 35.7519 12.1599 35.0021 11.346 34.5247C10.5321 34.0472 9.57568 33.8729 8.64569 34.0324C7.7157 34.192 6.87205 34.6752 6.26386 35.3966C5.65567 36.118 5.3221 37.0313 5.3221 37.9748C5.3221 38.9184 5.65567 39.8316 6.26386 40.553C6.87205 41.2745 7.7157 41.7577 8.64569 41.9172C9.57568 42.0768 10.5321 41.9024 11.346 41.425C12.1599 40.9476 12.7788 40.1978 13.0933 39.3082H26.6667V40.6415C26.6667 40.9951 26.8071 41.3343 27.0572 41.5843C27.3072 41.8344 27.6464 41.9748 28 41.9748H30.1067C30.1345 42.0256 30.1569 42.0793 30.1733 42.1348L28.68 43.6282C28.5564 43.7528 28.4587 43.9005 28.3923 44.063C28.326 44.2254 28.2923 44.3994 28.2933 44.5748C28.2982 44.9279 28.4364 45.266 28.68 45.5215L32.4533 49.2948C32.5773 49.4198 32.7248 49.519 32.8872 49.5867C33.0497 49.6544 33.224 49.6892 33.4 49.6892C33.576 49.6892 33.7503 49.6544 33.9128 49.5867C34.0752 49.519 34.2227 49.4198 34.3467 49.2948L35.84 47.8015L36 47.8682V49.9748C36 50.3285 36.1405 50.6676 36.3905 50.9176C36.6406 51.1677 36.9797 51.3082 37.3333 51.3082H42.6667C43.0203 51.3082 43.3594 51.1677 43.6095 50.9176C43.8595 50.6676 44 50.3285 44 49.9748V47.8682L44.16 47.8015L45.6533 49.2948C45.7773 49.4198 45.9247 49.519 46.0872 49.5867C46.2497 49.6544 46.424 49.6892 46.6 49.6892C46.776 49.6892 46.9503 49.6544 47.1128 49.5867C47.2752 49.519 47.4227 49.4198 47.5467 49.2948L51.32 45.5215C51.5636 45.266 51.7018 44.9279 51.7067 44.5748C51.7077 44.3994 51.674 44.2254 51.6077 44.063C51.5413 43.9005 51.4436 43.7528 51.32 43.6282L49.8267 42.1348C49.8431 42.0793 49.8655 42.0256 49.8933 41.9748H52C52.3536 41.9748 52.6928 41.8344 52.9428 41.5843C53.1929 41.3343 53.3333 40.9951 53.3333 40.6415V39.3082H66.9067C67.2212 40.1978 67.8401 40.9476 68.654 41.425C69.4678 41.9024 70.4243 42.0768 71.3543 41.9172C72.2843 41.7577 73.1279 41.2745 73.7361 40.553C74.3443 39.8316 74.6779 38.9184 74.6779 37.9748C74.6779 37.0313 74.3443 36.118 73.7361 35.3966C73.1279 34.6752 72.2843 34.192 71.3543 34.0324C70.4243 33.8729 69.4678 34.0472 68.654 34.5247C67.8401 35.0021 67.2212 35.7519 66.9067 36.6415H53.3333V35.3082C53.3333 34.9545 53.1929 34.6154 52.9428 34.3654C52.6928 34.1153 52.3536 33.9748 52 33.9748H49.8933C49.8655 33.924 49.8431 33.8704 49.8267 33.8148L51.32 32.3215C51.445 32.1976 51.5442 32.0501 51.6119 31.8876C51.6795 31.7251 51.7144 31.5509 51.7144 31.3748C51.7144 31.1988 51.6795 31.0245 51.6119 30.8621C51.5442 30.6996 51.445 30.5521 51.32 30.4282L48 27.1215V13.9748H77.3333V56.6415H2.66667V13.9748H32ZM10.6667 37.9748C10.6667 38.2385 10.5885 38.4963 10.442 38.7156C10.2955 38.9349 10.0872 39.1058 9.84358 39.2067C9.59994 39.3076 9.33185 39.334 9.07321 39.2825C8.81457 39.2311 8.57699 39.1041 8.39052 38.9176C8.20405 38.7312 8.07707 38.4936 8.02562 38.235C7.97417 37.9763 8.00058 37.7082 8.10149 37.4646C8.20241 37.221 8.37331 37.0127 8.59257 36.8662C8.81184 36.7197 9.06962 36.6415 9.33333 36.6415C9.68695 36.6415 10.0261 36.782 10.2761 37.032C10.5262 37.2821 10.6667 37.6212 10.6667 37.9748ZM69.3333 37.9748C69.3333 37.7111 69.4115 37.4533 69.558 37.2341C69.7045 37.0148 69.9128 36.8439 70.1564 36.743C70.4001 36.6421 70.6681 36.6157 70.9268 36.6671C71.1854 36.7186 71.423 36.8456 71.6095 37.032C71.7959 37.2185 71.9229 37.4561 71.9744 37.7147C72.0258 37.9734 71.9994 38.2414 71.8985 38.4851C71.7976 38.7287 71.6267 38.937 71.4074 39.0835C71.1882 39.23 70.9304 39.3082 70.6667 39.3082C70.313 39.3082 69.9739 39.1677 69.7239 38.9176C69.4738 38.6676 69.3333 38.3285 69.3333 37.9748ZM61.3333 77.9748H18.6667V75.3082H61.3333V77.9748ZM46.6667 72.6415H33.3333V64.6415H46.6667V72.6415ZM2.66667 61.9748V59.3082H77.3333V61.9748H2.66667Z" fill="#80C904"/>
<path d="M40.0004 32.6415C38.9455 32.6415 37.9144 32.9543 37.0373 33.5403C36.1603 34.1264 35.4767 34.9593 35.073 35.9339C34.6693 36.9084 34.5637 37.9807 34.7695 39.0153C34.9753 40.0499 35.4832 41.0002 36.2291 41.7461C36.975 42.4919 37.9253 42.9999 38.9599 43.2057C39.9944 43.4115 41.0668 43.3059 42.0413 42.9022C43.0159 42.4985 43.8488 41.8149 44.4349 40.9379C45.0209 40.0608 45.3337 39.0297 45.3337 37.9748C45.3337 36.5603 44.7718 35.2038 43.7716 34.2036C42.7714 33.2034 41.4148 32.6415 40.0004 32.6415ZM40.0004 40.6415C39.4729 40.6415 38.9574 40.4851 38.5188 40.1921C38.0803 39.8991 37.7385 39.4826 37.5367 38.9953C37.3348 38.5081 37.282 37.9719 37.3849 37.4546C37.4878 36.9373 37.7418 36.4622 38.1147 36.0892C38.4877 35.7163 38.9628 35.4623 39.4801 35.3594C39.9974 35.2565 40.5336 35.3093 41.0208 35.5112C41.5081 35.713 41.9246 36.0548 42.2176 36.4933C42.5106 36.9318 42.667 37.4474 42.667 37.9748C42.667 38.6821 42.3861 39.3604 41.886 39.8604C41.3859 40.3605 40.7076 40.6415 40.0004 40.6415Z" fill="#80C904"/>
<path d="M6.66635 19.3082H13.333V29.9748C13.333 30.3285 13.4734 30.6676 13.7235 30.9176C13.9735 31.1677 14.3127 31.3082 14.6663 31.3082H22.6663C23.0199 31.3082 23.3591 31.1677 23.6091 30.9176C23.8592 30.6676 23.9996 30.3285 23.9996 29.9748C23.9996 29.6212 23.8592 29.2821 23.6091 29.032C23.3591 28.782 23.0199 28.6415 22.6663 28.6415H15.9996V17.9748C15.9996 17.6212 15.8592 17.2821 15.6091 17.032C15.3591 16.782 15.0199 16.6415 14.6663 16.6415H6.66635C6.31273 16.6415 5.97359 16.782 5.72354 17.032C5.47349 17.2821 5.33301 17.6212 5.33301 17.9748C5.33301 18.3285 5.47349 18.6676 5.72354 18.9176C5.97359 19.1677 6.31273 19.3082 6.66635 19.3082Z" fill="#80C904"/>
<path d="M73.3333 16.6415H65.3333C64.9797 16.6415 64.6406 16.782 64.3905 17.032C64.1405 17.2821 64 17.6212 64 17.9748V28.6415H57.3333C56.9797 28.6415 56.6406 28.782 56.3905 29.032C56.1405 29.2821 56 29.6212 56 29.9748C56 30.3285 56.1405 30.6676 56.3905 30.9176C56.6406 31.1677 56.9797 31.3082 57.3333 31.3082H65.3333C65.687 31.3082 66.0261 31.1677 66.2761 30.9176C66.5262 30.6676 66.6667 30.3285 66.6667 29.9748V19.3082H73.3333C73.687 19.3082 74.0261 19.1677 74.2761 18.9176C74.5262 18.6676 74.6667 18.3285 74.6667 17.9748C74.6667 17.6212 74.5262 17.2821 74.2761 17.032C74.0261 16.782 73.687 16.6415 73.3333 16.6415Z" fill="#80C904"/>
</g>
<defs>
<clipPath id="clip0_173_675">
<rect width="80" height="80" fill="white" transform="translate(0 0.641479)"/>
</clipPath>
</defs>
</svg>
