<svg width="31" height="42" viewBox="0 0 31 42" fill="none" xmlns="http://www.w3.org/2000/svg">
<path d="M24.5 7.5H30.5V13.5H24.5V7.5ZM24.5 16.5H30.5V22.5H24.5V16.5ZM15.5 7.5H21.5V13.5H15.5V7.5ZM15.5 16.5H21.5V22.5H15.5V16.5Z" fill="#80C904"/>
<path d="M11.75 36C12.9926 36 14 34.9926 14 33.75C14 32.5074 12.9926 31.5 11.75 31.5C10.5074 31.5 9.5 32.5074 9.5 33.75C9.5 34.9926 10.5074 36 11.75 36Z" fill="#80C904"/>
<path d="M22.5 42H3C2.20459 41.9992 1.44199 41.6829 0.879557 41.1204C0.31712 40.558 0.000794215 39.7954 0 39V3C0.000794215 2.20459 0.31712 1.44199 0.879557 0.879557C1.44199 0.31712 2.20459 0.000794215 3 0H22.5V3H3V39H22.5V27H25.5V39C25.4992 39.7954 25.1829 40.558 24.6204 41.1204C24.058 41.6829 23.2954 41.9992 22.5 42Z" fill="#80C904"/>
</svg>
