<svg width="179" height="35" viewBox="0 0 179 35" fill="none" xmlns="http://www.w3.org/2000/svg">
<circle cx="162.368" cy="17.3703" r="16.1316" stroke="#A6A6A6"/>
<g clip-path="url(#clip0_174_869)">
<path d="M163.414 16.711C163.097 16.2669 162.577 15.9751 161.993 15.9751C161.41 15.9751 160.889 16.2669 160.572 16.711C160.369 17.0029 160.242 17.3581 160.242 17.7388C160.242 18.7031 161.029 19.4898 161.993 19.4898C162.957 19.4898 163.744 18.7031 163.744 17.7388C163.744 17.3581 163.617 17.0029 163.414 16.711Z" fill="#A6A6A6"/>
<path d="M164.519 16.7236C164.646 16.9774 164.722 17.3834 164.722 17.7387C164.722 19.2359 163.504 20.4667 161.994 20.4667C160.484 20.4667 159.266 19.2486 159.266 17.7387C159.266 17.3707 159.342 16.9774 159.469 16.7236H157.934V20.7966C157.934 21.3295 158.403 21.799 158.936 21.799H165.052C165.585 21.799 166.054 21.3295 166.054 20.7966V16.7236H164.519Z" fill="#A6A6A6"/>
<path d="M165.597 13.9067H164.125V15.5943H165.8V14.1224V13.894L165.597 13.9067Z" fill="#A6A6A6"/>
<path d="M165.978 9.74512H158.01C155.802 9.74512 154 11.5469 154 13.7546V21.7356C154 23.9307 155.802 25.7324 158.01 25.7324H165.99C168.198 25.7324 170 23.9307 170 21.7229V13.7546C169.987 11.5469 168.186 9.74512 165.978 9.74512ZM166.942 16.711V20.7967C166.942 21.8625 166.117 22.6872 165.052 22.6872H158.936C157.87 22.6872 157.045 21.8625 157.045 20.7967V16.711V14.6809C157.045 13.6151 157.87 12.7903 158.936 12.7903H165.052C166.117 12.7903 166.942 13.6151 166.942 14.6809V16.711Z" fill="#A6A6A6"/>
</g>
<circle cx="17.5788" cy="17.3706" r="16.1316" stroke="#A6A6A6"/>
<g clip-path="url(#clip1_174_869)">
<path d="M14.1643 18.2606H15.9182V25.4809C15.9182 25.6235 16.0337 25.739 16.1762 25.739H19.15C19.2925 25.739 19.408 25.6235 19.408 25.4809V18.2946H21.4242C21.5553 18.2946 21.6656 18.1963 21.6806 18.066L21.9868 15.4079C21.9952 15.3347 21.9721 15.2615 21.9231 15.2066C21.8741 15.1517 21.8041 15.1203 21.7305 15.1203H19.4081V13.454C19.4081 12.9517 19.6786 12.697 20.2121 12.697C20.2881 12.697 21.7305 12.697 21.7305 12.697C21.8731 12.697 21.9886 12.5814 21.9886 12.4389V9.99899C21.9886 9.85643 21.8731 9.74092 21.7305 9.74092H19.6379C19.6231 9.7402 19.5903 9.73901 19.542 9.73901C19.1789 9.73901 17.9168 9.81029 16.9199 10.7275C15.8153 11.7438 15.9688 12.9607 16.0055 13.1717V15.1202H14.1643C14.0218 15.1202 13.9062 15.2357 13.9062 15.3783V18.0025C13.9062 18.1451 14.0218 18.2606 14.1643 18.2606Z" fill="#A6A6A6"/>
</g>
<circle cx="65.8415" cy="17.3703" r="16.1316" stroke="#A6A6A6"/>
<path d="M72.1305 13.7122C71.6523 13.9185 71.132 14.0669 70.5961 14.1247C71.1525 13.7941 71.5692 13.2719 71.768 12.656C71.2458 12.9666 70.6738 13.1844 70.0773 13.2997C69.828 13.0332 69.5265 12.8209 69.1916 12.676C68.8566 12.5311 68.4954 12.4567 68.1305 12.4575C66.6539 12.4575 65.4664 13.6544 65.4664 15.1232C65.4664 15.3294 65.4914 15.5357 65.532 15.7341C63.3211 15.6185 61.3492 14.5622 60.0383 12.945C59.7994 13.353 59.6742 13.8176 59.6758 14.2903C59.6758 15.2153 60.1461 16.031 60.8633 16.5107C60.4406 16.494 60.0279 16.3778 59.6586 16.1716V16.2044C59.6586 17.4997 60.5742 18.5732 61.7945 18.82C61.5654 18.8795 61.3297 18.91 61.093 18.9107C60.9195 18.9107 60.7555 18.8935 60.5898 18.87C60.9273 19.9263 61.9102 20.6935 63.0805 20.7185C62.1648 21.4357 61.018 21.8575 59.7727 21.8575C59.5492 21.8575 59.343 21.8497 59.1289 21.8247C60.3102 22.5825 61.7117 23.02 63.2211 23.02C68.1211 23.02 70.8023 18.9607 70.8023 15.4372C70.8023 15.3216 70.8023 15.206 70.7945 15.0903C71.3133 14.7107 71.768 14.2403 72.1305 13.7122Z" fill="#A6A6A6"/>
<circle cx="114.105" cy="17.3703" r="16.1316" stroke="#A6A6A6"/>
<g clip-path="url(#clip2_174_869)">
<path d="M116.416 15.3389C115.905 15.3371 115.398 15.4362 114.926 15.6303C114.453 15.8244 114.023 16.1098 113.661 16.4702C113.299 16.8306 113.011 17.2588 112.815 17.7305C112.618 18.2021 112.516 18.7079 112.516 19.2189V23.1389C112.516 23.298 112.579 23.4506 112.691 23.5632C112.804 23.6757 112.956 23.7389 113.116 23.7389H114.516C114.675 23.7389 114.827 23.6757 114.94 23.5632C115.052 23.4506 115.116 23.298 115.116 23.1389V19.2189C115.115 19.0372 115.154 18.8574 115.228 18.6914C115.302 18.5255 115.41 18.3769 115.545 18.2555C115.68 18.1341 115.84 18.0426 116.013 17.9869C116.186 17.9312 116.368 17.9126 116.549 17.9322C116.873 17.973 117.171 18.1313 117.386 18.3771C117.601 18.6229 117.718 18.939 117.716 19.2656V23.1389C117.716 23.298 117.779 23.4506 117.891 23.5632C118.004 23.6757 118.156 23.7389 118.316 23.7389H119.716C119.875 23.7389 120.027 23.6757 120.14 23.5632C120.252 23.4506 120.316 23.298 120.316 23.1389V19.2189C120.315 18.7079 120.213 18.2021 120.017 17.7305C119.82 17.2588 119.532 16.8306 119.17 16.4702C118.808 16.1098 118.378 15.8244 117.906 15.6303C117.433 15.4362 116.927 15.3371 116.416 15.3389Z" fill="#A6A6A6"/>
<path d="M110.715 15.9387H108.915C108.584 15.9387 108.315 16.2073 108.315 16.5387V23.1387C108.315 23.4701 108.584 23.7387 108.915 23.7387H110.715C111.047 23.7387 111.315 23.4701 111.315 23.1387V16.5387C111.315 16.2073 111.047 15.9387 110.715 15.9387Z" fill="#A6A6A6"/>
<path d="M109.815 14.7388C110.644 14.7388 111.315 14.0672 111.315 13.2388C111.315 12.4103 110.644 11.7388 109.815 11.7388C108.987 11.7388 108.315 12.4103 108.315 13.2388C108.315 14.0672 108.987 14.7388 109.815 14.7388Z" fill="#A6A6A6"/>
</g>
<defs>
<clipPath id="clip0_174_869">
<rect width="16" height="16" fill="white" transform="translate(154 9.73877)"/>
</clipPath>
<clipPath id="clip1_174_869">
<rect width="16" height="16" fill="white" transform="translate(9.94727 9.73901)"/>
</clipPath>
<clipPath id="clip2_174_869">
<rect width="16" height="16" fill="white" transform="translate(106.315 9.73877)"/>
</clipPath>
</defs>
</svg>
