<svg width="179" height="35" viewBox="0 0 179 35" fill="none" xmlns="http://www.w3.org/2000/svg">
<circle cx="161.868" cy="17.6172" r="16.1316" stroke="#A6A6A6"/>
<g clip-path="url(#clip0_116_187)">
<path d="M162.914 16.9578C162.597 16.5138 162.077 16.2219 161.493 16.2219C160.91 16.2219 160.389 16.5138 160.072 16.9578C159.869 17.2497 159.742 17.605 159.742 17.9856C159.742 18.9499 160.529 19.7366 161.493 19.7366C162.457 19.7366 163.244 18.9499 163.244 17.9856C163.244 17.605 163.117 17.2497 162.914 16.9578Z" fill="#A6A6A6"/>
<path d="M164.019 16.9705C164.146 17.2242 164.222 17.6303 164.222 17.9855C164.222 19.4828 163.004 20.7135 161.494 20.7135C159.984 20.7135 158.766 19.4954 158.766 17.9855C158.766 17.6176 158.842 17.2242 158.969 16.9705H157.434V21.0434C157.434 21.5763 157.903 22.0458 158.436 22.0458H164.552C165.085 22.0458 165.554 21.5763 165.554 21.0434V16.9705H164.019Z" fill="#A6A6A6"/>
<path d="M165.097 14.1536H163.625V15.8411H165.3V14.3693V14.1409L165.097 14.1536Z" fill="#A6A6A6"/>
<path d="M165.478 9.99194H157.51C155.302 9.99194 153.5 11.7937 153.5 14.0015V21.9824C153.5 24.1775 155.302 25.9793 157.51 25.9793H165.49C167.698 25.9793 169.5 24.1775 169.5 21.9697V14.0015C169.487 11.7937 167.686 9.99194 165.478 9.99194ZM166.442 16.9578V21.0435C166.442 22.1093 165.617 22.9341 164.552 22.9341H158.436C157.37 22.9341 156.545 22.1093 156.545 21.0435V16.9578V14.9277C156.545 13.8619 157.37 13.0371 158.436 13.0371H164.552C165.617 13.0371 166.442 13.8619 166.442 14.9277V16.9578Z" fill="#A6A6A6"/>
</g>
<circle cx="17.0788" cy="17.6174" r="16.1316" stroke="#A6A6A6"/>
<g clip-path="url(#clip1_116_187)">
<path d="M13.6643 18.5074H15.4182V25.7278C15.4182 25.8703 15.5337 25.9858 15.6762 25.9858H18.65C18.7925 25.9858 18.908 25.8703 18.908 25.7278V18.5415H20.9242C21.0553 18.5415 21.1656 18.4431 21.1806 18.3129L21.4868 15.6547C21.4952 15.5816 21.4721 15.5083 21.4231 15.4535C21.3741 15.3985 21.3041 15.3671 21.2305 15.3671H18.9081V13.7008C18.9081 13.1985 19.1786 12.9438 19.7121 12.9438C19.7881 12.9438 21.2305 12.9438 21.2305 12.9438C21.3731 12.9438 21.4886 12.8283 21.4886 12.6858V10.2458C21.4886 10.1033 21.3731 9.98775 21.2305 9.98775H19.1379C19.1231 9.98703 19.0903 9.98584 19.042 9.98584C18.6789 9.98584 17.4168 10.0571 16.4199 10.9743C15.3153 11.9906 15.4688 13.2076 15.5055 13.4186V15.3671H13.6643C13.5218 15.3671 13.4062 15.4826 13.4062 15.6251V18.2493C13.4062 18.3919 13.5218 18.5074 13.6643 18.5074Z" fill="#A6A6A6"/>
</g>
<circle cx="65.3415" cy="17.6172" r="16.1316" stroke="#A6A6A6"/>
<path d="M71.6305 13.959C71.1523 14.1653 70.632 14.3137 70.0961 14.3715C70.6525 14.041 71.0692 13.5187 71.268 12.9028C70.7458 13.2134 70.1738 13.4312 69.5773 13.5465C69.328 13.28 69.0265 13.0677 68.6916 12.9228C68.3566 12.7779 67.9954 12.7035 67.6305 12.7044C66.1539 12.7044 64.9664 13.9012 64.9664 15.37C64.9664 15.5762 64.9914 15.7825 65.032 15.9809C62.8211 15.8653 60.8492 14.809 59.5383 13.1919C59.2994 13.5998 59.1742 14.0644 59.1758 14.5372C59.1758 15.4622 59.6461 16.2778 60.3633 16.7575C59.9406 16.7408 59.5279 16.6247 59.1586 16.4184V16.4512C59.1586 17.7465 60.0742 18.82 61.2945 19.0669C61.0654 19.1264 60.8297 19.1568 60.593 19.1575C60.4195 19.1575 60.2555 19.1403 60.0898 19.1169C60.4273 20.1731 61.4102 20.9403 62.5805 20.9653C61.6648 21.6825 60.518 22.1044 59.2727 22.1044C59.0492 22.1044 58.843 22.0965 58.6289 22.0715C59.8102 22.8294 61.2117 23.2669 62.7211 23.2669C67.6211 23.2669 70.3023 19.2075 70.3023 15.684C70.3023 15.5684 70.3023 15.4528 70.2945 15.3372C70.8133 14.9575 71.268 14.4872 71.6305 13.959Z" fill="#A6A6A6"/>
<circle cx="113.605" cy="17.6172" r="16.1316" stroke="#A6A6A6"/>
<g clip-path="url(#clip2_116_187)">
<path d="M115.916 15.5857C115.405 15.584 114.898 15.683 114.426 15.8771C113.953 16.0712 113.523 16.3566 113.161 16.717C112.799 17.0774 112.511 17.5057 112.315 17.9773C112.118 18.449 112.016 18.9547 112.016 19.4657V23.3857C112.016 23.5448 112.079 23.6975 112.191 23.81C112.304 23.9225 112.456 23.9857 112.616 23.9857H114.016C114.175 23.9857 114.327 23.9225 114.44 23.81C114.552 23.6975 114.616 23.5448 114.616 23.3857V19.4657C114.615 19.284 114.654 19.1043 114.728 18.9383C114.802 18.7723 114.91 18.6237 115.045 18.5023C115.18 18.3809 115.34 18.2894 115.513 18.2337C115.686 18.178 115.868 18.1594 116.049 18.179C116.373 18.2199 116.671 18.3782 116.886 18.6239C117.101 18.8697 117.218 19.1858 117.216 19.5124V23.3857C117.216 23.5448 117.279 23.6975 117.391 23.81C117.504 23.9225 117.656 23.9857 117.816 23.9857H119.216C119.375 23.9857 119.527 23.9225 119.64 23.81C119.752 23.6975 119.816 23.5448 119.816 23.3857V19.4657C119.815 18.9547 119.713 18.449 119.517 17.9773C119.32 17.5057 119.032 17.0774 118.67 16.717C118.308 16.3566 117.878 16.0712 117.406 15.8771C116.933 15.683 116.427 15.584 115.916 15.5857Z" fill="#A6A6A6"/>
<path d="M110.215 16.1855H108.415C108.084 16.1855 107.815 16.4542 107.815 16.7855V23.3855C107.815 23.7169 108.084 23.9855 108.415 23.9855H110.215C110.547 23.9855 110.815 23.7169 110.815 23.3855V16.7855C110.815 16.4542 110.547 16.1855 110.215 16.1855Z" fill="#A6A6A6"/>
<path d="M109.315 14.9856C110.144 14.9856 110.815 14.314 110.815 13.4856C110.815 12.6572 110.144 11.9856 109.315 11.9856C108.487 11.9856 107.815 12.6572 107.815 13.4856C107.815 14.314 108.487 14.9856 109.315 14.9856Z" fill="#A6A6A6"/>
</g>
<defs>
<clipPath id="clip0_116_187">
<rect width="16" height="16" fill="white" transform="translate(153.5 9.9856)"/>
</clipPath>
<clipPath id="clip1_116_187">
<rect width="16" height="16" fill="white" transform="translate(9.44727 9.98584)"/>
</clipPath>
<clipPath id="clip2_116_187">
<rect width="16" height="16" fill="white" transform="translate(105.815 9.9856)"/>
</clipPath>
</defs>
</svg>
