<svg width="179" height="34" viewBox="0 0 179 34" fill="none" xmlns="http://www.w3.org/2000/svg">
<circle cx="161.868" cy="17.1189" r="16.1316" stroke="#A6A6A6"/>
<g clip-path="url(#clip0_187_440)">
<path d="M162.914 16.4605C162.597 16.0164 162.077 15.7246 161.493 15.7246C160.91 15.7246 160.389 16.0164 160.072 16.4605C159.869 16.7524 159.742 17.1076 159.742 17.4883C159.742 18.4526 160.529 19.2393 161.493 19.2393C162.457 19.2393 163.244 18.4526 163.244 17.4883C163.244 17.1076 163.117 16.7524 162.914 16.4605Z" fill="#A6A6A6"/>
<path d="M164.019 16.4727C164.146 16.7264 164.222 17.1325 164.222 17.4877C164.222 18.9849 163.004 20.2157 161.494 20.2157C159.984 20.2157 158.766 18.9976 158.766 17.4877C158.766 17.1198 158.842 16.7264 158.969 16.4727H157.434V20.5456C157.434 21.0785 157.903 21.548 158.436 21.548H164.552C165.085 21.548 165.554 21.0785 165.554 20.5456V16.4727H164.019Z" fill="#A6A6A6"/>
<path d="M165.097 13.6553H163.625V15.3428H165.3V13.871V13.6426L165.097 13.6553Z" fill="#A6A6A6"/>
<path d="M165.478 9.49414H157.51C155.302 9.49414 153.5 11.2959 153.5 13.5037V21.4846C153.5 23.6797 155.302 25.4815 157.51 25.4815H165.49C167.698 25.4815 169.5 23.6797 169.5 21.4719V13.5037C169.487 11.2959 167.686 9.49414 165.478 9.49414ZM166.442 16.46V20.5457C166.442 21.6115 165.617 22.4362 164.552 22.4362H158.436C157.37 22.4362 156.545 21.6115 156.545 20.5457V16.46V14.4299C156.545 13.3641 157.37 12.5393 158.436 12.5393H164.552C165.617 12.5393 166.442 13.3641 166.442 14.4299V16.46Z" fill="#A6A6A6"/>
</g>
<circle cx="17.0788" cy="17.1189" r="16.1316" stroke="#A6A6A6"/>
<g clip-path="url(#clip1_187_440)">
<path d="M13.6643 18.0089H15.4182V25.2292C15.4182 25.3718 15.5337 25.4873 15.6762 25.4873H18.65C18.7925 25.4873 18.908 25.3718 18.908 25.2292V18.0429H20.9242C21.0553 18.0429 21.1656 17.9445 21.1806 17.8143L21.4868 15.1562C21.4952 15.083 21.4721 15.0098 21.4231 14.9549C21.3741 14.9 21.3041 14.8686 21.2305 14.8686H18.9081V13.2023C18.9081 12.7 19.1786 12.4453 19.7121 12.4453C19.7881 12.4453 21.2305 12.4453 21.2305 12.4453C21.3731 12.4453 21.4886 12.3297 21.4886 12.1872V9.74728C21.4886 9.60472 21.3731 9.48921 21.2305 9.48921H19.1379C19.1231 9.48849 19.0903 9.4873 19.042 9.4873C18.6789 9.4873 17.4168 9.55858 16.4199 10.4757C15.3153 11.4921 15.4688 12.709 15.5055 12.92V14.8685H13.6643C13.5218 14.8685 13.4062 14.984 13.4062 15.1266V17.7508C13.4062 17.8933 13.5218 18.0089 13.6643 18.0089Z" fill="#A6A6A6"/>
</g>
<circle cx="65.3415" cy="17.1189" r="16.1316" stroke="#A6A6A6"/>
<path d="M71.6305 13.4607C71.1523 13.667 70.632 13.8154 70.0961 13.8732C70.6525 13.5427 71.0692 13.0204 71.268 12.4045C70.7458 12.7151 70.1738 12.9329 69.5773 13.0482C69.328 12.7817 69.0265 12.5694 68.6916 12.4245C68.3566 12.2796 67.9954 12.2053 67.6305 12.2061C66.1539 12.2061 64.9664 13.4029 64.9664 14.8717C64.9664 15.0779 64.9914 15.2842 65.032 15.4826C62.8211 15.367 60.8492 14.3107 59.5383 12.6936C59.2994 13.1016 59.1742 13.5661 59.1758 14.0389C59.1758 14.9639 59.6461 15.7795 60.3633 16.2592C59.9406 16.2425 59.5279 16.1264 59.1586 15.9201V15.9529C59.1586 17.2482 60.0742 18.3217 61.2945 18.5686C61.0654 18.6281 60.8297 18.6585 60.593 18.6592C60.4195 18.6592 60.2555 18.642 60.0898 18.6186C60.4273 19.6748 61.4102 20.442 62.5805 20.467C61.6648 21.1842 60.518 21.6061 59.2727 21.6061C59.0492 21.6061 58.843 21.5982 58.6289 21.5732C59.8102 22.3311 61.2117 22.7686 62.7211 22.7686C67.6211 22.7686 70.3023 18.7092 70.3023 15.1857C70.3023 15.0701 70.3023 14.9545 70.2945 14.8389C70.8133 14.4592 71.268 13.9889 71.6305 13.4607Z" fill="#A6A6A6"/>
<circle cx="113.605" cy="17.1189" r="16.1316" stroke="#A6A6A6"/>
<g clip-path="url(#clip2_187_440)">
<path d="M115.916 15.0869C115.405 15.0852 114.898 15.1842 114.426 15.3783C113.953 15.5724 113.523 15.8579 113.161 16.2182C112.799 16.5786 112.511 17.0069 112.315 17.4785C112.118 17.9502 112.016 18.456 112.016 18.9669V22.8869C112.016 23.0461 112.079 23.1987 112.191 23.3112C112.304 23.4237 112.456 23.4869 112.616 23.4869H114.016C114.175 23.4869 114.327 23.4237 114.44 23.3112C114.552 23.1987 114.616 23.0461 114.616 22.8869V18.9669C114.615 18.7852 114.654 18.6055 114.728 18.4395C114.802 18.2735 114.91 18.125 115.045 18.0036C115.18 17.8822 115.34 17.7906 115.513 17.7349C115.686 17.6792 115.868 17.6606 116.049 17.6803C116.373 17.7211 116.671 17.8794 116.886 18.1251C117.101 18.3709 117.218 18.687 117.216 19.0136V22.8869C117.216 23.0461 117.279 23.1987 117.391 23.3112C117.504 23.4237 117.656 23.4869 117.816 23.4869H119.216C119.375 23.4869 119.527 23.4237 119.64 23.3112C119.752 23.1987 119.816 23.0461 119.816 22.8869V18.9669C119.815 18.456 119.713 17.9502 119.517 17.4785C119.32 17.0069 119.032 16.5786 118.67 16.2182C118.308 15.8579 117.878 15.5724 117.406 15.3783C116.933 15.1842 116.427 15.0852 115.916 15.0869Z" fill="#A6A6A6"/>
<path d="M110.215 15.6875H108.415C108.084 15.6875 107.815 15.9561 107.815 16.2875V22.8875C107.815 23.2189 108.084 23.4875 108.415 23.4875H110.215C110.547 23.4875 110.815 23.2189 110.815 22.8875V16.2875C110.815 15.9561 110.547 15.6875 110.215 15.6875Z" fill="#A6A6A6"/>
<path d="M109.315 14.4873C110.144 14.4873 110.815 13.8157 110.815 12.9873C110.815 12.1589 110.144 11.4873 109.315 11.4873C108.487 11.4873 107.815 12.1589 107.815 12.9873C107.815 13.8157 108.487 14.4873 109.315 14.4873Z" fill="#A6A6A6"/>
</g>
<defs>
<clipPath id="clip0_187_440">
<rect width="16" height="16" fill="white" transform="translate(153.5 9.4873)"/>
</clipPath>
<clipPath id="clip1_187_440">
<rect width="16" height="16" fill="white" transform="translate(9.44727 9.4873)"/>
</clipPath>
<clipPath id="clip2_187_440">
<rect width="16" height="16" fill="white" transform="translate(105.815 9.4873)"/>
</clipPath>
</defs>
</svg>
