<svg width="44" height="44" viewBox="0 0 44 44" fill="none" xmlns="http://www.w3.org/2000/svg">
<g clip-path="url(#clip0_187_583)">
<path d="M23.1538 2.96267C22.6981 2.9285 22.2412 2.91139 21.7842 2.91136V0.210938C22.3069 0.211196 22.8294 0.231013 23.3506 0.270347L23.1538 2.96267ZM28.4835 4.17786C27.631 3.84383 26.7554 3.57396 25.8639 3.37043L26.4463 0.73482C27.4649 0.967056 28.4675 1.2749 29.4409 1.65836L28.4835 4.17786V4.17786ZM32.127 6.09516C31.7468 5.83767 31.3573 5.59447 30.9595 5.36605L32.2706 3.01668C33.1799 3.53985 34.0502 4.13013 34.8743 4.78276L33.2387 6.91339C32.8781 6.62777 32.5073 6.35574 32.127 6.09786V6.09516ZM37.0045 10.9289C36.4785 10.17 35.898 9.45157 35.2679 8.77938L37.1934 6.91609C37.9114 7.68571 38.5763 8.50934 39.18 9.37348L37.0045 10.9289V10.9289ZM38.9832 14.5799C38.8087 14.1518 38.6188 13.7302 38.4141 13.3161L40.789 12.1009C41.2587 13.049 41.6587 14.031 41.9858 15.039L39.4593 15.8842C39.3163 15.4437 39.1576 15.0086 38.9832 14.5799V14.5799ZM40.3928 21.3499C40.3713 20.4218 40.2824 19.4967 40.1268 18.5819L42.7464 18.1229C42.9246 19.1652 43.0283 20.2238 43.0549 21.2823L40.3954 21.3499H40.3928ZM40.0444 25.5031C40.1321 25.044 40.2039 24.5877 40.2598 24.1259L42.9007 24.458C42.7729 25.5116 42.5685 26.5541 42.289 27.577L39.7252 26.856C39.8476 26.4105 39.9539 25.9595 40.0444 25.5031V25.5031ZM37.5125 31.9274C38.0019 31.1443 38.4327 30.3234 38.805 29.4754L41.2358 30.5691C40.8103 31.5413 40.3183 32.4756 39.7598 33.3721L37.5125 31.9274ZM34.9487 35.1814C35.2732 34.852 35.5844 34.5117 35.8796 34.1607L37.8955 35.924C37.5541 36.326 37.1984 36.7151 36.829 37.0906L34.9487 35.1814V35.1814Z" fill="#80C904"/>
<path d="M21.7844 2.91136C18.723 2.91159 15.7088 3.67841 13.009 5.14391C10.3092 6.60941 8.00691 8.72835 6.30619 11.3131C4.60546 13.8978 3.55875 16.8685 3.25876 19.962C2.95876 23.0556 3.41475 26.1765 4.58634 29.0484C5.75792 31.9202 7.60893 34.4544 9.97543 36.4265C12.3419 38.3985 15.1509 39.7475 18.1534 40.354C21.156 40.9605 24.2596 40.8058 27.1892 39.9035C30.1188 39.0013 32.7841 37.3794 34.9489 35.1814L36.8292 37.0906C34.3552 39.6041 31.3087 41.4592 27.9599 42.4915C24.611 43.5237 21.063 43.7014 17.6304 43.0086C14.1978 42.3158 10.9864 40.774 8.28085 38.5198C5.57531 36.2656 3.45913 33.3686 2.1198 30.0854C0.780465 26.8023 0.259341 23.2344 0.602598 19.6979C0.945855 16.1614 2.14289 12.7655 4.08765 9.81099C6.03241 6.85651 8.66485 4.4347 11.7517 2.76015C14.8386 1.08559 18.2846 0.209996 21.7844 0.210938V2.91136Z" fill="#80C904"/>
<path d="M20.4548 8.3125C20.8074 8.3125 21.1457 8.45475 21.395 8.70797C21.6444 8.96118 21.7845 9.30461 21.7845 9.66271V23.7319L30.4226 28.7439C30.7199 28.926 30.9353 29.219 31.0227 29.5602C31.1101 29.9014 31.0625 30.2638 30.8903 30.5699C30.718 30.876 30.4346 31.1016 30.1008 31.1984C29.7669 31.2952 29.4089 31.2555 29.1035 31.0879L19.7952 25.687C19.5917 25.569 19.4225 25.3984 19.3048 25.1926C19.1871 24.9868 19.1251 24.753 19.125 24.515V9.66271C19.125 9.30461 19.2651 8.96118 19.5145 8.70797C19.7639 8.45475 20.1021 8.3125 20.4548 8.3125V8.3125Z" fill="#80C904"/>
</g>
<defs>
<clipPath id="clip0_187_583">
<rect width="42.5521" height="43.2068" fill="white" transform="translate(0.508789 0.210938)"/>
</clipPath>
</defs>
</svg>
