<svg width="179" height="35" viewBox="0 0 179 35" fill="none" xmlns="http://www.w3.org/2000/svg">
<circle cx="162.368" cy="17.4346" r="16.1316" stroke="#A6A6A6"/>
<g clip-path="url(#clip0_160_460)">
<path d="M163.414 16.7752C163.097 16.3311 162.577 16.0393 161.993 16.0393C161.41 16.0393 160.889 16.3311 160.572 16.7752C160.369 17.0671 160.242 17.4223 160.242 17.803C160.242 18.7673 161.029 19.554 161.993 19.554C162.957 19.554 163.744 18.7673 163.744 17.803C163.744 17.4223 163.617 17.0671 163.414 16.7752Z" fill="#A6A6A6"/>
<path d="M164.519 16.7878C164.646 17.0416 164.722 17.4476 164.722 17.8029C164.722 19.3001 163.504 20.5309 161.994 20.5309C160.484 20.5309 159.266 19.3128 159.266 17.8029C159.266 17.4349 159.342 17.0416 159.469 16.7878H157.934V20.8608C157.934 21.3937 158.403 21.8632 158.936 21.8632H165.052C165.585 21.8632 166.054 21.3937 166.054 20.8608V16.7878H164.519Z" fill="#A6A6A6"/>
<path d="M165.597 13.9709H164.125V15.6585H165.8V14.1866V13.9583L165.597 13.9709Z" fill="#A6A6A6"/>
<path d="M165.978 9.80933H158.01C155.802 9.80933 154 11.6111 154 13.8188V21.7998C154 23.9949 155.802 25.7966 158.01 25.7966H165.99C168.198 25.7966 170 23.9949 170 21.7871V13.8188C169.987 11.6111 168.186 9.80933 165.978 9.80933ZM166.942 16.7752V20.8609C166.942 21.9267 166.117 22.7514 165.052 22.7514H158.936C157.87 22.7514 157.045 21.9267 157.045 20.8609V16.7752V14.7451C157.045 13.6793 157.87 12.8545 158.936 12.8545H165.052C166.117 12.8545 166.942 13.6793 166.942 14.7451V16.7752Z" fill="#A6A6A6"/>
</g>
<circle cx="17.5788" cy="17.4348" r="16.1316" stroke="#A6A6A6"/>
<g clip-path="url(#clip1_160_460)">
<path d="M14.1643 18.3248H15.9182V25.5452C15.9182 25.6877 16.0337 25.8032 16.1762 25.8032H19.15C19.2925 25.8032 19.408 25.6877 19.408 25.5452V18.3588H21.4242C21.5553 18.3588 21.6656 18.2605 21.6806 18.1302L21.9868 15.4721C21.9952 15.3989 21.9721 15.3257 21.9231 15.2708C21.8741 15.2159 21.8041 15.1845 21.7305 15.1845H19.4081V13.5182C19.4081 13.0159 19.6786 12.7612 20.2121 12.7612C20.2881 12.7612 21.7305 12.7612 21.7305 12.7612C21.8731 12.7612 21.9886 12.6456 21.9886 12.5031V10.0632C21.9886 9.92064 21.8731 9.80513 21.7305 9.80513H19.6379C19.6231 9.80441 19.5903 9.80322 19.542 9.80322C19.1789 9.80322 17.9168 9.8745 16.9199 10.7917C15.8153 11.808 15.9688 13.025 16.0055 13.2359V15.1844H14.1643C14.0218 15.1844 13.9062 15.2999 13.9062 15.4425V18.0667C13.9062 18.2093 14.0218 18.3248 14.1643 18.3248Z" fill="#A6A6A6"/>
</g>
<circle cx="65.8415" cy="17.4346" r="16.1316" stroke="#A6A6A6"/>
<path d="M72.1305 13.7764C71.6523 13.9827 71.132 14.1311 70.5961 14.1889C71.1525 13.8584 71.5692 13.3361 71.768 12.7202C71.2458 13.0308 70.6738 13.2486 70.0773 13.3639C69.828 13.0974 69.5265 12.8851 69.1916 12.7402C68.8566 12.5953 68.4954 12.5209 68.1305 12.5217C66.6539 12.5217 65.4664 13.7186 65.4664 15.1874C65.4664 15.3936 65.4914 15.5999 65.532 15.7983C63.3211 15.6827 61.3492 14.6264 60.0383 13.0092C59.7994 13.4172 59.6742 13.8818 59.6758 14.3545C59.6758 15.2795 60.1461 16.0952 60.8633 16.5749C60.4406 16.5582 60.0279 16.442 59.6586 16.2358V16.2686C59.6586 17.5639 60.5742 18.6374 61.7945 18.8842C61.5654 18.9438 61.3297 18.9742 61.093 18.9749C60.9195 18.9749 60.7555 18.9577 60.5898 18.9342C60.9273 19.9905 61.9102 20.7577 63.0805 20.7827C62.1648 21.4999 61.018 21.9217 59.7727 21.9217C59.5492 21.9217 59.343 21.9139 59.1289 21.8889C60.3102 22.6467 61.7117 23.0842 63.2211 23.0842C68.1211 23.0842 70.8023 19.0249 70.8023 15.5014C70.8023 15.3858 70.8023 15.2702 70.7945 15.1545C71.3133 14.7749 71.768 14.3045 72.1305 13.7764Z" fill="#A6A6A6"/>
<circle cx="114.105" cy="17.4346" r="16.1316" stroke="#A6A6A6"/>
<g clip-path="url(#clip2_160_460)">
<path d="M116.416 15.4031C115.905 15.4013 115.398 15.5004 114.926 15.6945C114.453 15.8886 114.023 16.174 113.661 16.5344C113.299 16.8948 113.011 17.323 112.815 17.7947C112.618 18.2664 112.516 18.7721 112.516 19.2831V23.2031C112.516 23.3622 112.579 23.5148 112.691 23.6274C112.804 23.7399 112.956 23.8031 113.116 23.8031H114.516C114.675 23.8031 114.827 23.7399 114.94 23.6274C115.052 23.5148 115.116 23.3622 115.116 23.2031V19.2831C115.115 19.1014 115.154 18.9216 115.228 18.7557C115.302 18.5897 115.41 18.4411 115.545 18.3197C115.68 18.1983 115.84 18.1068 116.013 18.0511C116.186 17.9954 116.368 17.9768 116.549 17.9964C116.873 18.0372 117.171 18.1955 117.386 18.4413C117.601 18.6871 117.718 19.0032 117.716 19.3298V23.2031C117.716 23.3622 117.779 23.5148 117.891 23.6274C118.004 23.7399 118.156 23.8031 118.316 23.8031H119.716C119.875 23.8031 120.027 23.7399 120.14 23.6274C120.252 23.5148 120.316 23.3622 120.316 23.2031V19.2831C120.315 18.7721 120.213 18.2664 120.017 17.7947C119.82 17.323 119.532 16.8948 119.17 16.5344C118.808 16.174 118.378 15.8886 117.906 15.6945C117.433 15.5004 116.927 15.4013 116.416 15.4031Z" fill="#A6A6A6"/>
<path d="M110.715 16.0029H108.915C108.584 16.0029 108.315 16.2716 108.315 16.6029V23.2029C108.315 23.5343 108.584 23.8029 108.915 23.8029H110.715C111.047 23.8029 111.315 23.5343 111.315 23.2029V16.6029C111.315 16.2716 111.047 16.0029 110.715 16.0029Z" fill="#A6A6A6"/>
<path d="M109.815 14.803C110.644 14.803 111.315 14.1314 111.315 13.303C111.315 12.4746 110.644 11.803 109.815 11.803C108.987 11.803 108.315 12.4746 108.315 13.303C108.315 14.1314 108.987 14.803 109.815 14.803Z" fill="#A6A6A6"/>
</g>
<defs>
<clipPath id="clip0_160_460">
<rect width="16" height="16" fill="white" transform="translate(154 9.80298)"/>
</clipPath>
<clipPath id="clip1_160_460">
<rect width="16" height="16" fill="white" transform="translate(9.94727 9.80322)"/>
</clipPath>
<clipPath id="clip2_160_460">
<rect width="16" height="16" fill="white" transform="translate(106.315 9.80298)"/>
</clipPath>
</defs>
</svg>
