<svg width="179" height="34" viewBox="0 0 179 34" fill="none" xmlns="http://www.w3.org/2000/svg">
<circle cx="161.868" cy="17.1189" r="16.1316" stroke="#A6A6A6"/>
<g clip-path="url(#clip0_61_184)">
<path d="M162.915 16.4596C162.597 16.0155 162.077 15.7236 161.494 15.7236C160.91 15.7236 160.39 16.0155 160.072 16.4596C159.869 16.7514 159.743 17.1067 159.743 17.4873C159.743 18.4516 160.529 19.2383 161.494 19.2383C162.458 19.2383 163.245 18.4516 163.245 17.4873C163.245 17.1067 163.118 16.7514 162.915 16.4596Z" fill="#A6A6A6"/>
<path d="M164.019 16.4722C164.145 16.7259 164.222 17.132 164.222 17.4872C164.222 18.9845 163.003 20.2152 161.494 20.2152C159.984 20.2152 158.766 18.9971 158.766 17.4872C158.766 17.1193 158.842 16.7259 158.969 16.4722H157.433V20.5451C157.433 21.078 157.903 21.5475 158.436 21.5475H164.551C165.084 21.5475 165.554 21.078 165.554 20.5451V16.4722H164.019Z" fill="#A6A6A6"/>
<path d="M165.097 13.6553H163.625V15.3428H165.3V13.871V13.6426L165.097 13.6553Z" fill="#A6A6A6"/>
<path d="M165.478 9.49365H157.509C155.302 9.49365 153.5 11.2954 153.5 13.5032V21.4841C153.5 23.6792 155.302 25.481 157.509 25.481H165.49C167.698 25.481 169.5 23.6792 169.5 21.4714V13.5032C169.487 11.2954 167.685 9.49365 165.478 9.49365ZM166.442 16.4596V20.5452C166.442 21.611 165.617 22.4358 164.551 22.4358H158.436C157.37 22.4358 156.545 21.611 156.545 20.5452V16.4596V14.4294C156.545 13.3636 157.37 12.5389 158.436 12.5389H164.551C165.617 12.5389 166.442 13.3636 166.442 14.4294V16.4596Z" fill="#A6A6A6"/>
</g>
<circle cx="17.0788" cy="17.1189" r="16.1316" stroke="#A6A6A6"/>
<g clip-path="url(#clip1_61_184)">
<path d="M13.6642 18.0089H15.4181V25.2292C15.4181 25.3718 15.5336 25.4873 15.6761 25.4873H18.6498C18.7924 25.4873 18.9079 25.3718 18.9079 25.2292V18.0429H20.9241C21.0552 18.0429 21.1655 17.9445 21.1805 17.8143L21.4867 15.1562C21.4951 15.083 21.4719 15.0098 21.423 14.9549C21.374 14.9 21.3039 14.8686 21.2304 14.8686H18.908V13.2023C18.908 12.7 19.1785 12.4453 19.7119 12.4453C19.788 12.4453 21.2304 12.4453 21.2304 12.4453C21.3729 12.4453 21.4884 12.3297 21.4884 12.1872V9.74728C21.4884 9.60472 21.3729 9.48921 21.2304 9.48921H19.1377C19.123 9.48849 19.0902 9.4873 19.0419 9.4873C18.6788 9.4873 17.4167 9.55858 16.4198 10.4757C15.3151 11.4921 15.4687 12.709 15.5054 12.92V14.8685H13.6642C13.5216 14.8685 13.4061 14.984 13.4061 15.1266V17.7508C13.4061 17.8933 13.5216 18.0089 13.6642 18.0089Z" fill="#A6A6A6"/>
</g>
<circle cx="65.342" cy="17.1189" r="16.1316" stroke="#A6A6A6"/>
<path d="M71.6313 13.4607C71.1532 13.667 70.6329 13.8154 70.0969 13.8732C70.6534 13.5427 71.0701 13.0204 71.2688 12.4045C70.7467 12.7151 70.1747 12.9329 69.5782 13.0482C69.3289 12.7817 69.0274 12.5694 68.6924 12.4245C68.3575 12.2796 67.9963 12.2053 67.6313 12.2061C66.1548 12.2061 64.9673 13.4029 64.9673 14.8717C64.9673 15.0779 64.9923 15.2842 65.0329 15.4826C62.8219 15.367 60.8501 14.3107 59.5391 12.6936C59.3003 13.1016 59.1751 13.5661 59.1766 14.0389C59.1766 14.9639 59.6469 15.7795 60.3641 16.2592C59.9415 16.2425 59.5287 16.1264 59.1594 15.9201V15.9529C59.1594 17.2482 60.0751 18.3217 61.2954 18.5686C61.0663 18.6281 60.8306 18.6585 60.5938 18.6592C60.4204 18.6592 60.2563 18.642 60.0907 18.6186C60.4282 19.6748 61.411 20.442 62.5813 20.467C61.6657 21.1842 60.5188 21.6061 59.2735 21.6061C59.0501 21.6061 58.8438 21.5982 58.6298 21.5732C59.811 22.3311 61.2126 22.7686 62.7219 22.7686C67.6219 22.7686 70.3032 18.7092 70.3032 15.1857C70.3032 15.0701 70.3032 14.9545 70.2954 14.8389C70.8141 14.4592 71.2688 13.9889 71.6313 13.4607Z" fill="#A6A6A6"/>
<circle cx="113.605" cy="17.1189" r="16.1316" stroke="#A6A6A6"/>
<g clip-path="url(#clip2_61_184)">
<path d="M115.916 15.0874C115.405 15.0857 114.898 15.1847 114.426 15.3788C113.953 15.5729 113.523 15.8583 113.161 16.2187C112.799 16.5791 112.511 17.0074 112.315 17.479C112.118 17.9507 112.016 18.4565 112.016 18.9674V22.8874C112.016 23.0466 112.079 23.1992 112.191 23.3117C112.304 23.4242 112.456 23.4874 112.616 23.4874H114.016C114.175 23.4874 114.327 23.4242 114.44 23.3117C114.552 23.1992 114.616 23.0466 114.616 22.8874V18.9674C114.615 18.7857 114.654 18.606 114.728 18.44C114.802 18.274 114.91 18.1255 115.045 18.0041C115.18 17.8827 115.34 17.7911 115.513 17.7354C115.686 17.6797 115.868 17.6611 116.049 17.6808C116.373 17.7216 116.671 17.8799 116.886 18.1256C117.101 18.3714 117.218 18.6875 117.216 19.0141V22.8874C117.216 23.0466 117.279 23.1992 117.391 23.3117C117.504 23.4242 117.656 23.4874 117.816 23.4874H119.216C119.375 23.4874 119.527 23.4242 119.64 23.3117C119.752 23.1992 119.816 23.0466 119.816 22.8874V18.9674C119.815 18.4565 119.713 17.9507 119.517 17.479C119.32 17.0074 119.032 16.5791 118.67 16.2187C118.308 15.8583 117.878 15.5729 117.406 15.3788C116.933 15.1847 116.427 15.0857 115.916 15.0874Z" fill="#A6A6A6"/>
<path d="M110.216 15.6875H108.416C108.084 15.6875 107.816 15.9561 107.816 16.2875V22.8875C107.816 23.2189 108.084 23.4875 108.416 23.4875H110.216C110.547 23.4875 110.816 23.2189 110.816 22.8875V16.2875C110.816 15.9561 110.547 15.6875 110.216 15.6875Z" fill="#A6A6A6"/>
<path d="M109.316 14.4873C110.144 14.4873 110.816 13.8157 110.816 12.9873C110.816 12.1589 110.144 11.4873 109.316 11.4873C108.487 11.4873 107.816 12.1589 107.816 12.9873C107.816 13.8157 108.487 14.4873 109.316 14.4873Z" fill="#A6A6A6"/>
</g>
<defs>
<clipPath id="clip0_61_184">
<rect width="16" height="16" fill="white" transform="translate(153.5 9.4873)"/>
</clipPath>
<clipPath id="clip1_61_184">
<rect width="16" height="16" fill="white" transform="translate(9.44727 9.4873)"/>
</clipPath>
<clipPath id="clip2_61_184">
<rect width="16" height="16" fill="white" transform="translate(105.816 9.4873)"/>
</clipPath>
</defs>
</svg>
