<svg width="129" height="161" viewBox="0 0 129 161" fill="none" xmlns="http://www.w3.org/2000/svg">
<rect y="160.792" width="160" height="129" rx="20" transform="rotate(-90 0 160.792)" fill="#80C904"/>
<path d="M81.6645 90.6551L72.9814 99.3116C71.8689 100.42 70.3702 101.039 68.7995 101.039H45.9226C42.6523 101.039 40 98.3836 40 95.1097V60.7209C40 57.447 42.6523 54.7917 45.9226 54.7917H77.4826C80.7529 54.7917 83.4052 57.447 83.4052 60.7209V86.4532C83.4103 88.0308 82.782 89.5415 81.6645 90.6551Z" stroke="white" stroke-width="2.5" stroke-miterlimit="10"/>
<path d="M86.9279 96.1871L78.2448 104.844C77.1323 105.952 75.6336 106.571 74.0629 106.571H51.1912C47.9209 106.571 45.2686 103.916 45.2686 100.642V66.2528C45.2686 62.9789 47.9209 60.3237 51.1912 60.3237H82.7511C86.0214 60.3237 88.6737 62.9789 88.6737 66.2528V91.9851C88.6737 93.5628 88.0454 95.0734 86.9279 96.1871Z" fill="#80C904"/>
<path d="M53.7256 74.341C53.7256 73.6976 54.2471 73.176 54.8905 73.176H79.7424C80.3858 73.176 80.9073 73.6976 80.9073 74.341V74.341C80.9073 74.9843 80.3858 75.5059 79.7424 75.5059H54.8905C54.2471 75.5059 53.7256 74.9843 53.7256 74.341V74.341Z" fill="white"/>
<path d="M53.7256 79.7777C53.7256 79.1344 54.2471 78.6128 54.8905 78.6128H79.7424C80.3858 78.6128 80.9073 79.1344 80.9073 79.7777V79.7777C80.9073 80.4211 80.3858 80.9427 79.7424 80.9427H54.8905C54.2471 80.9427 53.7256 80.4211 53.7256 79.7777V79.7777Z" fill="white"/>
<path d="M53.7261 85.214C53.7261 84.5706 54.2476 84.0491 54.891 84.0491H79.7429C80.3863 84.0491 80.9078 84.5706 80.9078 85.214V85.214C80.9078 85.8574 80.3863 86.3789 79.7429 86.3789H54.891C54.2476 86.3789 53.7261 85.8574 53.7261 85.214V85.214Z" fill="white"/>
<path d="M53.7261 90.6503C53.7261 90.0069 54.2476 89.4854 54.891 89.4854H67.317C67.9603 89.4854 68.4819 90.0069 68.4819 90.6503V90.6503C68.4819 91.2937 67.9603 91.8152 67.317 91.8152H54.891C54.2476 91.8152 53.7261 91.2937 53.7261 90.6503V90.6503Z" fill="white"/>
</svg>
