<svg width="129" height="161" viewBox="0 0 129 161" fill="none" xmlns="http://www.w3.org/2000/svg">
<rect y="160.292" width="160" height="129" rx="20" transform="rotate(-90 0 160.292)" fill="#80C904"/>
<path d="M89.1617 109.259C92.2443 109.259 94.4919 106.37 93.7598 103.384C91.1176 92.6257 81.3723 84.6365 69.7569 84.6365C58.1414 84.6365 48.3904 92.6257 45.7539 103.39C45.0219 106.376 47.2695 109.259 50.352 109.259H89.1617Z" stroke="white" stroke-width="2.5" stroke-miterlimit="10"/>
<path d="M69.7565 79.2571C77.1507 79.2571 83.1449 73.2845 83.1449 65.917C83.1449 58.5495 77.1507 52.5769 69.7565 52.5769C62.3623 52.5769 56.3682 58.5495 56.3682 65.917C56.3682 73.2845 62.3623 79.2571 69.7565 79.2571Z" stroke="white" stroke-width="2.5" stroke-miterlimit="10"/>
</svg>
