<svg width="129" height="161" viewBox="0 0 129 161" fill="none" xmlns="http://www.w3.org/2000/svg">
<rect y="160.792" width="160" height="129" rx="20" transform="rotate(-90 0 160.792)" fill="#80C904"/>
<path d="M64.6494 82.4892C71.5303 82.4892 77.1084 76.9112 77.1084 70.0303C77.1084 63.1494 71.5303 57.5713 64.6494 57.5713C57.7685 57.5713 52.1904 63.1494 52.1904 70.0303C52.1904 76.9112 57.7685 82.4892 64.6494 82.4892Z" fill="#80C904"/>
<path d="M85.8692 70.1225C85.8692 72.2132 81.7639 73.6229 81.1518 75.5077C80.5185 77.4612 82.9881 81.0144 81.8061 82.6405C80.6135 84.2824 76.4607 83.0259 74.8196 84.2191C73.1943 85.4017 73.1152 89.7468 71.1628 90.3804C69.2789 90.9928 66.6722 87.5452 64.5826 87.5452C62.493 87.5452 59.8862 90.9928 58.0024 90.3804C56.05 89.7468 55.9708 85.4017 54.3455 84.2191C52.7045 83.0259 48.5516 84.2824 47.359 82.6405C46.177 81.0144 48.6466 77.4612 48.0134 75.5077C47.4013 73.6229 43.2959 72.208 43.2959 70.1225C43.2959 68.0371 47.4013 66.6221 48.0134 64.7373C48.6466 62.7839 46.177 59.2307 47.359 57.6046C48.5516 55.9626 52.7045 57.2191 54.3455 56.026C55.9708 54.8433 56.05 50.4982 58.0024 49.8646C59.8862 49.2522 62.493 52.6998 64.5826 52.6998C66.6722 52.6998 69.2789 49.2522 71.1628 49.8646C73.1152 50.4982 73.1943 54.8433 74.8196 56.026C76.4607 57.2191 80.6135 55.9626 81.8061 57.6046C82.9881 59.2307 80.5185 62.7839 81.1518 64.7373C81.7586 66.6169 85.8692 68.0318 85.8692 70.1225Z" stroke="white" stroke-width="2.5" stroke-miterlimit="10"/>
<path d="M64.2505 91.2726L73.1736 111.668C73.7699 113.03 75.6167 113.183 76.0758 111.911L77.5481 107.016C77.833 106.219 78.7512 105.908 79.5744 106.33L84.3815 109.049C85.6955 109.72 86.9408 108.532 86.3498 107.175L75.9808 83.4746" stroke="white" stroke-width="2.5" stroke-miterlimit="10"/>
<path d="M65.7384 87.8725L55.3272 111.668C54.731 113.03 52.8841 113.183 52.425 111.911L50.9528 107.016C50.6678 106.219 49.7497 105.908 48.9265 106.33L44.1193 109.049C42.8054 109.72 41.56 108.532 42.151 107.175L52.5253 83.4746" stroke="white" stroke-width="2.5" stroke-miterlimit="10"/>
</svg>
