<svg width="129" height="161" viewBox="0 0 129 161" fill="none" xmlns="http://www.w3.org/2000/svg">
<rect y="160.292" width="160" height="129" rx="20" transform="rotate(-90 0 160.292)" fill="#80C904"/>
<path d="M89.1213 69.385C89.1213 54.7966 76.9173 43.0893 62.27 44.1215C49.969 44.9839 39.9822 55.0187 39.0708 67.4512C38.2693 78.4007 44.3518 88.0043 53.4014 92.3097C54.7588 92.9564 55.625 94.3349 55.625 95.8506V101.855V106.388C55.625 110.766 58.7988 114.607 63.1038 115.091C68.191 115.659 72.5024 111.648 72.5024 106.617V95.8506C72.5024 94.3349 73.3751 92.9564 74.7325 92.3097C83.2326 88.2526 89.1213 79.5179 89.1213 69.385Z" stroke="white" stroke-width="2.5" stroke-miterlimit="10"/>
<path d="M72.4961 101.508H55.6187" stroke="white" stroke-width="2.5" stroke-miterlimit="10"/>
<path d="M64.0606 71.2454C59.1544 71.2454 55.1597 75.2828 55.1597 80.2414V85.481C57.7646 87.0489 60.8092 87.957 64.0606 87.957C67.3119 87.957 70.3565 87.0555 72.9614 85.481V80.2414C72.9614 75.2828 68.9667 71.2454 64.0606 71.2454Z" fill="#80C904"/>
<path d="M50.7705 80.2413C50.7705 72.8328 56.7303 66.8093 64.0604 66.8093C71.3906 66.8093 77.3503 72.8328 77.3503 80.2413V81.7244C79.923 78.6538 81.4743 74.6882 81.4743 70.3568C81.4743 60.6355 73.6788 52.7566 64.0604 52.7566C54.442 52.7566 46.6465 60.6355 46.6465 70.3568C46.6465 74.6947 48.1978 78.6603 50.7705 81.7244V80.2413V80.2413Z" fill="#80C904"/>
</svg>
