<svg width="65" height="56" viewBox="0 0 65 56" fill="none" xmlns="http://www.w3.org/2000/svg">
<path d="M20.5154 31.5063C20.5154 31.6119 20.5269 31.7121 20.5439 31.8049H4.56648C3.55449 31.8049 3.05618 31.6274 2.81491 31.4405C2.60816 31.2803 2.52344 31.0594 2.52344 30.7077C2.52344 30.3561 2.60816 30.1352 2.81491 29.975C3.05618 29.7881 3.55449 29.6105 4.56648 29.6105H13.4186H20.5154V31.5063ZM12.1633 16.833H20.4844C20.484 16.8558 20.4837 16.8789 20.4834 16.9024C20.4798 17.1998 20.4822 17.5701 20.487 17.9367C20.4922 18.3395 20.5001 18.7309 20.5062 19.0274H12.1633C11.1556 19.0274 10.6567 18.8501 10.4141 18.6626C10.2057 18.5016 10.1202 18.2798 10.1202 17.9302C10.1202 17.5806 10.2057 17.3588 10.4141 17.1978C10.6567 17.0103 11.1556 16.833 12.1633 16.833ZM6.32184 24.319C6.32184 23.9693 6.40731 23.7476 6.61567 23.5866C6.8583 23.3991 7.35723 23.2218 8.36488 23.2218H20.5154V25.4162H8.36488C7.35723 25.4162 6.8583 25.2388 6.61567 25.0514C6.40731 24.8903 6.32184 24.6686 6.32184 24.319Z" fill="#80C904" stroke="#80C904"/>
<g clip-path="url(#clip0_187_593)">
<path d="M59.4281 8.00195H25.9836C25.35 8.00195 24.7424 8.25949 24.2944 8.71791C23.8464 9.17634 23.5947 9.79809 23.5947 10.4464V34.8908C23.5947 35.5391 23.8464 36.1609 24.2944 36.6193C24.7424 37.0777 25.35 37.3353 25.9836 37.3353H59.4281C60.0616 37.3353 60.6693 37.0777 61.1173 36.6193C61.5653 36.1609 61.8169 35.5391 61.8169 34.8908V10.4464C61.8169 9.79809 61.5653 9.17634 61.1173 8.71791C60.6693 8.25949 60.0616 8.00195 59.4281 8.00195V8.00195ZM57.5886 34.8908H27.9664L36.3275 26.042L34.6075 24.3431L25.9836 33.4731V12.3042L40.8306 27.4231C41.2781 27.8783 41.8836 28.1339 42.5147 28.1339C43.1458 28.1339 43.7513 27.8783 44.1989 27.4231L59.4281 11.9253V33.3142L50.6369 24.3186L48.9528 26.042L57.5886 34.8908ZM27.5483 10.4464H57.4931L42.5147 25.6875L27.5483 10.4464Z" fill="#80C904"/>
</g>
<defs>
<clipPath id="clip0_187_593">
<rect width="43" height="44" fill="white" transform="translate(21.2061 0.668945)"/>
</clipPath>
</defs>
</svg>
