<svg width="65" height="56" viewBox="0 0 65 56" fill="none" xmlns="http://www.w3.org/2000/svg">
<path d="M20.5158 31.5066C20.5158 31.6122 20.5272 31.7123 20.5443 31.8052H4.56681C3.55482 31.8052 3.05652 31.6277 2.81524 31.4407C2.6085 31.2806 2.52378 31.0596 2.52378 30.708C2.52378 30.3564 2.6085 30.1354 2.81524 29.9752C3.05652 29.7883 3.55482 29.6108 4.56681 29.6108H13.419H20.5158V31.5066ZM12.1636 16.8333H20.4847C20.4844 16.856 20.484 16.8791 20.4837 16.9026C20.4801 17.2 20.4826 17.5704 20.4873 17.9369C20.4925 18.3397 20.5004 18.7312 20.5065 19.0276H12.1636C11.156 19.0276 10.657 18.8503 10.4144 18.6628C10.206 18.5018 10.1206 18.2801 10.1206 17.9304C10.1206 17.5808 10.206 17.3591 10.4144 17.1981C10.657 17.0106 11.156 16.8333 12.1636 16.8333ZM6.32217 24.3192C6.32217 23.9696 6.40764 23.7478 6.616 23.5868C6.85863 23.3993 7.35757 23.222 8.36521 23.222H20.5158V25.4164H8.36521C7.35757 25.4164 6.85863 25.2391 6.616 25.0516C6.40764 24.8906 6.32217 24.6688 6.32217 24.3192Z" fill="#80C904" stroke="#80C904"/>
<g clip-path="url(#clip0_61_337)">
<path d="M59.4279 8.0022H25.9835C25.3499 8.0022 24.7423 8.25974 24.2943 8.71816C23.8463 9.17658 23.5946 9.79833 23.5946 10.4466V34.8911C23.5946 35.5394 23.8463 36.1611 24.2943 36.6196C24.7423 37.078 25.3499 37.3355 25.9835 37.3355H59.4279C60.0615 37.3355 60.6691 37.078 61.1171 36.6196C61.5651 36.1611 61.8168 35.5394 61.8168 34.8911V10.4466C61.8168 9.79833 61.5651 9.17658 61.1171 8.71816C60.6691 8.25974 60.0615 8.0022 59.4279 8.0022V8.0022ZM57.5885 34.8911H27.9662L36.3274 26.0422L34.6074 24.3433L25.9835 33.4733V12.3044L40.8304 27.4233C41.278 27.8786 41.8835 28.1341 42.5146 28.1341C43.1457 28.1341 43.7512 27.8786 44.1987 27.4233L59.4279 11.9255V33.3144L50.6368 24.3189L48.9526 26.0422L57.5885 34.8911ZM27.5482 10.4466H57.4929L42.5146 25.6878L27.5482 10.4466Z" fill="#80C904"/>
</g>
<defs>
<clipPath id="clip0_61_337">
<rect width="43" height="44" fill="white" transform="translate(21.2057 0.668945)"/>
</clipPath>
</defs>
</svg>
