<svg width="22" height="23" viewBox="0 0 22 23" fill="none" xmlns="http://www.w3.org/2000/svg">
<path d="M20.8881 16.256V19.256C20.8892 19.5345 20.8322 19.8101 20.7206 20.0653C20.6091 20.3205 20.4454 20.5496 20.2402 20.7378C20.035 20.9261 19.7927 21.0695 19.5289 21.1587C19.265 21.2479 18.9855 21.281 18.7081 21.256C15.631 20.9216 12.6751 19.8701 10.0781 18.186C7.66194 16.6506 5.61345 14.6021 4.07812 12.186C2.38809 9.57718 1.33636 6.60697 1.00812 3.51597C0.983127 3.23944 1.01599 2.96073 1.10462 2.6976C1.19324 2.43446 1.33569 2.19266 1.52288 1.98759C1.71008 1.78253 1.93792 1.61868 2.19191 1.5065C2.44589 1.39431 2.72046 1.33623 2.99812 1.33597H5.99812C6.48342 1.3312 6.95391 1.50305 7.32188 1.81951C7.68985 2.13596 7.93019 2.57542 7.99812 3.05597C8.12474 4.01604 8.35957 4.9587 8.69812 5.86597C8.83266 6.2239 8.86178 6.61289 8.78202 6.98685C8.70227 7.36082 8.51698 7.70408 8.24812 7.97597L6.97812 9.24597C8.40167 11.7495 10.4746 13.8224 12.9781 15.246L14.2481 13.976C14.52 13.7071 14.8633 13.5218 15.2372 13.4421C15.6112 13.3623 16.0002 13.3914 16.3581 13.526C17.2654 13.8645 18.2081 14.0994 19.1681 14.226C19.6539 14.2945 20.0975 14.5392 20.4146 14.9135C20.7318 15.2878 20.9003 15.7655 20.8881 16.256Z" stroke="#80C904" stroke-width="2" stroke-linecap="round" stroke-linejoin="round"/>
</svg>
