<svg width="16" height="20" viewBox="0 0 16 20" fill="none" xmlns="http://www.w3.org/2000/svg">
<path d="M8.44376 7.14215L7.10112 8.40401C7.27705 9.03878 7.52509 9.65053 7.84022 10.2269C8.16672 10.7965 8.5609 11.3231 9.01387 11.7948L10.7539 11.2337C11.2308 11.0808 11.7419 11.077 12.221 11.2228C12.7001 11.3686 13.1251 11.6574 13.4411 12.0517L14.4327 13.2833C14.8352 13.7833 15.036 14.4201 14.9947 15.065C14.9533 15.7098 14.6728 16.3147 14.2099 16.7572C12.5942 18.2986 10.104 18.8219 8.23948 17.2899C6.59437 15.9315 5.20888 14.2769 4.15213 12.4087C3.08302 10.5356 2.36931 8.47482 2.0481 6.33366C1.68969 3.91573 3.38332 1.98138 5.49106 1.32023C6.0987 1.13112 6.75444 1.18564 7.32383 1.4726C7.89322 1.75956 8.33311 2.25722 8.55332 2.86355L9.09744 4.35209C9.27303 4.83047 9.30482 5.35117 9.18875 5.84798C9.07268 6.34479 8.81401 6.79527 8.44561 7.14215H8.44376Z" stroke="#80C904" stroke-width="2"/>
</svg>
