<svg width="8" height="8" viewBox="0 0 8 8" fill="none" xmlns="http://www.w3.org/2000/svg">
<path d="M7.18541 2.82528C6.96851 2.09221 6.52909 1.44662 5.92929 0.979811C5.3295 0.513001 4.59968 0.2486 3.84307 0.224002C3.06838 0.217464 2.31279 0.46696 1.69133 0.934509C1.06987 1.40206 0.616582 2.06205 0.400465 2.81402C0.167027 3.53743 0.17705 4.31859 0.428974 5.03564C0.680898 5.75268 1.16055 6.36528 1.79311 6.77786L2.63983 7.40847H4.86805L5.71478 6.77786C6.36769 6.38589 6.86908 5.78088 7.13639 5.06244C7.4037 4.344 7.42099 3.55497 7.18541 2.82528V2.82528ZM3.84307 5.07746C3.16346 4.94233 2.65097 4.59324 2.63983 3.87254C2.63116 3.71107 2.657 3.5496 2.71559 3.39913C2.77418 3.24865 2.86415 3.1127 2.97937 3.00051C3.09459 2.88832 3.23237 2.80253 3.38333 2.74897C3.53429 2.69542 3.69489 2.67535 3.85421 2.69015C4.00732 2.68977 4.15886 2.72129 4.29938 2.78274C4.43989 2.8442 4.56637 2.93427 4.67092 3.04733C4.77546 3.1604 4.85583 3.29403 4.907 3.43988C4.95817 3.58574 4.97904 3.74069 4.96832 3.89506C4.95718 4.58198 4.46697 4.94233 3.80965 5.07746H3.84307Z" fill="#F9FBFC"/>
</svg>
