<svg width="16" height="17" viewBox="0 0 16 17" fill="none" xmlns="http://www.w3.org/2000/svg">
<path d="M13.6 1.85171H12V1.05171C12 0.839536 11.9157 0.636053 11.7657 0.486024C11.6157 0.335994 11.4122 0.251709 11.2 0.251709C10.9878 0.251709 10.7843 0.335994 10.6343 0.486024C10.4843 0.636053 10.4 0.839536 10.4 1.05171V1.85171H5.6V1.05171C5.6 0.839536 5.51571 0.636053 5.36569 0.486024C5.21566 0.335994 5.01217 0.251709 4.8 0.251709C4.58783 0.251709 4.38434 0.335994 4.23431 0.486024C4.08429 0.636053 4 0.839536 4 1.05171V1.85171H2.4C1.76348 1.85171 1.15303 2.10457 0.702944 2.55465C0.252856 3.00474 0 3.61519 0 4.25171V13.8517C0 14.4882 0.252856 15.0987 0.702944 15.5488C1.15303 15.9989 1.76348 16.2517 2.4 16.2517H13.6C14.2365 16.2517 14.847 15.9989 15.2971 15.5488C15.7471 15.0987 16 14.4882 16 13.8517V4.25171C16 3.61519 15.7471 3.00474 15.2971 2.55465C14.847 2.10457 14.2365 1.85171 13.6 1.85171V1.85171ZM14.4 13.8517C14.4 14.0639 14.3157 14.2674 14.1657 14.4174C14.0157 14.5674 13.8122 14.6517 13.6 14.6517H2.4C2.18783 14.6517 1.98434 14.5674 1.83431 14.4174C1.68429 14.2674 1.6 14.0639 1.6 13.8517V8.25171H14.4V13.8517ZM14.4 6.65171H1.6V4.25171C1.6 4.03954 1.68429 3.83605 1.83431 3.68602C1.98434 3.53599 2.18783 3.45171 2.4 3.45171H4V4.25171C4 4.46388 4.08429 4.66737 4.23431 4.81739C4.38434 4.96742 4.58783 5.05171 4.8 5.05171C5.01217 5.05171 5.21566 4.96742 5.36569 4.81739C5.51571 4.66737 5.6 4.46388 5.6 4.25171V3.45171H10.4V4.25171C10.4 4.46388 10.4843 4.66737 10.6343 4.81739C10.7843 4.96742 10.9878 5.05171 11.2 5.05171C11.4122 5.05171 11.6157 4.96742 11.7657 4.81739C11.9157 4.66737 12 4.46388 12 4.25171V3.45171H13.6C13.8122 3.45171 14.0157 3.53599 14.1657 3.68602C14.3157 3.83605 14.4 4.03954 14.4 4.25171V6.65171Z" fill="#80C904"/>
</svg>
