<svg width="80" height="66" viewBox="0 0 80 66" fill="none" xmlns="http://www.w3.org/2000/svg">
<path d="M77.7504 40.4624C79.9007 37.3318 79.611 34.2351 77.5276 31.2171C77.1486 30.6837 76.9565 30.0378 76.9817 29.3816C76.9817 25.5304 75.8676 22.276 72.0462 20.6656C71.4111 20.4066 71.478 19.9449 71.4 19.5395C70.5644 14.81 68.3028 12.4001 63.6012 11.3303C63.2113 11.2402 62.8548 11.2515 62.6431 10.7785C61.0388 7.22009 58.0641 5.98139 54.4321 5.94761C54.2108 5.95592 53.9914 5.90512 53.7958 5.80033C53.6002 5.69555 53.4354 5.54049 53.318 5.35078C50.1093 1.49203 46.3213 0.741306 41.954 3.09859C41.5195 3.33507 41.241 3.48146 40.8399 2.98598C40.2553 2.29001 39.5371 1.72102 38.7289 1.31338C37.9206 0.905739 37.039 0.667901 36.1373 0.614226C35.2355 0.56055 34.3324 0.692154 33.4824 1.00109C32.6324 1.31002 31.8531 1.78988 31.1917 2.41168C29.6654 4.03325 28.6181 3.81929 26.8244 3.05355C18.7471 -0.403556 10.77 4.32603 9.58906 13.1884C9.51107 13.819 9.1657 13.9654 8.74233 14.2019C7.07046 15.0239 5.70437 16.3674 4.84576 18.0342C3.98714 19.7009 3.68149 21.6026 3.97394 23.4584C4.05519 23.7934 4.0263 24.146 3.89162 24.463C3.75694 24.7799 3.52381 25.0439 3.22748 25.2151C-0.203982 27.6587 -1.67461 34.967 2.75956 38.289C3.34059 38.6921 3.80412 39.2453 4.10195 39.8909C4.39977 40.5365 4.52099 41.251 4.453 41.9601C4.51985 47.9058 8.99858 52.1962 15.1596 50.8675C15.5986 50.8013 16.0338 50.7111 16.4631 50.5972C17.0648 50.417 17.399 50.4846 17.6664 51.1715C20.084 57.3425 25.5988 60.7771 33.4533 59.5158C35.3473 59.2118 35.5033 58.9978 35.5033 57.0947C35.5033 51.0364 35.5033 44.978 35.5033 38.9196C35.5033 38.3566 35.4253 37.8723 36.0826 37.4557C36.7801 37.0867 37.3227 36.4761 37.6112 35.7358C37.8996 34.9955 37.9147 34.1749 37.6535 33.4243C37.4262 32.7068 36.9808 32.0801 36.3808 31.6333C35.7807 31.1865 35.0565 30.9424 34.3112 30.9356C33.573 30.9458 32.856 31.186 32.2578 31.6233C31.6596 32.0606 31.2095 32.6738 30.9689 33.3792C30.7292 34.1357 30.7608 34.9533 31.0583 35.6885C31.3557 36.4237 31.9 37.0295 32.5955 37.3994C32.7956 37.5075 32.9614 37.6705 33.0738 37.8698C33.1862 38.069 33.2405 38.2963 33.2305 38.5255C33.2305 44.3136 33.2305 50.1017 33.2305 55.8898C33.2305 56.6105 33.0523 56.8583 32.3058 56.9484C26.0222 57.7366 21.5435 54.8876 19.6495 48.8292C19.215 47.4329 18.8473 47.2414 17.4213 47.613C16.5188 47.8383 15.6164 48.086 14.7028 48.2324C10.0793 48.9306 6.90405 46.3856 7.1603 41.6673C7.27171 39.1899 6.84834 37.6809 4.59784 36.2958C1.76799 34.5504 1.94625 29.5393 4.59784 27.5686C5.56711 30.3726 7.31627 32.2869 10.3689 32.591C10.7325 32.5979 11.0894 32.6912 11.4107 32.8634C11.7319 33.0355 12.0086 33.2817 12.2184 33.5819C12.7027 34.1782 13.3687 34.5955 14.1125 34.7687C14.8563 34.9419 15.6359 34.8611 16.3294 34.5391C16.9815 34.2416 17.5264 33.7475 17.8894 33.1244C18.2525 32.5014 18.4159 31.7801 18.3571 31.0595C18.2744 30.2965 17.9551 29.5796 17.4448 29.0112C16.9345 28.4428 16.2594 28.0522 15.5161 27.8952C14.7906 27.7666 14.0435 27.8714 13.3799 28.1946C12.7164 28.5178 12.1699 29.0432 11.8173 29.6969C11.5722 30.1136 11.5722 30.823 10.7032 30.4739C9.72629 30.1791 8.84819 29.6189 8.16455 28.8544C7.4809 28.09 7.01792 27.1505 6.82606 26.1385C6.64982 24.9486 6.54564 23.7489 6.51411 22.5462C6.34729 21.1005 6.70789 19.6429 7.5283 18.4468C8.34872 17.2506 9.57262 16.3979 10.9706 16.0487C11.176 16.006 11.3708 15.9223 11.5437 15.8024C11.7166 15.6824 11.864 15.5287 11.9771 15.3503C12.0903 15.1719 12.167 14.9724 12.2027 14.7635C12.2384 14.5547 12.2324 14.3408 12.1849 14.1343C12.0376 12.6094 12.3482 11.0751 13.0762 9.73128C15.4827 5.02421 20.719 3.29003 26.0334 5.44087C28.0276 6.25165 28.0165 6.25165 27.2812 8.17727C27.1198 8.54322 26.9821 8.91938 26.8689 9.30336C26.7927 9.75892 26.6249 10.1938 26.3757 10.5812C26.1266 10.9686 25.8015 11.3002 25.4206 11.5555C24.8687 11.9461 24.4602 12.5103 24.2587 13.16C24.0572 13.8098 24.074 14.5087 24.3065 15.1478C24.4939 15.8436 24.8968 16.4606 25.4561 16.9084C26.0154 17.3562 26.7018 17.6113 27.4149 17.6365C28.1279 17.7168 28.8477 17.5631 29.4676 17.1981C30.0876 16.8331 30.5749 16.2761 30.8575 15.6095C31.1573 14.9281 31.2303 14.1668 31.0656 13.4398C30.9009 12.7129 30.5073 12.0596 29.9439 11.5781C29.5651 11.229 29.0303 11.0488 29.2754 10.3056C29.9065 8.11002 31.0531 6.10111 32.6178 4.4499C33.0811 3.96384 33.6494 3.5926 34.2782 3.36514C34.9069 3.13769 35.5792 3.06018 36.2425 3.13867C36.9058 3.21716 37.5421 3.44952 38.1019 3.81762C38.6617 4.18572 39.1298 4.67959 39.4695 5.26069C40.3831 7.06244 40.7619 7.15253 42.3105 5.91383C45.742 3.16616 49.53 3.80803 51.8362 7.56918C51.9847 7.8921 52.231 8.15891 52.5394 8.33098C52.8478 8.50306 53.2025 8.57148 53.5519 8.52636C54.1269 8.48697 54.7038 8.48697 55.2788 8.52636C56.496 8.48725 57.6892 8.87363 58.6573 9.62034C59.6255 10.367 60.3091 11.4284 60.5931 12.6253C60.6996 12.9615 60.9117 13.2534 61.1973 13.4566C61.4828 13.6598 61.8261 13.7633 62.1752 13.7514C66.821 14.382 68.6593 16.409 68.8598 21.1836C68.8257 21.5877 68.9503 21.9892 69.2068 22.3011C69.4632 22.613 69.8309 22.8103 70.2302 22.8503C71.2055 23.0144 72.0991 23.5016 72.7704 24.2354C73.4069 24.9903 73.8756 25.8747 74.1447 26.8286C74.4138 27.7825 74.477 28.7837 74.3301 29.7645C74.2788 30.2453 74.3265 30.7317 74.4703 31.1929C74.6141 31.6542 74.8509 32.0804 75.1657 32.4446C75.9139 33.236 76.393 34.248 76.5332 35.3335C76.6735 36.4189 76.4676 37.5213 75.9456 38.4804C74.5609 36.52 72.5757 35.0755 70.297 34.3702C69.7734 34.2125 69.8402 33.8522 69.7957 33.4355C69.7704 32.9416 69.6411 32.4588 69.4166 32.0193C69.1921 31.5798 68.8775 31.1937 68.4938 30.8868C68.11 30.5799 67.6659 30.3592 67.1911 30.2395C66.7163 30.1197 66.2217 30.1037 65.7403 30.1924C65.2586 30.2757 64.7997 30.4611 64.3939 30.7364C63.9881 31.0116 63.6444 31.3706 63.3856 31.7896C63.1268 32.2086 62.9586 32.6783 62.892 33.1676C62.8255 33.657 62.8622 34.1551 62.9996 34.6292C63.1282 35.107 63.3572 35.5513 63.6709 35.9316C63.9847 36.3119 64.3759 36.6194 64.8178 36.8332C65.2598 37.0469 65.7421 37.1619 66.232 37.1702C66.7219 37.1785 67.2078 37.08 67.6566 36.8814C67.996 36.7329 68.3619 36.6564 68.7317 36.6564C69.1015 36.6564 69.4674 36.7329 69.8068 36.8814C71.3444 37.4427 72.6948 38.4299 73.7035 39.7303C74.7122 41.0306 75.3386 42.5916 75.5111 44.2348C76.3021 49.077 72.8038 54.5836 68.1356 56.2051C67.4574 56.4169 66.7648 56.5787 66.0634 56.6893C65.4952 56.8132 65.1833 56.6893 65.1053 55.9686C65.0496 54.9674 64.7303 53.9994 64.1806 53.1647C63.9348 52.8746 63.781 52.5165 63.7393 52.1369C63.6976 51.7574 63.7698 51.3739 63.9466 51.0364C64.1176 50.5777 64.1878 50.0869 64.1524 49.5981C64.117 49.1093 63.9768 48.6341 63.7414 48.2055C63.5061 47.777 63.1813 47.4053 62.7897 47.1163C62.398 46.8273 61.9488 46.6279 61.4733 46.532C61.008 46.4255 60.5262 46.4154 60.057 46.5022C59.5877 46.5891 59.1408 46.7711 58.7431 47.0374C58.3453 47.3036 58.0051 47.6486 57.7429 48.0514C57.4807 48.4542 57.3019 48.9065 57.2174 49.381C57.1134 49.8433 57.1095 50.3228 57.206 50.7867C57.3025 51.2506 57.4971 51.6879 57.7765 52.0686C58.0559 52.4494 58.4134 52.7646 58.8245 52.9927C59.2357 53.2207 59.6908 53.3562 60.1586 53.3899C61.4955 53.3899 61.9189 54.1219 62.2977 55.1241C63.4118 58.0407 62.5428 60.2478 59.6684 61.4415C57.0839 62.4551 54.2691 62.7127 51.5465 62.1847C48.2042 61.6442 46.8784 60.0451 46.8672 56.5542C46.8672 48.1198 46.8672 39.6628 46.8672 31.2622C46.8402 31.004 46.8905 30.7435 47.0117 30.5146C47.1329 30.2857 47.3193 30.0989 47.5469 29.9784C48.1766 29.6277 48.6741 29.0766 48.9622 28.4107C49.2502 27.7449 49.3128 27.0016 49.14 26.2961C48.9887 25.5402 48.594 24.8563 48.0176 24.3511C47.4411 23.8459 46.7154 23.5478 45.9537 23.5034C45.2156 23.4571 44.4822 23.6507 43.8607 24.056C43.2393 24.4612 42.7625 25.0568 42.4999 25.7556C42.2149 26.4641 42.1697 27.248 42.3712 27.9853C42.5727 28.7226 43.0096 29.3718 43.614 29.832C44.0485 30.1699 44.5833 30.3163 44.5722 31.1045C44.5722 39.7529 44.5722 48.4126 44.5722 57.0722C44.5722 60.8784 46.2768 63.5022 49.9533 64.4594C53.2588 65.3247 56.7416 65.2035 59.9803 64.1103C61.0379 63.8268 62.0224 63.3158 62.8665 62.6123C63.7106 61.9087 64.3945 61.0292 64.8713 60.0338C65.1275 59.4483 65.5398 59.3469 66.1191 59.2906C68.087 59.0428 69.9782 58.3662 71.6622 57.3076C73.3462 56.2489 74.7828 54.8335 75.8728 53.1589C76.9628 51.4844 77.6802 49.5907 77.9755 47.6086C78.2709 45.6265 78.137 43.6033 77.5833 41.6785C77.5008 41.4793 77.4727 41.2613 77.5021 41.0473C77.5315 40.8334 77.6173 40.6313 77.7504 40.4624V40.4624ZM33.186 34.4265C33.1746 34.2599 33.2 34.0928 33.2604 33.9373C33.3208 33.7819 33.4147 33.642 33.5352 33.5277C33.6557 33.4135 33.7999 33.3277 33.9572 33.2767C34.1145 33.2257 34.2811 33.2107 34.4449 33.2328C34.6137 33.2171 34.7838 33.2405 34.9423 33.3012C35.1008 33.3619 35.2435 33.4584 35.3595 33.5833C35.4755 33.7081 35.5618 33.8581 35.6119 34.0218C35.6619 34.1855 35.6743 34.3586 35.6481 34.5278C35.6481 35.3386 35.1022 35.6539 34.3558 35.7665C34.1879 35.764 34.0224 35.7267 33.8694 35.6568C33.7164 35.587 33.5792 35.4861 33.4664 35.3605C33.3536 35.2348 33.2675 35.0871 33.2135 34.9264C33.1595 34.7658 33.1388 34.5956 33.1525 34.4265H33.186ZM14.8811 30.2262C15.0465 30.2099 15.2134 30.2313 15.3696 30.2887C15.5257 30.3462 15.6672 30.4382 15.7836 30.558C15.9001 30.6778 15.9885 30.8225 16.0425 30.9814C16.0964 31.1402 16.1145 31.3093 16.0955 31.4761C16.114 31.6463 16.0939 31.8185 16.0366 31.9797C15.9794 32.1408 15.8865 32.2867 15.7652 32.4061C15.6438 32.5255 15.497 32.6154 15.3361 32.6689C15.1752 32.7224 15.0044 32.7381 14.8365 32.7148C14.6859 32.7329 14.5332 32.7163 14.3899 32.6661C14.2465 32.6159 14.1163 32.5335 14.0091 32.4251C13.9018 32.3167 13.8203 32.1851 13.7706 32.0402C13.721 31.8953 13.7045 31.741 13.7224 31.5887C13.6868 31.4215 13.6893 31.2482 13.7298 31.0821C13.7704 30.916 13.8478 30.7614 13.9563 30.6301C14.0647 30.4987 14.2014 30.3941 14.3558 30.3241C14.5103 30.2541 14.6785 30.2206 14.8477 30.2262H14.8811ZM27.6711 15.4969C27.5034 15.5217 27.3324 15.5076 27.171 15.4556C27.0096 15.4035 26.862 15.315 26.7395 15.1966C26.6171 15.0783 26.5229 14.9332 26.4643 14.7726C26.4056 14.6119 26.384 14.4398 26.401 14.2694C26.3798 14.1007 26.3968 13.9292 26.4505 13.768C26.5043 13.6068 26.5935 13.46 26.7114 13.3387C26.8293 13.2173 26.9729 13.1245 27.1314 13.0673C27.2899 13.01 27.4592 12.9898 27.6265 13.0082C27.7917 12.9924 27.9582 13.0119 28.1154 13.0655C28.2726 13.119 28.4168 13.2055 28.5388 13.3191C28.6607 13.4328 28.7576 13.5712 28.8231 13.7252C28.8886 13.8792 28.9212 14.0455 28.9189 14.2131C28.927 14.3848 28.8993 14.5563 28.8376 14.7165C28.7759 14.8767 28.6816 15.0221 28.5608 15.1431C28.44 15.2641 28.2955 15.3581 28.1364 15.4191C27.9774 15.48 27.8075 15.5065 27.6377 15.4969H27.6711ZM66.4088 34.922C65.64 34.8206 65.1498 34.4378 65.1387 33.6382C65.1134 33.4667 65.1277 33.2916 65.1803 33.1265C65.233 32.9615 65.3227 32.811 65.4424 32.6867C65.5621 32.5625 65.7086 32.4679 65.8704 32.4102C66.0322 32.3526 66.205 32.3335 66.3754 32.3545C66.5444 32.3324 66.7162 32.3498 66.8776 32.4054C67.0389 32.4609 67.1855 32.5532 67.306 32.675C67.4266 32.7968 67.5178 32.945 67.5728 33.1081C67.6278 33.2712 67.645 33.4448 67.6232 33.6157C67.6566 34.4715 67.0884 34.7531 66.4088 34.922ZM60.5263 51.2728C60.3669 51.2742 60.2092 51.241 60.0636 51.1755C59.918 51.11 59.7881 51.0137 59.6825 50.8931C59.5769 50.7725 59.4981 50.6304 59.4515 50.4764C59.4048 50.3224 59.3914 50.16 59.4122 50.0004C59.4083 49.8303 59.44 49.6613 59.5054 49.5046C59.5708 49.3479 59.6682 49.2069 59.7913 49.0909C59.9145 48.975 60.0605 48.8867 60.2198 48.8319C60.3791 48.7771 60.5481 48.757 60.7157 48.7729C60.8786 48.7793 61.0384 48.82 61.1849 48.8925C61.3314 48.9649 61.4612 49.0676 61.5661 49.1937C61.671 49.3199 61.7487 49.4669 61.7941 49.6252C61.8395 49.7835 61.8516 49.9496 61.8298 50.113C61.8213 50.2763 61.7807 50.4362 61.7102 50.5834C61.6398 50.7306 61.5409 50.8621 61.4195 50.9701C61.298 51.0782 61.1565 51.1606 61.0031 51.2126C60.8497 51.2646 60.6876 51.2851 60.5263 51.2728ZM45.6752 28.3906C45.5072 28.401 45.339 28.3746 45.182 28.3133C45.0251 28.252 44.8831 28.1572 44.7657 28.0353C44.6483 27.9134 44.5583 27.7674 44.5018 27.6072C44.4453 27.447 44.4237 27.2763 44.4385 27.1069C44.4385 26.3074 44.9621 25.9808 45.664 25.8231C46.4662 25.9245 46.9564 26.3524 46.9452 27.1294C46.9572 27.3001 46.9323 27.4714 46.8724 27.6314C46.8125 27.7914 46.7189 27.9364 46.5982 28.0563C46.4774 28.1762 46.3323 28.2682 46.173 28.3259C46.0136 28.3837 45.8438 28.4057 45.6752 28.3906V28.3906Z" fill="#F9FBFC"/>
</svg>
