<svg width="16" height="17" viewBox="0 0 16 17" fill="none" xmlns="http://www.w3.org/2000/svg">
<path d="M13.6 1.85146H12V1.05146C12 0.839292 11.9157 0.635808 11.7657 0.485779C11.6157 0.33575 11.4122 0.251465 11.2 0.251465C10.9878 0.251465 10.7843 0.33575 10.6343 0.485779C10.4843 0.635808 10.4 0.839292 10.4 1.05146V1.85146H5.6V1.05146C5.6 0.839292 5.51571 0.635808 5.36569 0.485779C5.21566 0.33575 5.01217 0.251465 4.8 0.251465C4.58783 0.251465 4.38434 0.33575 4.23431 0.485779C4.08429 0.635808 4 0.839292 4 1.05146V1.85146H2.4C1.76348 1.85146 1.15303 2.10432 0.702944 2.55441C0.252856 3.0045 0 3.61495 0 4.25146V13.8515C0 14.488 0.252856 15.0984 0.702944 15.5485C1.15303 15.9986 1.76348 16.2515 2.4 16.2515H13.6C14.2365 16.2515 14.847 15.9986 15.2971 15.5485C15.7471 15.0984 16 14.488 16 13.8515V4.25146C16 3.61495 15.7471 3.0045 15.2971 2.55441C14.847 2.10432 14.2365 1.85146 13.6 1.85146V1.85146ZM14.4 13.8515C14.4 14.0636 14.3157 14.2671 14.1657 14.4172C14.0157 14.5672 13.8122 14.6515 13.6 14.6515H2.4C2.18783 14.6515 1.98434 14.5672 1.83431 14.4172C1.68429 14.2671 1.6 14.0636 1.6 13.8515V8.25146H14.4V13.8515ZM14.4 6.65146H1.6V4.25146C1.6 4.03929 1.68429 3.83581 1.83431 3.68578C1.98434 3.53575 2.18783 3.45146 2.4 3.45146H4V4.25146C4 4.46364 4.08429 4.66712 4.23431 4.81715C4.38434 4.96718 4.58783 5.05146 4.8 5.05146C5.01217 5.05146 5.21566 4.96718 5.36569 4.81715C5.51571 4.66712 5.6 4.46364 5.6 4.25146V3.45146H10.4V4.25146C10.4 4.46364 10.4843 4.66712 10.6343 4.81715C10.7843 4.96718 10.9878 5.05146 11.2 5.05146C11.4122 5.05146 11.6157 4.96718 11.7657 4.81715C11.9157 4.66712 12 4.46364 12 4.25146V3.45146H13.6C13.8122 3.45146 14.0157 3.53575 14.1657 3.68578C14.3157 3.83581 14.4 4.03929 14.4 4.25146V6.65146Z" fill="#80C904"/>
</svg>
