<svg width="15" height="20" viewBox="0 0 15 20" fill="none" xmlns="http://www.w3.org/2000/svg">
<path d="M7.44376 7.24835L6.10112 8.51021C6.27705 9.14498 6.52509 9.75674 6.84022 10.3331C7.16672 10.9027 7.5609 11.4293 8.01387 11.901L9.75392 11.3399C10.2308 11.187 10.7419 11.1832 11.221 11.329C11.7001 11.4748 12.1251 11.7636 12.4411 12.1579L13.4327 13.3895C13.8352 13.8895 14.036 14.5263 13.9947 15.1712C13.9533 15.816 13.6728 16.4209 13.2099 16.8634C11.5942 18.4048 9.10395 18.9281 7.23948 17.3961C5.59437 16.0377 4.20888 14.3831 3.15213 12.5149C2.08302 10.6418 1.36931 8.58102 1.0481 6.43986C0.689693 4.02193 2.38332 2.08758 4.49106 1.42643C5.0987 1.23732 5.75444 1.29184 6.32383 1.5788C6.89322 1.86576 7.33311 2.36342 7.55332 2.96975L8.09744 4.45829C8.27303 4.93668 8.30482 5.45737 8.18875 5.95418C8.07268 6.45099 7.81401 6.90147 7.44561 7.24835H7.44376Z" stroke="#80C904" stroke-width="2"/>
</svg>
