<svg width="15" height="20" viewBox="0 0 15 20" fill="none" xmlns="http://www.w3.org/2000/svg">
<path d="M7.44376 7.18415L6.10112 8.446C6.27705 9.08077 6.52509 9.69253 6.84022 10.2689C7.16672 10.8385 7.5609 11.3651 8.01387 11.8368L9.75392 11.2757C10.2308 11.1228 10.7419 11.119 11.221 11.2648C11.7001 11.4106 12.1251 11.6994 12.4411 12.0937L13.4327 13.3253C13.8352 13.8253 14.036 14.4621 13.9947 15.107C13.9533 15.7518 13.6728 16.3566 13.2099 16.7992C11.5942 18.3406 9.10395 18.8639 7.23948 17.3319C5.59437 15.9735 4.20888 14.3189 3.15213 12.4507C2.08302 10.5776 1.36931 8.51682 1.0481 6.37565C0.689693 3.95772 2.38332 2.02337 4.49106 1.36222C5.0987 1.17311 5.75444 1.22763 6.32383 1.51459C6.89322 1.80155 7.33311 2.29921 7.55332 2.90554L8.09744 4.39408C8.27303 4.87247 8.30482 5.39316 8.18875 5.88997C8.07268 6.38678 7.81401 6.83726 7.44561 7.18415H7.44376Z" stroke="#80C904" stroke-width="2"/>
</svg>
