<svg width="15" height="20" viewBox="0 0 15 20" fill="none" xmlns="http://www.w3.org/2000/svg">
<path d="M7.44376 7.18439L6.10112 8.44625C6.27705 9.08102 6.52509 9.69277 6.84022 10.2691C7.16672 10.8388 7.5609 11.3654 8.01387 11.837L9.75392 11.276C10.2308 11.123 10.7419 11.1192 11.221 11.265C11.7001 11.4109 12.1251 11.6996 12.4411 12.0939L13.4327 13.3256C13.8352 13.8256 14.036 14.4623 13.9947 15.1072C13.9533 15.7521 13.6728 16.3569 13.2099 16.7994C11.5942 18.3409 9.10395 18.8641 7.23948 17.3321C5.59437 15.9737 4.20888 14.3191 3.15213 12.4509C2.08302 10.5778 1.36931 8.51706 1.0481 6.37589C0.689693 3.95796 2.38332 2.02362 4.49106 1.36246C5.0987 1.17336 5.75444 1.22787 6.32383 1.51483C6.89322 1.80179 7.33311 2.29946 7.55332 2.90578L8.09744 4.39432C8.27303 4.87271 8.30482 5.39341 8.18875 5.89021C8.07268 6.38702 7.81401 6.8375 7.44561 7.18439H7.44376Z" stroke="#80C904" stroke-width="2"/>
</svg>
