<svg width="18" height="15" viewBox="0 0 18 15" fill="none" xmlns="http://www.w3.org/2000/svg">
<path d="M16.2 14.3157H1.8C1.32261 14.3157 0.864773 14.1313 0.527208 13.8031C0.189642 13.4749 0 13.0298 0 12.5657V1.98955C0.0201894 1.53874 0.218708 1.11294 0.55411 0.801037C0.889512 0.489136 1.33587 0.315247 1.8 0.315675H16.2C16.6774 0.315675 17.1352 0.500049 17.4728 0.828238C17.8104 1.15643 18 1.60155 18 2.06567V12.5657C18 13.0298 17.8104 13.4749 17.4728 13.8031C17.1352 14.1313 16.6774 14.3157 16.2 14.3157ZM1.8 3.70017V12.5657H16.2V3.70017L9 8.36567L1.8 3.70017ZM2.52 2.06567L9 6.26567L15.48 2.06567H2.52Z" fill="#80C904"/>
</svg>
