<svg width="16" height="20" viewBox="0 0 16 20" fill="none" xmlns="http://www.w3.org/2000/svg">
<path d="M7.94376 7.43097L6.60112 8.69283C6.77705 9.3276 7.02509 9.93935 7.34022 10.5157C7.66672 11.0854 8.0609 11.6119 8.51387 12.0836L10.2539 11.5226C10.7308 11.3696 11.2419 11.3658 11.721 11.5116C12.2001 11.6575 12.6251 11.9462 12.9411 12.3405L13.9327 13.5721C14.3352 14.0721 14.536 14.7089 14.4947 15.3538C14.4533 15.9986 14.1728 16.6035 13.7099 17.046C12.0942 18.5875 9.60395 19.1107 7.73948 17.5787C6.09437 16.2203 4.70888 14.5657 3.65213 12.6975C2.58302 10.8244 1.86931 8.76364 1.5481 6.62248C1.18969 4.20454 2.88332 2.2702 4.99106 1.60905C5.5987 1.41994 6.25444 1.47445 6.82383 1.76142C7.39322 2.04838 7.83311 2.54604 8.05332 3.15237L8.59744 4.64091C8.77303 5.11929 8.80482 5.63999 8.68875 6.1368C8.57268 6.63361 8.31401 7.08409 7.94561 7.43097H7.94376Z" stroke="#80C904" stroke-width="2"/>
</svg>
