<svg width="43" height="43" viewBox="0 0 43 43" fill="none" xmlns="http://www.w3.org/2000/svg">
<path d="M11.2448 2.27444C13.052 0.905788 15.2582 0.167601 17.5251 0.173045C18.308 0.155489 19.0827 0.335694 19.7775 0.696985C20.4723 1.05828 21.0647 1.58898 21.5 2.23999C21.9353 1.58898 22.5277 1.05828 23.2225 0.696985C23.9173 0.335694 24.692 0.155489 25.4749 0.173045C27.7419 0.167601 29.948 0.905788 31.7552 2.27444C33.1464 3.35561 34.2197 4.85282 34.5986 6.66272C35.4678 6.72896 36.2628 7.08935 36.9305 7.63259C37.9428 8.45407 38.6795 9.68628 39.1432 10.99C39.8693 13.0172 40.0654 15.6009 39.3128 17.8004C39.5036 17.8905 39.6918 17.9965 39.8746 18.1184C40.6033 18.6033 41.1572 19.2976 41.5653 20.1164C42.3682 21.7196 42.6994 23.9561 42.6994 26.6723C42.6994 29.6959 41.5467 31.7257 40.0839 32.9791C39.2751 33.6727 38.3205 34.1753 37.2909 34.4499C37.0259 35.9285 36.284 37.6404 35.1206 39.0925C33.6102 40.9872 31.2676 42.5719 28.1248 42.5719C25.6339 42.5719 23.6518 41.1939 22.3639 39.8424C22.056 39.5198 21.7675 39.1791 21.5 38.8222C21.2325 39.1791 20.9441 39.5198 20.6361 39.8424C19.3483 41.1939 17.3688 42.5719 14.8752 42.5719C11.7324 42.5719 9.3925 40.9872 7.87939 39.0925C6.79228 37.7425 6.0477 36.1497 5.7091 34.4499C4.67955 34.1753 3.72497 33.6727 2.91608 32.9791C1.45332 31.7257 0.300598 29.6932 0.300598 26.6723C0.300598 23.9561 0.634489 21.717 1.43477 20.1164C1.81405 19.3134 2.39692 18.6236 3.12542 18.1157C3.30439 17.9972 3.49221 17.8927 3.6872 17.803C2.93463 15.5983 3.13072 13.0172 3.8568 10.99C4.32054 9.68628 5.05722 8.45407 6.06949 7.63259C6.73727 7.08935 7.53225 6.73161 8.40142 6.66272C8.78301 4.85282 9.85623 3.35561 11.2474 2.27444H11.2448ZM20.175 6.79786V6.77136L20.1697 6.63887C20.1307 5.94804 19.9933 5.26632 19.7617 4.61432C19.5967 4.12213 19.3159 3.67679 18.9428 3.31586C18.5514 2.97502 18.0435 2.79845 17.5251 2.82297C15.8476 2.81722 14.2139 3.35868 12.8719 4.36523C11.6423 5.32185 10.9003 6.61767 10.9003 8.12283C10.9001 8.33266 10.8502 8.53945 10.7544 8.72618C10.6587 8.91291 10.52 9.07424 10.3498 9.19689C10.1795 9.31953 9.98258 9.39999 9.77514 9.43163C9.56771 9.46327 9.35573 9.4452 9.15665 9.37889C8.65847 9.2146 8.21328 9.30734 7.73894 9.68893C7.21956 10.1129 6.71342 10.8655 6.35038 11.8804C5.61105 13.9527 5.6879 16.4621 6.70282 17.9885C6.84777 18.2059 6.92521 18.4613 6.92541 18.7225H8.91286C10.4942 18.7225 12.0107 19.3507 13.1289 20.4689C14.247 21.587 14.8752 23.1036 14.8752 24.6849V25.5726C15.7592 25.8851 16.5043 26.5002 16.9787 27.3089C17.4532 28.1177 17.6264 29.0682 17.4679 29.9923C17.3093 30.9165 16.8292 31.7548 16.1123 32.3592C15.3954 32.9636 14.4879 33.295 13.5502 33.295C12.6126 33.295 11.7051 32.9636 10.9882 32.3592C10.2713 31.7548 9.79115 30.9165 9.63259 29.9923C9.47403 29.0682 9.64728 28.1177 10.1217 27.3089C10.5962 26.5002 11.3412 25.8851 12.2253 25.5726V24.6849C12.2253 22.8564 10.7413 21.3725 8.91286 21.3725H4.27549C4.11708 21.3722 3.96 21.3435 3.81175 21.2877L3.8038 21.3036C3.27912 22.3503 2.95052 24.0886 2.95052 26.6723C2.95052 28.9486 3.78525 30.2312 4.64118 30.9652C5.5607 31.7549 6.58092 31.9722 6.92541 31.9722C7.27682 31.9722 7.61383 32.1118 7.86231 32.3602C8.11078 32.6087 8.25038 32.9457 8.25038 33.2971C8.25038 34.2723 8.78036 35.9762 9.94633 37.439C11.0831 38.8567 12.7182 39.9219 14.8752 39.9219C16.3592 39.9219 17.6894 39.0925 18.7176 38.014C19.2237 37.484 19.6186 36.9355 19.8756 36.485C19.9926 36.2852 20.0928 36.076 20.175 35.8596V14.7476H17.2999C16.9873 15.6317 16.3723 16.3768 15.5635 16.8512C14.7548 17.3256 13.8043 17.4989 12.8802 17.3403C11.956 17.1818 11.1176 16.7016 10.5133 15.9847C9.90891 15.2678 9.57743 14.3603 9.57743 13.4227C9.57743 12.485 9.90891 11.5775 10.5133 10.8607C11.1176 10.1438 11.956 9.66359 12.8802 9.50503C13.8043 9.34647 14.7548 9.51972 15.5635 9.99416C16.3723 10.4686 16.9873 11.2137 17.2999 12.0977H20.175V6.79786ZM22.825 33.2945V35.857C22.9073 36.0734 23.0074 36.2825 23.1244 36.4823C23.3841 36.9328 23.7763 37.4814 24.2798 38.0113C25.3106 39.0899 26.6435 39.9193 28.1248 39.9193C30.2819 39.9193 31.9169 38.854 33.0537 37.4363C34.2197 35.9736 34.7496 34.2697 34.7496 33.2945C34.7496 32.9431 34.8892 32.6061 35.1377 32.3576C35.3862 32.1091 35.7232 31.9695 36.0746 31.9695C36.4191 31.9695 37.4393 31.7522 38.3588 30.9625C39.2148 30.2285 40.0495 28.946 40.0495 26.6697C40.0495 24.086 39.7183 22.3503 39.1962 21.3009C39.0216 20.9102 38.7475 20.5721 38.4012 20.3204C38.1029 20.1297 37.7535 20.0345 37.3996 20.0475C37.1599 20.0474 36.9248 19.9822 36.7192 19.8591C36.5136 19.7359 36.3453 19.5592 36.2322 19.3479C36.119 19.1366 36.0654 18.8986 36.0768 18.6592C36.0883 18.4198 36.1644 18.188 36.2972 17.9885C37.3148 16.4621 37.389 13.9527 36.6496 11.8804C36.2866 10.8655 35.7805 10.1103 35.2611 9.68893C34.7867 9.30734 34.3416 9.21195 33.8434 9.37889C33.6443 9.4452 33.4323 9.46327 33.2249 9.43163C33.0174 9.39999 32.8205 9.31953 32.6502 9.19689C32.48 9.07424 32.3413 8.91291 32.2456 8.72618C32.1499 8.53945 32.0999 8.33266 32.0997 8.12283C32.0997 6.61767 31.3577 5.32185 30.1255 4.36523C28.7842 3.35922 27.1516 2.8178 25.4749 2.82297C24.9565 2.79845 24.4486 2.97502 24.0572 3.31586C23.683 3.67638 23.4012 4.12178 23.2357 4.61432C22.9834 5.3065 22.8447 6.03491 22.825 6.77136V30.6472H24.8124C26.6409 30.6472 28.1248 29.1632 28.1248 27.3348V22.4722C27.2408 22.1596 26.4957 21.5446 26.0213 20.7358C25.5468 19.9271 25.3736 18.9766 25.5321 18.0525C25.6907 17.1283 26.1709 16.29 26.8878 15.6856C27.6047 15.0812 28.5121 14.7497 29.4498 14.7497C30.3875 14.7497 31.2949 15.0812 32.0118 15.6856C32.7287 16.29 33.2089 17.1283 33.3674 18.0525C33.526 18.9766 33.3527 19.9271 32.8783 20.7358C32.4039 21.5446 31.6588 22.1596 30.7748 22.4722V27.3348C30.7748 28.9161 30.1466 30.4326 29.0284 31.5508C27.9103 32.669 26.3937 33.2971 24.8124 33.2971H22.825V33.2945ZM12.2253 13.4227C12.2253 13.7741 12.3649 14.1111 12.6133 14.3596C12.8618 14.608 13.1988 14.7476 13.5502 14.7476C13.9016 14.7476 14.2386 14.608 14.4871 14.3596C14.7356 14.1111 14.8752 13.7741 14.8752 13.4227C14.8752 13.0713 14.7356 12.7343 14.4871 12.4858C14.2386 12.2373 13.9016 12.0977 13.5502 12.0977C13.1988 12.0977 12.8618 12.2373 12.6133 12.4858C12.3649 12.7343 12.2253 13.0713 12.2253 13.4227ZM29.4498 20.0475C29.8012 20.0475 30.1382 19.9079 30.3867 19.6594C30.6352 19.4109 30.7748 19.0739 30.7748 18.7225C30.7748 18.3711 30.6352 18.0341 30.3867 17.7856C30.1382 17.5372 29.8012 17.3976 29.4498 17.3976C29.0984 17.3976 28.7614 17.5372 28.5129 17.7856C28.2644 18.0341 28.1248 18.3711 28.1248 18.7225C28.1248 19.0739 28.2644 19.4109 28.5129 19.6594C28.7614 19.9079 29.0984 20.0475 29.4498 20.0475ZM13.5502 27.9973C13.1988 27.9973 12.8618 28.1369 12.6133 28.3853C12.3649 28.6338 12.2253 28.9708 12.2253 29.3222C12.2253 29.6736 12.3649 30.0107 12.6133 30.2591C12.8618 30.5076 13.1988 30.6472 13.5502 30.6472C13.9016 30.6472 14.2386 30.5076 14.4871 30.2591C14.7356 30.0107 14.8752 29.6736 14.8752 29.3222C14.8752 28.9708 14.7356 28.6338 14.4871 28.3853C14.2386 28.1369 13.9016 27.9973 13.5502 27.9973Z" fill="#80C904"/>
</svg>
