<svg width="19" height="15" viewBox="0 0 19 15" fill="none" xmlns="http://www.w3.org/2000/svg">
<path d="M16.7 14.4983H2.3C1.82261 14.4983 1.36477 14.3139 1.02721 13.9857C0.689642 13.6575 0.5 13.2124 0.5 12.7483V2.17217C0.520189 1.72136 0.718708 1.29555 1.05411 0.983654C1.38951 0.671753 1.83587 0.497865 2.3 0.498292H16.7C17.1774 0.498292 17.6352 0.682666 17.9728 1.01085C18.3104 1.33904 18.5 1.78416 18.5 2.24829V12.7483C18.5 13.2124 18.3104 13.6575 17.9728 13.9857C17.6352 14.3139 17.1774 14.4983 16.7 14.4983ZM2.3 3.88279V12.7483H16.7V3.88279L9.5 8.54829L2.3 3.88279ZM3.02 2.24829L9.5 6.44829L15.98 2.24829H3.02Z" fill="#80C904"/>
</svg>
