<svg width="17" height="17" viewBox="0 0 17 17" fill="none" xmlns="http://www.w3.org/2000/svg">
<path d="M14.1 2.09829H12.5V1.29829C12.5 1.08612 12.4157 0.882635 12.2657 0.732606C12.1157 0.582576 11.9122 0.498291 11.7 0.498291C11.4878 0.498291 11.2843 0.582576 11.1343 0.732606C10.9843 0.882635 10.9 1.08612 10.9 1.29829V2.09829H6.1V1.29829C6.1 1.08612 6.01571 0.882635 5.86569 0.732606C5.71566 0.582576 5.51217 0.498291 5.3 0.498291C5.08783 0.498291 4.88434 0.582576 4.73431 0.732606C4.58429 0.882635 4.5 1.08612 4.5 1.29829V2.09829H2.9C2.26348 2.09829 1.65303 2.35115 1.20294 2.80123C0.752856 3.25132 0.5 3.86177 0.5 4.49829V14.0983C0.5 14.7348 0.752856 15.3453 1.20294 15.7953C1.65303 16.2454 2.26348 16.4983 2.9 16.4983H14.1C14.7365 16.4983 15.347 16.2454 15.7971 15.7953C16.2471 15.3453 16.5 14.7348 16.5 14.0983V4.49829C16.5 3.86177 16.2471 3.25132 15.7971 2.80123C15.347 2.35115 14.7365 2.09829 14.1 2.09829V2.09829ZM14.9 14.0983C14.9 14.3105 14.8157 14.5139 14.6657 14.664C14.5157 14.814 14.3122 14.8983 14.1 14.8983H2.9C2.68783 14.8983 2.48434 14.814 2.33431 14.664C2.18429 14.5139 2.1 14.3105 2.1 14.0983V8.49829H14.9V14.0983ZM14.9 6.89829H2.1V4.49829C2.1 4.28612 2.18429 4.08263 2.33431 3.93261C2.48434 3.78258 2.68783 3.69829 2.9 3.69829H4.5V4.49829C4.5 4.71046 4.58429 4.91395 4.73431 5.06398C4.88434 5.21401 5.08783 5.29829 5.3 5.29829C5.51217 5.29829 5.71566 5.21401 5.86569 5.06398C6.01571 4.91395 6.1 4.71046 6.1 4.49829V3.69829H10.9V4.49829C10.9 4.71046 10.9843 4.91395 11.1343 5.06398C11.2843 5.21401 11.4878 5.29829 11.7 5.29829C11.9122 5.29829 12.1157 5.21401 12.2657 5.06398C12.4157 4.91395 12.5 4.71046 12.5 4.49829V3.69829H14.1C14.3122 3.69829 14.5157 3.78258 14.6657 3.93261C14.8157 4.08263 14.9 4.28612 14.9 4.49829V6.89829Z" fill="#80C904"/>
</svg>
