<svg width="16" height="17" viewBox="0 0 16 17" fill="none" xmlns="http://www.w3.org/2000/svg">
<path d="M13.6 1.91567H12V1.11567C12 0.903501 11.9157 0.700017 11.7657 0.549988C11.6157 0.399959 11.4122 0.315674 11.2 0.315674C10.9878 0.315674 10.7843 0.399959 10.6343 0.549988C10.4843 0.700017 10.4 0.903501 10.4 1.11567V1.91567H5.6V1.11567C5.6 0.903501 5.51571 0.700017 5.36569 0.549988C5.21566 0.399959 5.01217 0.315674 4.8 0.315674C4.58783 0.315674 4.38434 0.399959 4.23431 0.549988C4.08429 0.700017 4 0.903501 4 1.11567V1.91567H2.4C1.76348 1.91567 1.15303 2.16853 0.702944 2.61862C0.252856 3.0687 0 3.67915 0 4.31567V13.9157C0 14.5522 0.252856 15.1626 0.702944 15.6127C1.15303 16.0628 1.76348 16.3157 2.4 16.3157H13.6C14.2365 16.3157 14.847 16.0628 15.2971 15.6127C15.7471 15.1626 16 14.5522 16 13.9157V4.31567C16 3.67915 15.7471 3.0687 15.2971 2.61862C14.847 2.16853 14.2365 1.91567 13.6 1.91567V1.91567ZM14.4 13.9157C14.4 14.1278 14.3157 14.3313 14.1657 14.4814C14.0157 14.6314 13.8122 14.7157 13.6 14.7157H2.4C2.18783 14.7157 1.98434 14.6314 1.83431 14.4814C1.68429 14.3313 1.6 14.1278 1.6 13.9157V8.31567H14.4V13.9157ZM14.4 6.71567H1.6V4.31567C1.6 4.1035 1.68429 3.90002 1.83431 3.74999C1.98434 3.59996 2.18783 3.51567 2.4 3.51567H4V4.31567C4 4.52785 4.08429 4.73133 4.23431 4.88136C4.38434 5.03139 4.58783 5.11567 4.8 5.11567C5.01217 5.11567 5.21566 5.03139 5.36569 4.88136C5.51571 4.73133 5.6 4.52785 5.6 4.31567V3.51567H10.4V4.31567C10.4 4.52785 10.4843 4.73133 10.6343 4.88136C10.7843 5.03139 10.9878 5.11567 11.2 5.11567C11.4122 5.11567 11.6157 5.03139 11.7657 4.88136C11.9157 4.73133 12 4.52785 12 4.31567V3.51567H13.6C13.8122 3.51567 14.0157 3.59996 14.1657 3.74999C14.3157 3.90002 14.4 4.1035 14.4 4.31567V6.71567Z" fill="#80C904"/>
</svg>
