<svg width="18" height="15" viewBox="0 0 18 15" fill="none" xmlns="http://www.w3.org/2000/svg">
<path d="M16.2 14.2517H1.8C1.32261 14.2517 0.864773 14.0673 0.527208 13.7391C0.189642 13.411 0 12.9658 0 12.5017V1.92558C0.0201894 1.47478 0.218708 1.04897 0.55411 0.737072C0.889512 0.425171 1.33587 0.251283 1.8 0.25171H16.2C16.6774 0.25171 17.1352 0.436084 17.4728 0.764273C17.8104 1.09246 18 1.53758 18 2.00171V12.5017C18 12.9658 17.8104 13.411 17.4728 13.7391C17.1352 14.0673 16.6774 14.2517 16.2 14.2517ZM1.8 3.63621V12.5017H16.2V3.63621L9 8.30171L1.8 3.63621ZM2.52 2.00171L9 6.20171L15.48 2.00171H2.52Z" fill="#80C904"/>
</svg>
