<svg width="29" height="43" viewBox="0 0 29 43" fill="none" xmlns="http://www.w3.org/2000/svg">
<path d="M14.4941 0.671875C6.9342 0.671875 0.799535 6.8647 0.711349 14.5449V14.5521C0.708115 14.653 0.708115 14.754 0.711349 14.8548C0.715616 15.0431 0.728417 15.3024 0.758287 15.6195C0.879778 17.5623 1.39762 19.4579 2.27877 21.1854C3.15992 22.913 4.38503 24.4346 5.87596 25.6532C8.48742 28.654 9.13317 31.342 9.20571 32.2457V32.2544C9.21567 32.3486 9.22989 32.4427 9.24838 32.5339H9.24412V35.1264L19.9119 32.9568V32.8844C19.9929 32.6875 20.0456 32.476 20.064 32.2544V32.2443C20.1451 31.2464 20.5761 28.5888 23.1264 25.6677C24.6251 24.4431 25.8549 22.9121 26.7367 21.1737C27.6184 19.4352 28.1324 17.5278 28.2455 15.5746C28.2708 15.2997 28.286 15.0238 28.291 14.7477V14.584C28.1957 6.87629 22.0625 0.671875 14.4941 0.671875ZM3.55608 14.5898C3.58605 11.6561 4.75166 8.85302 6.7997 6.78938C8.84773 4.72573 11.6127 3.56827 14.4941 3.56843C20.4922 3.56843 25.3666 8.48243 25.4463 14.6144V14.7491C25.4463 14.8259 25.4377 15.0011 25.4093 15.353L25.4065 15.3704V15.3893C25.3179 16.9587 24.903 18.4911 24.1892 19.885C23.4754 21.2789 22.479 22.5026 21.2659 23.475L21.1706 23.5503L21.0896 23.6415C18.4041 26.6757 17.5721 29.5751 17.316 31.2739H16.4171C16.4811 29.0508 16.7713 24.9088 18.0073 23.5257C19.2305 22.5408 20.0413 21.0491 20.1409 19.3546C20.1551 19.1953 20.1551 19.0939 20.1551 19.0215V18.9636C20.1397 17.4489 19.5381 16.0015 18.4808 14.9358C17.4235 13.8701 15.996 13.2722 14.5083 13.2719C13.3378 13.2723 12.1966 13.644 11.2432 14.3353C10.2897 15.0266 9.57149 16.0031 9.18825 17.1292C8.80501 18.2552 8.77581 19.4749 9.10471 20.6187C9.43361 21.7624 10.1043 22.7734 11.0235 23.5112C12.2496 24.9059 12.5511 29.0508 12.6237 31.2739H11.9409C11.6223 29.5259 10.5669 26.638 7.91563 23.6299L7.83313 23.5373L7.73641 23.4605C6.52846 22.4914 5.53529 21.2734 4.82198 19.8862C4.10867 18.4989 3.69133 16.9739 3.59733 15.411L3.59448 15.3849L3.59164 15.3574C3.56853 15.124 3.55619 14.8896 3.55466 14.655V14.613L3.55608 14.5913V14.5898ZM14.5083 14.7202C16.8125 14.7202 18.69 16.6174 18.7185 18.9636V19.0795C18.7185 19.1229 18.7185 19.1808 18.7043 19.2677C18.6331 20.4843 18.05 21.6284 17.1112 22.3815L17.0117 22.4539L16.9263 22.5408C15.3617 24.3077 15.0346 28.7974 14.9777 31.2595H14.0531C13.982 28.7974 13.6406 24.3077 12.076 22.5408L11.9907 22.4539L11.8911 22.3815C11.4213 22.0032 11.0362 21.5272 10.7615 20.9852C10.4868 20.4433 10.3288 19.8479 10.2981 19.2388C10.2978 19.2096 10.295 19.1805 10.2896 19.1519C10.2865 19.1376 10.2846 19.123 10.2839 19.1084V18.9781C10.3265 16.6319 12.2183 14.7202 14.5083 14.7202V14.7202ZM19.9119 34.4341L9.24412 36.6036V38.007L19.9119 35.7187V34.4341V34.4341ZM9.24412 39.7753V39.4857L19.9119 37.1988V39.7753C19.9119 40.1594 19.762 40.5278 19.4953 40.7994C19.2285 41.071 18.8667 41.2236 18.4895 41.2236H16.9021C16.6617 41.6594 16.3126 42.0228 15.89 42.2771C15.4674 42.5314 14.9863 42.6676 14.4955 42.6719C14.0046 42.6676 13.5236 42.5314 13.101 42.2771C12.6784 42.0228 12.3293 41.6594 12.0888 41.2236H10.6665C10.2892 41.2236 9.92746 41.071 9.66072 40.7994C9.39397 40.5278 9.24412 40.1594 9.24412 39.7753Z" fill="#80C904"/>
</svg>
