<svg width="43" height="43" viewBox="0 0 43 43" fill="none" xmlns="http://www.w3.org/2000/svg">
<path d="M11.245 2.27444C13.0522 0.905788 15.2583 0.167601 17.5253 0.173045C18.3082 0.155489 19.0829 0.335694 19.7777 0.696985C20.4725 1.05828 21.0649 1.58898 21.5002 2.23999C21.9355 1.58898 22.5279 1.05828 23.2227 0.696985C23.9175 0.335694 24.6922 0.155489 25.4751 0.173045C27.742 0.167601 29.9482 0.905788 31.7554 2.27444C33.1466 3.35561 34.2198 4.85282 34.5988 6.66272C35.468 6.72896 36.2629 7.08935 36.9307 7.63259C37.943 8.45407 38.6797 9.68628 39.1434 10.99C39.8695 13.0172 40.0656 15.6009 39.313 17.8004C39.5038 17.8905 39.6919 17.9965 39.8748 18.1184C40.6035 18.6033 41.1574 19.2976 41.5654 20.1164C42.3684 21.7196 42.6996 23.9561 42.6996 26.6723C42.6996 29.6959 41.5469 31.7257 40.0841 32.9791C39.2752 33.6727 38.3207 34.1753 37.2911 34.4499C37.0261 35.9285 36.2841 37.6404 35.1208 39.0925C33.6104 40.9872 31.2678 42.5719 28.125 42.5719C25.6341 42.5719 23.6519 41.1939 22.3641 39.8424C22.0562 39.5198 21.7677 39.1791 21.5002 38.8222C21.2327 39.1791 20.9442 39.5198 20.6363 39.8424C19.3485 41.1939 17.369 42.5719 14.8754 42.5719C11.7326 42.5719 9.39268 40.9872 7.87957 39.0925C6.79246 37.7425 6.04788 36.1497 5.70928 34.4499C4.67973 34.1753 3.72515 33.6727 2.91626 32.9791C1.4535 31.7257 0.300781 29.6932 0.300781 26.6723C0.300781 23.9561 0.634672 21.717 1.43495 20.1164C1.81423 19.3134 2.3971 18.6236 3.1256 18.1157C3.30457 17.9972 3.49239 17.8927 3.68739 17.803C2.93481 15.5983 3.1309 13.0172 3.85698 10.99C4.32072 9.68628 5.0574 8.45407 6.06967 7.63259C6.73745 7.08935 7.53243 6.73161 8.40161 6.66272C8.7832 4.85282 9.85642 3.35561 11.2476 2.27444H11.245ZM20.1752 6.79786V6.77136L20.1699 6.63887C20.1309 5.94804 19.9935 5.26632 19.7618 4.61432C19.5969 4.12213 19.3161 3.67679 18.943 3.31586C18.5516 2.97502 18.0437 2.79845 17.5253 2.82297C15.8477 2.81722 14.2141 3.35868 12.872 4.36523C11.6425 5.32185 10.9005 6.61767 10.9005 8.12283C10.9003 8.33266 10.8503 8.53945 10.7546 8.72618C10.6589 8.91291 10.5202 9.07424 10.35 9.19689C10.1797 9.31953 9.98276 9.39999 9.77533 9.43163C9.5679 9.46327 9.35592 9.4452 9.15684 9.37889C8.65865 9.2146 8.21346 9.30734 7.73913 9.68893C7.21974 10.1129 6.7136 10.8655 6.35056 11.8804C5.61123 13.9527 5.68808 16.4621 6.703 17.9885C6.84795 18.2059 6.9254 18.4613 6.9256 18.7225H8.91304C10.4944 18.7225 12.0109 19.3507 13.129 20.4689C14.2472 21.587 14.8754 23.1036 14.8754 24.6849V25.5726C15.7594 25.8851 16.5045 26.5002 16.9789 27.3089C17.4534 28.1177 17.6266 29.0682 17.4681 29.9923C17.3095 30.9165 16.8293 31.7548 16.1124 32.3592C15.3955 32.9636 14.4881 33.295 13.5504 33.295C12.6128 33.295 11.7053 32.9636 10.9884 32.3592C10.2715 31.7548 9.79133 30.9165 9.63277 29.9923C9.47421 29.0682 9.64746 28.1177 10.1219 27.3089C10.5963 26.5002 11.3414 25.8851 12.2255 25.5726V24.6849C12.2255 22.8564 10.7415 21.3725 8.91304 21.3725H4.27567C4.11726 21.3722 3.96019 21.3435 3.81193 21.2877L3.80398 21.3036C3.2793 22.3503 2.95071 24.0886 2.95071 26.6723C2.95071 28.9486 3.78543 30.2312 4.64136 30.9652C5.56089 31.7549 6.58111 31.9722 6.9256 31.9722C7.277 31.9722 7.61401 32.1118 7.86249 32.3602C8.11097 32.6087 8.25056 32.9457 8.25056 33.2971C8.25056 34.2723 8.78055 35.9762 9.94651 37.439C11.0833 38.8567 12.7183 39.9219 14.8754 39.9219C16.3593 39.9219 17.6896 39.0925 18.7178 38.014C19.2239 37.484 19.6187 36.9355 19.8758 36.485C19.9928 36.2852 20.093 36.076 20.1752 35.8596V14.7476H17.3001C16.9875 15.6317 16.3725 16.3768 15.5637 16.8512C14.755 17.3256 13.8045 17.4989 12.8803 17.3403C11.9562 17.1818 11.1178 16.7016 10.5135 15.9847C9.90909 15.2678 9.57761 14.3603 9.57761 13.4227C9.57761 12.485 9.90909 11.5775 10.5135 10.8607C11.1178 10.1438 11.9562 9.66359 12.8803 9.50503C13.8045 9.34647 14.755 9.51972 15.5637 9.99416C16.3725 10.4686 16.9875 11.2137 17.3001 12.0977H20.1752V6.79786ZM22.8252 33.2945V35.857C22.9075 36.0734 23.0076 36.2825 23.1246 36.4823C23.3843 36.9328 23.7765 37.4814 24.28 38.0113C25.3108 39.0899 26.6437 39.9193 28.125 39.9193C30.2821 39.9193 31.9171 38.854 33.0539 37.4363C34.2198 35.9736 34.7498 34.2697 34.7498 33.2945C34.7498 32.9431 34.8894 32.6061 35.1379 32.3576C35.3864 32.1091 35.7234 31.9695 36.0748 31.9695C36.4193 31.9695 37.4395 31.7522 38.359 30.9625C39.215 30.2285 40.0497 28.946 40.0497 26.6697C40.0497 24.086 39.7184 22.3503 39.1964 21.3009C39.0218 20.9102 38.7476 20.5721 38.4014 20.3204C38.1031 20.1297 37.7536 20.0345 37.3998 20.0475C37.1601 20.0474 36.9249 19.9822 36.7194 19.8591C36.5138 19.7359 36.3455 19.5592 36.2324 19.3479C36.1192 19.1366 36.0655 18.8986 36.077 18.6592C36.0884 18.4198 36.1646 18.188 36.2974 17.9885C37.315 16.4621 37.3892 13.9527 36.6498 11.8804C36.2868 10.8655 35.7806 10.1103 35.2613 9.68893C34.7869 9.30734 34.3417 9.21195 33.8436 9.37889C33.6445 9.4452 33.4325 9.46327 33.2251 9.43163C33.0176 9.39999 32.8207 9.31953 32.6504 9.19689C32.4802 9.07424 32.3415 8.91291 32.2458 8.72618C32.1501 8.53945 32.1001 8.33266 32.0999 8.12283C32.0999 6.61767 31.3579 5.32185 30.1257 4.36523C28.7844 3.35922 27.1517 2.8178 25.4751 2.82297C24.9567 2.79845 24.4488 2.97502 24.0574 3.31586C23.6832 3.67638 23.4014 4.12178 23.2359 4.61432C22.9836 5.3065 22.8449 6.03491 22.8252 6.77136V30.6472H24.8126C26.6411 30.6472 28.125 29.1632 28.125 27.3348V22.4722C27.241 22.1596 26.4959 21.5446 26.0215 20.7358C25.547 19.9271 25.3738 18.9766 25.5323 18.0525C25.6909 17.1283 26.171 16.29 26.8879 15.6856C27.6048 15.0812 28.5123 14.7497 29.45 14.7497C30.3876 14.7497 31.2951 15.0812 32.012 15.6856C32.7289 16.29 33.2091 17.1283 33.3676 18.0525C33.5262 18.9766 33.3529 19.9271 32.8785 20.7358C32.4041 21.5446 31.659 22.1596 30.7749 22.4722V27.3348C30.7749 28.9161 30.1468 30.4326 29.0286 31.5508C27.9105 32.669 26.3939 33.2971 24.8126 33.2971H22.8252V33.2945ZM12.2255 13.4227C12.2255 13.7741 12.365 14.1111 12.6135 14.3596C12.862 14.608 13.199 14.7476 13.5504 14.7476C13.9018 14.7476 14.2388 14.608 14.4873 14.3596C14.7358 14.1111 14.8754 13.7741 14.8754 13.4227C14.8754 13.0713 14.7358 12.7343 14.4873 12.4858C14.2388 12.2373 13.9018 12.0977 13.5504 12.0977C13.199 12.0977 12.862 12.2373 12.6135 12.4858C12.365 12.7343 12.2255 13.0713 12.2255 13.4227ZM29.45 20.0475C29.8014 20.0475 30.1384 19.9079 30.3869 19.6594C30.6353 19.4109 30.7749 19.0739 30.7749 18.7225C30.7749 18.3711 30.6353 18.0341 30.3869 17.7856C30.1384 17.5372 29.8014 17.3976 29.45 17.3976C29.0986 17.3976 28.7616 17.5372 28.5131 17.7856C28.2646 18.0341 28.125 18.3711 28.125 18.7225C28.125 19.0739 28.2646 19.4109 28.5131 19.6594C28.7616 19.9079 29.0986 20.0475 29.45 20.0475ZM13.5504 27.9973C13.199 27.9973 12.862 28.1369 12.6135 28.3853C12.365 28.6338 12.2255 28.9708 12.2255 29.3222C12.2255 29.6736 12.365 30.0107 12.6135 30.2591C12.862 30.5076 13.199 30.6472 13.5504 30.6472C13.9018 30.6472 14.2388 30.5076 14.4873 30.2591C14.7358 30.0107 14.8754 29.6736 14.8754 29.3222C14.8754 28.9708 14.7358 28.6338 14.4873 28.3853C14.2388 28.1369 13.9018 27.9973 13.5504 27.9973Z" fill="#80C904"/>
</svg>
