<svg width="29" height="43" viewBox="0 0 29 43" fill="none" xmlns="http://www.w3.org/2000/svg">
<path d="M14.4941 0.671875C6.93426 0.671875 0.799596 6.8647 0.71141 14.5449V14.5521C0.708176 14.653 0.708176 14.754 0.71141 14.8548C0.715677 15.0431 0.728478 15.3024 0.758348 15.6195C0.879839 17.5623 1.39768 19.4579 2.27883 21.1854C3.15998 22.913 4.38509 24.4346 5.87602 25.6532C8.48748 28.654 9.13323 31.342 9.20577 32.2457V32.2544C9.21573 32.3486 9.22995 32.4427 9.24845 32.5339H9.24418V35.1264L19.9119 32.9568V32.8844C19.993 32.6875 20.0456 32.476 20.0641 32.2544V32.2443C20.1452 31.2464 20.5762 28.5888 23.1265 25.6677C24.6251 24.4431 25.855 22.9121 26.7367 21.1737C27.6185 19.4352 28.1325 17.5278 28.2456 15.5746C28.2709 15.2997 28.2861 15.0238 28.2911 14.7477V14.584C28.1958 6.87629 22.0625 0.671875 14.4941 0.671875ZM3.55614 14.5898C3.58612 11.6561 4.75173 8.85302 6.79976 6.78938C8.84779 4.72573 11.6128 3.56827 14.4941 3.56843C20.4922 3.56843 25.3667 8.48243 25.4463 14.6144V14.7491C25.4463 14.8259 25.4378 15.0011 25.4094 15.353L25.4065 15.3704V15.3893C25.318 16.9587 24.9031 18.4911 24.1893 19.885C23.4755 21.2789 22.4791 22.5026 21.266 23.475L21.1707 23.5503L21.0896 23.6415C18.4042 26.6757 17.5721 29.5751 17.3161 31.2739H16.4172C16.4812 29.0508 16.7713 24.9088 18.0074 23.5257C19.2306 22.5408 20.0413 21.0491 20.1409 19.3546C20.1551 19.1953 20.1551 19.0939 20.1551 19.0215V18.9636C20.1398 17.4489 19.5381 16.0015 18.4808 14.9358C17.4236 13.8701 15.9961 13.2722 14.5084 13.2719C13.3379 13.2723 12.1967 13.644 11.2432 14.3353C10.2898 15.0266 9.57156 16.0031 9.18831 17.1292C8.80507 18.2552 8.77587 19.4749 9.10477 20.6187C9.43368 21.7624 10.1043 22.7734 11.0236 23.5112C12.2496 24.9059 12.5512 29.0508 12.6237 31.2739H11.941C11.6224 29.5259 10.567 26.638 7.91569 23.6299L7.83319 23.5373L7.73647 23.4605C6.52852 22.4914 5.53535 21.2734 4.82204 19.8862C4.10873 18.4989 3.69139 16.9739 3.59739 15.411L3.59454 15.3849L3.5917 15.3574C3.56859 15.124 3.55625 14.8896 3.55472 14.655V14.613L3.55614 14.5913V14.5898ZM14.5084 14.7202C16.8126 14.7202 18.6901 16.6174 18.7185 18.9636V19.0795C18.7185 19.1229 18.7185 19.1808 18.7043 19.2677C18.6332 20.4843 18.05 21.6284 17.1113 22.3815L17.0117 22.4539L16.9264 22.5408C15.3618 24.3077 15.0346 28.7974 14.9777 31.2595H14.0532C13.9821 28.7974 13.6407 24.3077 12.0761 22.5408L11.9908 22.4539L11.8912 22.3815C11.4214 22.0032 11.0363 21.5272 10.7615 20.9852C10.4868 20.4433 10.3288 19.8479 10.2982 19.2388C10.2979 19.2096 10.295 19.1805 10.2896 19.1519C10.2866 19.1376 10.2847 19.123 10.2839 19.1084V18.9781C10.3266 16.6319 12.2183 14.7202 14.5084 14.7202V14.7202ZM19.9119 34.4341L9.24418 36.6036V38.007L19.9119 35.7187V34.4341V34.4341ZM9.24418 39.7753V39.4857L19.9119 37.1988V39.7753C19.9119 40.1594 19.7621 40.5278 19.4953 40.7994C19.2286 41.071 18.8668 41.2236 18.4896 41.2236H16.9022C16.6618 41.6594 16.3126 42.0228 15.89 42.2771C15.4675 42.5314 14.9864 42.6676 14.4955 42.6719C14.0047 42.6676 13.5236 42.5314 13.1011 42.2771C12.6785 42.0228 12.3293 41.6594 12.0889 41.2236H10.6665C10.2893 41.2236 9.92752 41.071 9.66078 40.7994C9.39403 40.5278 9.24418 40.1594 9.24418 39.7753Z" fill="#80C904"/>
</svg>
