<svg width="18" height="15" viewBox="0 0 18 15" fill="none" xmlns="http://www.w3.org/2000/svg">
<path d="M16.2 14.2095H1.8C1.32261 14.2095 0.864773 14.0251 0.527208 13.6969C0.189642 13.3687 0 12.9236 0 12.4595V1.88335C0.0201894 1.43254 0.218708 1.00674 0.55411 0.694836C0.889512 0.382935 1.33587 0.209046 1.8 0.209473H16.2C16.6774 0.209473 17.1352 0.393848 17.4728 0.722036C17.8104 1.05023 18 1.49534 18 1.95947V12.4595C18 12.9236 17.8104 13.3687 17.4728 13.6969C17.1352 14.0251 16.6774 14.2095 16.2 14.2095ZM1.8 3.59397V12.4595H16.2V3.59397L9 8.25947L1.8 3.59397ZM2.52 1.95947L9 6.15947L15.48 1.95947H2.52Z" fill="#80C904"/>
</svg>
