<svg width="18" height="15" viewBox="0 0 18 15" fill="none" xmlns="http://www.w3.org/2000/svg">
<path d="M16.2 14.2515H1.8C1.32261 14.2515 0.864773 14.0671 0.527208 13.7389C0.189642 13.4107 0 12.9656 0 12.5015V1.92534C0.0201894 1.47453 0.218708 1.04873 0.55411 0.736828C0.889512 0.424927 1.33587 0.251039 1.8 0.251466H16.2C16.6774 0.251466 17.1352 0.43584 17.4728 0.764029C17.8104 1.09222 18 1.53734 18 2.00147V12.5015C18 12.9656 17.8104 13.4107 17.4728 13.7389C17.1352 14.0671 16.6774 14.2515 16.2 14.2515ZM1.8 3.63597V12.5015H16.2V3.63597L9 8.30147L1.8 3.63597ZM2.52 2.00147L9 6.20147L15.48 2.00147H2.52Z" fill="#80C904"/>
</svg>
