<svg width="16" height="17" viewBox="0 0 16 17" fill="none" xmlns="http://www.w3.org/2000/svg">
<path d="M13.6 1.80947H12V1.00947C12 0.797299 11.9157 0.593816 11.7657 0.443787C11.6157 0.293758 11.4122 0.209473 11.2 0.209473C10.9878 0.209473 10.7843 0.293758 10.6343 0.443787C10.4843 0.593816 10.4 0.797299 10.4 1.00947V1.80947H5.6V1.00947C5.6 0.797299 5.51571 0.593816 5.36569 0.443787C5.21566 0.293758 5.01217 0.209473 4.8 0.209473C4.58783 0.209473 4.38434 0.293758 4.23431 0.443787C4.08429 0.593816 4 0.797299 4 1.00947V1.80947H2.4C1.76348 1.80947 1.15303 2.06233 0.702944 2.51242C0.252856 2.9625 0 3.57295 0 4.20947V13.8095C0 14.446 0.252856 15.0564 0.702944 15.5065C1.15303 15.9566 1.76348 16.2095 2.4 16.2095H13.6C14.2365 16.2095 14.847 15.9566 15.2971 15.5065C15.7471 15.0564 16 14.446 16 13.8095V4.20947C16 3.57295 15.7471 2.9625 15.2971 2.51242C14.847 2.06233 14.2365 1.80947 13.6 1.80947V1.80947ZM14.4 13.8095C14.4 14.0216 14.3157 14.2251 14.1657 14.3752C14.0157 14.5252 13.8122 14.6095 13.6 14.6095H2.4C2.18783 14.6095 1.98434 14.5252 1.83431 14.3752C1.68429 14.2251 1.6 14.0216 1.6 13.8095V8.20947H14.4V13.8095ZM14.4 6.60947H1.6V4.20947C1.6 3.9973 1.68429 3.79382 1.83431 3.64379C1.98434 3.49376 2.18783 3.40947 2.4 3.40947H4V4.20947C4 4.42165 4.08429 4.62513 4.23431 4.77516C4.38434 4.92519 4.58783 5.00947 4.8 5.00947C5.01217 5.00947 5.21566 4.92519 5.36569 4.77516C5.51571 4.62513 5.6 4.42165 5.6 4.20947V3.40947H10.4V4.20947C10.4 4.42165 10.4843 4.62513 10.6343 4.77516C10.7843 4.92519 10.9878 5.00947 11.2 5.00947C11.4122 5.00947 11.6157 4.92519 11.7657 4.77516C11.9157 4.62513 12 4.42165 12 4.20947V3.40947H13.6C13.8122 3.40947 14.0157 3.49376 14.1657 3.64379C14.3157 3.79382 14.4 3.9973 14.4 4.20947V6.60947Z" fill="#80C904"/>
</svg>
