<svg width="35" height="34" viewBox="0 0 35 34" fill="none" xmlns="http://www.w3.org/2000/svg">
<g clip-path="url(#clip0_187_698)">
<path d="M16.6959 9.05273C15 9.05273 13.6201 10.4325 13.6201 12.1284C13.6201 13.8243 14.9999 15.2042 16.6959 15.2042C18.3918 15.2042 19.7715 13.8244 19.7715 12.1284C19.7715 10.4324 18.3918 9.05273 16.6959 9.05273ZM16.6959 14.0707C15.6249 14.0707 14.7535 13.1993 14.7535 12.1283C14.7535 11.0574 15.6249 10.1861 16.6959 10.1861C17.7668 10.1861 18.6381 11.0574 18.6381 12.1283C18.638 13.1993 17.7667 14.0707 16.6959 14.0707Z" fill="#80C904"/>
<path d="M30.1487 8.11523C29.0371 8.11523 28.1328 9.01957 28.1328 10.1311C28.1328 11.2426 29.0371 12.1469 30.1487 12.1469C31.2602 12.1469 32.1645 11.2426 32.1645 10.1311C32.1644 9.01957 31.2601 8.11523 30.1487 8.11523ZM30.1487 11.0135C29.6621 11.0135 29.2662 10.6176 29.2662 10.1311C29.2662 9.64455 29.6621 9.24867 30.1487 9.24867C30.6353 9.24867 31.0311 9.64455 31.0311 10.1311C31.031 10.6177 30.6352 11.0135 30.1487 11.0135Z" fill="#80C904"/>
<path d="M31.7519 2.69173L23.5107 2.69141C22.252 2.69141 21.2279 3.71577 21.2279 4.97487V7.57659H17.8298C17.829 7.57659 17.8283 7.57653 17.8276 7.57653H5.4537C5.45227 7.57653 5.45084 7.57659 5.44929 7.57659H3.25596C1.92047 7.57659 0.833984 8.66314 0.833984 9.99857V24.5508C0.833984 25.8863 1.92047 26.9727 3.25596 26.9727H11.9334L11.1683 30.0807C11.1676 30.0833 11.1674 30.086 11.1668 30.0887C11.1637 30.1023 11.1612 30.1161 11.1591 30.1301C11.158 30.1369 11.1568 30.1435 11.1559 30.1504C11.1544 30.1638 11.1537 30.1775 11.1531 30.1913C11.1528 30.1983 11.1521 30.2053 11.152 30.2124C11.152 30.2137 11.1519 30.215 11.1519 30.2163C11.1519 30.2332 11.1529 30.25 11.1543 30.2665C11.1545 30.2686 11.1544 30.2708 11.1546 30.2729C11.1567 30.2937 11.16 30.3142 11.1642 30.3343C11.1648 30.3369 11.1656 30.3393 11.1662 30.342C11.1701 30.3593 11.1747 30.3763 11.1802 30.393C11.1817 30.3977 11.1837 30.4025 11.1854 30.4072C11.1905 30.4215 11.196 30.4355 11.2022 30.4493C11.2048 30.4549 11.2076 30.4606 11.2104 30.4662C11.2166 30.4787 11.2232 30.491 11.2302 30.503C11.2337 30.5089 11.2371 30.5147 11.2408 30.5205C11.2482 30.5321 11.2562 30.5433 11.2644 30.5543C11.2672 30.5581 11.2695 30.5622 11.2725 30.566C11.2738 30.5675 11.2753 30.569 11.2766 30.5706C11.2866 30.583 11.2972 30.5948 11.3081 30.6064C11.311 30.6095 11.3137 30.6128 11.3168 30.6158C11.3308 30.63 11.3455 30.6432 11.361 30.6558C11.3651 30.6591 11.3694 30.662 11.3736 30.6652C11.3854 30.6743 11.3974 30.6831 11.4098 30.6912C11.4152 30.6947 11.4208 30.6979 11.4263 30.7012C11.4381 30.7084 11.4502 30.7153 11.4627 30.7215C11.4685 30.7244 11.4743 30.7272 11.4801 30.7299C11.4929 30.7358 11.5058 30.7412 11.5191 30.7462C11.5249 30.7484 11.5307 30.7506 11.5365 30.7526C11.5503 30.7573 11.5643 30.7613 11.5784 30.7649C11.5842 30.7664 11.5898 30.7681 11.5955 30.7693C11.6104 30.7726 11.6256 30.7751 11.641 30.7772C11.6462 30.7778 11.6512 30.7789 11.6565 30.7795C11.6769 30.7817 11.6976 30.7831 11.7185 30.7831H18.5506H23.036C23.3491 30.7831 23.6027 30.5293 23.6027 30.2163C23.6027 29.9034 23.3491 29.6496 23.036 29.6496H19.2736L19.9325 26.9729L29.844 26.9726C31.0389 26.9726 32.0112 26.0008 32.0112 24.8063V19.904C33.1482 19.7747 34.0346 18.8072 34.0346 17.6362V4.97468C34.0348 3.71577 33.0106 2.69173 31.7519 2.69173ZM24.1745 4.97468C24.1745 4.34088 24.6902 3.82523 25.3241 3.82523H31.7519C32.3857 3.82516 32.9014 4.34081 32.9014 4.97468V5.64278H24.1745V4.97468ZM24.1745 6.77608H32.9013V15.7632H32.6303L29.7785 12.6249C29.671 12.5068 29.5187 12.4393 29.3591 12.4393C29.1994 12.4393 29.0471 12.5067 28.9396 12.6249L28.13 13.5158L26.1194 11.3041C26.012 11.186 25.8597 11.1186 25.7 11.1186C25.5405 11.1186 25.3881 11.186 25.2807 11.3042L24.1745 12.5212V6.77608H24.1745ZM31.0988 15.7632H30.1731L28.8959 14.3584L29.3591 13.8488L31.0988 15.7632ZM24.1746 14.1611L24.1971 14.1815L25.7002 12.5279L28.6414 15.7632H24.1746V14.1611V14.1611ZM22.3613 4.97493C22.3613 4.3971 22.7899 3.91873 23.3454 3.8382C23.1523 4.17319 23.0411 4.56103 23.0411 4.97474V17.6361C23.0411 18.0494 23.1521 18.4372 23.345 18.772C22.7897 18.6913 22.3613 18.2134 22.3613 17.6361V4.97493H22.3613ZM4.42 20.3318L8.97901 15.6461L15.0399 22.3124H4.42V20.3318ZM13.9667 19.4463L15.3283 17.9479L19.2945 22.3123H16.5716V22.3124L13.9667 19.4463ZM3.54938 25.8392H3.25596C2.54545 25.8393 1.96742 25.2613 1.96742 24.5508V9.99857C1.96742 9.28806 2.54545 8.71003 3.25596 8.71003H3.54938C3.38189 9.01739 3.28657 9.36963 3.28657 9.74353V24.806C3.28657 25.1799 3.38182 25.5319 3.54938 25.8392ZM18.1065 29.6494H12.4417L13.1006 26.9727H18.7653L18.1065 29.6494ZM30.8779 24.8061C30.8779 25.3757 30.4142 25.8391 29.8442 25.8391H5.4537C4.88371 25.8391 4.42 25.3757 4.42 24.8061V23.4459H30.8779V24.8061ZM30.8779 22.3124H20.826L15.7478 16.7242C15.6404 16.606 15.4881 16.5386 15.3284 16.5386C15.1688 16.5386 15.0164 16.606 14.9091 16.7242L13.2008 18.6039L9.41231 14.4379C9.30713 14.3223 9.1589 14.2551 9.00262 14.2526C8.84478 14.252 8.69583 14.312 8.58689 14.424L4.42006 18.7066V9.7436C4.42006 9.17438 4.8826 8.71126 5.45156 8.71009H21.228V17.6361C21.228 18.8947 22.252 19.9187 23.5107 19.9187L30.878 19.9189V22.3124H30.8779ZM32.9014 17.636C32.9014 18.2699 32.3857 18.7855 31.7519 18.7855L25.3197 18.7853C24.6878 18.7829 24.1745 18.2684 24.1745 17.636V16.8966H32.9013V17.636H32.9014Z" fill="#80C904"/>
</g>
<defs>
<clipPath id="clip0_187_698">
<rect width="33.2006" height="33.2006" fill="white" transform="translate(0.833984 0.136719)"/>
</clipPath>
</defs>
</svg>
