<svg width="35" height="34" viewBox="0 0 35 34" fill="none" xmlns="http://www.w3.org/2000/svg">
<g clip-path="url(#clip0_61_454)">
<path d="M16.6959 9.552C15 9.552 13.6202 10.9318 13.6202 12.6277C13.6202 14.3236 15 15.7034 16.6959 15.7034C18.3919 15.7034 19.7716 14.3236 19.7716 12.6277C19.7715 10.9317 18.3918 9.552 16.6959 9.552ZM16.6959 14.5699C15.625 14.5699 14.7536 13.6986 14.7536 12.6276C14.7536 11.5566 15.6249 10.6854 16.6959 10.6854C17.7669 10.6854 18.6382 11.5567 18.6382 12.6276C18.6381 13.6986 17.7668 14.5699 16.6959 14.5699Z" fill="#80C904"/>
<path d="M30.1491 8.61505C29.0376 8.61505 28.1333 9.51938 28.1333 10.6309C28.1333 11.7424 29.0376 12.6467 30.1491 12.6467C31.2606 12.6467 32.165 11.7424 32.165 10.6309C32.1649 9.51938 31.2606 8.61505 30.1491 8.61505ZM30.1491 11.5133C29.6626 11.5133 29.2667 11.1174 29.2667 10.6309C29.2667 10.1444 29.6625 9.74848 30.1491 9.74848C30.6357 9.74848 31.0315 10.1444 31.0315 10.6309C31.0315 11.1175 30.6357 11.5133 30.1491 11.5133Z" fill="#80C904"/>
<path d="M31.7522 3.19107L23.511 3.19075C22.2523 3.19075 21.2283 4.21511 21.2283 5.47421V8.07594H17.8301C17.8293 8.07594 17.8287 8.07587 17.8279 8.07587H5.45407C5.45264 8.07587 5.45121 8.07594 5.44966 8.07594H3.25633C1.92084 8.07594 0.834354 9.16249 0.834354 10.4979V25.0501C0.834354 26.3856 1.92084 27.4721 3.25633 27.4721H11.9337L11.1686 30.58C11.168 30.5827 11.1677 30.5854 11.1671 30.588C11.164 30.6017 11.1616 30.6155 11.1594 30.6295C11.1584 30.6362 11.1572 30.6429 11.1563 30.6497C11.1548 30.6631 11.154 30.6768 11.1535 30.6907C11.1531 30.6976 11.1525 30.7047 11.1524 30.7117C11.1524 30.7131 11.1522 30.7144 11.1522 30.7157C11.1522 30.7326 11.1533 30.7493 11.1547 30.7658C11.1549 30.768 11.1548 30.7701 11.155 30.7723C11.157 30.793 11.1604 30.8135 11.1646 30.8336C11.1651 30.8362 11.166 30.8387 11.1666 30.8413C11.1705 30.8586 11.1751 30.8757 11.1806 30.8924C11.1821 30.8971 11.1841 30.9018 11.1857 30.9066C11.1909 30.9208 11.1964 30.9349 11.2026 30.9486C11.2052 30.9543 11.208 30.9599 11.2108 30.9655C11.217 30.978 11.2236 30.9903 11.2306 31.0023C11.2341 31.0082 11.2375 31.0141 11.2412 31.0198C11.2486 31.0314 11.2566 31.0427 11.2648 31.0537C11.2676 31.0574 11.2699 31.0615 11.2729 31.0653C11.2742 31.0669 11.2757 31.0683 11.277 31.0699C11.287 31.0824 11.2975 31.0942 11.3085 31.1057C11.3114 31.1088 11.3141 31.1121 11.3171 31.1152C11.3312 31.1293 11.3459 31.1426 11.3614 31.1551C11.3655 31.1584 11.3698 31.1613 11.3739 31.1646C11.3857 31.1737 11.3977 31.1824 11.4102 31.1906C11.4156 31.1941 11.4211 31.1973 11.4266 31.2006C11.4385 31.2078 11.4506 31.2146 11.4631 31.2209C11.4689 31.2238 11.4746 31.2265 11.4805 31.2292C11.4932 31.2352 11.5061 31.2406 11.5194 31.2456C11.5253 31.2478 11.531 31.25 11.5369 31.252C11.5506 31.2567 11.5646 31.2606 11.5788 31.2642C11.5845 31.2657 11.5901 31.2674 11.5958 31.2687C11.6108 31.272 11.626 31.2745 11.6414 31.2765C11.6465 31.2771 11.6516 31.2782 11.6568 31.2788C11.6773 31.281 11.698 31.2824 11.7189 31.2824H18.5509H23.0364C23.3494 31.2824 23.6031 31.0287 23.6031 30.7157C23.6031 30.4027 23.3494 30.149 23.0364 30.149H19.274L19.9329 27.4723L29.8444 27.472C31.0393 27.472 32.0115 26.5002 32.0115 25.3056V20.4033C33.1486 20.274 34.035 19.3066 34.035 18.1355V5.47402C34.0352 4.21511 33.011 3.19107 31.7522 3.19107ZM24.1749 5.47402C24.1749 4.84022 24.6906 4.32457 25.3244 4.32457H31.7522C32.3861 4.32451 32.9017 4.84016 32.9017 5.47402V6.14212H24.1749V5.47402ZM24.1749 7.27542H32.9017V16.2625H32.6307L29.7789 13.1243C29.6714 13.0061 29.5191 12.9387 29.3594 12.9387C29.1998 12.9387 29.0475 13.0061 28.94 13.1243L28.1304 14.0151L26.1198 11.8034C26.0124 11.6854 25.8601 11.6179 25.7004 11.6179C25.5408 11.6179 25.3885 11.6853 25.2811 11.8035L24.1749 13.0205V7.27542H24.1749ZM31.0992 16.2625H30.1734L28.8963 14.8577L29.3594 14.3481L31.0992 16.2625ZM24.175 14.6604L24.1975 14.6808L25.7005 13.0272L28.6418 16.2625H24.175V14.6604V14.6604ZM22.3617 5.47428C22.3617 4.89644 22.7903 4.41808 23.3457 4.33754C23.1526 4.67253 23.0414 5.06037 23.0414 5.47408V18.1354C23.0414 18.5488 23.1524 18.9366 23.3454 19.2714C22.7901 19.1906 22.3617 18.7127 22.3617 18.1354V5.47428H22.3617ZM4.42037 20.8311L8.97938 16.1454L15.0403 22.8118H4.42037V20.8311ZM13.967 19.9456L15.3287 18.4472L19.2949 22.8117H16.5719V22.8117L13.967 19.9456ZM3.54975 26.3386H3.25633C2.54582 26.3387 1.96779 25.7606 1.96779 25.0501V10.4979C1.96779 9.7874 2.54582 9.20937 3.25633 9.20937H3.54975C3.38226 9.51674 3.28694 9.86898 3.28694 10.2429V25.3053C3.28694 25.6792 3.38219 26.0313 3.54975 26.3386ZM18.1068 30.1488H12.4421L13.101 27.4721H18.7657L18.1068 30.1488ZM30.8783 25.3055C30.8783 25.875 30.4146 26.3384 29.8446 26.3384H5.45407C4.88408 26.3384 4.42037 25.8751 4.42037 25.3055V23.9452H30.8783V25.3055ZM30.8783 22.8118H20.8264L15.7482 17.2235C15.6408 17.1054 15.4885 17.038 15.3288 17.038C15.1691 17.038 15.0168 17.1053 14.9094 17.2235L13.2011 19.1032L9.41268 14.9372C9.3075 14.8216 9.15927 14.7545 9.00299 14.7519C8.84515 14.7514 8.6962 14.8113 8.58726 14.9233L4.42043 19.2059V10.2429C4.42043 9.67373 4.88297 9.2106 5.45193 9.20944H21.2283V18.1354C21.2283 19.394 22.2524 20.4181 23.5111 20.4181L30.8784 20.4183V22.8118H30.8783ZM32.9017 18.1353C32.9017 18.7692 32.3861 19.2848 31.7522 19.2848L25.32 19.2847C24.6882 19.2823 24.1749 18.7677 24.1749 18.1353V17.396H32.9017V18.1353H32.9017Z" fill="#80C904"/>
</g>
<defs>
<clipPath id="clip0_61_454">
<rect width="33.2006" height="33.2006" fill="white" transform="translate(0.834354 0.636215)"/>
</clipPath>
</defs>
</svg>
